<?xml version="1.0" encoding="utf-8"?>
<!-- Generator: Adobe Illustrator 22.0.1, SVG Export Plug-In . SVG Version: 6.00 Build 0)  -->
<svg version="1.1" id="Layer_1" xmlns="http://www.w3.org/2000/svg" xmlns:xlink="http://www.w3.org/1999/xlink" x="0px" y="0px"
	 viewBox="0 0 296.8 257" style="enable-background:new 0 0 296.8 257;" xml:space="preserve">
<style type="text/css">
	.st0{fill:#C6C4C7;}
	.st1{fill:#4C5C68;}
</style>
<path class="st0" d="M296.8,257H34.6c-3.3,0-6-2.7-6-6V41.1h2.6V251c0,1.9,1.5,3.4,3.4,3.4h262.1V257z"/>
<g>
	<path class="st1" d="M32.3,13c1-0.4,2,0.2,2.3,0.9c0.4,0.8,1.3,1.7,2.9,1.7c1.5,0,2.6-0.7,2.6-1.9c0-0.8-0.3-1.5-2.1-2l-2.1-0.6
		c-3.9-1.2-4.6-3.5-4.6-5.1c0-3.2,2.7-5.3,6.1-5.3c2.6,0,4.5,1.1,5.4,3c0.4,0.9,0.1,1.7-0.6,2.1c-0.9,0.6-1.8,0.3-2.4-0.4
		c-0.7-1-1.7-1.2-2.5-1.2C36,4.1,35,4.9,35,6c0,0.5,0.2,1.3,1.9,1.8L39,8.4c4.3,1.2,4.9,3.7,4.9,5.4c-0.1,3.5-3.2,5.2-6.4,5.2
		c-3.1,0-5.4-1.5-6.2-3.8C31.1,14.2,31.5,13.4,32.3,13z"/>
	<path class="st1" d="M56.2,17.9C55,18.7,53.5,19,52,19c-3.5,0-6.3-2.5-6.3-6.3c0-3.8,2.8-6.2,6.3-6.2c3.4,0,6.2,2.5,6.2,6.3
		c0,0.6-0.5,1.1-1.1,1.1h-7.8c0.2,1.4,1.7,2,3,2c0.7,0,1.3-0.1,2.1-0.6c0.8-0.6,1.8-0.4,2.3,0.2C57.3,16.2,57.1,17.4,56.2,17.9z
		 M54.6,11.6c-0.2-1.5-1.2-2.2-2.5-2.2c-1.3,0-2.4,0.7-2.7,2.2H54.6z"/>
	<path class="st1" d="M69.3,8.2c0-0.9,0.9-1.6,1.8-1.6c1,0,1.8,0.7,1.8,1.6v9.1c0,0.9-0.8,1.6-1.8,1.6c-1,0-1.8-0.7-1.8-1.6V17
		C68.5,18.3,67,19,65.7,19c-3.1,0-5.9-2.3-5.9-6.3s2.8-6.2,5.9-6.2c0.8,0,2.6,0.3,3.6,1.9V8.2z M66.4,15.8c1.6,0,2.9-1.4,2.9-3
		c0-1.6-1.3-3-2.9-3c-1.8,0-2.8,1.4-2.8,3C63.5,14.3,64.6,15.8,66.4,15.8z"/>
	<path class="st1" d="M84.9,8.4c-0.1,0.9-1,1.3-1.8,1.3c-0.3,0-0.6,0-0.9,0c-2,0-2.7,1.5-2.7,4.6v3c0,0.9-0.8,1.6-1.8,1.6
		c-1,0-1.8-0.7-1.8-1.6V8.2c0-0.9,0.9-1.6,1.8-1.6c1,0,1.8,0.7,1.8,1.6v1.3c0.7-2.2,1.9-3,3.2-3C83.9,6.4,85.2,6.7,84.9,8.4z"/>
	<path class="st1" d="M92.3,15.5c0.6,0,1.3-0.2,1.8-0.5c0.6-0.4,1.7-0.5,2.3,0.1c0.7,0.7,0.6,2-0.2,2.6c-1.1,0.8-2.5,1.2-3.9,1.2
		c-3.5,0-6.6-2.4-6.6-6.2v-0.1c0-3.8,3.1-6.2,6.6-6.2c1.4,0,2.8,0.4,3.9,1.2c0.9,0.6,1,1.9,0.2,2.6c-0.6,0.6-1.7,0.5-2.3,0.1
		c-0.5-0.3-1.1-0.5-1.8-0.5c-1.5,0-2.9,1.1-2.9,2.7v0.1C89.4,14.4,90.8,15.5,92.3,15.5z"/>
	<path class="st1" d="M107.5,12.3c0-1.6-1.1-2.4-2.2-2.4c-1.1,0-2.4,0.6-2.4,2.4v4.9c0,0.9-0.8,1.6-1.8,1.6c-1,0-1.8-0.7-1.8-1.6
		V1.6c0-0.9,0.9-1.6,1.8-1.6c1,0,1.8,0.7,1.8,1.6v7c0.5-1.5,2.2-2.1,3.4-2.1c3.2,0,4.8,2.1,4.8,5.7v5.1c0,0.9-0.8,1.6-1.8,1.6
		c-1,0-1.8-0.7-1.8-1.6V12.3z"/>
	<path class="st1" d="M123.9,17.9c-1.2,0.8-2.7,1.1-4.2,1.1c-3.5,0-6.3-2.5-6.3-6.3c0-3.8,2.8-6.2,6.3-6.2c3.4,0,6.2,2.5,6.2,6.3
		c0,0.6-0.5,1.1-1.1,1.1h-7.8c0.2,1.4,1.7,2,3,2c0.7,0,1.3-0.1,2.1-0.6c0.8-0.6,1.8-0.4,2.3,0.2C125.1,16.2,124.8,17.4,123.9,17.9z
		 M122.3,11.6c-0.2-1.5-1.2-2.2-2.5-2.2c-1.3,0-2.4,0.7-2.7,2.2H122.3z"/>
	<path class="st1" d="M128.2,14.6c0.8-0.4,1.5,0,1.9,0.4c0.6,0.7,1.4,1.1,2.3,1.1c0.8,0,1.5-0.1,1.5-0.7c0-0.5-0.3-0.7-1.2-1
		l-1.4-0.5c-3.6-1.2-3.6-2.9-3.6-4c0-1.8,2.1-3.4,4.7-3.4c1.7,0,3.5,0.5,4.3,2c0.4,0.8,0.2,1.5-0.3,1.8c-0.8,0.5-1.5,0.3-2.3-0.3
		c-0.5-0.4-1-0.5-1.4-0.5c-0.8,0-1.3,0.3-1.3,0.7c0,0.4,0.3,0.6,1,0.9l1.8,0.6c2.9,1,3.3,2.8,3.3,3.6c0,2.6-2.7,3.8-5.2,3.8
		c-1.9,0-4.2-0.8-4.8-2.6C127.3,15.7,127.6,14.9,128.2,14.6z"/>
</g>
<g>
	<path class="st1" d="M0.6,176l0.1-13.4l3.4,0l0,4.8l14.4,0.1l0,3.8L4,171.2l0,4.8L0.6,176z"/>
	<path class="st1" d="M12.4,162.9c-3.8,0-6.2-2.9-6.2-6.3c0-3.4,2.5-6.3,6.3-6.2s6.3,2.9,6.2,6.3C18.6,160.1,16.2,163,12.4,162.9z
		 M12.4,154c-1.6,0-2.7,1.2-2.7,2.7c0,1.5,1.1,2.7,2.7,2.7c1.7,0,2.8-1.2,2.8-2.7C15.2,155.2,14.1,154,12.4,154z"/>
	<path class="st1" d="M6.5,140.7l2.8,0l0,2.5l9.2,0l0,3.6l-9.2,0l0,2.2l-2.8,0l0-2.2l-4.6,0l0-3.6l4.6,0L6.5,140.7z"/>
	<path class="st1" d="M17.2,129.8c1.2,0.8,1.6,2.6,1.6,3.5c0,3.1-2.4,6.1-6.3,6.1c-3.9,0-6.3-3.1-6.2-6.2c0-0.8,0.3-2.6,1.6-3.5
		l-1.3,0l0-3.6l12,0.1l0,3.6L17.2,129.8z M15.4,132.8c0-1.5-1-2.9-2.9-2.9c-1.8,0-2.9,1.4-2.9,2.9c0,1.5,1.1,3,2.8,3
		C14.2,135.8,15.4,134.2,15.4,132.8z"/>
	<path class="st1" d="M0,119.3l18.6,0.1l0,3.6L0,122.9L0,119.3z"/>
</g>
<path class="st1" d="M286.5,71c0-1.8-1.5-3.3-3.3-3.3c-1.1,0-2,0.5-2.6,1.3l0,0L170.2,185.7l-42.8-39.5L29.6,251.4l4.8,4.5
	l93.3-100.4l43.1,39.8L285.8,73.2l0,0C286.2,72.6,286.5,71.8,286.5,71z"/>
</svg>
