<?xml version="1.0" encoding="UTF-8"?>
<svg width="256px" height="234px" viewBox="0 0 256 234" version="1.1" xmlns="http://www.w3.org/2000/svg" xmlns:xlink="http://www.w3.org/1999/xlink">
    <!-- Generator: Sketch 48.2 (47327) - http://www.bohemiancoding.com/sketch -->
    <title>Page 1</title>
    <desc>Created with Sketch.</desc>
    <defs>
        <polygon id="path-1" points="0 233.405 255.92 233.405 255.92 0 0 0"></polygon>
    </defs>
    <g id="Users-LP" stroke="none" stroke-width="1" fill="none" fill-rule="evenodd" transform="translate(-565.000000, -1390.000000)">
        <g id="Page-1" transform="translate(565.000000, 1390.000000)">
            <path d="M82.3789,32.2377 C80.8299,34.5867 78.1199,36.1357 74.8939,36.1357 C69.8079,36.1357 65.9609,32.0307 65.9609,27.0227 C65.9609,21.9637 69.8079,17.8847 74.8939,17.8847 C78.0679,17.8847 80.7529,19.3817 82.3019,21.6537 L79.2299,23.7707 C78.2749,22.3767 76.7259,21.4467 74.8939,21.4467 C71.9249,21.4467 69.7559,23.9247 69.7559,27.0227 C69.7559,30.0947 71.9249,32.5727 74.8939,32.5727 C76.7519,32.5727 78.3779,31.5667 79.3329,30.1207 L82.3789,32.2377 Z" id="Fill-1" fill="#4C5C68"></path>
            <path d="M92.8594,29.8109 C92.8594,28.1849 91.6204,27.0749 90.1234,27.0749 C88.6514,27.0749 87.4124,28.1849 87.4124,29.8109 C87.4124,31.4889 88.6514,32.5729 90.1234,32.5729 C91.6204,32.5729 92.8594,31.4889 92.8594,29.8109 M83.8754,29.8109 C83.8754,26.0159 86.7154,23.5639 90.1234,23.5639 C93.5304,23.5639 96.3954,26.0159 96.3954,29.8109 C96.3954,33.6059 93.5304,36.0839 90.1234,36.0839 C86.7154,36.0839 83.8754,33.6059 83.8754,29.8109" id="Fill-3" fill="#4C5C68"></path>
            <path d="M102.5644,35.8773 L98.9764,35.8773 L98.9764,23.8223 L102.5644,23.8223 L102.5644,25.5773 C103.2104,24.3643 104.6294,23.5643 106.0494,23.5643 C108.7594,23.5643 110.4634,25.2423 110.4634,28.6753 L110.4634,35.8773 L106.8764,35.8773 L106.8764,29.4493 C106.8764,27.8493 105.9984,27.0493 104.7854,27.0493 C103.5194,27.0493 102.5644,27.6683 102.5644,29.5013 L102.5644,35.8773 Z" id="Fill-5" fill="#4C5C68"></path>
            <path d="M119.4463,26.9457 C117.9243,26.9457 116.6593,28.0817 116.6593,29.8107 C116.6593,31.5917 117.9243,32.7277 119.4463,32.7277 C120.9443,32.7277 122.2343,31.5407 122.2343,29.8107 C122.2343,28.0037 120.9183,26.9457 119.4463,26.9457 Z M122.3113,35.8777 L122.3113,34.3807 C121.7183,35.4897 120.2723,36.1357 118.7753,36.1357 C115.6773,36.1357 112.9413,33.6837 112.9413,29.8887 C112.9413,26.0167 115.6773,23.5637 118.7753,23.5637 C120.2723,23.5637 121.7183,24.1837 122.3113,25.2937 L122.3113,17.2657 L125.8753,17.2657 L125.8753,35.8777 L122.3113,35.8777 Z" id="Fill-7" fill="#4C5C68"></path>
            <mask id="mask-2" fill="white">
                <use xlink:href="#path-1"></use>
            </mask>
            <g id="Clip-10"></g>
            <path d="M129.177,35.877 L132.74,35.877 L132.74,23.822 L129.177,23.822 L129.177,35.877 Z M130.959,17.265 C132.173,17.265 133.153,18.169 133.153,19.356 C133.153,20.544 132.173,21.473 130.959,21.473 C129.746,21.473 128.713,20.544 128.713,19.356 C128.713,18.169 129.746,17.265 130.959,17.265 Z" id="Fill-9" fill="#4C5C68" mask="url(#mask-2)"></path>
            <polygon id="Fill-11" fill="#4C5C68" mask="url(#mask-2)" points="143.2715 23.8219 143.2715 26.6619 140.7425 26.6619 140.7425 35.8769 137.1795 35.8769 137.1795 26.6619 134.9855 26.6619 134.9855 23.8219 137.1795 23.8219 137.1795 19.2009 140.7425 19.2009 140.7425 23.8219"></polygon>
            <path d="M145.465,35.877 L149.028,35.877 L149.028,23.822 L145.465,23.822 L145.465,35.877 Z M147.246,17.265 C148.46,17.265 149.44,18.169 149.44,19.356 C149.44,20.544 148.46,21.473 147.246,21.473 C146.033,21.473 145.001,20.544 145.001,19.356 C145.001,18.169 146.033,17.265 147.246,17.265 Z" id="Fill-12" fill="#4C5C68" mask="url(#mask-2)"></path>
            <path d="M160.5928,29.8109 C160.5928,28.1849 159.3538,27.0749 157.8568,27.0749 C156.3848,27.0749 155.1458,28.1849 155.1458,29.8109 C155.1458,31.4889 156.3848,32.5729 157.8568,32.5729 C159.3538,32.5729 160.5928,31.4889 160.5928,29.8109 M151.6088,29.8109 C151.6088,26.0159 154.4488,23.5639 157.8568,23.5639 C161.2638,23.5639 164.1288,26.0159 164.1288,29.8109 C164.1288,33.6059 161.2638,36.0839 157.8568,36.0839 C154.4488,36.0839 151.6088,33.6059 151.6088,29.8109" id="Fill-13" fill="#4C5C68" mask="url(#mask-2)"></path>
            <path d="M170.2978,35.8773 L166.7098,35.8773 L166.7098,23.8223 L170.2978,23.8223 L170.2978,25.5773 C170.9438,24.3643 172.3628,23.5643 173.7828,23.5643 C176.4928,23.5643 178.1968,25.2423 178.1968,28.6753 L178.1968,35.8773 L174.6098,35.8773 L174.6098,29.4493 C174.6098,27.8493 173.7318,27.0493 172.5188,27.0493 C171.2538,27.0493 170.2978,27.6683 170.2978,29.5013 L170.2978,35.8773 Z" id="Fill-14" fill="#4C5C68" mask="url(#mask-2)"></path>
            <path d="M184.4951,30.921 C180.8811,29.94 180.8551,28.107 180.8811,26.997 C180.9071,25.216 183.0501,23.564 185.5801,23.564 C187.9801,23.564 190.5101,24.622 190.5361,27.565 L187.1541,27.565 C187.1281,26.662 186.3531,26.507 185.7861,26.507 C185.0121,26.507 184.4951,26.868 184.5201,27.41 C184.5471,27.772 184.8561,28.133 185.5801,28.314 L187.6191,28.856 C190.5361,29.656 190.8971,31.592 190.8971,32.367 C190.8971,34.922 188.2121,36.136 185.6821,36.136 C183.2301,36.136 180.6741,34.664 180.6481,31.979 L184.0051,31.979 C184.0301,32.676 184.8051,33.373 185.7861,33.373 C186.5861,33.348 187.2571,32.986 187.2571,32.367 C187.2571,31.85 186.9471,31.566 186.0691,31.334 L184.4951,30.921 Z" id="Fill-15" fill="#4C5C68" mask="url(#mask-2)"></path>
            <path d="M26.9717,2.6473 C13.5597,2.6473 2.6477,13.5593 2.6477,26.9713 C2.6477,40.3843 13.5597,51.2963 26.9717,51.2963 C40.3847,51.2963 51.2957,40.3843 51.2957,26.9713 C51.2957,13.5593 40.3847,2.6473 26.9717,2.6473 M26.9717,53.9433 C12.0997,53.9433 -0.0003,41.8443 -0.0003,26.9713 C-0.0003,12.0993 12.0997,0.0003 26.9717,0.0003 C41.8447,0.0003 53.9437,12.0993 53.9437,26.9713 C53.9437,41.8443 41.8447,53.9433 26.9717,53.9433" id="Fill-16" fill="#C5C3C6" mask="url(#mask-2)"></path>
            <path d="M40.8779,21.8959 L40.8779,34.9679 C40.8779,35.6489 40.6399,36.2269 40.1629,36.7039 C39.6869,37.1809 39.1069,37.4189 38.4269,37.4189 L37.6099,37.4189 L37.6099,19.4449 L38.4269,19.4449 C39.1069,19.4449 39.6869,19.6829 40.1629,20.1599 C40.6399,20.6369 40.8779,21.2149 40.8779,21.8959 Z M24.5379,19.4449 L31.0739,19.4449 L31.0739,17.8109 L24.5379,17.8109 L24.5379,19.4449 Z M32.7079,26.7979 L32.7079,28.4319 C32.7079,28.6709 32.6319,28.8659 32.4789,29.0189 C32.3249,29.1719 32.1289,29.2489 31.8909,29.2489 L29.4399,29.2489 L29.4399,31.6999 C29.4399,31.9389 29.3629,32.1339 29.2099,32.2869 C29.0569,32.4399 28.8599,32.5169 28.6229,32.5169 L26.9879,32.5169 C26.7499,32.5169 26.5549,32.4399 26.4009,32.2869 C26.2489,32.1339 26.1719,31.9389 26.1719,31.6999 L26.1719,29.2489 L23.7209,29.2489 C23.4819,29.2489 23.2869,29.1719 23.1339,29.0189 C22.9809,28.8659 22.9029,28.6709 22.9029,28.4319 L22.9029,26.7979 C22.9029,26.5599 22.9809,26.3639 23.1339,26.2109 C23.2869,26.0579 23.4819,25.9809 23.7209,25.9809 L26.1719,25.9809 L26.1719,23.5299 C26.1719,23.2919 26.2489,23.0959 26.4009,22.9429 C26.5549,22.7899 26.7499,22.7129 26.9879,22.7129 L28.6229,22.7129 C28.8599,22.7129 29.0569,22.7899 29.2099,22.9429 C29.3629,23.0959 29.4399,23.2919 29.4399,23.5299 L29.4399,25.9809 L31.8909,25.9809 C32.1289,25.9809 32.3249,26.0579 32.4789,26.2109 C32.6319,26.3639 32.7079,26.5599 32.7079,26.7979 Z M19.6359,37.4189 L35.9759,37.4189 L35.9759,19.4449 L34.3419,19.4449 L34.3419,16.9939 C34.3419,16.3129 34.1039,15.7349 33.6269,15.2579 C33.1499,14.7809 32.5709,14.5429 31.8909,14.5429 L23.7209,14.5429 C23.0389,14.5429 22.4609,14.7809 21.9839,15.2579 C21.5079,15.7349 21.2699,16.3129 21.2699,16.9939 L21.2699,19.4449 L19.6359,19.4449 L19.6359,37.4189 Z M18.0019,37.4189 L17.1849,37.4189 C16.5029,37.4189 15.9249,37.1809 15.4479,36.7039 C14.9719,36.2269 14.7329,35.6489 14.7329,34.9679 L14.7329,21.8959 C14.7329,21.2149 14.9719,20.6369 15.4479,20.1599 C15.9249,19.6829 16.5029,19.4449 17.1849,19.4449 L18.0019,19.4449 L18.0019,37.4189 Z" id="Fill-17" fill="#4C5C68" mask="url(#mask-2)"></path>
            <path d="M7.7051,224.3182 C9.1771,224.3182 10.6221,223.2602 10.6221,221.4532 C10.6221,219.6462 9.1771,218.5872 7.7051,218.5872 C6.2081,218.5872 4.6841,219.7232 4.6841,221.4532 C4.6841,223.1822 6.2081,224.3182 7.7051,224.3182 Z M10.6221,226.1252 C9.8481,227.2872 8.0401,227.7252 7.1111,227.7252 C4.0391,227.7252 0.9671,225.3252 0.9671,221.4532 C0.9671,217.5802 4.0391,215.1802 7.1111,215.1802 C7.8861,215.1802 9.6921,215.4382 10.6221,216.7802 L10.6221,215.4382 L14.1841,215.4382 L14.1841,227.4932 L10.6221,227.4932 L10.6221,226.1252 Z" id="Fill-18" fill="#4C5C68" mask="url(#mask-2)"></path>
            <path d="M21.0762,227.4935 L17.4882,227.4935 L17.4882,215.4385 L21.0762,215.4385 L21.0762,217.1935 C21.7222,215.9805 23.1412,215.1805 24.5612,215.1805 C27.2712,215.1805 28.9752,216.8585 28.9752,220.2915 L28.9752,227.4935 L25.3882,227.4935 L25.3882,221.0655 C25.3882,219.4655 24.5102,218.6645 23.2972,218.6645 C22.0312,218.6645 21.0762,219.2845 21.0762,221.1175 L21.0762,227.4935 Z" id="Fill-19" fill="#4C5C68" mask="url(#mask-2)"></path>
            <path d="M37.958,218.5616 C36.435,218.5616 35.17,219.6976 35.17,221.4266 C35.17,223.2086 36.435,224.3436 37.958,224.3436 C39.455,224.3436 40.746,223.1566 40.746,221.4266 C40.746,219.6206 39.43,218.5616 37.958,218.5616 Z M40.823,227.4936 L40.823,225.9966 C40.229,227.1066 38.784,227.7516 37.287,227.7516 C34.189,227.7516 31.452,225.2996 31.452,221.5046 C31.452,217.6326 34.189,215.1796 37.287,215.1796 C38.784,215.1796 40.229,215.7996 40.823,216.9096 L40.823,208.8816 L44.386,208.8816 L44.386,227.4936 L40.823,227.4936 Z" id="Fill-20" fill="#4C5C68" mask="url(#mask-2)"></path>
            <path d="M65.2422,221.1173 L65.2422,227.4933 L61.6542,227.4933 L61.6542,220.9883 C61.6292,219.4653 60.6992,218.6653 59.6672,218.6653 C58.5832,218.6653 57.5762,219.2843 57.5762,221.1173 L57.5762,227.4933 L53.9872,227.4933 L53.9872,215.4383 L57.5762,215.4383 L57.5762,217.1933 C58.1432,215.9283 59.4342,215.2053 60.7242,215.2053 C62.6362,215.2053 63.9272,215.9283 64.5972,217.3223 C65.7592,215.4383 67.3592,215.1803 68.2112,215.1803 C71.0762,215.1803 72.8582,217.0133 72.8582,220.6523 L72.8582,227.4933 L69.2962,227.4933 L69.2962,221.0653 C69.2962,219.4913 68.3662,218.6653 67.3072,218.6653 C66.1722,218.6653 65.2422,219.3623 65.2422,221.1173" id="Fill-21" fill="#4C5C68" mask="url(#mask-2)"></path>
            <path d="M82.0469,224.3182 C83.5189,224.3182 84.9639,223.2602 84.9639,221.4532 C84.9639,219.6462 83.5189,218.5872 82.0469,218.5872 C80.5499,218.5872 79.0259,219.7232 79.0259,221.4532 C79.0259,223.1822 80.5499,224.3182 82.0469,224.3182 Z M84.9639,226.1252 C84.1899,227.2872 82.3819,227.7252 81.4529,227.7252 C78.3809,227.7252 75.3089,225.3252 75.3089,221.4532 C75.3089,217.5802 78.3809,215.1802 81.4529,215.1802 C82.2279,215.1802 84.0339,215.4382 84.9639,216.7802 L84.9639,215.4382 L88.5259,215.4382 L88.5259,227.4932 L84.9639,227.4932 L84.9639,226.1252 Z" id="Fill-22" fill="#4C5C68" mask="url(#mask-2)"></path>
            <path d="M95.418,227.4935 L91.83,227.4935 L91.83,215.4385 L95.418,215.4385 L95.418,217.1935 C96.064,215.9805 97.483,215.1805 98.903,215.1805 C101.614,215.1805 103.317,216.8585 103.317,220.2915 L103.317,227.4935 L99.73,227.4935 L99.73,221.0655 C99.73,219.4655 98.852,218.6645 97.639,218.6645 C96.374,218.6645 95.418,219.2845 95.418,221.1175 L95.418,227.4935 Z" id="Fill-23" fill="#4C5C68" mask="url(#mask-2)"></path>
            <polygon id="Fill-24" fill="#4C5C68" mask="url(#mask-2)" points="110.3125 233.4049 106.5175 233.4049 109.4095 226.2549 104.7625 215.4379 108.5835 215.4379 111.2415 222.2789 113.9265 215.4379 117.7475 215.4379"></polygon>
            <path d="M136.4355,221.1173 L136.4355,227.4933 L132.8475,227.4933 L132.8475,220.9883 C132.8225,219.4653 131.8925,218.6653 130.8605,218.6653 C129.7765,218.6653 128.7695,219.2843 128.7695,221.1173 L128.7695,227.4933 L125.1815,227.4933 L125.1815,215.4383 L128.7695,215.4383 L128.7695,217.1933 C129.3365,215.9283 130.6275,215.2053 131.9175,215.2053 C133.8295,215.2053 135.1205,215.9283 135.7905,217.3223 C136.9525,215.4383 138.5525,215.1803 139.4045,215.1803 C142.2705,215.1803 144.0515,217.0133 144.0515,220.6523 L144.0515,227.4933 L140.4895,227.4933 L140.4895,221.0653 C140.4895,219.4913 139.5595,218.6653 138.5005,218.6653 C137.3655,218.6653 136.4355,219.3623 136.4355,221.1173" id="Fill-25" fill="#4C5C68" mask="url(#mask-2)"></path>
            <path d="M155.4853,221.4271 C155.4853,219.8011 154.2473,218.6911 152.7503,218.6911 C151.2783,218.6911 150.0393,219.8011 150.0393,221.4271 C150.0393,223.1051 151.2783,224.1891 152.7503,224.1891 C154.2473,224.1891 155.4853,223.1051 155.4853,221.4271 M146.5033,221.4271 C146.5033,217.6321 149.3413,215.1801 152.7503,215.1801 C156.1573,215.1801 159.0223,217.6321 159.0223,221.4271 C159.0223,225.2221 156.1573,227.7001 152.7503,227.7001 C149.3413,227.7001 146.5033,225.2221 146.5033,221.4271" id="Fill-26" fill="#4C5C68" mask="url(#mask-2)"></path>
            <path d="M165.1914,227.4935 L161.6034,227.4935 L161.6034,215.4385 L165.1914,215.4385 L165.1914,218.3555 C165.8114,216.1095 167.3604,215.1805 168.5994,215.1805 C169.4514,215.1805 170.0964,215.3345 170.6654,215.6185 L170.0184,218.8455 C169.3744,218.5355 168.7544,218.4845 168.1864,218.4845 C166.1214,218.4845 165.1914,220.1105 165.1914,223.2855 L165.1914,227.4935 Z" id="Fill-27" fill="#4C5C68" mask="url(#mask-2)"></path>
            <path d="M180.4473,220.3944 C180.2663,218.9234 178.9253,218.3294 177.9183,218.3294 C176.9113,218.3294 175.5433,218.8714 175.2333,220.3944 L180.4473,220.3944 Z M183.3903,225.2994 C182.1763,227.1064 179.9303,227.7514 177.8913,227.7514 C174.4323,227.7514 171.5933,225.2214 171.5933,221.4274 C171.5933,217.6324 174.4323,215.1804 177.8913,215.1804 C181.3253,215.1804 184.0613,217.7354 184.0613,221.5304 C184.0613,221.8404 184.0353,222.3304 184.0103,222.6404 L175.1813,222.6404 C175.3613,224.0344 176.8853,224.6544 178.1503,224.6544 C179.1313,224.6544 180.1893,224.2924 180.7833,223.5184 L183.3903,225.2994 Z" id="Fill-28" fill="#4C5C68" mask="url(#mask-2)"></path>
            <path d="M188.4492,223.4406 C189.6632,223.4406 190.6952,224.3446 190.6952,225.5836 C190.6952,226.8486 189.6632,227.7516 188.4492,227.7516 C187.2352,227.7516 186.2292,226.8486 186.2292,225.5836 C186.2292,224.3446 187.2352,223.4406 188.4492,223.4406" id="Fill-29" fill="#4C5C68" mask="url(#mask-2)"></path>
            <path d="M195.6504,223.4406 C196.8644,223.4406 197.8964,224.3446 197.8964,225.5836 C197.8964,226.8486 196.8644,227.7516 195.6504,227.7516 C194.4374,227.7516 193.4304,226.8486 193.4304,225.5836 C193.4304,224.3446 194.4374,223.4406 195.6504,223.4406" id="Fill-30" fill="#4C5C68" mask="url(#mask-2)"></path>
            <path d="M202.8525,223.4406 C204.0665,223.4406 205.0985,224.3446 205.0985,225.5836 C205.0985,226.8486 204.0665,227.7516 202.8525,227.7516 C201.6395,227.7516 200.6325,226.8486 200.6325,225.5836 C200.6325,224.3446 201.6395,223.4406 202.8525,223.4406" id="Fill-31" fill="#4C5C68" mask="url(#mask-2)"></path>
            <polygon id="Fill-32" fill="#4C5C68" mask="url(#mask-2)" points="82.0176 84.1144 85.1936 84.1144 87.3616 101.9004 83.5676 101.9004 82.3286 91.2394 78.1716 99.8614 75.2546 99.8614 71.0726 91.2394 69.8076 101.9004 66.0126 101.9004 68.2066 84.1144 71.3296 84.1144 76.7006 95.5764"></polygon>
            <path d="M98.2031,95.8341 C98.2031,94.2081 96.9641,93.0981 95.4671,93.0981 C93.9951,93.0981 92.7561,94.2081 92.7561,95.8341 C92.7561,97.5121 93.9951,98.5961 95.4671,98.5961 C96.9641,98.5961 98.2031,97.5121 98.2031,95.8341 M89.2201,95.8341 C89.2201,92.0391 92.0591,89.5871 95.4671,89.5871 C98.8741,89.5871 101.7401,92.0391 101.7401,95.8341 C101.7401,99.6291 98.8741,102.1071 95.4671,102.1071 C92.0591,102.1071 89.2201,99.6291 89.2201,95.8341" id="Fill-33" fill="#4C5C68" mask="url(#mask-2)"></path>
            <path d="M107.9092,101.9005 L104.3202,101.9005 L104.3202,89.8455 L107.9092,89.8455 L107.9092,91.6005 C108.5542,90.3875 109.9732,89.5875 111.3932,89.5875 C114.1042,89.5875 115.8072,91.2655 115.8072,94.6985 L115.8072,101.9005 L112.2202,101.9005 L112.2202,95.4725 C112.2202,93.8725 111.3422,93.0715 110.1292,93.0715 C108.8632,93.0715 107.9092,93.6915 107.9092,95.5245 L107.9092,101.9005 Z" id="Fill-34" fill="#4C5C68" mask="url(#mask-2)"></path>
            <path d="M127.1142,94.8016 C126.9322,93.3306 125.5912,92.7366 124.5842,92.7366 C123.5772,92.7366 122.2092,93.2786 121.8992,94.8016 L127.1142,94.8016 Z M130.0562,99.7066 C128.8432,101.5136 126.5972,102.1586 124.5582,102.1586 C121.0982,102.1586 118.2592,99.6286 118.2592,95.8336 C118.2592,92.0396 121.0982,89.5866 124.5582,89.5866 C127.9912,89.5866 130.7272,92.1426 130.7272,95.9376 C130.7272,96.2476 130.7022,96.7376 130.6762,97.0476 L121.8472,97.0476 C122.0282,98.4416 123.5512,99.0606 124.8162,99.0606 C125.7972,99.0606 126.8552,98.6996 127.4492,97.9256 L130.0562,99.7066 Z" id="Fill-35" fill="#4C5C68" mask="url(#mask-2)"></path>
            <polygon id="Fill-36" fill="#4C5C68" mask="url(#mask-2)" points="136.9482 107.8121 133.1532 107.8121 136.0452 100.6611 131.3982 89.8451 135.2192 89.8451 137.8772 96.6861 140.5622 89.8451 144.3832 89.8451"></polygon>
            <path d="M26.9717,68.6705 C13.5597,68.6705 2.6477,79.5825 2.6477,92.9945 C2.6477,106.4075 13.5597,117.3195 26.9717,117.3195 C40.3847,117.3195 51.2957,106.4075 51.2957,92.9945 C51.2957,79.5825 40.3847,68.6705 26.9717,68.6705 M26.9717,119.9665 C12.0997,119.9665 -0.0003,107.8675 -0.0003,92.9945 C-0.0003,78.1225 12.0997,66.0235 26.9717,66.0235 C41.8447,66.0235 53.9437,78.1225 53.9437,92.9945 C53.9437,107.8675 41.8447,119.9665 26.9717,119.9665" id="Fill-37" fill="#C5C3C6" mask="url(#mask-2)"></path>
            <path d="M34.4639,96.7218 C34.5759,96.8338 34.6319,96.9688 34.6319,97.1288 L34.6319,102.1028 C34.6319,102.2628 34.5759,102.3978 34.4639,102.5098 C34.3529,102.6208 34.2169,102.6768 34.0579,102.6768 L19.8999,102.6768 C19.7389,102.6768 19.6049,102.6208 19.4929,102.5098 C19.3809,102.3978 19.3249,102.2628 19.3249,102.1028 L19.3249,100.1898 C19.3249,100.0308 19.3809,99.8958 19.4929,99.7828 C19.6049,99.6718 19.7389,99.6158 19.8999,99.6158 L21.6209,99.6158 L21.6209,93.4928 L20.2819,93.4928 C20.1219,93.4928 19.9869,93.4378 19.8749,93.3258 C19.7639,93.2148 19.7079,93.0788 19.7079,92.9198 L19.7079,91.0058 C19.7079,90.8468 19.7639,90.7118 19.8749,90.5998 C19.9869,90.4878 20.1219,90.4318 20.2819,90.4318 L21.6209,90.4318 L21.6209,87.2748 C21.6209,86.1278 21.9079,85.0918 22.4829,84.1658 C23.0559,83.2418 23.8539,82.5238 24.8739,82.0138 C25.8949,81.5038 27.0419,81.2488 28.3179,81.2488 C29.3379,81.2488 30.3429,81.4558 31.3309,81.8698 C32.0009,82.1568 32.6219,82.5088 33.1959,82.9228 C33.3239,83.0178 33.3959,83.1458 33.4119,83.3048 C33.4279,83.4648 33.3879,83.6088 33.2919,83.7358 L31.9049,85.4578 C31.8099,85.5528 31.6899,85.6178 31.5459,85.6488 C31.4019,85.6808 31.2669,85.6488 31.1399,85.5528 C30.1829,84.9478 29.2669,84.6448 28.3899,84.6448 C27.5129,84.6448 26.8029,84.9078 26.2609,85.4338 C25.7189,85.9598 25.4469,86.6058 25.4469,87.3708 L25.4469,90.4318 L29.4659,90.4318 C29.6249,90.4318 29.7609,90.4878 29.8719,90.5998 C29.9849,90.7118 30.0399,90.8468 30.0399,91.0058 L30.0399,92.9198 C30.0399,93.0788 29.9849,93.2148 29.8719,93.3258 C29.7609,93.4378 29.6249,93.4928 29.4659,93.4928 L25.4469,93.4928 L25.4469,99.5678 L31.3309,99.5678 L31.3309,97.1288 C31.3309,96.9688 31.3869,96.8338 31.4979,96.7218 C31.6099,96.6108 31.7449,96.5548 31.9049,96.5548 L34.0579,96.5548 C34.2169,96.5548 34.3529,96.6108 34.4639,96.7218" id="Fill-38" fill="#4C5C68" mask="url(#mask-2)"></path>
            <polygon id="Fill-39" fill="#4C5C68" mask="url(#mask-2)" points="66.9941 150.1376 78.1201 150.1376 78.1201 153.4676 70.7881 153.4676 70.7881 157.5206 76.5971 157.5206 76.5971 160.8246 70.7881 160.8246 70.7881 167.9236 66.9941 167.9236"></polygon>
            <path d="M87.8252,161.8573 C87.8252,160.2313 86.5862,159.1213 85.0892,159.1213 C83.6172,159.1213 82.3782,160.2313 82.3782,161.8573 C82.3782,163.5353 83.6172,164.6193 85.0892,164.6193 C86.5862,164.6193 87.8252,163.5353 87.8252,161.8573 M78.8422,161.8573 C78.8422,158.0623 81.6812,155.6103 85.0892,155.6103 C88.4972,155.6103 91.3622,158.0623 91.3622,161.8573 C91.3622,165.6523 88.4972,168.1303 85.0892,168.1303 C81.6812,168.1303 78.8422,165.6523 78.8422,161.8573" id="Fill-40" fill="#4C5C68" mask="url(#mask-2)"></path>
            <path d="M102.2031,161.8573 C102.2031,160.2313 100.9641,159.1213 99.4671,159.1213 C97.9951,159.1213 96.7561,160.2313 96.7561,161.8573 C96.7561,163.5353 97.9951,164.6193 99.4671,164.6193 C100.9641,164.6193 102.2031,163.5353 102.2031,161.8573 M93.2201,161.8573 C93.2201,158.0623 96.0591,155.6103 99.4671,155.6103 C102.8751,155.6103 105.7401,158.0623 105.7401,161.8573 C105.7401,165.6523 102.8751,168.1303 99.4671,168.1303 C96.0591,168.1303 93.2201,165.6523 93.2201,161.8573" id="Fill-41" fill="#4C5C68" mask="url(#mask-2)"></path>
            <path d="M114.1289,158.9918 C112.6069,158.9918 111.3409,160.1278 111.3409,161.8568 C111.3409,163.6388 112.6069,164.7738 114.1289,164.7738 C115.6269,164.7738 116.9169,163.5868 116.9169,161.8568 C116.9169,160.0508 115.6009,158.9918 114.1289,158.9918 Z M116.9939,167.9238 L116.9939,166.4268 C116.4009,167.5368 114.9549,168.1818 113.4579,168.1818 C110.3599,168.1818 107.6239,165.7298 107.6239,161.9348 C107.6239,158.0628 110.3599,155.6098 113.4579,155.6098 C114.9549,155.6098 116.4009,156.2298 116.9939,157.3398 L116.9939,149.3118 L120.5569,149.3118 L120.5569,167.9238 L116.9939,167.9238 Z" id="Fill-42" fill="#4C5C68" mask="url(#mask-2)"></path>
            <path d="M136.4316,160.076 C133.9526,160.076 133.5916,161.961 133.7466,162.709 C134.0046,163.974 134.9086,164.671 136.4316,164.671 C137.4116,164.671 139.4776,164 139.4776,161.496 L139.4776,160.076 L136.4316,160.076 Z M129.8236,162.993 C129.8236,160.747 130.8296,159.147 132.7656,158.45 C131.5006,158.037 130.5196,156.72 130.5196,154.913 C130.5196,152.383 132.6616,150.086 135.7086,149.931 C137.9026,149.828 139.6836,150.783 140.7936,152.228 L137.7476,154.087 C137.3866,153.726 136.9986,153.416 136.3016,153.416 C134.9866,153.416 134.4696,154.397 134.4696,155.171 C134.4696,155.249 134.4696,157.185 136.5356,157.185 L139.4776,157.185 L139.4776,155.171 L142.8076,155.171 L142.8076,157.185 L144.8726,157.185 L144.8726,160.076 L142.8076,160.076 L142.8076,162.709 C142.8076,164.748 143.2206,165.058 145.2076,165.058 L145.2076,168.182 C142.4466,168.156 140.8196,167.924 140.2006,165.962 C139.5296,167.407 137.3866,168.182 135.8886,168.182 C132.4556,168.182 129.8236,166.039 129.8236,162.993 Z" id="Fill-43" fill="#4C5C68" mask="url(#mask-2)"></path>
            <polygon id="Fill-44" fill="#4C5C68" mask="url(#mask-2)" points="168.1562 167.9237 164.7742 167.9237 158.5792 157.1587 158.5792 167.9237 154.8092 167.9237 154.8092 150.1377 158.2692 150.1377 164.3612 160.7727 164.3612 150.1377 168.1562 150.1377"></polygon>
            <path d="M179.668,155.8683 L183.257,155.8683 L183.257,167.9233 L179.668,167.9233 L179.668,166.2713 C179.022,167.4853 177.706,168.1813 176.545,168.1813 C173.834,168.1813 171.77,166.5033 171.77,163.0703 L171.77,155.8683 L175.357,155.8683 L175.357,162.2963 C175.357,164.2063 176.674,164.6973 177.5,164.6973 C178.609,164.6973 179.668,164.0773 179.668,162.2443 L179.668,155.8683 Z" id="Fill-45" fill="#4C5C68" mask="url(#mask-2)"></path>
            <polygon id="Fill-46" fill="#4C5C68" mask="url(#mask-2)" points="193.7881 155.8683 193.7881 158.7083 191.2581 158.7083 191.2581 167.9233 187.6961 167.9233 187.6961 158.7083 185.5011 158.7083 185.5011 155.8683 187.6961 155.8683 187.6961 151.2473 191.2581 151.2473 191.2581 155.8683"></polygon>
            <path d="M199.5693,167.9237 L195.9813,167.9237 L195.9813,155.8687 L199.5693,155.8687 L199.5693,158.7857 C200.1893,156.5397 201.7383,155.6107 202.9773,155.6107 C203.8293,155.6107 204.4743,155.7647 205.0433,156.0487 L204.3963,159.2757 C203.7523,158.9657 203.1323,158.9147 202.5643,158.9147 C200.4993,158.9147 199.5693,160.5407 199.5693,163.7157 L199.5693,167.9237 Z" id="Fill-47" fill="#4C5C68" mask="url(#mask-2)"></path>
            <path d="M206.9,167.924 L210.463,167.924 L210.463,155.869 L206.9,155.869 L206.9,167.924 Z M208.682,149.311 C209.895,149.311 210.876,150.215 210.876,151.402 C210.876,152.59 209.895,153.519 208.682,153.519 C207.469,153.519 206.436,152.59 206.436,151.402 C206.436,150.215 207.469,149.311 208.682,149.311 Z" id="Fill-48" fill="#4C5C68" mask="url(#mask-2)"></path>
            <polygon id="Fill-49" fill="#4C5C68" mask="url(#mask-2)" points="220.9951 155.8683 220.9951 158.7083 218.4651 158.7083 218.4651 167.9233 214.9021 167.9233 214.9021 158.7083 212.7091 158.7083 212.7091 155.8683 214.9021 155.8683 214.9021 151.2473 218.4651 151.2473 218.4651 155.8683"></polygon>
            <path d="M223.188,167.924 L226.751,167.924 L226.751,155.869 L223.188,155.869 L223.188,167.924 Z M224.97,149.311 C226.183,149.311 227.164,150.215 227.164,151.402 C227.164,152.59 226.183,153.519 224.97,153.519 C223.757,153.519 222.724,152.59 222.724,151.402 C222.724,150.215 223.757,149.311 224.97,149.311 Z" id="Fill-50" fill="#4C5C68" mask="url(#mask-2)"></path>
            <path d="M238.3154,161.8573 C238.3154,160.2313 237.0764,159.1213 235.5784,159.1213 C234.1074,159.1213 232.8684,160.2313 232.8684,161.8573 C232.8684,163.5353 234.1074,164.6193 235.5784,164.6193 C237.0764,164.6193 238.3154,163.5353 238.3154,161.8573 M229.3314,161.8573 C229.3314,158.0623 232.1714,155.6103 235.5784,155.6103 C238.9864,155.6103 241.8514,158.0623 241.8514,161.8573 C241.8514,165.6523 238.9864,168.1303 235.5784,168.1303 C232.1714,168.1303 229.3314,165.6523 229.3314,161.8573" id="Fill-51" fill="#4C5C68" mask="url(#mask-2)"></path>
            <path d="M248.0205,167.9237 L244.4325,167.9237 L244.4325,155.8687 L248.0205,155.8687 L248.0205,157.6237 C248.6665,156.4107 250.0855,155.6107 251.5055,155.6107 C254.2155,155.6107 255.9195,157.2887 255.9195,160.7217 L255.9195,167.9237 L252.3325,167.9237 L252.3325,161.4957 C252.3325,159.8957 251.4545,159.0947 250.2415,159.0947 C248.9755,159.0947 248.0205,159.7147 248.0205,161.5477 L248.0205,167.9237 Z" id="Fill-52" fill="#4C5C68" mask="url(#mask-2)"></path>
            <path d="M26.9717,134.6937 C13.5597,134.6937 2.6477,145.6057 2.6477,159.0177 C2.6477,172.4307 13.5597,183.3427 26.9717,183.3427 C40.3847,183.3427 51.2957,172.4307 51.2957,159.0177 C51.2957,145.6057 40.3847,134.6937 26.9717,134.6937 M26.9717,185.9897 C12.0997,185.9897 -0.0003,173.8907 -0.0003,159.0177 C-0.0003,144.1457 12.0997,132.0467 26.9717,132.0467 C41.8447,132.0467 53.9437,144.1457 53.9437,159.0177 C53.9437,173.8907 41.8447,185.9897 26.9717,185.9897" id="Fill-53" fill="#C5C3C6" mask="url(#mask-2)"></path>
            <path d="M38.2187,152.047 C38.6017,152.238 38.8887,152.525 39.0797,152.908 C39.2717,153.291 39.2717,153.625 39.0797,153.912 C38.5697,154.614 37.9957,155.395 37.3577,156.256 C36.1777,157.851 35.3007,158.919 34.7277,159.461 C33.7707,160.45 32.7017,161.056 31.5227,161.278 C30.3427,161.502 29.1947,161.358 28.0777,160.848 L19.4687,170.462 C19.2137,170.749 18.9027,170.893 18.5357,170.893 C18.1697,170.893 17.8427,170.765 17.5557,170.51 L15.1157,168.07 C14.8607,167.784 14.7337,167.457 14.7337,167.09 C14.7337,166.724 14.8767,166.413 15.1637,166.157 L24.7787,157.5 C24.2687,156.416 24.1247,155.284 24.3477,154.104 C24.5707,152.924 25.1767,151.84 26.1647,150.851 C26.7067,150.309 27.7757,149.448 29.3697,148.268 C30.2307,147.63 31.0127,147.057 31.7137,146.546 C32.0007,146.355 32.3357,146.355 32.7177,146.546 C33.1007,146.738 33.3877,147.025 33.5787,147.407 C33.7707,147.79 33.7537,148.125 33.5317,148.412 L28.0777,153.865 C28.0467,153.929 28.1257,154.056 28.3177,154.247 C28.5087,154.439 28.6367,154.503 28.6997,154.439 L34.4407,149.32 C34.7277,149.098 35.0697,149.081 35.4687,149.273 C35.8667,149.464 36.1547,149.751 36.3287,150.134 C36.5047,150.516 36.4967,150.868 36.3057,151.186 L31.1397,156.926 C31.1087,156.99 31.1797,157.117 31.3547,157.308 C31.5307,157.5 31.6657,157.579 31.7617,157.547 L37.2137,152.095 C37.5007,151.872 37.8357,151.856 38.2187,152.047" id="Fill-54" fill="#4C5C68" mask="url(#mask-2)"></path>
        </g>
    </g>
</svg>