<?xml version="1.0" encoding="UTF-8"?>
<svg width="472px" height="307px" viewBox="0 0 472 307" version="1.1" xmlns="http://www.w3.org/2000/svg" xmlns:xlink="http://www.w3.org/1999/xlink">
    <!-- Generator: Sketch 48.2 (47327) - http://www.bohemiancoding.com/sketch -->
    <title>Page 1</title>
    <desc>Created with Sketch.</desc>
    <defs></defs>
    <g id="Users-LP" stroke="none" stroke-width="1" fill="none" fill-rule="evenodd" transform="translate(-818.000000, -713.000000)">
        <g id="Page-1" transform="translate(818.000000, 713.000000)">
            <path d="M19.9216,125.165 C21.9146,128.629 24.6416,131.359 28.1036,133.355 C31.5626,135.354 35.3466,136.352 39.4566,136.354 C43.5626,136.357 47.3486,135.363 50.8126,133.368 C54.2736,131.376 57.0046,128.649 59.0036,125.187 C60.9986,121.728 61.9996,117.943 62.0026,113.834 C62.0046,109.727 61.0076,105.942 59.0156,102.478 C57.0206,99.016 54.2936,96.286 50.8346,94.287 C47.3726,92.291 43.5886,91.29 39.4816,91.288 C35.3716,91.286 31.5866,92.282 28.1256,94.274 C24.6606,96.269 21.9306,98.997 19.9346,102.456 C17.9356,105.918 16.9376,109.702 16.9356,113.809 C16.9336,117.918 17.9266,121.704 19.9216,125.165 M73.9536,146.936 C77.2366,150.225 78.8796,154.217 78.8766,158.91 L78.8666,177.218 C78.8656,178.39 78.4526,179.388 77.6316,180.21 C76.8096,181.029 75.8106,181.441 74.6386,181.441 L4.2226,181.401 C3.0476,181.4 2.0496,180.987 1.2306,180.167 C0.4086,179.344 -0.0004,178.345 0.0006,177.174 L0.0106,158.865 C0.0126,154.173 1.6576,150.183 4.9456,146.898 C8.2326,143.615 12.2246,141.973 16.9196,141.975 L26.6016,141.981 C30.7076,143.862 35.0206,144.802 39.5396,144.804 C44.0556,144.807 48.3116,143.872 52.3036,141.995 L61.9856,142 C66.6786,142.003 70.6686,143.65 73.9536,146.936" id="Fill-1" fill="#4C5C68"></path>
            <path d="M93.0661,85.7544 L93.6871,86.1854 C101.2741,91.4414 110.1811,94.2214 119.4451,94.2264 L119.4711,94.2264 C144.4571,94.2264 164.7881,73.9094 164.8021,48.9214 C164.8161,23.9264 144.4921,3.5794 119.4961,3.5654 L119.4701,3.5654 C107.3711,3.5654 95.9961,8.2734 87.4351,16.8244 C78.8691,25.3814 74.1471,36.7624 74.1401,48.8704 C74.1351,57.3874 76.5051,65.6884 80.9951,72.8754 L81.2431,73.2734 L80.9881,74.0984 L75.4521,91.0124 L92.5811,86.1334 L93.0661,85.7544 Z M119.4711,96.2794 L119.4441,96.2794 C109.9341,96.2744 100.7821,93.4694 92.9451,88.1644 L72.3001,94.0434 L79.0051,73.5594 C74.4731,66.1394 72.0831,57.6124 72.0881,48.8694 C72.0951,36.2124 77.0301,24.3164 85.9851,15.3724 C94.9331,6.4344 106.8241,1.5134 119.4701,1.5134 L119.4981,1.5134 C145.6251,1.5274 166.8691,22.7954 166.8541,48.9224 C166.8391,75.0404 145.5861,96.2784 119.4711,96.2794 Z" id="Fill-3" fill="#C5C3C6"></path>
            <path d="M256.8732,156.7798 C253.5522,153.4578 251.4982,149.9968 250.2482,145.8708 C246.2442,149.6368 240.9612,151.9278 235.1702,151.9278 C222.6612,151.9278 212.5192,141.2428 212.5192,128.0608 C212.5192,114.8798 222.6612,104.1938 235.1702,104.1938 C247.6812,104.1938 257.8222,114.8798 257.8222,128.0608 C257.8222,128.3718 257.8142,128.6808 257.8042,128.9878 C257.8672,140.9428 259.1012,145.6288 263.2672,149.9168 C268.3332,142.6508 270.4132,137.1508 271.0022,131.4998 C271.0142,131.3908 271.0232,131.2808 271.0342,131.1718 C271.1472,129.9708 271.2172,128.7978 271.2112,127.6698 C271.2112,107.7648 255.0752,91.6298 235.1702,91.6298 C215.2672,91.6298 199.1302,107.7648 199.1302,127.6698 C199.1242,128.7978 199.1942,129.9708 199.3072,131.1718 C199.3182,131.2808 199.3282,131.3908 199.3392,131.4998 C200.5552,143.1608 208.1222,154.1838 235.1702,181.3978 C244.9612,171.5478 252.1982,163.8198 257.5072,157.4138 L256.8732,156.7798 Z" id="Fill-5" fill="#1E7ABD"></path>
            <path d="M247.8776,127.9761 C247.8776,135.4081 242.6036,140.6831 235.1706,140.6831 C227.7386,140.6831 222.4636,135.4081 222.4636,127.9761 C222.4636,120.5431 227.7386,115.2691 235.1706,115.2691 C242.6036,115.2691 247.8776,120.5431 247.8776,127.9761" id="Fill-7" fill="#1E7ABD"></path>
            <path d="M101.7785,138.5779 L127.6535,138.5779 L169.0315,138.5779 L178.4865,138.5779 C181.7885,138.5779 181.7935,133.4469 178.4865,133.4469 L152.6125,133.4469 L111.2345,133.4469 L101.7785,133.4469 C98.4775,133.4469 98.4715,138.5779 101.7785,138.5779" id="Fill-9" fill="#22B2AA"></path>
            <path d="M333.194,36.6895 L334.667,42.0595 L336.912,34.9835 C337.109,34.3725 337.9,34.0495 338.547,34.2285 C339.229,34.4265 339.606,35.1985 339.39,35.8275 L336.05,45.7235 C335.852,46.3345 335.403,46.7295 334.828,46.7295 L334.649,46.7295 C334.056,46.7295 333.571,46.3165 333.41,45.7235 L331.955,40.1375 L330.5,45.7235 C330.338,46.3165 329.854,46.7295 329.261,46.7295 L329.081,46.7295 C328.507,46.7295 328.057,46.3345 327.86,45.7235 L324.519,35.8275 C324.303,35.1985 324.681,34.4265 325.363,34.2285 C326.01,34.0495 326.8,34.3725 326.998,34.9835 L329.243,42.0595 L330.715,36.6895 C330.859,36.1505 331.272,35.8275 331.901,35.8275 L332.008,35.8275 C332.637,35.8275 333.05,36.1505 333.194,36.6895" id="Fill-11" fill="#4C5C68"></path>
            <path d="M345.6569,41.7002 C345.5319,40.6762 344.8309,40.1732 343.8969,40.1732 C342.9629,40.1732 342.2439,40.6402 342.0289,41.7002 L345.6569,41.7002 Z M346.7709,46.0462 C345.9269,46.6032 344.8669,46.8012 343.8789,46.8012 C341.4719,46.8012 339.4969,45.0592 339.4969,42.4192 C339.4969,39.7782 341.4719,38.0902 343.8789,38.0902 C346.2679,38.0902 348.1719,39.8502 348.1719,42.4902 C348.1719,42.9392 347.7939,43.2632 347.3989,43.2632 L341.9929,43.2632 C342.1189,44.2322 343.1779,44.6462 344.0579,44.6462 C344.5619,44.6462 344.9919,44.6102 345.5129,44.2512 C346.0879,43.8552 346.7349,43.9632 347.0939,44.3762 C347.5609,44.9152 347.3809,45.6872 346.7709,46.0462 Z" id="Fill-13" fill="#4C5C68"></path>
            <path d="M358.2097,44.3762 C358.6587,44.3762 359.0897,44.2512 359.4487,44.0532 C359.8977,43.8012 360.6337,43.6942 361.0837,44.1432 C361.5857,44.6462 361.5137,45.5622 360.9217,45.9752 C360.1677,46.5132 359.2147,46.8012 358.2097,46.8012 C355.8027,46.8012 353.6117,45.1132 353.6117,42.4722 L353.6117,42.4182 C353.6117,39.7782 355.8027,38.0902 358.2097,38.0902 C359.2147,38.0902 360.1677,38.3772 360.9217,38.9162 C361.5137,39.3292 361.5857,40.2452 361.0837,40.7482 C360.6337,41.1972 359.8977,41.0892 359.4487,40.8382 C359.0897,40.6402 358.6587,40.5152 358.2097,40.5152 C357.1317,40.5152 356.1617,41.2512 356.1617,42.4182 L356.1617,42.4722 C356.1617,43.6402 357.1317,44.3762 358.2097,44.3762" id="Fill-15" fill="#4C5C68"></path>
            <path d="M367.2062,44.574 C368.3382,44.574 369.2532,43.568 369.2532,42.455 C369.2532,41.341 368.3382,40.335 367.2062,40.335 C365.9492,40.335 365.2302,41.341 365.2302,42.455 C365.2302,43.568 365.9492,44.574 367.2062,44.574 Z M369.2362,39.276 C369.2532,38.665 369.8292,38.162 370.4932,38.162 C371.1752,38.162 371.7502,38.647 371.7502,39.276 L371.7502,45.616 C371.7502,46.244 371.1752,46.729 370.4932,46.729 C369.8292,46.729 369.2532,46.226 369.2362,45.616 L369.2362,45.454 C368.6972,46.334 367.6732,46.801 366.7222,46.801 C364.5842,46.801 362.6442,45.22 362.6442,42.437 C362.6442,39.653 364.5842,38.09 366.7222,38.09 C367.2602,38.09 368.5172,38.324 369.2362,39.437 L369.2362,39.276 Z" id="Fill-17" fill="#4C5C68"></path>
            <path d="M376.383,39.4731 C376.832,38.6291 377.82,38.0721 378.808,38.0721 C380.694,38.0721 381.897,39.2401 381.897,41.6281 L381.897,45.6161 C381.897,46.2441 381.322,46.7291 380.64,46.7291 C379.975,46.7291 379.4,46.2261 379.383,45.6161 L379.383,42.1671 C379.383,41.0541 378.772,40.4971 377.927,40.4971 C377.048,40.4971 376.383,40.9281 376.383,42.2031 L376.383,45.6161 C376.383,46.2441 375.808,46.7291 375.126,46.7291 C374.461,46.7291 373.886,46.2261 373.869,45.6161 L373.869,39.2751 C373.886,38.6651 374.461,38.1621 375.126,38.1621 C375.808,38.1621 376.383,38.6471 376.383,39.2751 L376.383,39.4731 Z" id="Fill-19" fill="#4C5C68"></path>
            <path d="M342.4514,61.665 C342.4514,60.569 341.6604,60.013 340.9064,60.013 C340.1164,60.013 339.2544,60.426 339.2544,61.701 L339.2544,65.113 C339.2544,65.742 338.6804,66.227 337.9974,66.227 C337.3324,66.227 336.7584,65.724 336.7404,65.113 L336.7404,54.211 C336.7584,53.601 337.3324,53.098 337.9974,53.098 C338.6804,53.098 339.2544,53.583 339.2544,54.211 L339.2544,59.061 C339.5954,58.019 340.7994,57.588 341.5894,57.588 C343.7984,57.588 344.9664,59.043 344.9664,61.575 L344.9664,65.113 C344.9664,65.742 344.3914,66.227 343.7084,66.227 C343.0444,66.227 342.4694,65.724 342.4514,65.113 L342.4514,61.665 Z" id="Fill-21" fill="#4C5C68"></path>
            <path d="M352.7595,61.198 C352.6345,60.174 351.9335,59.671 350.9995,59.671 C350.0655,59.671 349.3465,60.138 349.1315,61.198 L352.7595,61.198 Z M353.8725,65.544 C353.0295,66.101 351.9685,66.299 350.9815,66.299 C348.5745,66.299 346.5995,64.557 346.5995,61.917 C346.5995,59.276 348.5745,57.588 350.9815,57.588 C353.3705,57.588 355.2745,59.348 355.2745,61.988 C355.2745,62.437 354.8965,62.76 354.5015,62.76 L349.0955,62.76 C349.2215,63.73 350.2805,64.144 351.1605,64.144 C351.6635,64.144 352.0945,64.108 352.6155,63.748 C353.1905,63.353 353.8375,63.461 354.1965,63.874 C354.6635,64.413 354.4835,65.185 353.8725,65.544 Z" id="Fill-23" fill="#4C5C68"></path>
            <path d="M359.3317,65.1133 C359.3317,65.7423 358.7567,66.2273 358.0747,66.2273 C357.4097,66.2273 356.8347,65.7243 356.8167,65.1133 L356.8167,54.2113 C356.8347,53.6013 357.4097,53.0983 358.0747,53.0983 C358.7567,53.0983 359.3317,53.5823 359.3317,54.2113 L359.3317,65.1133 Z" id="Fill-25" fill="#4C5C68"></path>
            <path d="M366.0661,59.833 C364.9351,59.833 364.0191,60.839 364.0191,61.952 C364.0191,63.066 364.9351,64.072 366.0661,64.072 C367.3231,64.072 368.0421,63.066 368.0421,61.952 C368.0421,60.839 367.3231,59.833 366.0661,59.833 M366.5511,57.588 C368.6881,57.588 370.6281,59.15 370.6281,61.934 C370.6281,64.718 368.6881,66.299 366.5511,66.299 C365.5991,66.299 364.5751,65.832 364.0371,64.952 L364.0371,69.119 C364.0191,69.729 363.4441,70.232 362.7791,70.232 C362.0971,70.232 361.5221,69.747 361.5221,69.119 L361.5221,58.773 C361.5221,58.145 362.0971,57.66 362.7791,57.66 C363.4441,57.66 364.0191,58.163 364.0371,58.773 L364.0371,58.935 C364.7551,57.822 366.0121,57.588 366.5511,57.588" id="Fill-27" fill="#4C5C68"></path>
            <path d="M96.8469,45.5078 C96.8469,46.1728 96.2539,46.7288 95.5359,46.7288 C94.8529,46.7288 94.2249,46.1548 94.2249,45.5078 L94.2249,35.3958 C94.2429,34.7498 94.8529,34.1748 95.5359,34.1748 C96.2539,34.1748 96.8469,34.7318 96.8469,35.3958 L96.8469,45.5078 Z" id="Fill-29" fill="#4C5C68"></path>
            <path d="M106.1486,39.4731 C106.5976,38.6291 107.5856,38.0721 108.5736,38.0721 C110.4596,38.0721 111.6626,39.2401 111.6626,41.6281 L111.6626,45.6161 C111.6626,46.2441 111.0876,46.7291 110.4056,46.7291 C109.7406,46.7291 109.1666,46.2261 109.1486,45.6161 L109.1486,42.1671 C109.1486,41.0541 108.5376,40.4971 107.6936,40.4971 C106.8136,40.4971 106.1486,40.9281 106.1486,42.2031 L106.1486,45.6161 C106.1486,46.2441 105.5736,46.7291 104.8916,46.7291 C104.2266,46.7291 103.6516,46.2261 103.6346,45.6161 L103.6346,39.2751 C103.6516,38.6651 104.2266,38.1621 104.8916,38.1621 C105.5736,38.1621 106.1486,38.6471 106.1486,39.2751 L106.1486,39.4731 Z" id="Fill-31" fill="#4C5C68"></path>
            <path d="M119.4743,41.7002 C119.3483,40.6762 118.6483,40.1732 117.7143,40.1732 C116.7803,40.1732 116.0613,40.6402 115.8463,41.7002 L119.4743,41.7002 Z M120.5873,46.0462 C119.7443,46.6032 118.6833,46.8012 117.6963,46.8012 C115.2893,46.8012 113.3143,45.0592 113.3143,42.4192 C113.3143,39.7782 115.2893,38.0902 117.6963,38.0902 C120.0843,38.0902 121.9893,39.8502 121.9893,42.4902 C121.9893,42.9392 121.6113,43.2632 121.2163,43.2632 L115.8103,43.2632 C115.9363,44.2322 116.9953,44.6462 117.8753,44.6462 C118.3783,44.6462 118.8093,44.6102 119.3303,44.2512 C119.9053,43.8552 120.5523,43.9632 120.9113,44.3762 C121.3783,44.9152 121.1983,45.6872 120.5873,46.0462 Z" id="Fill-33" fill="#4C5C68"></path>
            <path d="M129.2433,41.7002 C129.1183,40.6762 128.4173,40.1732 127.4833,40.1732 C126.5493,40.1732 125.8303,40.6402 125.6153,41.7002 L129.2433,41.7002 Z M130.3573,46.0462 C129.5133,46.6032 128.4523,46.8012 127.4653,46.8012 C125.0583,46.8012 123.0833,45.0592 123.0833,42.4192 C123.0833,39.7782 125.0583,38.0902 127.4653,38.0902 C129.8543,38.0902 131.7583,39.8502 131.7583,42.4902 C131.7583,42.9392 131.3803,43.2632 130.9853,43.2632 L125.5793,43.2632 C125.7053,44.2322 126.7643,44.6462 127.6443,44.6462 C128.1483,44.6462 128.5783,44.6102 129.0993,44.2512 C129.6743,43.8552 130.3213,43.9632 130.6803,44.3762 C131.1473,44.9152 130.9673,45.6872 130.3573,46.0462 Z" id="Fill-35" fill="#4C5C68"></path>
            <path d="M137.4318,44.574 C138.5638,44.574 139.4788,43.568 139.4788,42.455 C139.4788,41.341 138.5638,40.335 137.4318,40.335 C136.1748,40.335 135.4558,41.341 135.4558,42.455 C135.4558,43.568 136.1748,44.574 137.4318,44.574 Z M139.4618,34.714 C139.4788,34.103 140.0538,33.6 140.7188,33.6 C141.4008,33.6 141.9758,34.085 141.9758,34.714 L141.9758,45.616 C141.9758,46.244 141.4008,46.729 140.7188,46.729 C140.0538,46.729 139.4788,46.226 139.4618,45.616 L139.4618,45.454 C138.9228,46.334 137.8988,46.801 136.9468,46.801 C134.8098,46.801 132.8698,45.22 132.8698,42.437 C132.8698,39.653 134.8098,38.09 136.9468,38.09 C137.4858,38.09 138.7428,38.324 139.4618,39.437 L139.4618,34.714 Z" id="Fill-37" fill="#4C5C68"></path>
            <path d="M106.9396,61.665 C106.9396,60.569 106.1486,60.013 105.3946,60.013 C104.6046,60.013 103.7426,60.426 103.7426,61.701 L103.7426,65.113 C103.7426,65.742 103.1676,66.227 102.4846,66.227 C101.8206,66.227 101.2466,65.724 101.2286,65.113 L101.2286,54.211 C101.2466,53.601 101.8206,53.098 102.4846,53.098 C103.1676,53.098 103.7426,53.583 103.7426,54.211 L103.7426,59.061 C104.0836,58.019 105.2866,57.588 106.0776,57.588 C108.2866,57.588 109.4536,59.043 109.4536,61.575 L109.4536,65.113 C109.4536,65.742 108.8786,66.227 108.1966,66.227 C107.5316,66.227 106.9576,65.724 106.9396,65.113 L106.9396,61.665 Z" id="Fill-39" fill="#4C5C68"></path>
            <path d="M117.2477,61.198 C117.1217,60.174 116.4207,59.671 115.4877,59.671 C114.5537,59.671 113.8347,60.138 113.6197,61.198 L117.2477,61.198 Z M118.3607,65.544 C117.5167,66.101 116.4567,66.299 115.4697,66.299 C113.0627,66.299 111.0867,64.557 111.0867,61.917 C111.0867,59.276 113.0627,57.588 115.4697,57.588 C117.8577,57.588 119.7617,59.348 119.7617,61.988 C119.7617,62.437 119.3847,62.76 118.9897,62.76 L113.5837,62.76 C113.7087,63.73 114.7687,64.144 115.6487,64.144 C116.1517,64.144 116.5827,64.108 117.1037,63.748 C117.6787,63.353 118.3247,63.461 118.6847,63.874 C119.1507,64.413 118.9717,65.185 118.3607,65.544 Z" id="Fill-41" fill="#4C5C68"></path>
            <path d="M123.8195,65.1133 C123.8195,65.7423 123.2445,66.2273 122.5625,66.2273 C121.8985,66.2273 121.3235,65.7243 121.3055,65.1133 L121.3055,54.2113 C121.3235,53.6013 121.8985,53.0983 122.5625,53.0983 C123.2445,53.0983 123.8195,53.5823 123.8195,54.2113 L123.8195,65.1133 Z" id="Fill-43" fill="#4C5C68"></path>
            <path d="M130.5544,59.833 C129.4234,59.833 128.5074,60.839 128.5074,61.952 C128.5074,63.066 129.4234,64.072 130.5544,64.072 C131.8114,64.072 132.5304,63.066 132.5304,61.952 C132.5304,60.839 131.8114,59.833 130.5544,59.833 M131.0394,57.588 C133.1764,57.588 135.1164,59.15 135.1164,61.934 C135.1164,64.718 133.1764,66.299 131.0394,66.299 C130.0874,66.299 129.0634,65.832 128.5244,64.952 L128.5244,69.119 C128.5074,69.729 127.9324,70.232 127.2674,70.232 C126.5854,70.232 126.0104,69.747 126.0104,69.119 L126.0104,58.773 C126.0104,58.145 126.5854,57.66 127.2674,57.66 C127.9324,57.66 128.5074,58.163 128.5244,58.773 L128.5244,58.935 C129.2434,57.822 130.5004,57.588 131.0394,57.588" id="Fill-45" fill="#4C5C68"></path>
            <path d="M454.7868,113.8086 C454.7848,109.7016 453.7868,105.9176 451.7878,102.4556 C449.7918,98.9966 447.0618,96.2696 443.5978,94.2746 C440.1358,92.2826 436.3508,91.2856 432.2408,91.2876 C428.1348,91.2906 424.3498,92.2906 420.8888,94.2876 C417.4288,96.2866 414.7018,99.0166 412.7068,102.4776 C410.7148,105.9416 409.7178,109.7276 409.7208,113.8336 C409.7228,117.9436 410.7238,121.7276 412.7198,125.1866 C414.7188,128.6486 417.4488,131.3756 420.9098,133.3686 C424.3738,135.3636 428.1598,136.3566 432.2658,136.3546 C436.3758,136.3526 440.1608,135.3546 443.6198,133.3556 C447.0808,131.3596 449.8078,128.6296 451.8008,125.1646 C453.7958,121.7036 454.7888,117.9186 454.7868,113.8086 M409.7358,142.0006 L419.4188,141.9956 C423.4108,143.8716 427.6658,144.8076 432.1828,144.8046 C436.7028,144.8016 441.0148,143.8616 445.1198,141.9806 L454.8028,141.9756 C459.4978,141.9726 463.4908,143.6156 466.7768,146.8976 C470.0648,150.1826 471.7098,154.1736 471.7118,158.8656 L471.7228,177.1736 C471.7228,178.3456 471.3138,179.3446 470.4918,180.1676 C469.6728,180.9876 468.6738,181.4006 467.4998,181.4016 L397.0838,181.4406 C395.9118,181.4416 394.9128,181.0296 394.0898,180.2096 C393.2698,179.3886 392.8568,178.3896 392.8558,177.2176 L392.8458,158.9096 C392.8428,154.2176 394.4858,150.2256 397.7678,146.9366 C401.0538,143.6506 405.0438,142.0036 409.7358,142.0006" id="Fill-47" fill="#4C5C68"></path>
            <path d="M380.1247,134.3264 C377.8417,132.0434 375.5587,129.7604 373.2757,127.4774 C371.7047,125.9064 368.8957,127.0684 368.8957,129.2924 L368.8957,133.4464 L348.9837,133.4464 L302.5377,133.4464 L291.8817,133.4464 C288.5797,133.4464 288.5747,138.5774 291.8817,138.5774 L321.2357,138.5774 L367.6827,138.5774 L368.8957,138.5774 L368.8957,142.7894 C368.8947,142.8344 368.8957,142.8784 368.8957,142.9234 L368.8957,142.9894 C368.8957,143.0094 368.8987,143.0284 368.8987,143.0484 C368.8997,143.0524 368.8997,143.0564 368.8997,143.0604 C368.9267,144.2334 369.6107,144.9784 370.4717,145.2934 C371.3307,145.7184 372.3947,145.6844 373.2757,144.8034 C373.2947,144.7844 373.3127,144.7654 373.3327,144.7474 C373.3597,144.7204 373.3887,144.6934 373.4157,144.6644 C375.6517,142.4274 377.8877,140.1914 380.1247,137.9544 C381.1037,136.9744 381.1067,135.3084 380.1247,134.3264" id="Fill-50" fill="#22B2AA"></path>
            <path d="M201.6589,284.5894 C200.4909,283.1794 199.2159,281.3684 198.0779,279.4694 C197.4989,278.5014 196.9539,277.5124 196.4469,276.5044 C196.0009,275.6194 195.4309,274.3724 195.2239,273.8624 C194.3619,271.7374 193.6599,269.5474 193.1229,267.3174 C192.8509,266.1864 192.6219,265.0444 192.4369,263.8954 C192.3999,263.6644 192.3639,263.4324 192.3299,263.2004 C192.3159,263.1034 192.3049,263.0294 192.2959,262.9704 C192.2899,262.9064 192.2789,262.8064 192.2619,262.6534 C192.1959,262.0654 192.1379,261.4764 192.0929,260.8864 C191.9099,258.4974 191.9099,256.0944 192.0929,253.7054 C192.2719,251.3684 192.5599,249.5784 193.1639,247.1064 C194.2929,242.4844 195.8009,238.8614 198.2529,234.8334 C200.5529,231.0554 203.0999,228.0054 206.5519,224.9294 C208.3059,223.3664 209.5119,222.4484 211.5149,221.1474 C213.4079,219.9184 215.3899,218.8274 217.4419,217.8864 C218.4369,217.4314 218.9269,217.2304 220.1489,216.7864 C221.2269,216.3954 222.3199,216.0454 223.4239,215.7354 C224.5369,215.4224 225.6639,215.1524 226.7979,214.9244 C227.8189,214.7194 229.1789,214.5034 229.7629,214.4374 C232.1389,214.1694 234.5339,214.0744 236.9239,214.1664 C239.4939,214.2644 241.2869,214.4834 243.6129,214.9594 C252.4549,216.7684 260.1659,221.0404 266.3469,227.4944 C272.4169,233.8324 276.3619,241.7754 277.8039,250.6964 C277.9089,251.3504 277.9399,251.5974 277.9779,251.9384 C278.0449,252.5264 278.1029,253.1154 278.1479,253.7054 C278.2389,254.9004 278.2799,256.0974 278.2849,257.2964 C278.2659,262.1174 277.6539,266.1284 276.1319,270.8064 C275.3759,273.1264 274.7919,274.5384 273.7169,276.6554 C272.6709,278.7134 271.4709,280.6934 270.1309,282.5724 C269.0549,284.0814 267.6619,285.7454 266.1139,287.3394 C265.3719,288.1024 264.6049,288.8394 263.8129,289.5494 C263.4379,289.8864 263.0579,290.2174 262.6719,290.5414 C262.4139,290.7574 262.1549,290.9714 261.8929,291.1824 C261.8469,291.2194 261.4979,291.4904 261.4019,291.5674 C259.6369,292.9064 257.7669,294.1114 255.8269,295.1794 C254.8369,295.7244 253.8259,296.2334 252.7979,296.7044 C252.5919,296.7994 252.3849,296.8914 252.1769,296.9844 C252.0859,297.0244 252.0189,297.0534 251.9629,297.0794 C251.9359,297.0894 251.9009,297.1044 251.8449,297.1274 C251.2649,297.3664 250.6799,297.5904 250.0909,297.8054 C245.6379,299.4234 241.3469,300.2564 236.9239,300.4254 C234.5339,300.5174 232.1379,300.4274 229.7629,300.1544 C228.9879,300.0654 229.3039,300.1054 228.5199,299.9794 C227.9439,299.8864 227.3699,299.7824 226.7979,299.6674 C225.6069,299.4284 224.4259,299.1414 223.2569,298.8094 C214.7919,296.4014 207.4059,291.5274 201.6589,284.5894 M439.6209,207.2964 C440.0459,206.4374 440.0119,205.3734 439.1309,204.4924 C439.1119,204.4744 439.0939,204.4554 439.0749,204.4364 C439.0469,204.4084 439.0209,204.3804 438.9919,204.3534 C436.7549,202.1174 434.5189,199.8804 432.2829,197.6444 C431.3029,196.6644 429.6359,196.6624 428.6539,197.6444 C426.3709,199.9264 424.0879,202.2094 421.8049,204.4924 C420.2339,206.0634 421.3959,208.8724 423.6189,208.8724 L427.4039,208.8724 C427.1859,210.1464 426.9289,211.4134 426.6339,212.6714 C425.7749,216.3414 424.6189,219.9404 423.2209,223.4394 C423.1169,223.7014 423.0109,223.9614 422.9039,224.2214 C422.8599,224.3284 422.8149,224.4344 422.7719,224.5404 C422.5479,225.0464 422.3329,225.5554 422.1059,226.0594 C421.6109,227.1604 421.0919,228.2494 420.5489,229.3274 C419.3889,231.6324 418.1249,233.8844 416.7659,236.0784 C415.2369,238.5464 413.5869,240.9394 411.8329,243.2534 C411.7299,243.3884 411.6259,243.5224 411.5239,243.6584 C411.5219,243.6604 411.5209,243.6614 411.5199,243.6634 C411.2619,243.9924 411.0039,244.3214 410.7429,244.6484 C410.2579,245.2564 409.7639,245.8584 409.2639,246.4554 C408.2279,247.6914 407.1609,248.9014 406.0669,250.0864 C403.6779,252.6724 401.1569,255.1344 398.5269,257.4744 C397.1379,258.7104 395.7179,259.9124 394.2709,261.0794 C393.9099,261.3704 393.5479,261.6594 393.1839,261.9464 C392.9889,262.1004 392.7919,262.2534 392.5959,262.4074 C392.5369,262.4534 392.4979,262.4844 392.4729,262.5044 C392.4369,262.5314 392.3829,262.5724 392.2949,262.6394 C391.5079,263.2374 390.7169,263.8304 389.9179,264.4124 C382.7089,269.6594 374.9609,274.1424 366.9209,277.9854 C364.6649,279.0634 362.3849,280.0864 360.0879,281.0714 C359.5839,281.2874 360.0629,281.0854 359.5539,281.2974 C359.2849,281.4104 359.0139,281.5224 358.7439,281.6344 C358.1199,281.8924 357.4949,282.1464 356.8689,282.3974 C355.5909,282.9094 354.3079,283.4074 353.0199,283.8924 C347.6529,285.9124 342.1989,287.7024 336.6899,289.2944 C323.8229,293.0134 310.6579,295.6624 297.4049,297.5604 C284.4479,299.4154 271.3829,300.5204 258.3039,301.1004 C271.7309,293.9044 281.6899,280.5534 284.0429,265.2534 C284.4489,262.6144 284.6879,259.9664 284.6979,257.2964 C284.6599,247.1574 281.5689,237.0554 275.6689,228.7824 C269.7499,220.4834 261.5299,214.1764 251.9569,210.6614 C232.6159,203.5594 209.9319,209.7724 196.9099,225.7264 C190.3869,233.7184 186.4669,243.4104 185.6789,253.7054 C184.8999,263.8734 187.4129,274.2874 192.7149,282.9954 C197.3319,290.5784 204.0249,296.9554 211.8889,301.1014 C202.3779,300.6764 192.8809,299.9704 183.4179,298.9154 C169.5359,297.3684 155.7229,295.0394 142.1679,291.6494 C136.2749,290.1744 130.4319,288.4954 124.6689,286.5764 C122.0439,285.7024 119.4359,284.7784 116.8479,283.8004 C115.6019,283.3294 114.3609,282.8464 113.1249,282.3494 C112.5379,282.1144 111.9519,281.8764 111.3679,281.6344 C111.0589,281.5064 110.7509,281.3784 110.4429,281.2494 C110.4229,281.2414 110.3709,281.2194 110.3209,281.1974 C110.1829,281.1394 110.0469,281.0814 109.9099,281.0224 C101.3129,277.3304 92.9809,273.0114 85.1649,267.8574 C83.4289,266.7114 81.7179,265.5254 80.0379,264.2984 C79.2409,263.7164 78.4519,263.1224 77.6669,262.5244 C77.6559,262.5154 77.6469,262.5094 77.6379,262.5014 C77.5729,262.4514 77.5069,262.4004 77.4419,262.3494 C77.2699,262.2154 77.0989,262.0814 76.9279,261.9464 C76.5149,261.6214 76.1059,261.2944 75.6979,260.9644 C72.8779,258.6814 70.1629,256.2694 67.5759,253.7264 C65.1839,251.3754 62.9009,248.9114 60.7499,246.3384 C60.2519,245.7424 59.7599,245.1404 59.2759,244.5314 C59.0459,244.2424 58.8189,243.9514 58.5899,243.6604 C58.5849,243.6544 58.5829,243.6514 58.5789,243.6464 C58.5679,243.6314 58.5579,243.6184 58.5439,243.6004 C58.4269,243.4454 58.3089,243.2924 58.1919,243.1374 C57.2959,241.9524 56.4279,240.7464 55.5889,239.5204 C52.6569,235.2344 50.0859,230.6974 47.9599,225.9584 C47.7279,225.4404 47.5069,224.9194 47.2799,224.3994 C47.6049,225.1434 47.3199,224.4924 47.1879,224.1724 C47.0809,223.9124 46.9759,223.6524 46.8719,223.3914 C46.4789,222.4064 46.1049,221.4134 45.7519,220.4134 C45.1259,218.6374 44.5629,216.8384 44.0709,215.0204 C43.6599,213.5034 43.2989,211.9724 42.9929,210.4294 C42.8659,209.7864 42.7489,209.1404 42.6419,208.4934 C42.5919,208.1924 42.5449,207.8914 42.4999,207.5894 C42.4879,207.5064 42.4759,207.4224 42.4639,207.3384 C42.3259,206.0654 42.2139,204.8014 42.1339,203.5234 C42.1299,203.4684 42.1309,203.4124 42.1309,203.3564 C42.1339,200.0544 37.0029,200.0494 36.9999,203.3564 C36.9989,204.2664 37.0879,205.1804 37.1819,206.0834 C37.4629,208.7714 37.9219,211.4424 38.5389,214.0724 C39.4129,217.7974 40.5929,221.4494 42.0209,224.9984 C43.9479,229.7844 46.2609,234.3974 48.9849,238.7794 C52.2969,244.1074 56.1619,249.1084 60.4169,253.7144 C65.5649,259.2864 71.3259,264.2584 77.4479,268.7294 C84.7009,274.0254 92.5029,278.5454 100.6009,282.4154 C110.6769,287.2314 121.1979,291.0964 131.9189,294.2024 C144.8879,297.9584 158.1589,300.6264 171.5189,302.5334 C187.9999,304.8844 204.6189,306.1304 221.2589,306.5644 C224.8509,306.6574 228.4459,306.7124 232.0399,306.7344 C234.1799,306.8704 236.3309,306.8704 238.4809,306.7314 C254.7689,306.6184 271.0619,305.8114 287.2509,303.9844 C301.4519,302.3814 315.5879,300.0374 329.4549,296.5594 C340.8339,293.7064 352.0019,290.0654 362.7919,285.4534 C371.4539,281.7514 379.8459,277.3764 387.7049,272.1754 C394.2889,267.8184 400.5319,262.8914 406.1649,257.3544 C410.8679,252.7314 415.1439,247.6624 418.8749,242.2244 C421.8399,237.9044 424.4369,233.3294 426.5819,228.5474 C428.3439,224.6214 429.8509,220.5804 430.9779,216.4244 C431.6529,213.9364 432.1789,211.4184 432.5649,208.8724 L437.1179,208.8724 C437.1619,208.8744 437.2059,208.8734 437.2509,208.8724 L437.3169,208.8724 C437.3369,208.8724 437.3559,208.8694 437.3759,208.8694 C437.3799,208.8694 437.3839,208.8694 437.3879,208.8684 C438.5609,208.8414 439.3059,208.1584 439.6209,207.2964" id="Fill-52" fill="#C5C3C6"></path>
            <path d="M353.7912,3.5652 L353.7652,3.5652 C328.7702,3.5792 308.4452,23.9262 308.4592,48.9212 C308.4742,73.9082 328.8072,94.2272 353.7902,94.2272 L353.8162,94.2272 C363.0812,94.2212 371.9882,91.4412 379.5742,86.1852 L380.1952,85.7552 L380.6792,86.1332 L397.8102,91.0122 L392.2782,74.1142 L392.0182,73.2732 L392.2672,72.8752 C396.7562,65.6882 399.1262,57.3872 399.1212,48.8702 C399.1072,23.8842 378.7732,3.5652 353.7912,3.5652 Z M353.7902,96.2792 C327.6742,96.2812 306.4222,75.0422 306.4072,48.9222 C306.3932,22.7952 327.6372,1.5272 353.7642,1.5132 L353.7912,1.5132 C379.9072,1.5132 401.1592,22.7502 401.1732,48.8692 C401.1782,57.6132 398.7882,66.1392 394.2562,73.5602 L400.9612,94.0442 L380.3162,88.1642 C372.4792,93.4692 363.3282,96.2742 353.8172,96.2792 L353.7902,96.2792 Z" id="Fill-55" fill="#C5C3C6"></path>
            <path d="M148.1716,80.8152 C135.3426,92.9122 115.6776,96.1782 99.6766,88.6062 C97.3886,87.5222 95.2026,86.2452 93.1146,84.8132 C92.4446,84.3532 91.6856,84.3812 90.9996,84.6452 C91.0296,84.6272 91.0606,84.6092 91.0906,84.5912 C86.2426,85.9722 81.3946,87.3532 76.5466,88.7342 C78.1306,83.9652 79.7316,79.1992 81.2206,74.4022 C81.4096,74.0212 81.4956,73.5902 81.4326,73.1332 C81.3966,72.6312 81.1976,72.2012 80.8966,71.8582 C71.4976,56.4082 72.4336,36.2012 83.6666,21.9212 C93.7676,9.0782 110.6366,2.6912 126.7036,5.9252 C142.4726,9.0992 155.5936,20.9392 160.1706,36.3942 C164.8426,52.1752 160.1356,69.5342 148.1716,80.8152 M166.5086,41.3102 C163.8566,23.5512 150.9546,8.4712 134.0676,2.6132 C116.7776,-3.3828 97.0266,1.1692 83.9716,13.9302 C69.9856,27.6022 65.4016,49.0932 72.8416,67.2422 C73.7626,69.4892 74.8236,71.6622 76.0486,73.7532 C74.1536,79.8082 72.0926,85.8162 70.1196,91.8462 C69.5056,93.7202 71.4576,95.5192 73.2756,95.0022 C76.5946,94.0562 79.9146,93.1112 83.2336,92.1652 C85.4426,91.5362 87.6526,90.9072 89.8616,90.2782 C90.3806,90.1302 90.9146,90.0042 91.4396,89.8542 C108.0586,100.6962 130.4756,100.3772 146.6226,88.6982 C153.7236,83.5612 159.4766,76.6292 162.9736,68.5722 C166.7086,59.9672 167.8926,50.5842 166.5086,41.3102" id="Fill-57" fill="#C5C3C6"></path>
            <path d="M380.1183,84.5916 C380.1563,84.6136 380.1943,84.6366 380.2323,84.6586 C379.5373,84.3886 378.7633,84.3546 378.0943,84.8136 C369.7763,90.5206 359.8883,93.2666 349.8133,92.5786 C341.7703,92.0286 334.0043,89.1326 327.4503,84.4636 C314.2933,75.0916 307.2623,58.4736 309.6743,42.5006 C312.0733,26.6176 323.2793,12.8426 338.5063,7.5616 C354.0443,2.1726 371.6703,5.9706 383.4893,17.4416 C396.2283,29.8056 400.2353,49.0046 393.5823,65.4786 C392.6883,67.6926 391.5623,69.8136 390.3193,71.8506 C390.0123,72.1956 389.8103,72.6316 389.7753,73.1396 C389.7143,73.5926 389.8003,74.0196 389.9873,74.3986 C391.4763,79.1966 393.0773,83.9646 394.6633,88.7346 C389.8153,87.3536 384.9663,85.9726 380.1183,84.5916 M395.1603,73.7526 C405.3063,56.4526 403.7643,34.3316 391.3793,18.5576 C380.0783,4.1636 361.2083,-2.5874 343.3133,0.9436 C325.7453,4.4106 311.1633,17.9006 306.0913,35.0306 C300.9043,52.5476 306.1993,72.0756 319.5323,84.5586 C334.0393,98.1386 355.7023,101.5496 373.7383,93.2156 C375.8323,92.2476 377.8433,91.1176 379.7713,89.8546 C380.2953,90.0046 380.8293,90.1306 381.3473,90.2776 C383.5563,90.9066 385.7653,91.5366 387.9753,92.1656 C391.2953,93.1116 394.6143,94.0566 397.9343,95.0016 C399.7513,95.5196 401.7033,93.7206 401.0903,91.8456 C399.1163,85.8166 397.0553,79.8086 395.1603,73.7526" id="Fill-59" fill="#C5C3C6"></path>
        </g>
    </g>
</svg>