<?xml version="1.0" encoding="utf-8"?>
<!-- Generator: Adobe Illustrator 22.0.1, SVG Export Plug-In . SVG Version: 6.00 Build 0)  -->
<svg version="1.1" id="Layer_1" xmlns="http://www.w3.org/2000/svg" xmlns:xlink="http://www.w3.org/1999/xlink" x="0px" y="0px"
	 viewBox="0 0 245.9 236.3" style="enable-background:new 0 0 245.9 236.3;" xml:space="preserve">
<style type="text/css">
	.st0{fill:#FFFFFF;}
</style>
<g>
	<g>
		<g>
			<path class="st0" d="M148.1,86.7c-4.4-4.4-7.2-9-8.8-14.5c-5.3,5-12.4,8.1-20.1,8.1C102.5,80.3,89,66.1,89,48.5
				c0-17.5,13.5-31.8,30.2-31.8s30.2,14.2,30.2,31.8c0,0.4,0,0.8,0,1.2c0.1,15.9,1.7,22.2,7.3,27.9c6.7-9.7,9.5-17,10.3-24.5
				c0-0.1,0-0.3,0-0.4c0.2-1.6,0.2-3.2,0.2-4.7c0-26.5-21.5-48-48-48s-48,21.5-48,48c0,1.5,0.1,3.1,0.2,4.7c0,0.1,0,0.3,0,0.4
				c1.7,15.4,11.8,30.1,47.8,66.3c13-13.1,22.7-23.4,29.7-31.9L148.1,86.7z"/>
			<circle class="st0" cx="119.2" cy="48.3" r="16.9"/>
		</g>
	</g>
	<g>
		<path class="st0" d="M95.7,227.8c0,3.3-2.7,6.1-6.1,6.1c-3.3,0-6-2.8-6-6.1v-84.7c0-3.3,2.7-6.1,6-6.1c3.4,0,6.1,2.8,6.1,6.1
			V227.8z"/>
		<path class="st0" d="M120.3,140.8c4.6,0,8.4,3.3,8.4,7.8s-3.7,7.8-8.4,7.8c-4.5,0-8.4-3.3-8.4-7.8
			C111.9,144.2,115.8,140.8,120.3,140.8z M126.4,176.8c0-3.3-2.7-6.1-6.1-6.1c-3.3,0-6,2.8-6,6.1v51c0,3.3,2.7,6.1,6,6.1
			c3.4,0,6.1-2.8,6.1-6.1V176.8z"/>
		<path class="st0" d="M164.8,224c6.2,0,10.9-3.3,10.9-8.2c0-4.5-3.6-6.8-8.2-7.8l-8.5-2c-10.5-2.8-16.7-8-16.7-17.8
			c0-10.2,9.1-18.2,21.6-18.2c8.1,0,15.9,2.9,19.5,10.1c0.5,0.9,0.7,2,0.7,2.8c0,4-3.8,5.4-5.7,5.4c-1.7,0-3-0.9-4.4-2.7
			c-2.8-3.7-6-5.2-9.8-5.2c-5.8,0-9.7,3.4-9.7,8.1c0,4,3.8,6.2,7.8,7.2l9.1,2.3c12.9,3.2,16,11,16,18c0,11.5-11.1,18.6-24,18.6
			c-9.5,0-19.4-5.3-22.3-14.8c-0.1-0.7-0.3-1.3-0.3-1.9c0-3.2,3-4.8,5.8-4.8c2.1,0,4.2,1.1,5.2,3.4C153.7,221.1,158.6,224,164.8,224
			z"/>
		<path class="st0" d="M221.5,224c6.2,0,10.9-3.3,10.9-8.2c0-4.5-3.6-6.8-8.2-7.8l-8.5-2c-10.5-2.8-16.7-8-16.7-17.8
			c0-10.2,9.1-18.2,21.6-18.2c8.1,0,15.9,2.9,19.5,10.1c0.5,0.9,0.7,2,0.7,2.8c0,4-3.8,5.4-5.7,5.4c-1.7,0-3-0.9-4.4-2.7
			c-2.8-3.7-6-5.2-9.8-5.2c-5.8,0-9.7,3.4-9.7,8.1c0,4,3.8,6.2,7.8,7.2l9.1,2.3c12.9,3.2,16,11,16,18c0,11.5-11.1,18.6-24,18.6
			c-9.5,0-19.4-5.3-22.3-14.8c-0.1-0.7-0.3-1.3-0.3-1.9c0-3.2,3-4.8,5.8-4.8c2.1,0,4.2,1.1,5.2,3.4C210.4,221.1,215.3,224,221.5,224
			z"/>
	</g>
	<path class="st0" d="M65,202.4c0-17.9-14.5-32.5-32.5-32.5C14.6,169.9,0,184.4,0,202.4s14.5,32.5,32.5,32.5
		c7.7,0,14.8-2.7,20.4-7.2v0.3c0,3.3,2.7,6.1,6,6.1c3.4,0,6.1-2.8,6.1-6.1V202.4L65,202.4L65,202.4z M32.6,223
		c-11.4,0-20.6-9.2-20.6-20.6s9.2-20.6,20.6-20.6s20.6,9.3,20.6,20.6S43.9,223,32.6,223z"/>
</g>
</svg>
