<?xml version="1.0" encoding="utf-8"?>
<!-- Generator: Adobe Illustrator 22.0.1, SVG Export Plug-In . SVG Version: 6.00 Build 0)  -->
<svg version="1.1" id="Layer_1" xmlns="http://www.w3.org/2000/svg" xmlns:xlink="http://www.w3.org/1999/xlink" x="0px" y="0px"
	 viewBox="0 0 163.5 259.6" style="enable-background:new 0 0 163.5 259.6;" xml:space="preserve">
<style type="text/css">
	.st0{fill:#C6C4C7;}
	.st1{fill:#4C5C68;}
</style>
<path class="st0" d="M65.5,258.9c-1.6,0-3.4-1-5.2-2.1c-3.2-1.9-5.1-3.7-6.5-5c-1.4-1.4-1.9-1.8-2.7-1.8c-1,0-1.6,0.8-2.7,2.1
	c-1.1,1.3-2.4,3-4.5,2.8c-3.5-0.3-6-5.2-6.3-9.6c-0.3-3.5,0.9-5.6,3.4-9.8c0.7-1.3,1.6-2.8,2.6-4.6c2.4-4.4,3.2-6.5,4-8.4
	c0.8-2.1,1.7-4.2,4.3-8.9c1-1.9,1.9-3.4,2.6-4.5c2-3.4,2.4-4.2,2.2-5.7c-0.2-1.9-1.1-2.9-2.5-4.3c-1.4-1.5-3.2-3.4-4.5-6.9
	c-1.9-5-2.3-11.8,1.3-14.9c1.6-1.4,3.4-1.5,4.7-1.7c0.1,0,0.3,0,0.4,0c-0.3-0.5-1-1.3-2-1.9c-1.1-0.7-2.2-1.1-2.9-0.8
	c-1.4,0.4-2.4,3.3-3,5.4c-0.8,2.3-1.4,4.3-3.3,4.2c-1.5-0.1-1.9-1.5-2.3-2.6c-0.1-0.3-0.3-0.8-0.4-1c-0.3,0.3-0.8,0.9-1.2,1.4
	c-1.1,1.4-2.7,3.3-5.1,4.9c-1.5,1-5.6,3.6-9.2,2.2c-5.1-2-5.5-10.4-5.5-12.1c0-3.4,0.8-5.2,1.8-7.6c0.8-1.8,1.8-4,2.8-7.7
	c0.8-3.1,1.1-5,1.3-6.7c0.2-2,0.4-3.8,1.7-6.8c1-2.4,1.9-3.6,2.9-5.1c0.8-1.1,1.7-2.4,2.9-4.6c2.6-4.4,4.5-8.9,5.3-11.5
	c-1.9,1.7-5.6,5.5-12.8,14.4c-0.8,0.9-1.5,1.8-2.1,2.6c-3.7,4.6-5.8,7.2-10,9c-4.9,2.1-10.5,2.1-13,0.9c-0.9-0.4-1.6-1.1-1.8-1.8
	c-0.6-1.8,1.1-3.1,2.8-4.4c1.5-1.2,3.4-2.7,3.4-4.2c-0.1-1-1-1.9-2-2.8c-1.1-1-2.6-2.3-2.1-4.2c0.5-2.1,2.9-2.8,5-3.4
	c0.7-0.2,2.8-0.8,2.9-1.2c0-0.5-1.6-1.9-2.3-2.4c-1.7-1.4-3.6-3-3.1-5c0.6-2.2,3.3-2.6,6.3-2.9c2.8-0.3,6.4-0.8,7.5-2.8
	c0.3-0.6,0.3-0.9,0.1-1.9c-0.2-1.1-0.5-2.6-0.2-5c0.4-2.9,1.4-4.4,2.5-6.1c0.9-1.4,1.9-3,3-5.8c0.8-2.2,1.9-5.3,1.6-9.3
	c-0.1-1.6-0.3-4-1.8-6.4c-0.7-1.1-1.3-1.6-1.8-2c-0.7-0.6-1.4-1.2-1.7-2.6c-0.5-2.3,0.8-3.9,1.9-5.3c1-1.2,1.8-2.2,1.8-3.7
	c0-0.9-0.4-1.3-1-2.1c-0.7-0.9-1.6-1.9-1.9-3.9c-0.9-5.3,3.3-9.9,4.6-11.2c2.5-2.5,5.3-3.5,9.2-4.9c2.4-0.9,4.4-1.3,5.8-1.7
	c0.8-0.2,1.8-0.4,2.2-0.6c-0.3-0.4-1.1-1-1.6-1.4c-1.7-1.4-3.9-3.1-3.7-5.7c0.1-1.5,1-2.4,2.1-3.4c0.5-0.4,1-0.9,1.6-1.6
	c0,0,2.8-3.1,4.7-7.4c1.1-2.4,1-3.7,0.9-5.6c-0.1-1.7-0.1-3.8,0.6-6.9C48,8.7,49.7,2,54.4,0.5c2.4-0.8,4.2,0.2,6.3,1.3
	c1.7,0.9,3.9,2.1,7.3,2.8c2.9,0.6,5,0.5,8.7,0.4c5.2-0.2,9.5-1.1,18.7-3.3c1.5-0.3,2.6-0.6,3.5-0.8c2.6-0.6,3.4-0.8,5.1-0.9
	c3-0.1,11-0.4,14.5,4.8c2.2,3.4,1.5,7.3,1,9.4c-0.9,4.4-3.2,8.1-8.3,13.2c-3.6,3.6-6.4,5.7-9.3,8c-3,2.3-6.2,4.7-10.5,8.9
	c-3.8,3.6-5.7,6-5.4,8.2c0.2,1.1,0.8,1.7,1.9,2.6c1.1,0.9,2.4,1.9,3,3.8c1.6,5.1-3.6,10.4-7.3,14.3c-0.4,0.4-0.7,0.8-1.1,1.2
	c1.9-0.7,4.7-2.1,7.9-3.9c3.4-1.9,5.4-3.4,6.9-4.6c1.8-1.4,3.3-2.4,5.7-3.3c3-1.1,4.6-0.9,8.3-0.5c2,0.2,4.8,0.6,8.9,0.8
	c12.7,0.7,19.1,1.1,26.5,0c0.5-0.1,0.9-0.1,1.3-0.2c2.8-0.4,4.8-0.8,7.3,0.3c5.6,2.5,9.2,10.4,7.9,17.3c-0.6,3.3-2.2,4.9-3.8,6.6
	c-1.4,1.5-3,3.1-4.6,6.5c-1.3,2.9-1.4,4.5-1.6,6.5c-0.1,2-0.3,4.5-1.7,8.6c-1.1,3.4-2,4.8-3.1,6.6c-1.1,1.7-2.4,3.9-4.4,8.8
	c-0.9,2.1-1.5,3.6-1.9,4.9c-1.1,2.9-1.7,4.6-3.6,7c-1.3,1.7-4.4,5.6-9.7,7.5c-3,1.1-5.1,1-7,0.9c-1.8-0.1-3.2-0.2-5.3,0.7
	c-2.6,1.1-4.4,3-5.5,4.5c0,0,0.1,0,0.1,0c1.6-0.8,3.8-1.8,6.4-2.7c0.7-0.2,2.7-0.9,5.4-1.2c0.8-0.1,1.4-0.1,1.8-0.1
	c2.9,0.1,5.7,2.9,7.3,5.2c1.8,2.8,2.3,5.5,1.5,7.6c-1,2.5-3.4,2.7-6,3c-2.6,0.3-5.8,0.7-9.4,3c-1.9,1.2-2.9,2.3-3.9,3.5
	c-1.4,1.5-2.9,3.1-6.1,4.9c-2.3,1.3-4.3,1.9-5.8,2.3c3.6,1.2,11.4,2.3,18.6-0.5c2.1-0.8,3.4-1.7,4.6-2.4c1.8-1.1,3.3-2.1,6.2-2.2
	c6.6-0.2,11.5,4.4,15.1,7.8c0.6,0.6,1.3,1.2,2,1.8c3.5,3.1,7.5,6.6,6.4,11.2c-0.7,3.1-2.6,3.9-4.2,4.6c-1.5,0.7-3.1,1.4-4.8,3.9
	c-2,3.1-1.6,6.2-1,9.8c0.5,3.5,1.2,7.5-1,11.6c-1.7,3.2-4.2,4.3-8,6.1c-3.6,1.7-8.6,3.9-15.5,9.1c-0.6,0.5-1.2,0.9-1.7,1.3
	c-2.4,1.8-4.3,3.3-7.5,4.7c-3.5,1.5-5.7,1.7-7.8,2c-1.6,0.2-3.2,0.3-5.3,1.2c-4.2,1.6-6.1,3.9-7.9,6c-1.8,2.2-3.5,4.2-7.1,4.6
	l-0.2-1.5l0.2,1.5c-4.6,0.5-8.6-2.2-11.5-4.2c-1.1-0.8-2.9-2-3.4-1.9c-0.3,0.3-0.1,2.4,0,3.1c0.3,2.2,0.6,4.8-1.4,6
	C66.6,258.8,66.1,258.9,65.5,258.9z M51.2,247c2,0,3.2,1.2,4.7,2.6c1.3,1.3,3,2.9,5.9,4.6c0.9,0.5,3.4,2,3.8,1.7
	c0.3-0.3,0.1-2.2,0-3.1c-0.3-2.2-0.6-4.6,1.1-5.9c2-1.5,4.4,0.1,6.9,1.8c2.6,1.8,5.9,4.1,9.4,3.7c2.4-0.3,3.5-1.6,5.1-3.6
	c1.8-2.2,4.2-5,9.1-6.9c2.5-1,4.3-1.1,6-1.3c2-0.2,3.8-0.4,6.9-1.7c2.9-1.2,4.5-2.5,6.9-4.3c0.5-0.4,1.1-0.8,1.7-1.3
	c7.2-5.4,12.3-7.7,16.1-9.4c3.5-1.6,5.4-2.5,6.6-4.7c1.7-3.2,1.2-6.4,0.7-9.7c-0.6-3.9-1.2-7.8,1.4-11.9c2.1-3.3,4.4-4.2,6.1-5
	c1.5-0.7,2.2-1,2.5-2.6c0.6-2.9-2.3-5.5-5.5-8.3c-0.7-0.6-1.4-1.2-2-1.8c-3.4-3.2-7.7-7.2-13-7c-2.1,0.1-3.1,0.7-4.7,1.8
	c-1.2,0.8-2.8,1.8-5.1,2.7c-10,3.8-20.4,1.1-23-0.6c-0.8-0.6-1.3-1.2-1.3-1.9c0-1.6,1.4-1.9,2.9-2.3c1.4-0.4,3.5-0.9,6.2-2.3
	c2.8-1.5,4-2.8,5.3-4.2c1.1-1.3,2.3-2.5,4.5-4c4.2-2.7,8-3.2,10.7-3.5c2.4-0.3,3.3-0.4,3.6-1.2c0.4-1.1,0-2.9-1.2-4.8
	c-1.4-2.2-3.5-3.9-4.9-3.9c-0.1,0-0.5,0-1.4,0.1c-2.1,0.2-3.7,0.7-4.7,1.1c-2.4,0.8-4.5,1.8-6.1,2.6c-2.6,1.2-4,1.9-5,0.7
	c-0.4-0.5-0.5-1.1-0.4-1.9c0.5-2.3,3.7-6.6,8.3-8.7c2.8-1.2,4.8-1.1,6.7-1c1.7,0.1,3.4,0.2,5.8-0.7c4.5-1.6,7.2-5,8.4-6.6
	c1.6-2,2.1-3.4,3.2-6.2c0.5-1.3,1.1-2.9,2-5c2.1-5,3.5-7.3,4.6-9.1c1-1.7,1.8-3,2.8-6c1.3-3.8,1.4-6,1.6-7.9
	c0.2-2.1,0.3-4.1,1.8-7.5c1.7-3.9,3.6-5.8,5.1-7.4c1.5-1.6,2.5-2.6,3-5.1c1.1-5.5-1.9-12.2-6.2-14.1c-1.7-0.7-3.1-0.5-5.7-0.1
	c-0.4,0.1-0.9,0.1-1.4,0.2c-7.7,1.2-14.2,0.8-27.2,0c-4.2-0.2-7-0.6-9-0.8c-3.5-0.4-4.6-0.5-6.9,0.3c-2,0.8-3.2,1.6-4.9,2.9
	c-1.7,1.2-3.7,2.8-7.2,4.8c-1.2,0.7-4.3,2.4-7.2,3.7c-3.1,1.3-5.3,1.9-6.3,0.5c-1.2-1.6,0.4-3.3,3.1-6c3-3.2,7.7-7.9,6.6-11.4
	c-0.3-1-1.1-1.6-2-2.4c-1.2-1-2.6-2.1-3-4.4c-0.6-3.8,2.4-7.1,6.2-10.8c4.5-4.3,7.7-6.8,10.8-9.2c2.9-2.2,5.6-4.3,9-7.7
	c4.7-4.7,6.7-7.8,7.4-11.6c0.4-1.8,0.9-4.8-0.6-7.2c-2.5-3.8-9.4-3.6-11.9-3.5c-1.4,0.1-2,0.2-4.5,0.8c-0.9,0.2-2,0.5-3.5,0.8
	c-8.8,2-13.6,3.1-19.3,3.3c-3.9,0.2-6.2,0.2-9.5-0.4c-3.7-0.8-6.2-2.1-8-3.1c-2-1-2.9-1.5-4-1.1c-3.1,1-4.5,6.6-5.2,9.7
	c-0.7,2.8-0.6,4.5-0.6,6.1c0.1,2,0.1,3.9-1.2,6.9c-2.1,4.8-5.1,8.1-5.2,8.3c-0.7,0.8-1.3,1.3-1.7,1.8c-0.9,0.9-1.1,1.1-1.2,1.5
	c-0.1,1,1.3,2.2,2.6,3.2c1.5,1.2,3.2,2.6,2.8,4.5C45.1,47,43.4,47.4,41,48c-1.4,0.3-3.2,0.8-5.5,1.6c-3.8,1.3-6,2.1-8.1,4.2
	c-0.7,0.7-4.4,4.6-3.7,8.6c0.2,1.2,0.7,1.8,1.3,2.5c0.7,0.9,1.6,1.9,1.6,3.9c0.1,2.5-1.3,4.2-2.4,5.6c-1,1.2-1.5,2-1.3,2.8
	c0.1,0.3,0.2,0.5,0.7,1c0.6,0.5,1.4,1.3,2.4,2.7c1.9,3,2.1,5.9,2.3,7.7c0.4,4.6-0.9,8.2-1.7,10.5c-1.1,3.2-2.3,5-3.3,6.4
	c-1,1.6-1.7,2.6-2,4.9c-0.3,1.9,0,3,0.2,4c0.2,1.2,0.5,2.4-0.4,4c-1.8,3.3-6.2,3.9-9.7,4.3c-1.3,0.2-3.1,0.4-3.7,0.7
	c0.3,0.5,1.4,1.4,2,2c1.8,1.5,3.8,3.2,3.3,5.4c-0.5,2.1-2.9,2.8-5,3.3c-0.8,0.2-2.8,0.8-2.9,1.2c0,0.3,0.8,1,1.2,1.4
	c1.2,1.1,2.8,2.6,2.9,4.8c0.2,3.1-2.5,5.2-4.5,6.7c-0.5,0.4-1.1,0.9-1.5,1.2c1.4,0.6,5.9,1,10.5-1c3.6-1.5,5.4-3.7,8.9-8.1
	c0.6-0.8,1.3-1.7,2.1-2.6c1.2-1.4,4.7-5.8,8.2-9.6c2-2.2,3.6-3.9,4.9-5c1.6-1.4,3.2-2.7,4.6-1.8c1.4,0.9,1.2,2.8-0.6,7.3
	c-1.2,3-3,6.6-4.7,9.6c-1.3,2.3-2.3,3.7-3.1,4.8c-1,1.4-1.7,2.4-2.6,4.5c-1.1,2.6-1.3,4-1.5,5.9c-0.2,1.7-0.4,3.7-1.3,7.1
	c-1,3.9-2.1,6.2-2.9,8.1c-1,2.3-1.6,3.6-1.6,6.4c0,2.8,0.8,8.3,3.6,9.4c2.2,0.9,5.4-1.2,6.5-1.9c2-1.3,3.4-3,4.4-4.3
	c1.2-1.5,2.4-3,4.2-2.5c1.2,0.3,1.8,1.3,2.2,2.3c0.1-0.3,0.2-0.5,0.2-0.8c0.9-2.9,2.1-6.4,5-7.3c2.6-0.8,5.5,0.9,7.2,2.6
	c0.8,0.9,2.2,2.6,1.7,4.2c-0.5,1.5-2.1,1.7-3.2,1.8c-1.1,0.1-2.2,0.2-3,0.9c-2.2,1.9-1.9,7.4-0.4,11.6c1.1,2.9,2.5,4.4,3.8,5.9
	c1.5,1.6,2.9,3.1,3.3,6c0.3,2.6-0.6,4-2.6,7.6c-0.7,1.2-1.5,2.6-2.5,4.5c-2.5,4.5-3.3,6.5-4.1,8.6c-0.8,2.1-1.7,4.2-4.2,8.7
	c-1,1.9-1.9,3.4-2.6,4.7c-2.3,4-3.2,5.5-3,8.1c0.3,3.5,2.2,6.8,3.6,6.9c0.5,0,1.1-0.6,1.9-1.7c1.1-1.4,2.5-3.2,4.9-3.3
	C51.1,247,51.2,247,51.2,247z M2.9,149.2L2.9,149.2z"/>
<g>
	<path class="st1" d="M46.1,35.1c2.3,1.4,4.2,3.2,5.5,5.5c1.4,2.3,2.1,4.9,2.1,7.6c0,1.5-0.2,2.9-0.6,4.1c-0.4,1.2-1.1,2.7-2.1,4.6
		c-0.7,1.3-2.3,3.7-4.6,7.4l-4.7,7.4c-0.5,0.8-1.1,1.3-2,1.6c-0.8,0.3-1.7,0.3-2.5,0c-0.8-0.3-1.5-0.8-2-1.6l-4.7-7.4
		c-2.3-3.7-3.9-6.1-4.6-7.4c-1.1-1.9-1.8-3.5-2.1-4.7c-0.4-1.2-0.6-2.6-0.6-4.1c0-2.7,0.7-5.3,2.1-7.6c1.4-2.3,3.2-4.2,5.5-5.5
		c2.3-1.4,4.9-2.1,7.6-2.1C41.3,33,43.8,33.7,46.1,35.1z M43.5,61.8c2.1-3.4,3.5-5.6,4.2-6.7c0.9-1.6,1.5-2.8,1.8-3.7
		c0.3-0.9,0.4-2,0.4-3.2c0-2.1-0.5-4-1.5-5.7c-1-1.7-2.4-3.1-4.2-4.2c-1.7-1-3.6-1.5-5.7-1.5s-4,0.5-5.7,1.5c-1.7,1-3.1,2.4-4.2,4.2
		c-1,1.7-1.5,3.6-1.5,5.7c0,1.2,0.1,2.3,0.4,3.2c0.3,0.9,0.9,2.2,1.9,3.8c0.6,1.1,2,3.4,4.1,6.7c2,3.1,3.7,5.7,5,7.8L43.5,61.8z
		 M34.1,52.7c1.2,1.2,2.7,1.9,4.5,1.9c1.7,0,3.2-0.6,4.5-1.9c1.2-1.2,1.9-2.7,1.9-4.5S44.2,45,43,43.7c-1.2-1.2-2.7-1.9-4.5-1.9
		c-1.7,0-3.2,0.6-4.5,1.9c-1.2,1.2-1.9,2.7-1.9,4.5S32.8,51.5,34.1,52.7z"/>
</g>
<g>
	<path class="st1" d="M140.6,60.3c2.3,1.4,4.2,3.2,5.5,5.5c1.4,2.3,2.1,4.9,2.1,7.6c0,1.5-0.2,2.9-0.6,4.1c-0.4,1.2-1.1,2.7-2.1,4.6
		c-0.7,1.3-2.3,3.7-4.6,7.4l-4.7,7.4c-0.5,0.8-1.1,1.3-2,1.6c-0.8,0.3-1.7,0.3-2.5,0c-0.8-0.3-1.5-0.8-2-1.6l-4.7-7.4
		c-2.3-3.7-3.9-6.1-4.6-7.4c-1.1-1.9-1.8-3.5-2.1-4.7c-0.4-1.2-0.6-2.6-0.6-4.1c0-2.7,0.7-5.3,2.1-7.6c1.4-2.3,3.2-4.2,5.5-5.5
		c2.3-1.4,4.9-2.1,7.6-2.1C135.8,58.3,138.3,59,140.6,60.3z M138,87.1c2.1-3.4,3.5-5.6,4.2-6.7c0.9-1.6,1.5-2.8,1.8-3.7
		c0.3-0.9,0.4-2,0.4-3.2c0-2.1-0.5-4-1.5-5.7c-1-1.7-2.4-3.1-4.2-4.2c-1.7-1-3.6-1.5-5.7-1.5c-2.1,0-4,0.5-5.7,1.5
		c-1.7,1-3.1,2.4-4.2,4.2c-1,1.7-1.5,3.6-1.5,5.7c0,1.2,0.1,2.3,0.4,3.2c0.3,0.9,0.9,2.2,1.9,3.8c0.6,1.1,2,3.4,4.1,6.7
		c2,3.1,3.7,5.7,5,7.8L138,87.1z M128.6,78c1.2,1.2,2.7,1.9,4.5,1.9c1.7,0,3.2-0.6,4.5-1.9c1.2-1.2,1.9-2.7,1.9-4.5
		s-0.6-3.2-1.9-4.5c-1.2-1.2-2.7-1.9-4.5-1.9c-1.7,0-3.2,0.6-4.5,1.9c-1.2,1.2-1.9,2.7-1.9,4.5S127.3,76.7,128.6,78z"/>
</g>
<g>
	<path class="st1" d="M76.1,127.2c2.3,1.4,4.2,3.2,5.5,5.5c1.4,2.3,2.1,4.9,2.1,7.6c0,1.5-0.2,2.9-0.6,4.1c-0.4,1.2-1.1,2.7-2.1,4.6
		c-0.7,1.3-2.3,3.7-4.6,7.4l-4.7,7.4c-0.5,0.8-1.1,1.3-2,1.6c-0.8,0.3-1.7,0.3-2.5,0c-0.8-0.3-1.5-0.8-2-1.6l-4.7-7.4
		c-2.3-3.7-3.9-6.1-4.6-7.4c-1.1-1.9-1.8-3.5-2.1-4.7c-0.4-1.2-0.6-2.6-0.6-4.1c0-2.7,0.7-5.3,2.1-7.6c1.4-2.3,3.2-4.2,5.5-5.5
		c2.3-1.4,4.9-2.1,7.6-2.1C71.3,125.2,73.8,125.8,76.1,127.2z M73.5,154c2.1-3.4,3.5-5.6,4.2-6.7c0.9-1.6,1.5-2.8,1.8-3.7
		c0.3-0.9,0.4-2,0.4-3.2c0-2.1-0.5-4-1.5-5.7c-1-1.7-2.4-3.1-4.2-4.2c-1.7-1-3.6-1.5-5.7-1.5c-2.1,0-4,0.5-5.7,1.5
		c-1.7,1-3.1,2.4-4.2,4.2c-1,1.7-1.5,3.6-1.5,5.7c0,1.2,0.1,2.3,0.4,3.2c0.3,0.9,0.9,2.2,1.9,3.8c0.6,1.1,2,3.4,4.1,6.7
		c2,3.1,3.7,5.7,5,7.8L73.5,154z M64.1,144.8c1.2,1.2,2.7,1.9,4.5,1.9c1.7,0,3.2-0.6,4.5-1.9c1.2-1.2,1.9-2.7,1.9-4.5
		c0-1.7-0.6-3.2-1.9-4.5c-1.2-1.2-2.7-1.9-4.5-1.9c-1.7,0-3.2,0.6-4.5,1.9c-1.2,1.2-1.9,2.7-1.9,4.5
		C62.2,142.1,62.8,143.6,64.1,144.8z"/>
</g>
</svg>
