<?xml version="1.0" encoding="utf-8"?>
<!-- Generator: Adobe Illustrator 22.0.1, SVG Export Plug-In . SVG Version: 6.00 Build 0)  -->
<svg version="1.1" id="Layer_1" xmlns="http://www.w3.org/2000/svg" xmlns:xlink="http://www.w3.org/1999/xlink" x="0px" y="0px"
	 viewBox="0 0 138.2 213.5" style="enable-background:new 0 0 138.2 213.5;" xml:space="preserve">
<style type="text/css">
	.st0{fill:#C6C4C7;}
	.st1{fill:#4C5C68;}
	.st2{fill-rule:evenodd;clip-rule:evenodd;fill:none;stroke:#C6C4C7;stroke-width:14;stroke-miterlimit:10;}
	.st3{fill-rule:evenodd;clip-rule:evenodd;}
</style>
<path class="st0" d="M66.9,213.5c-1,0-2.1-0.6-3.3-1.3c-2-1.2-3.2-2.3-4-3.1c-0.9-0.9-1.2-1.1-1.7-1.1c-0.6,0-1,0.5-1.7,1.3
	c-0.7,0.8-1.5,1.9-2.8,1.8c-2.2-0.2-3.7-3.3-3.9-6c-0.2-2.2,0.6-3.5,2.1-6.1c0.5-0.8,1-1.7,1.6-2.9c1.5-2.8,2-4,2.5-5.3
	c0.5-1.3,1.1-2.6,2.7-5.6c0.6-1.2,1.2-2.1,1.6-2.8c1.2-2.1,1.5-2.6,1.4-3.6c-0.1-1.2-0.7-1.8-1.5-2.7c-0.9-0.9-2-2.1-2.8-4.3
	c-1.2-3.1-1.4-7.4,0.8-9.3c1-0.8,2.1-1,2.9-1c0.1,0,0.2,0,0.3,0c-0.2-0.3-0.6-0.8-1.2-1.2c-0.7-0.5-1.4-0.7-1.8-0.5
	c-0.9,0.3-1.5,2-1.9,3.3c-0.5,1.5-0.9,2.7-2,2.6c-0.9-0.1-1.2-1-1.4-1.6c-0.1-0.2-0.2-0.5-0.3-0.6c-0.2,0.2-0.5,0.6-0.7,0.9
	c-0.7,0.9-1.7,2.1-3.2,3.1c-0.9,0.6-3.5,2.3-5.7,1.4c-3.2-1.2-3.4-6.5-3.4-7.6c0-2.1,0.5-3.3,1.1-4.7c0.5-1.1,1.1-2.5,1.7-4.8
	c0.5-2,0.7-3.1,0.8-4.2c0.1-1.3,0.3-2.3,1.1-4.2c0.6-1.5,1.2-2.3,1.8-3.2c0.5-0.7,1.1-1.5,1.8-2.9c1.6-2.8,2.8-5.5,3.3-7.1
	c-1.2,1-3.5,3.4-8,9c-0.5,0.6-0.9,1.1-1.3,1.6c-2.3,2.9-3.6,4.5-6.3,5.6c-3.1,1.3-6.5,1.3-8.1,0.6c-0.6-0.3-1-0.7-1.1-1.1
	c-0.3-1.1,0.7-2,1.7-2.8c1-0.7,2.1-1.7,2.1-2.6c0-0.7-0.6-1.2-1.2-1.8c-0.7-0.7-1.6-1.5-1.3-2.6c0.3-1.3,1.8-1.8,3.1-2.1
	c0.4-0.1,1.7-0.5,1.8-0.7c0-0.3-1-1.2-1.4-1.5c-1-0.9-2.2-1.9-1.9-3.1c0.3-1.4,2.1-1.6,3.9-1.8c1.8-0.2,4-0.5,4.7-1.7
	c0.2-0.4,0.2-0.6,0-1.2c-0.1-0.7-0.3-1.6-0.1-3.1c0.2-1.8,0.9-2.7,1.6-3.8c0.6-0.9,1.2-1.8,1.8-3.6c0.5-1.4,1.2-3.3,1-5.8
	c-0.1-1-0.2-2.5-1.1-4c-0.4-0.7-0.8-1-1.1-1.3c-0.4-0.4-0.9-0.8-1.1-1.6c-0.3-1.4,0.5-2.4,1.2-3.3c0.6-0.8,1.1-1.4,1.1-2.3
	c0-0.6-0.2-0.8-0.6-1.3c-0.4-0.5-1-1.2-1.2-2.5c-0.6-3.3,2-6.2,2.8-7c1.6-1.6,3.3-2.2,5.8-3c1.5-0.5,2.7-0.8,3.6-1
	c0.5-0.1,1.1-0.3,1.4-0.4c-0.2-0.3-0.7-0.6-1-0.9c-1.1-0.9-2.4-1.9-2.3-3.6c0.1-1,0.6-1.5,1.3-2.1c0.3-0.3,0.6-0.6,1-1
	c0,0,1.7-1.9,2.9-4.6c0.7-1.5,0.6-2.3,0.6-3.5c0-1-0.1-2.3,0.4-4.3c0.5-2.2,1.6-6.4,4.5-7.4c1.5-0.5,2.6,0.1,3.9,0.8
	c1.1,0.6,2.4,1.3,4.5,1.7c1.8,0.4,3.1,0.3,5.4,0.2c3.2-0.1,5.9-0.7,11.7-2c0.9-0.2,1.6-0.4,2.2-0.5c1.6-0.4,2.1-0.5,3.2-0.5
	c1.9-0.1,6.9-0.3,9.1,3c1.4,2.1,0.9,4.5,0.7,5.8c-0.5,2.7-2,5-5.2,8.2c-2.2,2.2-4,3.6-5.8,5c-1.9,1.4-3.8,2.9-6.6,5.6
	c-2.3,2.3-3.6,3.8-3.3,5.1c0.1,0.7,0.5,1,1.2,1.6c0.7,0.5,1.5,1.2,1.9,2.4c1,3.2-2.2,6.5-4.6,8.9c-0.2,0.2-0.5,0.5-0.7,0.7
	c1.2-0.5,2.9-1.3,4.9-2.4c2.1-1.2,3.3-2.1,4.3-2.9c1.1-0.9,2-1.5,3.5-2.1c1.9-0.7,2.9-0.6,5.2-0.3c1.3,0.1,3,0.4,5.5,0.5
	c7.9,0.5,11.9,0.7,16.6,0c0.3,0,0.6-0.1,0.8-0.1c1.8-0.3,3-0.5,4.6,0.2c3.5,1.5,5.8,6.5,4.9,10.8c-0.4,2.1-1.4,3.1-2.4,4.1
	c-0.9,0.9-1.9,2-2.9,4.1c-0.8,1.8-0.9,2.8-1,4c-0.1,1.2-0.2,2.8-1.1,5.4c-0.7,2.1-1.2,3-1.9,4.1c-0.7,1.1-1.5,2.4-2.7,5.5
	c-0.5,1.3-0.9,2.3-1.2,3.1c-0.7,1.8-1.1,2.9-2.3,4.4c-0.8,1-2.8,3.5-6.1,4.7c-1.9,0.7-3.2,0.6-4.4,0.5c-1.1-0.1-2-0.1-3.3,0.5
	c-1.6,0.7-2.8,1.9-3.4,2.8c0,0,0,0,0.1,0c1-0.5,2.4-1.1,4-1.7c0.4-0.1,1.7-0.6,3.3-0.8c0.5-0.1,0.9-0.1,1.1-0.1
	c1.8,0,3.6,1.8,4.5,3.3c1.1,1.7,1.5,3.4,0.9,4.7c-0.6,1.5-2.1,1.7-3.7,1.9c-1.6,0.2-3.6,0.4-5.9,1.9c-1.2,0.8-1.8,1.4-2.5,2.2
	c-0.9,1-1.8,1.9-3.8,3c-1.4,0.8-2.7,1.2-3.6,1.4c2.2,0.8,7.1,1.4,11.6-0.3c1.3-0.5,2.1-1,2.9-1.5c1.1-0.7,2.1-1.3,3.9-1.4
	c4.1-0.1,7.2,2.8,9.4,4.9c0.4,0.4,0.8,0.7,1.2,1.1c2.2,1.9,4.7,4.1,4,7c-0.4,1.9-1.6,2.4-2.7,2.9c-1,0.4-1.9,0.8-3,2.4
	c-1.3,1.9-1,3.9-0.6,6.1c0.3,2.2,0.7,4.7-0.6,7.2c-1,2-2.6,2.7-5,3.8c-2.3,1-5.4,2.4-9.7,5.7c-0.4,0.3-0.7,0.5-1.1,0.8
	c-1.5,1.1-2.7,2.1-4.7,2.9c-2.2,0.9-3.5,1.1-4.8,1.2c-1,0.1-2,0.2-3.3,0.7c-2.6,1-3.8,2.5-4.9,3.7c-1.1,1.4-2.2,2.6-4.4,2.9
	l-0.1-0.9l0.1,0.9c-2.9,0.3-5.3-1.4-7.2-2.6c-0.7-0.5-1.8-1.2-2.1-1.2c-0.2,0.2,0,1.5,0,2c0.2,1.4,0.4,3-0.8,3.7
	C67.6,213.4,67.3,213.5,66.9,213.5z M58,206.1c1.2,0,2,0.8,2.9,1.7c0.8,0.8,1.8,1.8,3.7,2.9c0.6,0.3,2.1,1.2,2.4,1
	c0.2-0.2,0.1-1.4,0-2c-0.2-1.3-0.3-2.9,0.7-3.7c1.2-0.9,2.7,0.1,4.3,1.1c1.7,1.1,3.7,2.5,5.9,2.3c1.5-0.2,2.2-1,3.2-2.2
	c1.2-1.4,2.6-3.1,5.7-4.3c1.6-0.6,2.7-0.7,3.8-0.8c1.2-0.1,2.4-0.3,4.3-1.1c1.8-0.8,2.8-1.5,4.3-2.7c0.3-0.3,0.7-0.5,1.1-0.8
	c4.5-3.4,7.7-4.8,10-5.9c2.2-1,3.4-1.5,4.1-3c1.1-2,0.7-4,0.4-6.1c-0.4-2.4-0.8-4.9,0.9-7.4c1.3-2,2.8-2.6,3.8-3.1
	c1-0.4,1.4-0.6,1.6-1.6c0.4-1.8-1.5-3.4-3.4-5.2c-0.4-0.4-0.9-0.8-1.3-1.1c-2.1-2-4.8-4.5-8.1-4.4c-1.3,0-1.9,0.4-2.9,1.1
	c-0.8,0.5-1.7,1.1-3.2,1.7c-6.2,2.4-12.7,0.7-14.4-0.4c-0.5-0.4-0.8-0.8-0.8-1.2c0-1,0.9-1.2,1.8-1.4c0.9-0.2,2.2-0.6,3.8-1.5
	c1.7-0.9,2.5-1.8,3.3-2.7c0.7-0.8,1.5-1.6,2.8-2.5c2.6-1.7,5-2,6.7-2.2c1.5-0.2,2-0.3,2.2-0.8c0.3-0.7,0-1.8-0.8-3
	c-0.9-1.4-2.2-2.4-3-2.4c-0.1,0-0.3,0-0.9,0.1c-1.3,0.1-2.3,0.4-2.9,0.7c-1.5,0.5-2.8,1.1-3.8,1.6c-1.6,0.8-2.5,1.2-3.1,0.4
	c-0.3-0.3-0.3-0.7-0.2-1.2c0.3-1.4,2.3-4.1,5.2-5.4c1.7-0.8,3-0.7,4.2-0.6c1.1,0.1,2.1,0.1,3.6-0.4c2.8-1,4.5-3.1,5.3-4.1
	c1-1.3,1.3-2.1,2-3.9c0.3-0.8,0.7-1.8,1.2-3.1c1.3-3.1,2.2-4.6,2.9-5.7c0.7-1.1,1.1-1.9,1.8-3.8c0.8-2.4,0.9-3.8,1-5
	c0.1-1.3,0.2-2.6,1.1-4.7c1.1-2.4,2.3-3.6,3.2-4.6c1-1,1.6-1.6,1.9-3.2c0.7-3.4-1.2-7.6-3.8-8.8c-1-0.5-1.9-0.3-3.5-0.1
	c-0.3,0-0.6,0.1-0.9,0.1c-4.8,0.7-8.9,0.5-16.9,0c-2.6-0.2-4.4-0.4-5.6-0.5c-2.2-0.3-2.9-0.3-4.3,0.2c-1.3,0.5-2,1-3.1,1.8
	c-1,0.8-2.3,1.7-4.5,3c-0.7,0.4-2.7,1.5-4.5,2.3c-1.9,0.8-3.3,1.2-3.9,0.3c-0.7-1,0.3-2,1.9-3.7c1.9-2,4.8-5,4.1-7.1
	c-0.2-0.7-0.7-1-1.2-1.5c-0.7-0.6-1.6-1.3-1.9-2.7c-0.4-2.4,1.5-4.5,3.9-6.7c2.8-2.7,4.8-4.2,6.7-5.7c1.8-1.4,3.5-2.7,5.6-4.8
	c2.9-2.9,4.2-4.9,4.6-7.3c0.2-1.1,0.6-3-0.4-4.5c-1.6-2.4-5.8-2.2-7.4-2.2c-0.9,0-1.2,0.1-2.8,0.5c-0.6,0.1-1.3,0.3-2.2,0.5
	c-5.5,1.3-8.5,1.9-12,2.1c-2.4,0.1-3.9,0.2-5.9-0.3c-2.3-0.5-3.9-1.3-5-1.9c-1.2-0.6-1.8-0.9-2.5-0.7c-1.9,0.6-2.8,4.1-3.2,6
	c-0.4,1.7-0.4,2.8-0.3,3.8c0,1.3,0.1,2.4-0.7,4.3c-1.3,3-3.2,5.1-3.3,5.1c-0.4,0.5-0.8,0.8-1.1,1.1c-0.6,0.5-0.7,0.7-0.7,0.9
	c-0.1,0.6,0.8,1.4,1.6,2c0.9,0.8,2,1.6,1.7,2.8c-0.2,1.1-1.3,1.4-2.8,1.7c-0.9,0.2-2,0.5-3.4,1c-2.4,0.8-3.8,1.3-5.1,2.6
	c-0.5,0.5-2.7,2.9-2.3,5.4c0.1,0.8,0.4,1.1,0.8,1.6c0.4,0.5,1,1.2,1,2.4c0,1.6-0.8,2.6-1.5,3.5c-0.6,0.8-0.9,1.2-0.8,1.7
	c0,0.2,0.1,0.3,0.5,0.6c0.4,0.3,0.9,0.8,1.5,1.7c1.2,1.9,1.3,3.7,1.4,4.8c0.2,2.9-0.6,5.1-1.1,6.6c-0.7,2-1.4,3.1-2,4
	c-0.6,1-1.1,1.6-1.3,3c-0.2,1.2,0,1.9,0.1,2.5c0.2,0.7,0.3,1.5-0.2,2.5c-1.1,2.1-3.9,2.4-6.1,2.7c-0.8,0.1-2,0.2-2.3,0.5
	c0.2,0.3,0.8,0.9,1.3,1.2c1.1,0.9,2.4,2,2,3.4c-0.3,1.3-1.8,1.7-3.1,2.1c-0.5,0.1-1.7,0.5-1.8,0.7c0,0.2,0.5,0.6,0.8,0.9
	c0.7,0.7,1.7,1.6,1.8,3c0.1,1.9-1.6,3.2-2.8,4.2c-0.3,0.2-0.7,0.5-0.9,0.8c0.9,0.4,3.7,0.6,6.6-0.6c2.2-0.9,3.3-2.3,5.5-5.1
	c0.4-0.5,0.8-1,1.3-1.6c0.7-0.9,3-3.6,5.1-6c1.2-1.4,2.2-2.4,3-3.1c1-0.9,2-1.7,2.9-1.1c0.9,0.5,0.8,1.7-0.4,4.5
	c-0.7,1.9-1.8,4.1-2.9,6c-0.8,1.4-1.4,2.3-1.9,3c-0.6,0.9-1.1,1.5-1.6,2.8c-0.7,1.6-0.8,2.5-0.9,3.7c-0.1,1-0.3,2.3-0.8,4.4
	c-0.7,2.4-1.3,3.9-1.8,5.1c-0.6,1.4-1,2.3-1,4c0,1.7,0.5,5.2,2.2,5.8c1.4,0.5,3.4-0.8,4.1-1.2c1.3-0.8,2.1-1.8,2.8-2.7
	c0.8-1,1.5-1.9,2.6-1.6c0.8,0.2,1.1,0.8,1.4,1.4c0.1-0.2,0.1-0.3,0.2-0.5c0.6-1.8,1.3-4,3.1-4.5c1.6-0.5,3.4,0.6,4.5,1.7
	c0.5,0.5,1.4,1.6,1,2.6c-0.3,1-1.3,1.1-2,1.1c-0.7,0.1-1.3,0.1-1.9,0.6c-1.4,1.2-1.2,4.6-0.2,7.2c0.7,1.8,1.6,2.8,2.4,3.7
	c0.9,1,1.8,2,2,3.8c0.2,1.6-0.3,2.5-1.6,4.7c-0.4,0.7-1,1.6-1.6,2.8c-1.5,2.8-2,4.1-2.6,5.4c-0.5,1.3-1,2.6-2.6,5.5
	c-0.6,1.2-1.2,2.1-1.6,2.9c-1.4,2.5-2,3.5-1.9,5.1c0.2,2.2,1.4,4.2,2.2,4.3c0.3,0,0.7-0.4,1.2-1.1c0.7-0.9,1.6-2,3.1-2
	C57.9,206.1,57.9,206.1,58,206.1z M27.8,145"/>
<g>
	<path class="st1" d="M54.8,73.8c1.4,0.9,2.6,2,3.5,3.5c0.9,1.4,1.3,3,1.3,4.7c0,1-0.1,1.8-0.3,2.6c-0.2,0.8-0.7,1.7-1.3,2.9
		c-0.5,0.8-1.4,2.3-2.9,4.6l-2.9,4.6c-0.3,0.5-0.7,0.8-1.2,1c-0.5,0.2-1.1,0.2-1.6,0c-0.5-0.2-0.9-0.5-1.2-1l-2.9-4.6
		c-1.4-2.3-2.4-3.8-2.9-4.6c-0.7-1.2-1.1-2.2-1.3-2.9c-0.2-0.8-0.3-1.6-0.3-2.6c0-1.7,0.4-3.3,1.3-4.7c0.9-1.4,2-2.6,3.5-3.5
		c1.4-0.9,3-1.3,4.7-1.3C51.8,72.5,53.4,72.9,54.8,73.8z M53.2,90.5c1.3-2.1,2.2-3.5,2.6-4.2c0.6-1,0.9-1.8,1.1-2.3
		c0.2-0.6,0.3-1.2,0.3-2c0-1.3-0.3-2.5-1-3.6c-0.6-1.1-1.5-2-2.6-2.6c-1.1-0.6-2.3-1-3.6-1s-2.5,0.3-3.6,1c-1.1,0.6-2,1.5-2.6,2.6
		c-0.6,1.1-1,2.3-1,3.6c0,0.8,0.1,1.4,0.3,2c0.2,0.6,0.6,1.4,1.2,2.3c0.4,0.7,1.3,2.1,2.6,4.2c1.3,1.9,2.3,3.6,3.1,4.9L53.2,90.5z
		 M47.3,84.8c0.8,0.8,1.7,1.2,2.8,1.2s2-0.4,2.8-1.2C53.6,84,54,83.1,54,82c0-1.1-0.4-2-1.2-2.8c-0.8-0.8-1.7-1.2-2.8-1.2
		s-2,0.4-2.8,1.2c-0.8,0.8-1.2,1.7-1.2,2.8C46.1,83.1,46.5,84,47.3,84.8z"/>
</g>
<g>
	<path class="st1" d="M113.8,89.5c1.4,0.9,2.6,2,3.5,3.5c0.9,1.4,1.3,3,1.3,4.7c0,1-0.1,1.8-0.3,2.6c-0.2,0.8-0.7,1.7-1.3,2.9
		c-0.5,0.8-1.4,2.3-2.9,4.6l-2.9,4.6c-0.3,0.5-0.7,0.8-1.2,1c-0.5,0.2-1.1,0.2-1.6,0c-0.5-0.2-0.9-0.5-1.2-1l-2.9-4.6
		c-1.4-2.3-2.4-3.8-2.9-4.6c-0.7-1.2-1.1-2.2-1.3-2.9c-0.2-0.8-0.3-1.6-0.3-2.6c0-1.7,0.4-3.3,1.3-4.7c0.9-1.4,2-2.6,3.5-3.5
		c1.4-0.9,3-1.3,4.7-1.3C110.8,88.3,112.4,88.7,113.8,89.5z M112.2,106.2c1.3-2.1,2.2-3.5,2.6-4.2c0.6-1,0.9-1.8,1.1-2.3
		c0.2-0.6,0.3-1.2,0.3-2c0-1.3-0.3-2.5-1-3.6c-0.6-1.1-1.5-2-2.6-2.6c-1.1-0.6-2.3-1-3.6-1s-2.5,0.3-3.6,1c-1.1,0.6-2,1.5-2.6,2.6
		c-0.6,1.1-1,2.3-1,3.6c0,0.8,0.1,1.4,0.3,2c0.2,0.6,0.6,1.4,1.2,2.3c0.4,0.7,1.3,2.1,2.6,4.2c1.3,1.9,2.3,3.6,3.1,4.9L112.2,106.2z
		 M106.3,100.5c0.8,0.8,1.7,1.2,2.8,1.2c1.1,0,2-0.4,2.8-1.2c0.8-0.8,1.2-1.7,1.2-2.8s-0.4-2-1.2-2.8c-0.8-0.8-1.7-1.2-2.8-1.2
		c-1.1,0-2,0.4-2.8,1.2c-0.8,0.8-1.2,1.7-1.2,2.8S105.5,99.8,106.3,100.5z"/>
</g>
<g>
	<path class="st1" d="M73.5,131.3c1.4,0.9,2.6,2,3.5,3.5c0.9,1.4,1.3,3,1.3,4.7c0,1-0.1,1.8-0.3,2.6c-0.2,0.8-0.7,1.7-1.3,2.9
		c-0.5,0.8-1.4,2.3-2.9,4.6l-2.9,4.6c-0.3,0.5-0.7,0.8-1.2,1c-0.5,0.2-1.1,0.2-1.6,0c-0.5-0.2-0.9-0.5-1.2-1l-2.9-4.6
		c-1.4-2.3-2.4-3.8-2.9-4.6c-0.7-1.2-1.1-2.2-1.3-2.9c-0.2-0.8-0.3-1.6-0.3-2.6c0-1.7,0.4-3.3,1.3-4.7c0.9-1.4,2-2.6,3.5-3.5
		c1.4-0.9,3-1.3,4.7-1.3C70.5,130,72.1,130.4,73.5,131.3z M71.9,148c1.3-2.1,2.2-3.5,2.6-4.2c0.6-1,0.9-1.8,1.1-2.3
		c0.2-0.6,0.3-1.2,0.3-2c0-1.3-0.3-2.5-1-3.6c-0.6-1.1-1.5-2-2.6-2.6c-1.1-0.6-2.3-1-3.6-1s-2.5,0.3-3.6,1c-1.1,0.6-2,1.5-2.6,2.6
		c-0.6,1.1-1,2.3-1,3.6c0,0.8,0.1,1.4,0.3,2c0.2,0.6,0.6,1.4,1.2,2.3c0.4,0.7,1.3,2.1,2.6,4.2c1.3,1.9,2.3,3.6,3.1,4.9L71.9,148z
		 M66,142.3c0.8,0.8,1.7,1.2,2.8,1.2c1.1,0,2-0.4,2.8-1.2c0.8-0.8,1.2-1.7,1.2-2.8s-0.4-2-1.2-2.8c-0.8-0.8-1.7-1.2-2.8-1.2
		c-1.1,0-2,0.4-2.8,1.2c-0.8,0.8-1.2,1.7-1.2,2.8S65.2,141.5,66,142.3z"/>
</g>
<g>
	<path class="st0" d="M34.1,113c-0.4,0-0.8-0.2-1.1-0.4l-0.2-0.2c-1.6-1.3-2.3-1-2.9-0.7c-0.5,0.2-1.5,0.7-2.3-0.5
		c-0.2-0.2-0.3-0.6-0.5-1.1c-0.1-0.3-0.4-0.9-0.5-1c-0.5-0.5-1.3-2.3-2.8-5.7c-0.1-0.1-0.1-0.3-0.2-0.4c0,0.1,0,0.3-0.1,0.4l0,0.1
		l0,0.1c-0.4,1.1-1,1.7-1.8,1.8c-0.6,0.1-1.4-0.1-2.4-1.2c-1.5-1.9-2.9-6.4-1.8-9.3l0-0.1c0.3-0.6,0.5-1.1,0.8-1.7
		c1-2.2,1.6-3.5,2.6-3.5c0,0,0,0,0,0c0.3,0,0.8,0.1,1.1,0.7l0.4,0.4c1.8,1.8,2.8,2.5,3.3,2.8c0-0.3,0-0.7-0.1-1c-0.2-2-0.4-5,2.2-6
		c0.9-0.3,1.7-0.3,2.4,0.1c2.4,1.4,3.2,6.6,4,11.6c0.3,2.1,0.8,5,1.2,5.7c0,0,0,0,0,0c0.8,0,1.5,0.5,1.7,1.3c0.7,2-0.7,6.5-2.3,7.5
		C34.7,112.9,34.4,113,34.1,113z M30.8,109.7c0.8,0,1.9,0.3,3.3,1.5c0.4-0.4,1.2-1.8,1.5-3.6c0.2-1.3,0-1.8-0.1-1.9c0,0,0,0,0,0
		c-0.3,0-0.7,0-1-0.2c-1-0.7-1.4-2.9-2-7c-0.6-3.7-1.4-9.3-3.1-10.3c-0.2-0.1-0.4-0.2-0.9,0c-1.3,0.5-1.3,2.1-1.1,4.2
		c0.1,1.4,0.2,2.6-0.7,3c-0.9,0.4-1.9,0-5.5-3.4L21,91.7c-0.3,0.5-0.7,1.4-1,2.1c-0.3,0.6-0.5,1.1-0.8,1.7c-0.6,1.6-0.2,5.1,1.4,7.3
		c0.5,0.7,0.8,0.8,0.9,0.8c0,0,0,0,0,0l0,0c0,0,0.2-0.1,0.4-0.6c0.2-1.5,0.6-2.5,1.1-3l0.2-0.2l0.2-0.1c0.3-0.1,0.8,0,1.1,0.6
		c0.1,0.1,0.1,0.3,0.2,0.5c0.2,0.4,0.4,1,0.7,1.6c0.7,1.6,2.2,4.9,2.5,5.3c0.2,0.3,0.4,0.7,0.8,1.5c0.1,0.3,0.3,0.7,0.4,0.8
		c0.1,0,0.1,0,0.2-0.1C29.6,109.9,30.1,109.7,30.8,109.7z M26.6,109C26.6,109,26.7,109,26.6,109C26.7,109,26.6,109,26.6,109z
		 M35.6,105.7L35.6,105.7L35.6,105.7z"/>
	<path class="st0" d="M14.2,86.3c-0.6,0-1.2-0.1-1.9-0.4c-1.5-0.6-3.2-1.8-2.9-3.7c0.3-2.2,3.3-4,5.8-4.6c-0.5-0.2-1-0.3-1.5-0.5
		c-3.2-1-5.4-1.7-5.7-3.2c-0.1-0.5,0-1.2,0.9-2L9,71.8l0.1-0.1c0.7-0.2,1.1-0.5,1.2-0.8c0.1-0.2,0-0.6-0.1-1
		c-0.1-0.6-0.3-1.4,0.1-2.2c1.3-2.4,2.7-3.4,4.6-4.6c0.3-0.2,0.6-0.4,0.9-0.6c1.3-0.9,2.7-2.2,4.1-3.6c2.3-2.2,4.6-4.6,7.3-5.4
		c2.3-0.8,4-0.6,5,0.4c1.9,1.9,0.9,5.9-0.4,9.9c-1.9,6.3-4.8,10.9-9.6,15.4l0,0c-0.8,0.7-1.6,1.8-2.4,2.8
		C18.4,84,16.7,86.3,14.2,86.3z M9.7,73.6c0.1,0.1,0.4,0.4,1.4,0.8c0.9,0.4,2,0.7,3.1,1c2.5,0.7,3.8,1.1,3.9,2.2
		c0,0.6-0.3,1-1.1,1.4L16.8,79l-0.1,0c-2.1,0.2-5.4,2-5.6,3.4c-0.1,0.8,1.1,1.5,1.9,1.8c2.2,0.9,3.5-0.6,5.4-3.2
		c0.8-1.1,1.6-2.3,2.6-3.1c4.6-4.4,7.3-8.6,9.1-14.6c0.7-2.2,2.1-6.8,0.8-8.1c-0.7-0.6-2.1-0.3-3.2,0c-2.3,0.7-4.5,2.9-6.6,5
		c-1.5,1.5-2.9,2.8-4.3,3.8c-0.3,0.2-0.6,0.4-0.9,0.6c-1.8,1.2-2.9,1.9-4,4c-0.1,0.2,0,0.5,0.1,1c0.2,1,0.6,2.7-2.1,3.8
		C9.8,73.5,9.7,73.5,9.7,73.6z"/>
	<path class="st0" d="M26.9,176.3c-1.3,0-2.5-0.8-3.1-1.4c-1.4-1.2-0.3-2.7,0.2-3.4c0.1-0.1,0.2-0.2,0.3-0.4c-0.2-0.1-0.5-0.1-1-0.2
		c-1.7,0.2-2.8-0.1-3.3-1c-0.4-0.7-0.3-1.6,0.2-2.7c0.4-0.8,1-1.7,1.8-2.7c1.5-1.7,4.6-4.5,6.7-3.7c0.4,0.1,0.8,0.4,1.1,1
		c0.7-0.9,1.4-2.3,2.1-3.7c2.2-4.1,4.5-8.3,7.5-7.6c0.6,0.1,1.1,0.6,1.3,1.2c0.7,1.9-1.1,5.6-1.6,6.8c-1.1,2.4-2.5,4.8-3.2,5.6
		c-0.8,0.9-2.1,1.7-3.5,2.4c-1.1,0.6-2.4,1.3-2.6,1.8c-0.2,0.5-0.1,1,0.3,1.8c0.4,1,0.9,2.2,0.2,3.5c-0.7,1.4-1.6,2.3-2.7,2.5
		C27.3,176.2,27.1,176.3,26.9,176.3z M23.2,169.2l0.1,0c1.2,0.1,2.4,0.3,2.7,1.2c0.4,0.8-0.2,1.5-0.6,2.1c-0.6,0.8-0.5,0.9-0.4,1
		c0.4,0.3,1.3,1.1,2.2,0.9c0.5-0.1,1-0.6,1.5-1.5c0.3-0.6,0.1-1.2-0.3-2.1c-0.4-0.9-0.8-2-0.2-3.2c0.5-1,1.8-1.7,3.4-2.6
		c1.1-0.6,2.4-1.3,2.9-1.9c0.6-0.7,2-3.2,3.2-5.7c1.6-3.6,1.5-4.9,1.3-5.1c0,0,0,0,0,0c-1.7-0.4-3.9,3.7-5.5,6.7
		c-1.3,2.5-2.5,4.6-3.7,5.4l-1.4,0.9v-1.6c0-0.7-0.1-1.1-0.4-1.2c-0.7-0.3-2.9,1-4.8,3.2c-1.6,1.9-1.9,3.1-1.7,3.4
		c0.1,0.1,0.4,0.3,1.6,0.1L23.2,169.2z"/>
	<path class="st0" d="M3.1,114.1c-0.8,0-1.5-0.2-2-0.7c-2-1.8-0.8-6.2,0.1-10.1c0.3-1.2,0.6-2.3,0.7-3.1c0.1-0.5,0.2-1,0.3-1.4
		c0.2-1,0.4-1.9,0.3-2.7c-0.1-0.4-0.6-0.9-1-1.3c-0.5-0.6-1-1.1-1.1-1.7c-0.4-2.8,0-3.5,1.5-4.3C2.5,88.6,3.2,88.2,4,87l0.3-0.4
		c0,0,0-0.1,0-0.1c0.3-0.7,0.7-1.8,1.9-2.3c0.9-0.3,2-0.2,3.3,0.5l0.1,0.1L9.7,85c1.8,1.3,1.9,4.3,0.2,9.4c-1,3.2-2.4,6-2.7,6.6
		c-0.1,0.8-1,5.8-0.6,8.2c0.3,1.8-0.5,4-1,4.4c-0.1,0.1-0.3,0.2-0.4,0.2C4.5,114,3.7,114.1,3.1,114.1z M2.2,92.9
		c0.1,0.2,0.4,0.5,0.6,0.8C3.4,94.3,4,95,4.2,95.8c0.3,1.2,0,2.4-0.3,3.5c-0.1,0.4-0.2,0.9-0.3,1.3c-0.1,0.9-0.4,2-0.7,3.3
		c-0.7,2.7-1.9,7.2-0.7,8.3c0.5,0.4,1.4,0.3,2.3,0c0.2-0.5,0.6-1.6,0.4-2.6c-0.5-2.9,0.5-8.7,0.6-8.9l0-0.1l0.1-0.1
		c2.4-4.8,5.1-12.6,3.1-13.9l-0.1-0.1C7.8,86,7.2,85.8,6.9,86c-0.4,0.2-0.7,0.8-0.9,1.3c-0.1,0.4-0.3,0.8-0.7,1
		c-1.1,1.4-2,1.8-2.6,2.2c-0.4,0.2-0.5,0.3-0.6,0.4C2,91.1,2,91.8,2.2,92.9z M2.2,92.9L2.2,92.9L2.2,92.9z"/>
	<path class="st2" d="M108.1,39.5"/>
	<path class="st0" d="M99.6,48c-0.4,0-0.9-0.1-1.4-0.2c-2.1-0.7-4.2-3.2-4.7-5.8l0-0.2l0-0.2c0.3-2.2,1.4-2.8,2.2-2.9
		c2.4-0.3,5.4,3.4,6.4,5.6c0.6,1.3,0.6,2.2-0.1,2.8C101.3,47.7,100.5,48,99.6,48z M95.3,41.8c0.5,1.9,2,3.8,3.5,4.3
		c0.7,0.3,1.4,0.2,2-0.3c0-0.4-0.5-1.5-1.6-2.9c-1.1-1.4-2.3-2.3-3-2.5C96,40.4,95.5,40.4,95.3,41.8z"/>
	<path class="st0" d="M108.8,43c-0.2,0-0.4,0-0.5-0.1l-2.1-0.4l-0.1,0c-0.3-0.1-8.2-2.7-11.1-7.5c-2-3.2-1-5-0.3-5.8
		c1.3-1.4,3.8-1.6,5.9-0.5c2.1,1.1,3,3.1,2.5,5.4l0,0.1l0,0.1c0,0,0,0.1,0,0.1c0.3,0.2,1.2,0.4,1.8,0.6c1.2,0.3,2.5,0.6,3.3,1.3
		c3.6,2.8,3,4.9,2.7,5.4C110.3,42.6,109.6,43,108.8,43z M106.5,40.9l2.1,0.4c0.1,0,0.4,0.1,0.5-0.2c0.2-0.5-0.2-1.7-2.2-3.3l0,0l0,0
		c-0.4-0.4-1.5-0.7-2.4-0.9c-1.3-0.3-2.6-0.6-3-1.5c-0.2-0.3-0.3-0.8,0-1.5c0.4-2-0.8-2.9-1.6-3.3c-1.3-0.7-3-0.7-3.8,0.1
		c-0.7,0.7-0.5,2,0.5,3.6C98.9,38.2,105.9,40.6,106.5,40.9z"/>
</g>
<path class="st0" d="M36.3,191.2c-0.3,0-0.6,0-0.9-0.1c-1.2-0.2-1.8-0.8-2-1.3c-0.6-1-0.2-2.2-0.1-2.6c0.1-0.4,0.4-0.8,0.8-1.1
	c0.1-0.1,0.5-0.5,0.8-0.8c0.2-0.6,0.1-1.1,0-1.9l0-0.1c-0.3-1.8,0.9-3,1.9-4c0.5-0.5,1-0.9,1.1-1.3c0.1-0.3-0.6-1.2-1.1-1.8
	c-0.6-0.8-1.3-1.6-1.5-2.5c-0.4-1.4-0.3-2.7,0.4-3.6c0.6-1,1.7-1.5,3.3-1.7c1.5-0.2,2.7,0.5,3.5,1.8c0.6,1,0.8,2.3,1.1,3.5
	c0.2,0.8,0.3,1.5,0.5,1.9h0c0.9,1.4-0.3,3.8-1.6,6.4c-0.5,1.1-1.1,2.2-1.2,2.9c-0.1,0.2-0.1,0.5-0.2,0.8c-0.3,1.5-0.6,3.8-2.2,5
	C37.9,191,37.2,191.2,36.3,191.2z M35,187.6l0,0.1c-0.1,0.2-0.3,0.9-0.1,1.2c0.1,0.2,0.4,0.3,0.8,0.4c0.8,0.1,1.4,0,1.8-0.3
	c1-0.7,1.3-2.5,1.5-3.8c0.1-0.3,0.1-0.7,0.2-1c0.2-0.8,0.7-2,1.4-3.3c0.5-1.1,1.1-2.2,1.4-3.1c0.4-1.3,0.3-1.6,0.3-1.6l0,0
	c-0.4-0.6-0.5-1.5-0.7-2.4c-0.6-2.8-1.1-4-2.6-3.8c-1,0.1-1.6,0.4-2,0.9c-0.5,0.7-0.3,1.6-0.1,2.1c0.2,0.6,0.7,1.2,1.2,1.9
	c0.9,1.1,1.8,2.3,1.4,3.5c-0.3,0.8-0.9,1.4-1.5,2c-0.9,0.9-1.5,1.6-1.4,2.4l0,0.1c0.2,0.9,0.5,2.1-0.2,3.3l-0.1,0.2l-0.2,0.1
	C35.8,186.8,35.2,187.4,35,187.6z"/>
<path class="st3" d="M40,169.8"/>
<path class="st0" d="M48.7,184c-1.6,0-2.4-2.4-3-4.8c-1.4-5.3-0.4-7.4,0.7-8.2c0.8-0.6,2-0.7,3.1,0c0.9,0.5,1.6,1.4,2.1,2.5
	c0.5,1.2,0.7,2.5,0.5,3.9l0,0c0,0.1-0.2,1.5-0.7,3C50.6,182.8,49.8,183.9,48.7,184C48.7,184,48.7,184,48.7,184z M47.8,172.3
	c-0.1,0-0.3,0-0.4,0.1c-0.7,0.5-1.1,2.5-0.1,6.3c0.6,2.4,1.1,3.1,1.3,3.4c0.5-0.6,1.2-2.8,1.6-5.1c0.3-2.2-0.6-4-1.7-4.6
	C48.3,172.4,48.1,172.3,47.8,172.3z"/>
<path class="st0" d="M129.6,0.4c0.7-0.4,1.5-0.4,2.3-0.1c1.1,0.4,2,1.5,2.2,2.7c0.2,0.8,0.2,1.6,0.2,2.3c0,0.7,0,1.4,0.2,2
	c0.2,0.8,0.7,1.6,1.3,2.4c0.6,0.9,1.2,1.8,1.5,2.9c0.6,1.9,0,3.8-0.5,5.7c-0.1,0.4-0.2,0.7-0.3,1.1c-0.6,2.1-0.7,4.3-0.5,6.5
	c0,0.1,0,0.3,0,0.4c0.1,0.9,0.2,2-0.1,3.1c-0.4,1.2-1.5,2.4-2.9,2.4c-0.2,0-0.3,0-0.5,0c-1.4-0.3-2.4-1.7-2.5-3.9
	c-0.1-1.5,0-3,0.3-4.5l0-0.3c0.3-1.4,0.6-3-0.3-3.7c-0.4-0.4-1.1-0.5-1.8-0.7c-1.1-0.3-2.4-0.6-3-1.8c-0.4-0.8-0.4-1.6,0-2.5
	c0.6-1.1,1.8-2,3.1-2.2c0.1,0,0.1,0,0.2,0c0.2,0,0.5-0.1,0.6-0.1c0,0,0,0,0-0.1c0-0.3-0.3-0.7-0.7-1c-0.3-0.1-0.5-0.2-0.8-0.4
	c-0.8-0.3-1.6-0.6-2.2-1.4c-1-1.4-0.2-2.9,0.5-4c0.2-0.4,0.5-0.8,0.6-1.1c0.5-1.2,1.3-2,2-2.8C128.9,1.1,129.4,0.6,129.6,0.4z
	 M130.6,1.9c-0.2,0.2-0.4,0.4-0.6,0.6c-0.7,0.7-1.3,1.3-1.7,2.3c-0.2,0.5-0.5,0.9-0.7,1.3c-0.7,1.1-0.9,1.6-0.6,2
	c0.3,0.4,0.8,0.6,1.4,0.8c0.3,0.1,0.7,0.3,1,0.4c0.9,0.5,1.6,1.4,1.6,2.4c0.1,0.7-0.2,1.3-0.7,1.7c-0.5,0.4-1,0.4-1.4,0.5
	c-0.1,0-0.1,0-0.2,0c-0.7,0.1-1.5,0.6-1.8,1.2c-0.2,0.5-0.1,0.7,0,0.8c0.3,0.5,0.9,0.7,1.9,0.9c0.9,0.2,1.8,0.5,2.6,1.2
	c1.5,1.4,1.1,3.6,0.8,5.4l0,0.3c-0.2,1.3-0.3,2.7-0.2,4.1c0.1,1,0.4,2.1,1.1,2.2c0.6,0.1,1.1-0.5,1.3-1.1c0.2-0.7,0.1-1.5,0.1-2.4
	c0-0.2,0-0.3,0-0.5c-0.2-2.4,0-4.8,0.6-7.1c0.1-0.4,0.2-0.8,0.3-1.2c0.5-1.7,0.9-3.2,0.5-4.7c-0.2-0.8-0.7-1.6-1.3-2.4
	c-0.6-0.9-1.2-1.8-1.5-2.9c-0.2-0.8-0.3-1.7-0.3-2.5c0-0.7,0-1.3-0.2-1.9c-0.2-0.6-0.7-1.3-1.2-1.5C130.9,1.8,130.7,1.9,130.6,1.9z"
	/>
</svg>
