<?xml version="1.0" encoding="UTF-8"?>
<svg width="314px" height="258px" viewBox="0 0 314 258" version="1.1" xmlns="http://www.w3.org/2000/svg" xmlns:xlink="http://www.w3.org/1999/xlink">
    <!-- Generator: Sketch 48.2 (47327) - http://www.bohemiancoding.com/sketch -->
    <title>Page 1</title>
    <desc>Created with Sketch.</desc>
    <defs></defs>
    <g id="Helpers-LP" stroke="none" stroke-width="1" fill="none" fill-rule="evenodd" transform="translate(-564.000000, -1671.000000)">
        <g id="Page-1" transform="translate(564.000000, 1671.000000)">
            <path d="M6.0186,42.4988 C4.1616,42.4988 2.6496,44.0098 2.6496,45.8678 L2.6496,251.3998 C2.6496,253.2578 4.1616,254.7698 6.0186,254.7698 L307.1346,254.7698 C308.9936,254.7698 310.5046,253.2578 310.5046,251.3998 L310.5046,45.8678 C310.5046,44.0098 308.9936,42.4988 307.1346,42.4988 L6.0186,42.4988 Z M307.1346,257.4188 L6.0186,257.4188 C2.7006,257.4188 -0.0004,254.7188 -0.0004,251.3998 L-0.0004,45.8678 C-0.0004,42.5498 2.7006,39.8488 6.0186,39.8488 L307.1346,39.8488 C310.4546,39.8488 313.1546,42.5498 313.1546,45.8678 L313.1546,251.3998 C313.1546,254.7188 310.4546,257.4188 307.1346,257.4188 Z" id="Fill-1" fill="#C5C3C6"></path>
            <path d="M5.1875,4.2884 L5.1875,9.3004 L8.5725,9.3004 C10.0445,9.3004 10.8195,7.9574 10.8195,6.7944 C10.8195,5.6834 10.0965,4.2884 8.6755,4.2884 L5.1875,4.2884 Z M10.5865,12.0134 L13.4805,16.1724 C13.9975,16.9474 13.6615,18.1104 12.7835,18.6264 C11.9565,19.1174 10.8195,18.8854 10.3295,18.1104 L6.9185,12.4784 L5.1875,12.4784 L5.1875,17.1284 C5.1875,18.0844 4.3345,18.8854 3.3015,18.8854 C2.3205,18.8854 1.4165,18.0584 1.4165,17.1284 L1.4165,2.8934 C1.4415,1.8344 2.0875,0.9554 3.2245,0.9554 L8.6755,0.9554 C12.6545,0.9554 14.5405,3.7974 14.5915,6.6914 C14.5135,9.0164 13.2225,11.2384 10.5865,12.0134 Z" id="Fill-4" fill="#4C5C68"></path>
            <path d="M24.8994,11.6514 C24.7184,10.1784 23.7114,9.4554 22.3674,9.4554 C21.0244,9.4554 19.9904,10.1274 19.6804,11.6514 L24.8994,11.6514 Z M26.5014,17.9034 C25.2874,18.7044 23.7624,18.9884 22.3414,18.9884 C18.8794,18.9884 16.0384,16.4824 16.0384,12.6844 C16.0384,8.8874 18.8794,6.4584 22.3414,6.4584 C25.7774,6.4584 28.5164,8.9904 28.5164,12.7884 C28.5164,13.4334 27.9734,13.8994 27.4054,13.8994 L19.6284,13.8994 C19.8094,15.2944 21.3344,15.8884 22.6004,15.8884 C23.3234,15.8884 23.9434,15.8364 24.6934,15.3194 C25.5194,14.7514 26.4494,14.9064 26.9664,15.5004 C27.6374,16.2764 27.3794,17.3864 26.5014,17.9034 Z" id="Fill-6" fill="#4C5C68"></path>
            <path d="M36.7051,15.5008 C37.3511,15.5008 37.9711,15.3198 38.4881,15.0358 C39.1341,14.6738 40.1931,14.5188 40.8391,15.1648 C41.5621,15.8878 41.4591,17.2058 40.6061,17.7998 C39.5211,18.5748 38.1521,18.9888 36.7051,18.9888 C33.2431,18.9888 30.0921,16.5598 30.0921,12.7618 L30.0921,12.6848 C30.0921,8.8868 33.2431,6.4588 36.7051,6.4588 C38.1521,6.4588 39.5211,6.8718 40.6061,7.6468 C41.4591,8.2408 41.5621,9.5588 40.8391,10.2818 C40.1931,10.9278 39.1341,10.7728 38.4881,10.4108 C37.9711,10.1268 37.3511,9.9468 36.7051,9.9468 C35.1551,9.9468 33.7611,11.0058 33.7611,12.6848 L33.7611,12.7618 C33.7611,14.4418 35.1551,15.5008 36.7051,15.5008" id="Fill-8" fill="#4C5C68"></path>
            <path d="M52.1279,12.6846 C52.1279,11.0576 50.8879,9.9466 49.3899,9.9466 C47.9169,9.9466 46.6769,11.0576 46.6769,12.6846 C46.6769,14.3386 47.9169,15.5006 49.3899,15.5006 C50.8879,15.5006 52.1279,14.3386 52.1279,12.6846 M43.0599,12.6846 C43.0599,8.8866 45.8759,6.4586 49.3899,6.4586 C52.9029,6.4586 55.7449,8.8866 55.7449,12.6846 C55.7449,16.4826 52.9029,18.9886 49.3899,18.9886 C45.8759,18.9886 43.0599,16.4826 43.0599,12.6846" id="Fill-10" fill="#4C5C68"></path>
            <path d="M77.1875,17.2835 C77.1875,18.1875 76.3605,18.8855 75.3785,18.8855 C74.4225,18.8855 73.5955,18.1615 73.5705,17.2835 L73.5705,12.3235 C73.5705,10.7475 72.6145,9.9205 71.5545,9.9205 C70.4185,9.9205 69.5145,10.6175 69.5145,12.3745 L69.5145,17.2835 C69.5145,18.1875 68.6875,18.8855 67.7065,18.8855 C66.7495,18.8855 65.9225,18.1615 65.8975,17.2835 L65.8975,12.2455 C65.8975,10.7215 64.9415,9.9205 63.9085,9.9205 C62.8235,9.9205 61.8155,10.5405 61.8155,12.3745 L61.8155,17.2835 C61.8155,18.1875 60.9885,18.8855 60.0065,18.8855 C59.0505,18.8855 58.2245,18.1615 58.1985,17.2835 L58.1985,8.1635 C58.2245,7.2855 59.0505,6.5615 60.0065,6.5615 C60.9885,6.5615 61.8155,7.2595 61.8155,8.1635 L61.8155,8.4475 C62.3835,7.1815 63.6755,6.4585 64.9665,6.4585 C66.8785,6.4585 68.1445,7.0785 68.9465,8.7315 C69.8245,6.8205 71.6065,6.4325 72.4595,6.4325 C75.3275,6.4325 77.1615,8.2665 77.1875,11.9095 L77.1875,17.2835 Z" id="Fill-12" fill="#4C5C68"></path>
            <path d="M99.1201,17.2835 C99.1201,18.1875 98.2941,18.8855 97.3121,18.8855 C96.3561,18.8855 95.5291,18.1615 95.5041,17.2835 L95.5041,12.3235 C95.5041,10.7475 94.5481,9.9205 93.4881,9.9205 C92.3511,9.9205 91.4471,10.6175 91.4471,12.3745 L91.4471,17.2835 C91.4471,18.1875 90.6211,18.8855 89.6391,18.8855 C88.6821,18.8855 87.8561,18.1615 87.8301,17.2835 L87.8301,12.2455 C87.8301,10.7215 86.8751,9.9205 85.8411,9.9205 C84.7561,9.9205 83.7491,10.5405 83.7491,12.3745 L83.7491,17.2835 C83.7491,18.1875 82.9221,18.8855 81.9401,18.8855 C80.9841,18.8855 80.1571,18.1615 80.1321,17.2835 L80.1321,8.1635 C80.1571,7.2855 80.9841,6.5615 81.9401,6.5615 C82.9221,6.5615 83.7491,7.2595 83.7491,8.1635 L83.7491,8.4475 C84.3161,7.1815 85.6081,6.4585 86.9001,6.4585 C88.8121,6.4585 90.0781,7.0785 90.8791,8.7315 C91.7581,6.8205 93.5401,6.4325 94.3921,6.4325 C97.2611,6.4325 99.0951,8.2665 99.1201,11.9095 L99.1201,17.2835 Z" id="Fill-14" fill="#4C5C68"></path>
            <path d="M110.332,11.6514 C110.151,10.1784 109.144,9.4554 107.8,9.4554 C106.456,9.4554 105.423,10.1274 105.113,11.6514 L110.332,11.6514 Z M111.934,17.9034 C110.72,18.7044 109.195,18.9884 107.774,18.9884 C104.312,18.9884 101.471,16.4824 101.471,12.6844 C101.471,8.8874 104.312,6.4584 107.774,6.4584 C111.21,6.4584 113.949,8.9904 113.949,12.7884 C113.949,13.4334 113.406,13.8994 112.838,13.8994 L105.061,13.8994 C105.242,15.2944 106.767,15.8884 108.032,15.8884 C108.756,15.8884 109.376,15.8364 110.125,15.3194 C110.952,14.7514 111.882,14.9064 112.398,15.5004 C113.07,16.2764 112.812,17.3864 111.934,17.9034 Z" id="Fill-16" fill="#4C5C68"></path>
            <path d="M119.7354,8.4478 C120.3814,7.2338 121.8014,6.4328 123.2224,6.4328 C125.9354,6.4328 127.6674,8.1118 127.6674,11.5478 L127.6674,17.2838 C127.6674,18.1878 126.8394,18.8848 125.8574,18.8848 C124.9024,18.8848 124.0754,18.1618 124.0494,17.2838 L124.0494,12.3228 C124.0494,10.7208 123.1714,9.9208 121.9574,9.9208 C120.6914,9.9208 119.7354,10.5408 119.7354,12.3748 L119.7354,17.2838 C119.7354,18.1878 118.9084,18.8848 117.9264,18.8848 C116.9704,18.8848 116.1444,18.1618 116.1184,17.2838 L116.1184,8.1638 C116.1444,7.2848 116.9704,6.5618 117.9264,6.5618 C118.9084,6.5618 119.7354,7.2598 119.7354,8.1638 L119.7354,8.4478 Z" id="Fill-18" fill="#4C5C68"></path>
            <path d="M136.6309,15.785 C138.2579,15.785 139.5749,14.338 139.5749,12.736 C139.5749,11.135 138.2579,9.688 136.6309,9.688 C134.8209,9.688 133.7879,11.135 133.7879,12.736 C133.7879,14.338 134.8209,15.785 136.6309,15.785 Z M139.5499,1.602 C139.5749,0.723 140.4019,0 141.3589,0 C142.3399,0 143.1669,0.697 143.1669,1.602 L143.1669,17.284 C143.1669,18.188 142.3399,18.885 141.3589,18.885 C140.4019,18.885 139.5749,18.162 139.5499,17.284 L139.5499,17.051 C138.7749,18.317 137.3019,18.989 135.9329,18.989 C132.8589,18.989 130.0689,16.715 130.0689,12.711 C130.0689,8.706 132.8589,6.459 135.9329,6.459 C136.7079,6.459 138.5169,6.794 139.5499,8.396 L139.5499,1.602 Z" id="Fill-20" fill="#4C5C68"></path>
            <path d="M152.2598,15.785 C153.8878,15.785 155.2048,14.338 155.2048,12.736 C155.2048,11.135 153.8878,9.688 152.2598,9.688 C150.4508,9.688 149.4178,11.135 149.4178,12.736 C149.4178,14.338 150.4508,15.785 152.2598,15.785 Z M155.1798,8.164 C155.2048,7.285 156.0318,6.562 156.9888,6.562 C157.9698,6.562 158.7958,7.26 158.7958,8.164 L158.7958,17.284 C158.7958,18.188 157.9698,18.885 156.9888,18.885 C156.0318,18.885 155.2048,18.162 155.1798,17.284 L155.1798,17.051 C154.4048,18.317 152.9318,18.989 151.5628,18.989 C148.4888,18.989 145.6978,16.715 145.6978,12.711 C145.6978,8.706 148.4888,6.459 151.5628,6.459 C152.3378,6.459 154.1468,6.794 155.1798,8.396 L155.1798,8.164 Z" id="Fill-23" fill="#4C5C68"></path>
            <path d="M162.9033,6.691 L162.9033,3.539 C162.9283,2.661 163.7563,1.937 164.7123,1.937 C165.6933,1.937 166.5203,2.635 166.5203,3.539 L166.5203,6.691 L167.8893,6.691 C168.6123,6.691 169.1803,7.337 169.1803,8.112 C169.1803,8.861 168.6123,9.507 167.8893,9.533 L166.5203,9.533 L166.5203,17.284 C166.5203,18.188 165.6933,18.885 164.7123,18.885 C163.7563,18.885 162.9283,18.162 162.9033,17.284 L162.9033,9.533 L161.9213,9.533 C161.1983,9.507 160.6303,8.861 160.6303,8.112 C160.6303,7.337 161.1983,6.691 161.9213,6.691 L162.9033,6.691 Z" id="Fill-25" fill="#4C5C68"></path>
            <path d="M174.5801,17.2835 C174.5801,18.1875 173.7541,18.8855 172.7711,18.8855 C171.8151,18.8855 170.9891,18.1615 170.9641,17.2835 L170.9641,8.1635 C170.9891,7.2855 171.8151,6.5615 172.7711,6.5615 C173.7541,6.5615 174.5801,7.2595 174.5801,8.1635 L174.5801,17.2835 Z M172.7711,0.1285 C173.9861,0.1285 174.9681,1.0335 174.9681,2.2215 C174.9681,3.4095 173.9861,4.3405 172.7711,4.3405 C171.5581,4.3405 170.5241,3.4095 170.5241,2.2215 C170.5241,1.0335 171.5581,0.1285 172.7711,0.1285 Z" id="Fill-27" fill="#4C5C68"></path>
            <path d="M186.1025,12.6846 C186.1025,11.0576 184.8625,9.9466 183.3635,9.9466 C181.8905,9.9466 180.6515,11.0576 180.6515,12.6846 C180.6515,14.3386 181.8905,15.5006 183.3635,15.5006 C184.8625,15.5006 186.1025,14.3386 186.1025,12.6846 M177.0345,12.6846 C177.0345,8.8866 179.8505,6.4586 183.3635,6.4586 C186.8765,6.4586 189.7185,8.8866 189.7185,12.6846 C189.7185,16.4826 186.8765,18.9886 183.3635,18.9886 C179.8505,18.9886 177.0345,16.4826 177.0345,12.6846" id="Fill-29" fill="#4C5C68"></path>
            <path d="M195.7891,8.4478 C196.4351,7.2338 197.8561,6.4328 199.2771,6.4328 C201.9901,6.4328 203.7211,8.1118 203.7211,11.5478 L203.7211,17.2838 C203.7211,18.1878 202.8941,18.8848 201.9121,18.8848 C200.9561,18.8848 200.1301,18.1618 200.1031,17.2838 L200.1031,12.3228 C200.1031,10.7208 199.2261,9.9208 198.0111,9.9208 C196.7451,9.9208 195.7891,10.5408 195.7891,12.3748 L195.7891,17.2838 C195.7891,18.1878 194.9631,18.8848 193.9811,18.8848 C193.0251,18.8848 192.1981,18.1618 192.1731,17.2838 L192.1731,8.1638 C192.1981,7.2848 193.0251,6.5618 193.9811,6.5618 C194.9631,6.5618 195.7891,7.2598 195.7891,8.1638 L195.7891,8.4478 Z" id="Fill-31" fill="#4C5C68"></path>
            <path d="M206.7949,14.6224 C207.5959,14.2604 208.3449,14.5964 208.7319,15.0614 C209.3779,15.7594 210.1529,16.1214 211.0059,16.1214 C211.8069,16.1214 212.5559,15.9914 212.5559,15.3714 C212.5559,14.8544 212.2459,14.6744 211.3669,14.3904 L209.9979,13.8994 C206.3809,12.6844 206.4069,10.9794 206.4069,9.8684 C206.4069,8.0864 208.5519,6.4324 211.0829,6.4324 C212.8149,6.4324 214.5969,6.9754 215.4229,8.4224 C215.8619,9.1974 215.6559,9.9464 215.1129,10.2564 C214.3129,10.7214 213.5639,10.5404 212.8149,9.9724 C212.2969,9.5844 211.8319,9.4294 211.3669,9.4294 C210.5929,9.4294 210.0499,9.6874 210.0499,10.1534 C210.0499,10.5404 210.3589,10.7734 211.0829,11.0054 L212.9179,11.6254 C215.8369,12.5814 216.1979,14.4674 216.1979,15.2424 C216.1979,17.8004 213.5119,19.0144 210.9799,19.0144 C209.0419,19.0144 206.7689,18.2134 206.1489,16.4314 C205.8909,15.6814 206.1999,14.8804 206.7949,14.6224" id="Fill-33" fill="#4C5C68"></path>
            <path d="M28.3975,79.7029 L33.5395,79.7029 C34.3915,79.7029 35.0885,80.4519 35.0885,81.3559 C35.0885,82.2089 34.3665,82.9839 33.5395,83.0099 L26.1245,83.0099 C25.1685,83.0099 24.6265,82.2859 24.6265,81.4079 L24.6265,66.8369 C24.6515,65.9069 25.5305,65.0799 26.5115,65.0799 C27.5445,65.0799 28.3975,65.8809 28.3975,66.8369 L28.3975,79.7029 Z" id="Fill-35" fill="#4C5C68"></path>
            <path d="M45.1123,76.9385 C45.1123,75.3105 43.8733,74.1995 42.3743,74.1995 C40.9013,74.1995 39.6613,75.3105 39.6613,76.9385 C39.6613,78.5915 40.9013,79.7545 42.3743,79.7545 C43.8733,79.7545 45.1123,78.5915 45.1123,76.9385 M36.0443,76.9385 C36.0443,73.1405 38.8603,70.7125 42.3743,70.7125 C45.8873,70.7125 48.7293,73.1405 48.7293,76.9385 C48.7293,80.7365 45.8873,83.2425 42.3743,83.2425 C38.8603,83.2425 36.0443,80.7365 36.0443,76.9385" id="Fill-37" fill="#4C5C68"></path>
            <path d="M57.2031,79.7544 C57.8491,79.7544 58.4691,79.5734 58.9851,79.2894 C59.6311,78.9274 60.6901,78.7724 61.3361,79.4184 C62.0591,80.1424 61.9561,81.4594 61.1031,82.0544 C60.0181,82.8284 58.6491,83.2424 57.2031,83.2424 C53.7401,83.2424 50.5891,80.8134 50.5891,77.0154 L50.5891,76.9384 C50.5891,73.1404 53.7401,70.7124 57.2031,70.7124 C58.6491,70.7124 60.0181,71.1254 61.1031,71.9004 C61.9561,72.4944 62.0591,73.8124 61.3361,74.5354 C60.6901,75.1814 59.6311,75.0264 58.9851,74.6654 C58.4691,74.3804 57.8491,74.2004 57.2031,74.2004 C55.6521,74.2004 54.2581,75.2594 54.2581,76.9384 L54.2581,77.0154 C54.2581,78.6954 55.6521,79.7544 57.2031,79.7544" id="Fill-39" fill="#4C5C68"></path>
            <path d="M70.1455,80.0386 C71.7725,80.0386 73.0895,78.5916 73.0895,76.9906 C73.0895,75.3886 71.7725,73.9416 70.1455,73.9416 C68.3365,73.9416 67.3025,75.3886 67.3025,76.9906 C67.3025,78.5916 68.3365,80.0386 70.1455,80.0386 Z M73.0645,72.4176 C73.0895,71.5386 73.9165,70.8156 74.8735,70.8156 C75.8545,70.8156 76.6815,71.5136 76.6815,72.4176 L76.6815,81.5376 C76.6815,82.4416 75.8545,83.1386 74.8735,83.1386 C73.9165,83.1386 73.0895,82.4156 73.0645,81.5376 L73.0645,81.3046 C72.2895,82.5706 70.8165,83.2426 69.4475,83.2426 C66.3735,83.2426 63.5835,80.9686 63.5835,76.9646 C63.5835,72.9596 66.3735,70.7126 69.4475,70.7126 C70.2225,70.7126 72.0315,71.0486 73.0645,72.6496 L73.0645,72.4176 Z" id="Fill-41" fill="#4C5C68"></path>
            <path d="M83.3984,81.5372 C83.3984,82.4412 82.5714,83.1392 81.5894,83.1392 C80.6334,83.1392 79.8064,82.4152 79.7814,81.5372 L79.7814,65.8552 C79.8064,64.9772 80.6334,64.2532 81.5894,64.2532 C82.5714,64.2532 83.3984,64.9512 83.3984,65.8552 L83.3984,81.5372 Z" id="Fill-43" fill="#4C5C68"></path>
            <path d="M93.5244,77.3003 C94.5324,76.9123 95.4874,77.4553 95.8494,78.2043 C96.2374,79.0053 97.1154,79.8833 98.7164,79.8833 C100.2414,79.8833 101.3004,79.1603 101.3264,77.9983 C101.3524,77.1963 100.9904,76.4993 99.1824,75.9823 L97.0384,75.3883 C93.1114,74.1743 92.4394,71.9263 92.4394,70.3243 C92.4394,67.1473 95.1524,65.0023 98.5614,65.0023 C101.1204,65.0023 103.0314,66.1133 103.9874,67.9733 C104.4264,68.8263 104.0654,69.6533 103.4194,70.0663 C102.4894,70.6603 101.6624,70.4023 101.0424,69.6273 C100.2934,68.6713 99.3114,68.3873 98.5104,68.3873 C97.1924,68.3873 96.2114,69.1623 96.2114,70.2213 C96.2114,70.6863 96.3914,71.5393 98.1234,72.0293 L100.2414,72.6503 C104.5554,73.8903 105.1754,76.3183 105.1244,78.0233 C105.0724,81.5633 101.8694,83.2423 98.7164,83.2423 C95.5654,83.2423 93.2924,81.7183 92.5164,79.4183 C92.2324,78.5143 92.6454,77.6363 93.5244,77.3003" id="Fill-45" fill="#4C5C68"></path>
            <path d="M115.2773,81.253 C114.6313,82.467 113.2103,83.242 111.7893,83.242 C109.0773,83.242 107.3453,81.899 107.3453,78.463 L107.3453,72.418 C107.3453,71.513 108.1733,70.816 109.1543,70.816 C110.1103,70.816 110.9363,71.539 110.9633,72.418 L110.9633,77.378 C110.9633,78.98 111.5563,79.754 113.0543,79.754 C114.3213,79.754 115.2773,79.16 115.2773,77.326 L115.2773,72.418 C115.2773,71.513 116.1033,70.816 117.0863,70.816 C118.0413,70.816 118.8683,71.539 118.8933,72.418 L118.8933,81.537 C118.8683,82.416 118.0413,83.139 117.0863,83.139 C116.1033,83.139 115.2773,82.441 115.2773,81.537 L115.2773,81.253 Z" id="Fill-47" fill="#4C5C68"></path>
            <path d="M128.5303,73.9417 C126.9023,73.9417 125.5853,75.3887 125.5853,76.9907 C125.5853,78.5917 126.9023,80.0387 128.5303,80.0387 C130.3383,80.0387 131.3723,78.5917 131.3723,76.9907 C131.3723,75.3887 130.3383,73.9417 128.5303,73.9417 M129.2273,70.7127 C132.3013,70.7127 135.0923,72.9597 135.0923,76.9647 C135.0923,80.9687 132.3013,83.2427 129.2273,83.2427 C127.8583,83.2427 126.3853,82.5707 125.6103,81.3047 L125.6103,87.2987 C125.5853,88.1767 124.7583,88.8997 123.8013,88.8997 C122.8203,88.8997 121.9933,88.2027 121.9933,87.2987 L121.9933,72.4177 C121.9933,71.5137 122.8203,70.8157 123.8013,70.8157 C124.7583,70.8157 125.5853,71.5387 125.6103,72.4177 L125.6103,72.6497 C126.6433,71.0477 128.4523,70.7127 129.2273,70.7127" id="Fill-49" fill="#4C5C68"></path>
            <path d="M144.1592,73.9417 C142.5312,73.9417 141.2142,75.3887 141.2142,76.9907 C141.2142,78.5917 142.5312,80.0387 144.1592,80.0387 C145.9682,80.0387 147.0012,78.5917 147.0012,76.9907 C147.0012,75.3887 145.9682,73.9417 144.1592,73.9417 M144.8562,70.7127 C147.9302,70.7127 150.7212,72.9597 150.7212,76.9647 C150.7212,80.9687 147.9302,83.2427 144.8562,83.2427 C143.4872,83.2427 142.0142,82.5707 141.2402,81.3047 L141.2402,87.2987 C141.2142,88.1767 140.3882,88.8997 139.4312,88.8997 C138.4492,88.8997 137.6232,88.2027 137.6232,87.2987 L137.6232,72.4177 C137.6232,71.5137 138.4492,70.8157 139.4312,70.8157 C140.3882,70.8157 141.2142,71.5387 141.2402,72.4177 L141.2402,72.6497 C142.2732,71.0477 144.0822,70.7127 144.8562,70.7127" id="Fill-51" fill="#4C5C68"></path>
            <path d="M161.6748,76.9385 C161.6748,75.3105 160.4348,74.1995 158.9358,74.1995 C157.4638,74.1995 156.2238,75.3105 156.2238,76.9385 C156.2238,78.5915 157.4638,79.7545 158.9358,79.7545 C160.4348,79.7545 161.6748,78.5915 161.6748,76.9385 M152.6068,76.9385 C152.6068,73.1405 155.4228,70.7125 158.9358,70.7125 C162.4488,70.7125 165.2908,73.1405 165.2908,76.9385 C165.2908,80.7365 162.4488,83.2425 158.9358,83.2425 C155.4228,83.2425 152.6068,80.7365 152.6068,76.9385" id="Fill-53" fill="#4C5C68"></path>
            <path d="M176.7617,72.7015 C176.6317,73.6055 175.7797,74.0195 174.9787,74.0195 C174.7207,74.0195 174.3327,73.9935 174.1007,73.9935 C172.0847,73.9935 171.4127,75.5435 171.3617,78.5665 L171.3617,81.5375 C171.3617,82.4415 170.5347,83.1395 169.5537,83.1395 C168.5977,83.1395 167.7707,82.4155 167.7447,81.5375 L167.7447,72.4175 C167.7707,71.5395 168.5977,70.8155 169.5537,70.8155 C170.5347,70.8155 171.3617,71.5135 171.3617,72.4175 L171.3617,73.7345 C172.0327,71.4875 173.2997,70.7125 174.5387,70.7125 C175.7277,70.7125 176.9937,70.9965 176.7617,72.7015" id="Fill-55" fill="#4C5C68"></path>
            <path d="M179.4736,70.9449 L179.4736,67.7929 C179.4986,66.9149 180.3266,66.1909 181.2826,66.1909 C182.2636,66.1909 183.0906,66.8889 183.0906,67.7929 L183.0906,70.9449 L184.4596,70.9449 C185.1826,70.9449 185.7506,71.5909 185.7506,72.3659 C185.7506,73.1149 185.1826,73.7609 184.4596,73.7869 L183.0906,73.7869 L183.0906,81.5369 C183.0906,82.4419 182.2636,83.1389 181.2826,83.1389 C180.3266,83.1389 179.4986,82.4159 179.4736,81.5369 L179.4736,73.7869 L178.4916,73.7869 C177.7686,73.7609 177.2006,73.1149 177.2006,72.3659 C177.2006,71.5909 177.7686,70.9449 178.4916,70.9449 L179.4736,70.9449 Z" id="Fill-57" fill="#4C5C68"></path>
            <path d="M202.0518,83.2422 C196.9368,83.2422 192.9328,79.1602 192.9328,74.1482 C192.9328,69.0852 196.9368,65.0022 202.0518,65.0022 C204.2478,65.0022 206.1088,65.6742 207.6068,66.8632 C208.2788,67.3792 208.1748,68.8522 207.4518,69.4982 C206.7808,70.0662 205.8238,70.0922 205.1788,69.6272 C204.3518,69.0072 203.2398,68.6712 202.0518,68.6712 C199.0548,68.6712 196.7038,71.1262 196.7038,74.1482 C196.7038,77.1452 199.0548,79.5742 202.0518,79.5742 C204.0928,79.5742 205.6688,78.6692 206.4448,76.7322 L202.9308,76.7322 C202.1298,76.7322 201.4058,76.0082 201.4058,75.2072 C201.4058,74.3292 202.1038,73.6572 202.9308,73.6572 L209.5708,73.6572 C210.4478,73.6572 210.7838,74.1222 210.6808,75.0782 C210.0608,80.7362 206.7808,83.2422 202.0518,83.2422" id="Fill-59" fill="#4C5C68"></path>
            <path d="M221.7637,72.7015 C221.6347,73.6055 220.7827,74.0195 219.9807,74.0195 C219.7227,74.0195 219.3347,73.9935 219.1027,73.9935 C217.0867,73.9935 216.4157,75.5435 216.3647,78.5665 L216.3647,81.5375 C216.3647,82.4415 215.5367,83.1395 214.5557,83.1395 C213.5997,83.1395 212.7727,82.4155 212.7467,81.5375 L212.7467,72.4175 C212.7727,71.5395 213.5997,70.8155 214.5557,70.8155 C215.5367,70.8155 216.3647,71.5135 216.3647,72.4175 L216.3647,73.7345 C217.0347,71.4875 218.3017,70.7125 219.5417,70.7125 C220.7307,70.7125 221.9957,70.9965 221.7637,72.7015" id="Fill-61" fill="#4C5C68"></path>
            <path d="M231.6318,76.9385 C231.6318,75.3105 230.3918,74.1995 228.8938,74.1995 C227.4208,74.1995 226.1808,75.3105 226.1808,76.9385 C226.1808,78.5915 227.4208,79.7545 228.8938,79.7545 C230.3918,79.7545 231.6318,78.5915 231.6318,76.9385 M222.5638,76.9385 C222.5638,73.1405 225.3798,70.7125 228.8938,70.7125 C232.4068,70.7125 235.2488,73.1405 235.2488,76.9385 C235.2488,80.7365 232.4068,83.2425 228.8938,83.2425 C225.3798,83.2425 222.5638,80.7365 222.5638,76.9385" id="Fill-63" fill="#4C5C68"></path>
            <path d="M245.5557,81.253 C244.9097,82.467 243.4897,83.242 242.0687,83.242 C239.3557,83.242 237.6247,81.899 237.6247,78.463 L237.6247,72.418 C237.6247,71.513 238.4517,70.816 239.4327,70.816 C240.3887,70.816 241.2157,71.539 241.2417,72.418 L241.2417,77.378 C241.2417,78.98 241.8357,79.754 243.3337,79.754 C244.5997,79.754 245.5557,79.16 245.5557,77.326 L245.5557,72.418 C245.5557,71.513 246.3827,70.816 247.3647,70.816 C248.3207,70.816 249.1477,71.539 249.1727,72.418 L249.1727,81.537 C249.1477,82.416 248.3207,83.139 247.3647,83.139 C246.3827,83.139 245.5557,82.441 245.5557,81.537 L245.5557,81.253 Z" id="Fill-65" fill="#4C5C68"></path>
            <path d="M258.8086,73.9417 C257.1816,73.9417 255.8636,75.3887 255.8636,76.9907 C255.8636,78.5917 257.1816,80.0387 258.8086,80.0387 C260.6176,80.0387 261.6506,78.5917 261.6506,76.9907 C261.6506,75.3887 260.6176,73.9417 258.8086,73.9417 M259.5056,70.7127 C262.5806,70.7127 265.3706,72.9597 265.3706,76.9647 C265.3706,80.9687 262.5806,83.2427 259.5056,83.2427 C258.1366,83.2427 256.6636,82.5707 255.8896,81.3047 L255.8896,87.2987 C255.8636,88.1767 255.0376,88.8997 254.0806,88.8997 C253.0996,88.8997 252.2726,88.2027 252.2726,87.2987 L252.2726,72.4177 C252.2726,71.5137 253.0996,70.8157 254.0806,70.8157 C255.0376,70.8157 255.8636,71.5387 255.8896,72.4177 L255.8896,72.6497 C256.9226,71.0477 258.7316,70.7127 259.5056,70.7127" id="Fill-67" fill="#4C5C68"></path>
            <polygon id="Fill-69" fill="#C5C3C6" points="22.573 112.351 287.537 112.351 287.537 105.727 22.573 105.727"></polygon>
            <polygon id="Fill-71" fill="#C5C3C6" points="22.573 152.758 240.654 152.758 240.654 146.134 22.573 146.134"></polygon>
            <polygon id="Fill-72" fill="#C5C3C6" points="22.573 132.555 287.537 132.555 287.537 125.931 22.573 125.931"></polygon>
            <polygon id="Fill-73" fill="#C5C3C6" points="1.376 185.216 311.715 185.216 311.715 182.566 1.376 182.566"></polygon>
            <path d="M27.3877,221.2029 C27.4397,222.3399 28.3427,223.3469 30.0487,223.3469 C31.5737,223.3469 32.6317,222.6239 32.6587,221.4609 C32.6837,220.6599 32.3227,219.9629 30.5137,219.4459 L28.3687,218.8519 C24.4427,217.6379 23.7717,215.3379 23.7717,213.7359 C23.7717,210.5589 26.4837,208.4149 29.8937,208.4149 C33.3287,208.4149 35.9127,210.4559 35.9127,213.8659 L32.1417,213.8659 C32.1417,212.6769 31.3397,211.8509 29.8417,211.8509 C28.5247,211.8509 27.5417,212.5739 27.5417,213.6329 C27.5417,214.0979 27.7237,214.9509 29.4547,215.4419 L31.5737,216.1129 C35.8877,217.3529 36.5077,219.7819 36.4557,221.4869 C36.4047,225.0259 33.2007,226.7059 30.0487,226.7059 C26.1737,226.7059 23.5897,224.4059 23.5897,221.2029 L27.3877,221.2029 Z" id="Fill-74" fill="#4C5C68"></path>
            <path d="M42.7324,226.4214 L39.1414,226.4214 L39.1414,207.7944 L42.7324,207.7944 L42.7324,216.2424 C43.2234,214.7444 44.9804,214.0984 46.1174,214.0984 C49.2944,214.0984 50.9484,216.2164 50.9484,219.8594 L50.9484,226.4214 L47.3574,226.4214 L47.3574,219.9884 C47.3574,218.4124 46.2204,217.5864 45.1344,217.5864 C43.9984,217.5864 42.7324,218.2064 42.7324,220.0404 L42.7324,226.4214 Z" id="Fill-75" fill="#4C5C68"></path>
            <path d="M60.1191,223.2437 C61.5921,223.2437 63.0381,222.1847 63.0381,220.3757 C63.0381,218.5677 61.5921,217.5087 60.1191,217.5087 C58.6211,217.5087 57.0961,218.6457 57.0961,220.3757 C57.0961,222.1067 58.6211,223.2437 60.1191,223.2437 Z M63.0381,225.0527 C62.2641,226.2147 60.4551,226.6537 59.5251,226.6537 C56.4501,226.6537 53.3761,224.2517 53.3761,220.3757 C53.3761,216.5007 56.4501,214.0977 59.5251,214.0977 C60.3001,214.0977 62.1081,214.3567 63.0381,215.6997 L63.0381,214.3567 L66.6031,214.3567 L66.6031,226.4217 L63.0381,226.4217 L63.0381,225.0527 Z" id="Fill-76" fill="#4C5C68"></path>
            <path d="M73.501,226.4214 L69.909,226.4214 L69.909,214.3564 L73.501,214.3564 L73.501,217.2754 C74.121,215.0284 75.671,214.0984 76.911,214.0984 C77.764,214.0984 78.409,214.2534 78.978,214.5374 L78.332,217.7664 C77.686,217.4564 77.066,217.4054 76.497,217.4054 C74.431,217.4054 73.501,219.0324 73.501,222.2104 L73.501,226.4214 Z" id="Fill-77" fill="#4C5C68"></path>
            <path d="M88.7686,219.3169 C88.5876,217.8439 87.2456,217.2499 86.2376,217.2499 C85.2296,217.2499 83.8606,217.7929 83.5506,219.3169 L88.7686,219.3169 Z M91.7136,224.2259 C90.4996,226.0339 88.2516,226.6799 86.2106,226.6799 C82.7486,226.6799 79.9076,224.1479 79.9076,220.3499 C79.9076,216.5529 82.7486,214.0979 86.2106,214.0979 C89.6476,214.0979 92.3856,216.6559 92.3856,220.4539 C92.3856,220.7639 92.3596,221.2539 92.3336,221.5649 L83.4986,221.5649 C83.6786,222.9599 85.2046,223.5799 86.4696,223.5799 C87.4516,223.5799 88.5106,223.2179 89.1046,222.4429 L91.7136,224.2259 Z" id="Fill-78" fill="#4C5C68"></path>
        </g>
    </g>
</svg>