<?xml version="1.0" encoding="UTF-8"?>
<svg width="336px" height="272px" viewBox="0 0 336 272" version="1.1" xmlns="http://www.w3.org/2000/svg" xmlns:xlink="http://www.w3.org/1999/xlink">
    <!-- Generator: Sketch 48.2 (47327) - http://www.bohemiancoding.com/sketch -->
    <title>Page 1</title>
    <desc>Created with Sketch.</desc>
    <defs>
        <polygon id="path-1" points="0 271.208 335.338 271.208 335.338 0 0 0"></polygon>
    </defs>
    <g id="Users-LP" stroke="none" stroke-width="1" fill="none" fill-rule="evenodd" transform="translate(-156.000000, -1391.000000)">
        <g id="Page-1" transform="translate(156.000000, 1391.000000)">
            <path d="M6.0146,2.6476 C4.1586,2.6476 2.6476,4.1576 2.6476,6.0146 L2.6476,47.7636 C2.6476,49.6206 4.1586,51.1306 6.0146,51.1306 L195.9526,51.1306 C197.8096,51.1306 199.3206,49.6206 199.3206,47.7636 L199.3206,6.0146 C199.3206,4.1576 197.8096,2.6476 195.9526,2.6476 L6.0146,2.6476 Z M195.9526,53.7786 L6.0146,53.7786 C2.6986,53.7786 -0.0004,51.0806 -0.0004,47.7636 L-0.0004,6.0146 C-0.0004,2.6986 2.6986,0.0006 6.0146,0.0006 L195.9526,0.0006 C199.2696,0.0006 201.9676,2.6986 201.9676,6.0146 L201.9676,47.7636 C201.9676,51.0806 199.2696,53.7786 195.9526,53.7786 Z" id="Fill-1" fill="#C5C3C6"></path>
            <path d="M34.5938,21.669 C33.4578,20.662 31.9598,20.017 30.3088,20.017 C26.5908,20.017 23.7258,23.089 23.7258,26.858 C23.7258,30.627 26.5908,33.673 30.3088,33.673 C33.5098,33.673 35.8328,31.814 35.9878,28.871 L30.9278,28.871 L30.9278,26.78 L38.7238,26.78 C38.7238,33.027 35.3938,35.97 30.3088,35.97 C25.2488,35.97 21.3248,31.891 21.3248,26.858 C21.3248,21.798 25.2488,17.719 30.3088,17.719 C32.6568,17.719 34.7748,18.623 36.3228,20.068 L34.5938,21.669 Z" id="Fill-4" fill="#4C5C68"></path>
            <path d="M47.9648,26.3932 C48.7128,25.5152 49.2028,24.5862 49.2028,23.6312 C49.2028,22.0042 47.8608,20.9722 46.2088,20.9722 C44.6868,20.9722 43.3958,21.9532 43.1628,23.6312 L40.9168,23.0892 C41.3558,20.3522 43.5758,18.6492 46.2088,18.6492 C49.1518,18.6492 51.5008,20.6622 51.5008,23.6312 C51.5008,25.2572 50.7528,26.7542 49.6678,27.9932 C47.4998,30.5232 47.4478,30.6262 45.0988,33.3892 L51.5278,33.3892 L51.5278,35.7122 L41.1238,35.7122 L41.1238,34.6792 L47.9648,26.3932 Z" id="Fill-6" fill="#4C5C68"></path>
            <path d="M69.3379,30.0587 L69.3379,23.0377 L64.5109,30.0587 L69.3379,30.0587 Z M71.6359,35.7117 L69.3379,35.7117 L69.3379,32.2527 L60.5609,32.2527 L69.9059,18.8557 L71.6359,18.8557 L71.6359,30.0587 L74.0619,30.0587 L74.0619,32.2527 L71.6359,32.2527 L71.6359,35.7117 Z" id="Fill-8" fill="#4C5C68"></path>
            <path d="M86.4521,29.026 L83.5101,21.127 L80.5661,29.026 L86.4521,29.026 Z M79.7401,31.194 L78.0111,35.712 L75.4551,35.712 L82.2191,17.926 L84.8001,17.926 L91.5381,35.712 L89.0081,35.712 L87.2781,31.194 L79.7401,31.194 Z" id="Fill-10" fill="#4C5C68"></path>
            <path d="M103.1016,29.026 L100.1596,21.127 L97.2156,29.026 L103.1016,29.026 Z M96.3896,31.194 L94.6606,35.712 L92.1056,35.712 L98.8686,17.926 L101.4496,17.926 L108.1876,35.712 L105.6576,35.712 L103.9276,31.194 L96.3896,31.194 Z" id="Fill-12" fill="#4C5C68"></path>
            <path d="M220.7959,2.6476 C218.9399,2.6476 217.4299,4.1576 217.4299,6.0146 L217.4299,47.7636 C217.4299,49.6206 218.9399,51.1306 220.7959,51.1306 L329.3229,51.1306 C331.1799,51.1306 332.6909,49.6206 332.6909,47.7636 L332.6909,6.0146 C332.6909,4.1576 331.1799,2.6476 329.3229,2.6476 L220.7959,2.6476 Z M329.3229,53.7786 L220.7959,53.7786 C217.4809,53.7786 214.7819,51.0806 214.7819,47.7636 L214.7819,6.0146 C214.7819,2.6986 217.4809,0.0006 220.7959,0.0006 L329.3229,0.0006 C332.6399,0.0006 335.3379,2.6986 335.3379,6.0146 L335.3379,47.7636 C335.3379,51.0806 332.6399,53.7786 329.3229,53.7786 Z" id="Fill-14" fill="#C5C3C6"></path>
            <path d="M237.1396,30.0072 C238.1466,29.6202 239.1016,30.1622 239.4626,30.9102 C239.8506,31.7112 240.7276,32.5882 242.3276,32.5882 C243.8516,32.5882 244.9096,31.8662 244.9356,30.7042 C244.9606,29.9042 244.5996,29.2072 242.7926,28.6902 L240.6506,28.0972 C236.7266,26.8832 236.0556,24.6382 236.0556,23.0372 C236.0556,19.8622 238.7656,17.7192 242.1736,17.7192 C244.7286,17.7192 246.6396,18.8292 247.5946,20.6882 C248.0336,21.5402 247.6716,22.3662 247.0266,22.7792 C246.0966,23.3722 245.2706,23.1142 244.6516,22.3402 C243.9036,21.3852 242.9216,21.1012 242.1216,21.1012 C240.8046,21.1012 239.8246,21.8752 239.8246,22.9342 C239.8246,23.3982 240.0046,24.2502 241.7346,24.7412 L243.8516,25.3602 C248.1616,26.6002 248.7826,29.0262 248.7306,30.7302 C248.6786,34.2662 245.4776,35.9442 242.3276,35.9442 C239.1786,35.9442 236.9076,34.4212 236.1326,32.1242 C235.8486,31.2202 236.2616,30.3422 237.1396,30.0072" id="Fill-16" fill="#4C5C68"></path>
            <path d="M259.417,28.6131 C259.236,27.1421 258.23,26.4191 256.888,26.4191 C255.545,26.4191 254.512,27.0901 254.202,28.6131 L259.417,28.6131 Z M261.018,34.8601 C259.805,35.6601 258.281,35.9441 256.861,35.9441 C253.402,35.9441 250.563,33.4401 250.563,29.6451 C250.563,25.8511 253.402,23.4241 256.861,23.4241 C260.295,23.4241 263.031,25.9541 263.031,29.7491 C263.031,30.3941 262.489,30.8591 261.921,30.8591 L254.15,30.8591 C254.331,32.2531 255.854,32.8461 257.119,32.8461 C257.842,32.8461 258.462,32.7951 259.211,32.2791 C260.037,31.7111 260.966,31.8661 261.482,32.4591 C262.153,33.2341 261.896,34.3441 261.018,34.8601 Z" id="Fill-18" fill="#4C5C68"></path>
            <path d="M271.1875,32.7433 C272.8135,32.7433 274.1295,31.2973 274.1295,29.6973 C274.1295,28.0973 272.8135,26.6513 271.1875,26.6513 C269.3795,26.6513 268.3475,28.0973 268.3475,29.6973 C268.3475,31.2973 269.3795,32.7433 271.1875,32.7433 Z M274.1045,25.1283 C274.1295,24.2503 274.9565,23.5273 275.9115,23.5273 C276.8925,23.5273 277.7185,24.2243 277.7185,25.1283 L277.7185,34.2413 C277.7185,35.1443 276.8925,35.8413 275.9115,35.8413 C274.9565,35.8413 274.1295,35.1183 274.1045,34.2413 L274.1045,34.0083 C273.3305,35.2733 271.8585,35.9443 270.4905,35.9443 C267.4185,35.9443 264.6305,33.6723 264.6305,29.6713 C264.6305,25.6703 267.4185,23.4243 270.4905,23.4243 C271.2645,23.4243 273.0725,23.7603 274.1045,25.3603 L274.1045,25.1283 Z" id="Fill-20" fill="#4C5C68"></path>
            <path d="M289.7734,25.412 C289.6444,26.316 288.7934,26.729 287.9924,26.729 C287.7344,26.729 287.3464,26.703 287.1144,26.703 C285.1014,26.703 284.4294,28.252 284.3774,31.272 L284.3774,34.241 C284.3774,35.144 283.5514,35.841 282.5714,35.841 C281.6164,35.841 280.7904,35.118 280.7644,34.241 L280.7644,25.128 C280.7904,24.25 281.6164,23.528 282.5714,23.528 C283.5514,23.528 284.3774,24.225 284.3774,25.128 L284.3774,26.445 C285.0494,24.199 286.3144,23.424 287.5534,23.424 C288.7414,23.424 290.0054,23.708 289.7734,25.412" id="Fill-22" fill="#4C5C68"></path>
            <path d="M297.1816,32.4596 C297.8276,32.4596 298.4466,32.2786 298.9626,31.9946 C299.6086,31.6336 300.6666,31.4786 301.3126,32.1236 C302.0356,32.8466 301.9316,34.1636 301.0796,34.7566 C299.9946,35.5316 298.6266,35.9446 297.1816,35.9446 C293.7226,35.9446 290.5736,33.5176 290.5736,29.7236 L290.5736,29.6456 C290.5736,25.8506 293.7226,23.4246 297.1816,23.4246 C298.6266,23.4246 299.9946,23.8376 301.0796,24.6116 C301.9316,25.2056 302.0356,26.5226 301.3126,27.2446 C300.6666,27.8906 299.6086,27.7356 298.9626,27.3736 C298.4466,27.0896 297.8276,26.9096 297.1816,26.9096 C295.6326,26.9096 294.2396,27.9676 294.2396,29.6456 L294.2396,29.7236 C294.2396,31.4006 295.6326,32.4596 297.1816,32.4596" id="Fill-24" fill="#4C5C68"></path>
            <path d="M312.3857,29.2843 C312.3857,27.7093 311.2497,26.9093 310.1657,26.9093 C309.0307,26.9093 307.7907,27.5033 307.7907,29.3363 L307.7907,34.2413 C307.7907,35.1443 306.9647,35.8413 305.9847,35.8413 C305.0287,35.8413 304.2027,35.1183 304.1767,34.2413 L304.1767,18.5713 C304.2027,17.6933 305.0287,16.9713 305.9847,16.9713 C306.9647,16.9713 307.7907,17.6673 307.7907,18.5713 L307.7907,25.5413 C308.2817,24.0443 310.0107,23.4243 311.1477,23.4243 C314.3227,23.4243 315.9997,25.5153 315.9997,29.1553 L315.9997,34.2413 C315.9997,35.1443 315.1737,35.8413 314.1937,35.8413 C313.2377,35.8413 312.4117,35.1183 312.3857,34.2413 L312.3857,29.2843 Z" id="Fill-26" fill="#4C5C68"></path>
            <path d="M6.9785,100.5821 L12.1155,100.5821 C12.9675,100.5821 13.6655,101.3311 13.6655,102.2341 C13.6655,103.0861 12.9415,103.8611 12.1155,103.8861 L4.7075,103.8861 C3.7515,103.8861 3.2095,103.1641 3.2095,102.2861 L3.2095,87.7261 C3.2355,86.7971 4.1135,85.9711 5.0935,85.9711 C6.1265,85.9711 6.9785,86.7711 6.9785,87.7261 L6.9785,100.5821 Z" id="Fill-28" fill="#4C5C68"></path>
            <path d="M23.6807,97.8199 C23.6807,96.1939 22.4417,95.0839 20.9437,95.0839 C19.4727,95.0839 18.2337,96.1939 18.2337,97.8199 C18.2337,99.4719 19.4727,100.6339 20.9437,100.6339 C22.4417,100.6339 23.6807,99.4719 23.6807,97.8199 M14.6187,97.8199 C14.6187,94.0249 17.4327,91.5989 20.9437,91.5989 C24.4537,91.5989 27.2937,94.0249 27.2937,97.8199 C27.2937,101.6149 24.4537,104.1189 20.9437,104.1189 C17.4327,104.1189 14.6187,101.6149 14.6187,97.8199" id="Fill-30" fill="#4C5C68"></path>
            <path d="M35.7607,100.6336 C36.4057,100.6336 37.0257,100.4526 37.5417,100.1686 C38.1877,99.8076 39.2447,99.6526 39.8907,100.2986 C40.6137,101.0206 40.5097,102.3376 39.6577,102.9316 C38.5737,103.7056 37.2057,104.1186 35.7607,104.1186 C32.3007,104.1186 29.1527,101.6926 29.1527,97.8976 L29.1527,97.8196 C29.1527,94.0256 32.3007,91.5986 35.7607,91.5986 C37.2057,91.5986 38.5737,92.0116 39.6577,92.7866 C40.5097,93.3796 40.6137,94.6966 39.8907,95.4196 C39.2447,96.0646 38.1877,95.9096 37.5417,95.5486 C37.0257,95.2646 36.4057,95.0836 35.7607,95.0836 C34.2117,95.0836 32.8177,96.1416 32.8177,97.8196 L32.8177,97.8976 C32.8177,99.5756 34.2117,100.6336 35.7607,100.6336" id="Fill-32" fill="#4C5C68"></path>
            <path d="M48.6934,100.9176 C50.3194,100.9176 51.6354,99.4716 51.6354,97.8716 C51.6354,96.2716 50.3194,94.8256 48.6934,94.8256 C46.8854,94.8256 45.8534,96.2716 45.8534,97.8716 C45.8534,99.4716 46.8854,100.9176 48.6934,100.9176 Z M51.6094,93.3026 C51.6354,92.4246 52.4624,91.7016 53.4174,91.7016 C54.3974,91.7016 55.2234,92.3986 55.2234,93.3026 L55.2234,102.4146 C55.2234,103.3186 54.3974,104.0156 53.4174,104.0156 C52.4624,104.0156 51.6354,103.2926 51.6094,102.4146 L51.6094,102.1826 C50.8354,103.4476 49.3644,104.1186 47.9964,104.1186 C44.9234,104.1186 42.1354,101.8466 42.1354,97.8456 C42.1354,93.8446 44.9234,91.5986 47.9964,91.5986 C48.7704,91.5986 50.5774,91.9346 51.6094,93.5346 L51.6094,93.3026 Z" id="Fill-34" fill="#4C5C68"></path>
            <path d="M61.9355,102.4149 C61.9355,103.3189 61.1095,104.0159 60.1275,104.0159 C59.1725,104.0159 58.3465,103.2929 58.3215,102.4149 L58.3215,86.7459 C58.3465,85.8679 59.1725,85.1449 60.1275,85.1449 C61.1095,85.1449 61.9355,85.8419 61.9355,86.7459 L61.9355,102.4149 Z" id="Fill-36" fill="#4C5C68"></path>
            <path d="M72.0537,98.1815 C73.0607,97.7945 74.0157,98.3365 74.3767,99.0845 C74.7637,99.8855 75.6417,100.7625 77.2417,100.7625 C78.7647,100.7625 79.8237,100.0405 79.8497,98.8785 C79.8747,98.0785 79.5137,97.3815 77.7067,96.8645 L75.5647,96.2715 C71.6407,95.0575 70.9687,92.8125 70.9687,91.2115 C70.9687,88.0365 73.6797,85.8935 77.0867,85.8935 C79.6427,85.8935 81.5537,87.0035 82.5077,88.8625 C82.9477,89.7145 82.5857,90.5405 81.9407,90.9535 C81.0117,91.5465 80.1857,91.2885 79.5657,90.5145 C78.8167,89.5595 77.8357,89.2755 77.0357,89.2755 C75.7187,89.2755 74.7387,90.0495 74.7387,91.1085 C74.7387,91.5725 74.9187,92.4245 76.6487,92.9155 L78.7647,93.5345 C83.0757,94.7735 83.6957,97.2005 83.6447,98.9045 C83.5927,102.4405 80.3917,104.1185 77.2417,104.1185 C74.0927,104.1185 71.8217,102.5955 71.0467,100.2985 C70.7627,99.3945 71.1757,98.5165 72.0537,98.1815" id="Fill-38" fill="#4C5C68"></path>
            <path d="M93.7891,102.131 C93.1431,103.344 91.7241,104.119 90.3041,104.119 C87.5941,104.119 85.8641,102.776 85.8641,99.343 L85.8641,93.302 C85.8641,92.399 86.6901,91.702 87.6711,91.702 C88.6261,91.702 89.4521,92.425 89.4781,93.302 L89.4781,98.259 C89.4781,99.859 90.0721,100.634 91.5681,100.634 C92.8341,100.634 93.7891,100.04 93.7891,98.207 L93.7891,93.302 C93.7891,92.399 94.6151,91.702 95.5961,91.702 C96.5511,91.702 97.3771,92.425 97.4031,93.302 L97.4031,102.415 C97.3771,103.293 96.5511,104.016 95.5961,104.016 C94.6151,104.016 93.7891,103.318 93.7891,102.415 L93.7891,102.131 Z" id="Fill-40" fill="#4C5C68"></path>
            <path d="M107.0313,94.8255 C105.4053,94.8255 104.0893,96.2715 104.0893,97.8715 C104.0893,99.4715 105.4053,100.9175 107.0313,100.9175 C108.8383,100.9175 109.8713,99.4715 109.8713,97.8715 C109.8713,96.2715 108.8383,94.8255 107.0313,94.8255 M107.7283,91.5985 C110.8003,91.5985 113.5883,93.8445 113.5883,97.8455 C113.5883,101.8465 110.8003,104.1185 107.7283,104.1185 C106.3603,104.1185 104.8883,103.4475 104.1143,102.1825 L104.1143,108.1715 C104.0893,109.0495 103.2623,109.7725 102.3073,109.7725 C101.3263,109.7725 100.5003,109.0755 100.5003,108.1715 L100.5003,93.3025 C100.5003,92.3985 101.3263,91.7015 102.3073,91.7015 C103.2623,91.7015 104.0893,92.4245 104.1143,93.3025 L104.1143,93.5345 C105.1463,91.9345 106.9543,91.5985 107.7283,91.5985" id="Fill-42" fill="#4C5C68"></path>
            <path d="M122.6484,94.8255 C121.0224,94.8255 119.7054,96.2715 119.7054,97.8715 C119.7054,99.4715 121.0224,100.9175 122.6484,100.9175 C124.4554,100.9175 125.4884,99.4715 125.4884,97.8715 C125.4884,96.2715 124.4554,94.8255 122.6484,94.8255 M123.3444,91.5985 C126.4174,91.5985 129.2054,93.8445 129.2054,97.8455 C129.2054,101.8465 126.4174,104.1185 123.3444,104.1185 C121.9774,104.1185 120.5054,103.4475 119.7314,102.1825 L119.7314,108.1715 C119.7054,109.0495 118.8784,109.7725 117.9244,109.7725 C116.9434,109.7725 116.1174,109.0755 116.1174,108.1715 L116.1174,93.3025 C116.1174,92.3985 116.9434,91.7015 117.9244,91.7015 C118.8784,91.7015 119.7054,92.4245 119.7314,93.3025 L119.7314,93.5345 C120.7634,91.9345 122.5714,91.5985 123.3444,91.5985" id="Fill-44" fill="#4C5C68"></path>
            <path d="M140.1504,97.8199 C140.1504,96.1939 138.9114,95.0839 137.4134,95.0839 C135.9424,95.0839 134.7034,96.1939 134.7034,97.8199 C134.7034,99.4719 135.9424,100.6339 137.4134,100.6339 C138.9114,100.6339 140.1504,99.4719 140.1504,97.8199 M131.0884,97.8199 C131.0884,94.0249 133.9024,91.5989 137.4134,91.5989 C140.9234,91.5989 143.7634,94.0249 143.7634,97.8199 C143.7634,101.6149 140.9234,104.1189 137.4134,104.1189 C133.9024,104.1189 131.0884,101.6149 131.0884,97.8199" id="Fill-46" fill="#4C5C68"></path>
            <path d="M155.2246,93.5863 C155.0956,94.4903 154.2446,94.9033 153.4436,94.9033 C153.1856,94.9033 152.7976,94.8773 152.5656,94.8773 C150.5526,94.8773 149.8806,96.4263 149.8286,99.4463 L149.8286,102.4153 C149.8286,103.3183 149.0026,104.0153 148.0226,104.0153 C147.0676,104.0153 146.2416,103.2923 146.2156,102.4153 L146.2156,93.3023 C146.2416,92.4243 147.0676,91.7023 148.0226,91.7023 C149.0026,91.7023 149.8286,92.3993 149.8286,93.3023 L149.8286,94.6193 C150.5006,92.3733 151.7656,91.5983 153.0046,91.5983 C154.1926,91.5983 155.4566,91.8823 155.2246,93.5863" id="Fill-48" fill="#4C5C68"></path>
            <path d="M157.9346,91.8309 L157.9346,88.6819 C157.9596,87.8039 158.7866,87.0809 159.7426,87.0809 C160.7226,87.0809 161.5486,87.7779 161.5486,88.6819 L161.5486,91.8309 L162.9166,91.8309 C163.6396,91.8309 164.2076,92.4769 164.2076,93.2509 C164.2076,93.9989 163.6396,94.6449 162.9166,94.6709 L161.5486,94.6709 L161.5486,102.4149 C161.5486,103.3189 160.7226,104.0159 159.7426,104.0159 C158.7866,104.0159 157.9596,103.2929 157.9346,102.4149 L157.9346,94.6709 L156.9546,94.6709 C156.2316,94.6449 155.6636,93.9989 155.6636,93.2509 C155.6636,92.4769 156.2316,91.8309 156.9546,91.8309 L157.9346,91.8309 Z" id="Fill-50" fill="#4C5C68"></path>
            <path d="M180.4951,104.1188 C175.3851,104.1188 171.3831,100.0398 171.3831,95.0318 C171.3831,89.9728 175.3851,85.8938 180.4951,85.8938 C182.6891,85.8938 184.5491,86.5648 186.0461,87.7528 C186.7171,88.2688 186.6131,89.7398 185.8911,90.3858 C185.2201,90.9538 184.2651,90.9788 183.6191,90.5148 C182.7931,89.8948 181.6821,89.5588 180.4951,89.5588 C177.5011,89.5588 175.1521,92.0118 175.1521,95.0318 C175.1521,98.0268 177.5011,100.4528 180.4951,100.4528 C182.5351,100.4528 184.1091,99.5498 184.8841,97.6138 L181.3731,97.6138 C180.5731,97.6138 179.8501,96.8908 179.8501,96.0908 C179.8501,95.2128 180.5471,94.5418 181.3731,94.5418 L188.0081,94.5418 C188.8851,94.5418 189.2211,95.0058 189.1171,95.9618 C188.4981,101.6148 185.2201,104.1188 180.4951,104.1188" id="Fill-52" fill="#4C5C68"></path>
            <path d="M200.1914,93.5863 C200.0624,94.4903 199.2104,94.9033 198.4104,94.9033 C198.1524,94.9033 197.7644,94.8773 197.5324,94.8773 C195.5184,94.8773 194.8474,96.4263 194.7954,99.4463 L194.7954,102.4153 C194.7954,103.3183 193.9694,104.0153 192.9894,104.0153 C192.0334,104.0153 191.2084,103.2923 191.1814,102.4153 L191.1814,93.3023 C191.2084,92.4243 192.0334,91.7023 192.9894,91.7023 C193.9694,91.7023 194.7954,92.3993 194.7954,93.3023 L194.7954,94.6193 C195.4664,92.3733 196.7324,91.5983 197.9714,91.5983 C199.1584,91.5983 200.4234,91.8823 200.1914,93.5863" id="Fill-54" fill="#4C5C68"></path>
            <path d="M210.0518,97.8199 C210.0518,96.1939 208.8128,95.0839 207.3158,95.0839 C205.8438,95.0839 204.6058,96.1939 204.6058,97.8199 C204.6058,99.4719 205.8438,100.6339 207.3158,100.6339 C208.8128,100.6339 210.0518,99.4719 210.0518,97.8199 M200.9908,97.8199 C200.9908,94.0249 203.8048,91.5989 207.3158,91.5989 C210.8258,91.5989 213.6658,94.0249 213.6658,97.8199 C213.6658,101.6149 210.8258,104.1189 207.3158,104.1189 C203.8048,104.1189 200.9908,101.6149 200.9908,97.8199" id="Fill-56" fill="#4C5C68"></path>
            <path d="M223.9648,102.131 C223.3188,103.344 221.9008,104.119 220.4798,104.119 C217.7698,104.119 216.0398,102.776 216.0398,99.343 L216.0398,93.302 C216.0398,92.399 216.8658,91.702 217.8468,91.702 C218.8028,91.702 219.6278,92.425 219.6538,93.302 L219.6538,98.259 C219.6538,99.859 220.2478,100.634 221.7448,100.634 C223.0098,100.634 223.9648,100.04 223.9648,98.207 L223.9648,93.302 C223.9648,92.399 224.7908,91.702 225.7728,91.702 C226.7278,91.702 227.5528,92.425 227.5788,93.302 L227.5788,102.415 C227.5528,103.293 226.7278,104.016 225.7728,104.016 C224.7908,104.016 223.9648,103.318 223.9648,102.415 L223.9648,102.131 Z" id="Fill-58" fill="#4C5C68"></path>
            <path d="M237.207,94.8255 C235.581,94.8255 234.265,96.2715 234.265,97.8715 C234.265,99.4715 235.581,100.9175 237.207,100.9175 C239.015,100.9175 240.047,99.4715 240.047,97.8715 C240.047,96.2715 239.015,94.8255 237.207,94.8255 M237.904,91.5985 C240.977,91.5985 243.765,93.8445 243.765,97.8455 C243.765,101.8465 240.977,104.1185 237.904,104.1185 C236.536,104.1185 235.064,103.4475 234.29,102.1825 L234.29,108.1715 C234.265,109.0495 233.438,109.7725 232.483,109.7725 C231.502,109.7725 230.676,109.0755 230.676,108.1715 L230.676,93.3025 C230.676,92.3985 231.502,91.7015 232.483,91.7015 C233.438,91.7015 234.265,92.4245 234.29,93.3025 L234.29,93.5345 C235.323,91.9345 237.13,91.5985 237.904,91.5985" id="Fill-60" fill="#4C5C68"></path>
            <mask id="mask-2" fill="white">
                <use xlink:href="#path-1"></use>
            </mask>
            <g id="Clip-63"></g>
            <polygon id="Fill-62" fill="#C5C3C6" mask="url(#mask-2)" points="1.158 133.205 334.087 133.205 334.087 126.586 1.158 126.586"></polygon>
            <polygon id="Fill-64" fill="#C5C3C6" mask="url(#mask-2)" points="1.159 173.58 275.18 173.58 275.18 166.961 1.159 166.961"></polygon>
            <polygon id="Fill-65" fill="#C5C3C6" mask="url(#mask-2)" points="1.158 153.392 334.087 153.392 334.087 146.773 1.158 146.773"></polygon>
            <path d="M17.0459,220.0758 C17.0459,221.0308 16.1939,221.8308 15.1619,221.8308 C14.1809,221.8308 13.2769,221.0048 13.2769,220.0758 L13.2769,214.5518 L6.9529,214.5518 L6.9529,220.0758 C6.9529,221.0308 6.1009,221.8308 5.0679,221.8308 C4.0869,221.8308 3.1839,221.0048 3.1839,220.0758 L3.1839,205.5428 C3.2099,204.6128 4.0869,203.7868 5.0679,203.7868 C6.1009,203.7868 6.9529,204.5868 6.9529,205.5428 L6.9529,211.1698 L13.2769,211.1698 L13.2769,205.5428 C13.3029,204.6128 14.1809,203.7868 15.1619,203.7868 C16.1939,203.7868 17.0459,204.5868 17.0459,205.5428 L17.0459,220.0758 Z" id="Fill-66" fill="#4C5C68" mask="url(#mask-2)"></path>
            <path d="M28.5586,214.6031 C28.3776,213.1321 27.3716,212.4091 26.0296,212.4091 C24.6866,212.4091 23.6546,213.0801 23.3446,214.6031 L28.5586,214.6031 Z M30.1596,220.8501 C28.9466,221.6501 27.4226,221.9341 26.0026,221.9341 C22.5436,221.9341 19.7046,219.4301 19.7046,215.6351 C19.7046,211.8411 22.5436,209.4141 26.0026,209.4141 C29.4366,209.4141 32.1726,211.9441 32.1726,215.7391 C32.1726,216.3841 31.6306,216.8491 31.0626,216.8491 L23.2926,216.8491 C23.4736,218.2431 24.9956,218.8371 26.2616,218.8371 C26.9846,218.8371 27.6036,218.7851 28.3526,218.2691 C29.1786,217.7011 30.1076,217.8561 30.6236,218.4491 C31.2946,219.2241 31.0376,220.3341 30.1596,220.8501 Z" id="Fill-67" fill="#4C5C68" mask="url(#mask-2)"></path>
            <path d="M40.3291,218.7335 C41.9561,218.7335 43.2721,217.2875 43.2721,215.6875 C43.2721,214.0865 41.9561,212.6415 40.3291,212.6415 C38.5221,212.6415 37.4891,214.0865 37.4891,215.6875 C37.4891,217.2875 38.5221,218.7335 40.3291,218.7335 Z M43.2461,211.1185 C43.2721,210.2405 44.0991,209.5175 45.0541,209.5175 C46.0341,209.5175 46.8601,210.2145 46.8601,211.1185 L46.8601,220.2305 C46.8601,221.1345 46.0341,221.8315 45.0541,221.8315 C44.0991,221.8315 43.2721,221.1085 43.2461,220.2305 L43.2461,219.9985 C42.4721,221.2635 41.0001,221.9345 39.6331,221.9345 C36.5601,221.9345 33.7721,219.6625 33.7721,215.6615 C33.7721,211.6605 36.5601,209.4145 39.6331,209.4145 C40.4071,209.4145 42.2141,209.7505 43.2461,211.3505 L43.2461,211.1185 Z" id="Fill-68" fill="#4C5C68" mask="url(#mask-2)"></path>
            <path d="M53.5713,220.2308 C53.5713,221.1348 52.7463,221.8308 51.7643,221.8308 C50.8093,221.8308 49.9833,221.1088 49.9583,220.2308 L49.9583,204.5618 C49.9833,203.6838 50.8093,202.9608 51.7643,202.9608 C52.7463,202.9608 53.5713,203.6578 53.5713,204.5618 L53.5713,220.2308 Z" id="Fill-69" fill="#4C5C68" mask="url(#mask-2)"></path>
            <path d="M57.7275,209.6468 L57.7275,206.4978 C57.7525,205.6198 58.5795,204.8968 59.5345,204.8968 C60.5155,204.8968 61.3415,205.5938 61.3415,206.4978 L61.3415,209.6468 L62.7095,209.6468 C63.4325,209.6468 63.9995,210.2918 63.9995,211.0668 C63.9995,211.8148 63.4325,212.4608 62.7095,212.4868 L61.3415,212.4868 L61.3415,220.2308 C61.3415,221.1348 60.5155,221.8308 59.5345,221.8308 C58.5795,221.8308 57.7525,221.1088 57.7275,220.2308 L57.7275,212.4868 L56.7465,212.4868 C56.0235,212.4608 55.4565,211.8148 55.4565,211.0668 C55.4565,210.2918 56.0235,209.6468 56.7465,209.6468 L57.7275,209.6468 Z" id="Fill-70" fill="#4C5C68" mask="url(#mask-2)"></path>
            <path d="M74.042,215.2745 C74.042,213.6995 72.906,212.8995 71.822,212.8995 C70.687,212.8995 69.447,213.4935 69.447,215.3265 L69.447,220.2305 C69.447,221.1345 68.621,221.8315 67.64,221.8315 C66.685,221.8315 65.858,221.1085 65.833,220.2305 L65.833,204.5615 C65.858,203.6835 66.685,202.9605 67.64,202.9605 C68.621,202.9605 69.447,203.6575 69.447,204.5615 L69.447,211.5315 C69.938,210.0345 71.667,209.4145 72.803,209.4145 C75.978,209.4145 77.656,211.5055 77.656,215.1455 L77.656,220.2305 C77.656,221.1345 76.83,221.8315 75.849,221.8315 C74.894,221.8315 74.068,221.1085 74.042,220.2305 L74.042,215.2745 Z" id="Fill-71" fill="#4C5C68" mask="url(#mask-2)"></path>
            <path d="M93.2725,213.8546 C90.7935,213.8546 90.4325,215.7386 90.5865,216.4876 C90.8455,217.7526 91.7495,218.4496 93.2725,218.4496 C94.2525,218.4496 96.3185,217.7786 96.3185,215.2746 L96.3185,213.8546 L93.2725,213.8546 Z M96.8085,206.7296 C96.2665,207.7626 94.9245,207.5556 94.0985,207.2456 C93.8395,207.1426 93.5825,207.0396 93.2205,207.0396 C91.9045,207.0396 91.3105,208.1756 91.3105,208.9496 C91.3105,209.0276 91.3105,210.9636 93.3755,210.9636 L96.3185,210.9636 L96.3185,209.9046 C96.3185,209.0526 97.0665,208.3556 97.9965,208.3556 C98.8475,208.3556 99.6235,209.0786 99.6485,209.9046 L99.6485,210.9636 L100.5005,210.9636 C101.2495,210.9636 101.8425,211.6086 101.8425,212.4086 C101.8425,213.1576 101.2225,213.8286 100.5005,213.8546 L99.6485,213.8546 L99.6485,216.4876 C99.6485,218.1656 99.9325,218.8886 101.1455,219.0176 C101.9465,219.0946 102.5905,219.6116 102.5905,220.4886 C102.5905,221.2896 101.9715,221.9346 100.9645,221.9346 C99.2605,221.9346 97.7635,221.1086 97.0415,219.7406 C96.3705,221.1856 94.2275,221.9346 92.7305,221.9346 C89.2965,221.9346 86.6645,219.8176 86.6645,216.7716 C86.6645,214.5256 87.6705,212.9256 89.6065,212.2286 C88.3415,211.8156 87.3605,210.4986 87.3605,208.6916 C87.3605,206.1616 89.5025,203.8646 92.5495,203.7096 C94.0205,203.6316 95.3115,204.0196 96.3185,204.7416 C97.0415,205.2586 97.0925,206.1876 96.8085,206.7296 Z" id="Fill-72" fill="#4C5C68" mask="url(#mask-2)"></path>
            <path d="M122.0801,207.401 L124.1971,215.12 L127.4241,204.949 C127.7081,204.071 128.8441,203.606 129.7721,203.864 C130.7541,204.148 131.2961,205.258 130.9861,206.162 L126.1841,220.386 C125.9001,221.263 125.2551,221.831 124.4291,221.831 L124.1711,221.831 C123.3191,221.831 122.6221,221.237 122.3901,220.386 L120.2991,212.357 L118.2081,220.386 C117.9761,221.237 117.2781,221.831 116.4271,221.831 L116.1691,221.831 C115.3431,221.831 114.6971,221.263 114.4131,220.386 L109.6111,206.162 C109.3021,205.258 109.8441,204.148 110.8251,203.864 C111.7541,203.606 112.8901,204.071 113.1741,204.949 L116.4001,215.12 L118.5171,207.401 C118.7241,206.627 119.3181,206.162 120.2221,206.162 L120.3761,206.162 C121.2791,206.162 121.8731,206.627 122.0801,207.401" id="Fill-73" fill="#4C5C68" mask="url(#mask-2)"></path>
            <path d="M139.9941,214.6031 C139.8131,213.1321 138.8071,212.4091 137.4651,212.4091 C136.1221,212.4091 135.0901,213.0801 134.7801,214.6031 L139.9941,214.6031 Z M141.5951,220.8501 C140.3821,221.6501 138.8581,221.9341 137.4381,221.9341 C133.9791,221.9341 131.1401,219.4301 131.1401,215.6351 C131.1401,211.8411 133.9791,209.4141 137.4381,209.4141 C140.8721,209.4141 143.6081,211.9441 143.6081,215.7391 C143.6081,216.3841 143.0661,216.8491 142.4981,216.8491 L134.7281,216.8491 C134.9091,218.2431 136.4311,218.8371 137.6971,218.8371 C138.4201,218.8371 139.0391,218.7851 139.7881,218.2691 C140.6141,217.7011 141.5431,217.8561 142.0591,218.4491 C142.7301,219.2241 142.4731,220.3341 141.5951,220.8501 Z" id="Fill-74" fill="#4C5C68" mask="url(#mask-2)"></path>
            <path d="M149.4414,220.2308 C149.4414,221.1348 148.6164,221.8308 147.6344,221.8308 C146.6794,221.8308 145.8534,221.1088 145.8284,220.2308 L145.8284,204.5618 C145.8534,203.6838 146.6794,202.9608 147.6344,202.9608 C148.6164,202.9608 149.4414,203.6578 149.4414,204.5618 L149.4414,220.2308 Z" id="Fill-75" fill="#4C5C68" mask="url(#mask-2)"></path>
            <path d="M156.2051,220.2308 C156.2051,221.1348 155.3791,221.8308 154.3971,221.8308 C153.4421,221.8308 152.6161,221.1088 152.5911,220.2308 L152.5911,204.5618 C152.6161,203.6838 153.4421,202.9608 154.3971,202.9608 C155.3791,202.9608 156.2051,203.6578 156.2051,204.5618 L156.2051,220.2308 Z" id="Fill-76" fill="#4C5C68" mask="url(#mask-2)"></path>
            <path d="M165.8848,212.6412 C164.2588,212.6412 162.9428,214.0872 162.9428,215.6872 C162.9428,217.2882 164.2588,218.7332 165.8848,218.7332 C167.6918,218.7332 168.7248,217.2882 168.7248,215.6872 C168.7248,214.0872 167.6918,212.6412 165.8848,212.6412 M166.5818,209.4142 C169.6538,209.4142 172.4418,211.6602 172.4418,215.6612 C172.4418,219.6622 169.6538,221.9342 166.5818,221.9342 C165.2138,221.9342 163.7418,221.2632 162.9678,219.9982 L162.9678,220.2312 C162.9428,221.1082 162.1158,221.8312 161.1608,221.8312 C160.1798,221.8312 159.3538,221.1342 159.3538,220.2312 L159.3538,204.5612 C159.3538,203.6582 160.1798,202.9612 161.1608,202.9612 C162.1158,202.9612 162.9428,203.6832 162.9678,204.5612 L162.9678,211.3502 C163.9998,209.7502 165.8078,209.4142 166.5818,209.4142" id="Fill-77" fill="#4C5C68" mask="url(#mask-2)"></path>
            <path d="M183.1797,214.6031 C182.9987,213.1321 181.9927,212.4091 180.6507,212.4091 C179.3077,212.4091 178.2757,213.0801 177.9657,214.6031 L183.1797,214.6031 Z M184.7807,220.8501 C183.5677,221.6501 182.0437,221.9341 180.6237,221.9341 C177.1647,221.9341 174.3257,219.4301 174.3257,215.6351 C174.3257,211.8411 177.1647,209.4141 180.6237,209.4141 C184.0577,209.4141 186.7937,211.9441 186.7937,215.7391 C186.7937,216.3841 186.2517,216.8491 185.6837,216.8491 L177.9137,216.8491 C178.0947,218.2431 179.6167,218.8371 180.8827,218.8371 C181.6057,218.8371 182.2247,218.7851 182.9737,218.2691 C183.7997,217.7011 184.7287,217.8561 185.2447,218.4491 C185.9157,219.2241 185.6587,220.3341 184.7807,220.8501 Z" id="Fill-78" fill="#4C5C68" mask="url(#mask-2)"></path>
            <path d="M192.5752,220.2308 C192.5752,221.1348 191.7502,221.8308 190.7682,221.8308 C189.8132,221.8308 188.9872,221.1088 188.9622,220.2308 L188.9622,211.1178 C188.9872,210.2408 189.8132,209.5178 190.7682,209.5178 C191.7502,209.5178 192.5752,210.2148 192.5752,211.1178 L192.5752,220.2308 Z M190.7682,203.0898 C191.9822,203.0898 192.9632,203.9938 192.9632,205.1808 C192.9632,206.3678 191.9822,207.2978 190.7682,207.2978 C189.5552,207.2978 188.5222,206.3678 188.5222,205.1808 C188.5222,203.9938 189.5552,203.0898 190.7682,203.0898 Z" id="Fill-79" fill="#4C5C68" mask="url(#mask-2)"></path>
            <path d="M199.2354,211.4022 C199.8814,210.1892 201.3004,209.3892 202.7194,209.3892 C205.4304,209.3892 207.1604,211.0662 207.1604,214.5002 L207.1604,220.2312 C207.1604,221.1342 206.3344,221.8312 205.3534,221.8312 C204.3984,221.8312 203.5724,221.1082 203.5464,220.2312 L203.5464,215.2742 C203.5464,213.6742 202.6684,212.8732 201.4554,212.8732 C200.1904,212.8732 199.2354,213.4932 199.2354,215.3262 L199.2354,220.2312 C199.2354,221.1342 198.4094,221.8312 197.4284,221.8312 C196.4724,221.8312 195.6464,221.1082 195.6214,220.2312 L195.6214,211.1182 C195.6464,210.2402 196.4724,209.5172 197.4284,209.5172 C198.4094,209.5172 199.2354,210.2152 199.2354,211.1182 L199.2354,211.4022 Z" id="Fill-80" fill="#4C5C68" mask="url(#mask-2)"></path>
            <path d="M216.1172,218.7335 C217.7442,218.7335 219.0602,217.2875 219.0602,215.6875 C219.0602,214.0865 217.7442,212.6415 216.1172,212.6415 C214.3102,212.6415 213.2772,214.0865 213.2772,215.6875 C213.2772,217.2875 214.3102,218.7335 216.1172,218.7335 M210.9292,223.0965 C211.5742,222.5025 212.6582,222.6315 213.1482,223.1735 C213.8202,223.8965 214.8522,224.4905 215.8332,224.4905 C218.5702,224.4905 219.3182,222.6055 219.1642,220.2045 L219.1642,219.8695 C218.3892,221.2375 216.9182,221.9345 215.4212,221.9345 C212.3482,221.9345 209.5602,219.6625 209.5602,215.6615 C209.5602,211.6605 212.3482,209.4145 215.4212,209.4145 C216.1942,209.4145 218.0022,209.7505 219.0342,211.3505 L219.0342,211.1185 C219.0602,210.2405 219.8862,209.5175 220.8422,209.5175 C221.8222,209.5175 222.6482,210.2145 222.6482,211.1185 L222.6482,220.0245 C222.6482,225.2125 220.1182,227.7165 215.8332,227.7165 C213.7422,227.7165 211.9092,226.7875 210.7222,225.3165 C210.2312,224.6965 210.2832,223.6645 210.9292,223.0965" id="Fill-81" fill="#4C5C68" mask="url(#mask-2)"></path>
            <polygon id="Fill-82" fill="#C5C3C6" mask="url(#mask-2)" points="1.158 251.02 334.087 251.02 334.087 244.401 1.158 244.401"></polygon>
            <polygon id="Fill-83" fill="#C5C3C6" mask="url(#mask-2)" points="1.158 271.208 195.753 271.208 195.753 264.589 1.158 264.589"></polygon>
        </g>
    </g>
</svg>