<?xml version="1.0" encoding="UTF-8"?>
<svg width="313px" height="258px" viewBox="0 0 313 258" version="1.1" xmlns="http://www.w3.org/2000/svg" xmlns:xlink="http://www.w3.org/1999/xlink">
    <!-- Generator: Sketch 48.2 (47327) - http://www.bohemiancoding.com/sketch -->
    <title>Page 1</title>
    <desc>Created with Sketch.</desc>
    <defs>
        <polygon id="path-1" points="1 257.216 313.907 257.216 313.907 0 1 0"></polygon>
    </defs>
    <g id="Users-LP" stroke="none" stroke-width="1" fill="none" fill-rule="evenodd" transform="translate(-961.000000, -1391.000000)">
        <g id="Page-1" transform="translate(960.000000, 1391.000000)">
            <path d="M7.0142,42.4658 C5.1582,42.4658 3.6482,43.9758 3.6482,45.8328 L3.6482,251.2018 C3.6482,253.0578 5.1582,254.5688 7.0142,254.5688 L307.8922,254.5688 C309.7482,254.5688 311.2592,253.0578 311.2592,251.2018 L311.2592,45.8328 C311.2592,43.9758 309.7482,42.4658 307.8922,42.4658 L7.0142,42.4658 Z M307.8922,257.2158 L7.0142,257.2158 C3.6982,257.2158 0.9992,254.5178 0.9992,251.2018 L0.9992,45.8328 C0.9992,42.5158 3.6982,39.8178 7.0142,39.8178 L307.8922,39.8178 C311.2082,39.8178 313.9072,42.5158 313.9072,45.8328 L313.9072,251.2018 C313.9072,254.5178 311.2082,257.2158 307.8922,257.2158 Z" id="Fill-1" fill="#C5C3C6"></path>
            <path d="M17.2066,1.9621 C17.6716,0.9811 18.1866,0.8261 18.9106,0.8261 L19.2976,0.8261 C20.1756,0.8261 20.8716,1.6261 20.9756,2.5041 L22.7566,16.9861 C22.8596,17.8901 22.0076,18.7931 21.0266,18.8701 C20.0196,18.9481 19.1166,18.2251 19.0136,17.2701 L17.9296,8.0801 L14.3926,15.3861 C14.0576,16.1081 13.4116,16.9601 12.3026,16.9601 C11.1916,16.9601 10.5716,16.1081 10.2366,15.3861 L6.6746,8.0801 L5.5896,17.2701 C5.4866,18.2251 4.5836,18.9481 3.5766,18.8701 C2.5956,18.7931 1.7176,17.8901 1.8476,16.9861 L3.6286,2.5041 C3.7306,1.6261 4.4286,0.8261 5.3066,0.8261 L5.6926,0.8261 C6.4156,0.8261 6.9576,0.9811 7.3966,1.9621 L12.3026,12.4171 L17.2066,1.9621 Z" id="Fill-4" fill="#4C5C68"></path>
            <path d="M29.4937,23.6723 C29.1577,24.4723 28.3317,24.9373 27.2227,24.6793 C26.3447,24.4723 25.8277,23.4403 26.1887,22.5103 L28.2027,17.5023 L24.4597,8.7773 C24.1247,7.8483 24.6397,6.8673 25.5177,6.6343 C26.6537,6.3503 27.4797,6.8673 27.7647,7.6673 L30.0357,13.5533 L32.3587,7.6673 C32.6427,6.8673 33.4697,6.3503 34.6047,6.6343 C35.4827,6.8673 35.9987,7.8483 35.6637,8.7773 L29.4937,23.6723 Z" id="Fill-6" fill="#4C5C68"></path>
            <path d="M44.2847,13.0366 C45.2917,12.6496 46.2457,13.1916 46.6077,13.9406 C46.9947,14.7406 47.8727,15.6186 49.4727,15.6186 C50.9957,15.6186 52.0547,14.8956 52.0807,13.7336 C52.1057,12.9336 51.7447,12.2366 49.9377,11.7196 L47.7957,11.1266 C43.8717,9.9126 43.1997,7.6676 43.1997,6.0666 C43.1997,2.8916 45.9107,0.7486 49.3177,0.7486 C51.8737,0.7486 53.7837,1.8586 54.7387,3.7176 C55.1787,4.5696 54.8167,5.3956 54.1717,5.8086 C53.2417,6.4026 52.4157,6.1436 51.7967,5.3696 C51.0477,4.4146 50.0667,4.1306 49.2657,4.1306 C47.9497,4.1306 46.9697,4.9046 46.9697,5.9636 C46.9697,6.4286 47.1497,7.2796 48.8797,7.7706 L50.9957,8.3906 C55.3067,9.6296 55.9277,12.0556 55.8757,13.7596 C55.8237,17.2956 52.6227,18.9736 49.4727,18.9736 C46.3237,18.9736 44.0527,17.4506 43.2777,15.1536 C42.9937,14.2496 43.4067,13.3726 44.2847,13.0366" id="Fill-8" fill="#4C5C68"></path>
            <path d="M64.2896,15.7729 C65.9166,15.7729 67.2326,14.3269 67.2326,12.7269 C67.2326,11.1259 65.9166,9.6809 64.2896,9.6809 C62.4826,9.6809 61.4496,11.1259 61.4496,12.7269 C61.4496,14.3269 62.4826,15.7729 64.2896,15.7729 Z M67.2066,8.1579 C67.2326,7.2799 68.0596,6.5569 69.0146,6.5569 C69.9946,6.5569 70.8206,7.2539 70.8206,8.1579 L70.8206,17.2699 C70.8206,18.1739 69.9946,18.8709 69.0146,18.8709 C68.0596,18.8709 67.2326,18.1479 67.2066,17.2699 L67.2066,17.0379 C66.4326,18.3029 64.9606,18.9739 63.5936,18.9739 C60.5206,18.9739 57.7326,16.7019 57.7326,12.7009 C57.7326,8.6999 60.5206,6.4539 63.5936,6.4539 C64.3666,6.4539 66.1746,6.7899 67.2066,8.3899 L67.2066,8.1579 Z" id="Fill-10" fill="#4C5C68"></path>
            <path d="M80.7593,17.3476 C80.3983,18.3026 79.7523,18.8706 78.7713,18.8706 L78.6163,18.8706 C77.6603,18.8706 76.9393,18.3026 76.5513,17.3476 L72.9113,8.7766 C72.6023,7.9516 73.0923,6.8666 73.9693,6.6346 C75.1063,6.3506 75.9053,6.8666 76.2153,7.6676 L78.6673,14.1726 L81.1203,7.6676 C81.4043,6.8666 82.2303,6.3506 83.3663,6.6346 C84.2433,6.8666 84.7353,7.9516 84.4243,8.7766 L80.7593,17.3476 Z" id="Fill-12" fill="#4C5C68"></path>
            <path d="M94.5689,11.6426 C94.3879,10.1716 93.3819,9.4486 92.0399,9.4486 C90.6969,9.4486 89.6649,10.1196 89.3549,11.6426 L94.5689,11.6426 Z M96.1699,17.8896 C94.9569,18.6896 93.4329,18.9736 92.0129,18.9736 C88.5539,18.9736 85.7149,16.4696 85.7149,12.6756 C85.7149,8.8806 88.5539,6.4536 92.0129,6.4536 C95.4469,6.4536 98.1829,8.9836 98.1829,12.7786 C98.1829,13.4236 97.6409,13.8886 97.0729,13.8886 L89.3029,13.8886 C89.4839,15.2826 91.0059,15.8766 92.2719,15.8766 C92.9949,15.8766 93.6139,15.8246 94.3629,15.3086 C95.1889,14.7406 96.1179,14.8956 96.6339,15.4886 C97.3049,16.2636 97.0479,17.3736 96.1699,17.8896 Z" id="Fill-14" fill="#4C5C68"></path>
            <path d="M106.3404,15.7729 C107.9664,15.7729 109.2824,14.3269 109.2824,12.7269 C109.2824,11.1259 107.9664,9.6809 106.3404,9.6809 C104.5324,9.6809 103.5004,11.1259 103.5004,12.7269 C103.5004,14.3269 104.5324,15.7729 106.3404,15.7729 Z M109.2574,1.6009 C109.2824,0.7229 110.1094,-0.0001 111.0644,-0.0001 C112.0454,-0.0001 112.8704,0.6969 112.8704,1.6009 L112.8704,17.2699 C112.8704,18.1739 112.0454,18.8709 111.0644,18.8709 C110.1094,18.8709 109.2824,18.1479 109.2574,17.2699 L109.2574,17.0379 C108.4834,18.3029 107.0114,18.9739 105.6434,18.9739 C102.5704,18.9739 99.7824,16.7019 99.7824,12.7009 C99.7824,8.6999 102.5704,6.4539 105.6434,6.4539 C106.4174,6.4539 108.2244,6.7899 109.2574,8.3899 L109.2574,1.6009 Z" id="Fill-16" fill="#4C5C68"></path>
            <path d="M122.9888,13.0366 C123.9958,12.6496 124.9508,13.1916 125.3118,13.9406 C125.6998,14.7406 126.5778,15.6186 128.1778,15.6186 C129.7008,15.6186 130.7598,14.8956 130.7848,13.7336 C130.8108,12.9336 130.4498,12.2366 128.6418,11.7196 L126.4998,11.1266 C122.5758,9.9126 121.9048,7.6676 121.9048,6.0666 C121.9048,2.8916 124.6158,0.7486 128.0228,0.7486 C130.5788,0.7486 132.4888,1.8586 133.4438,3.7176 C133.8828,4.5696 133.5208,5.3956 132.8758,5.8086 C131.9468,6.4026 131.1208,6.1436 130.5008,5.3696 C129.7528,4.4146 128.7718,4.1306 127.9708,4.1306 C126.6548,4.1306 125.6738,4.9046 125.6738,5.9636 C125.6738,6.4286 125.8538,7.2796 127.5848,7.7706 L129.7008,8.3906 C134.0118,9.6296 134.6318,12.0556 134.5798,13.7596 C134.5278,17.2956 131.3268,18.9736 128.1778,18.9736 C125.0288,18.9736 122.7568,17.4506 121.9818,15.1536 C121.6978,14.2496 122.1108,13.3726 122.9888,13.0366" id="Fill-19" fill="#4C5C68"></path>
            <path d="M145.2662,11.6426 C145.0852,10.1716 144.0792,9.4486 142.7372,9.4486 C141.3942,9.4486 140.3612,10.1196 140.0512,11.6426 L145.2662,11.6426 Z M146.8672,17.8896 C145.6542,18.6896 144.1302,18.9736 142.7102,18.9736 C139.2512,18.9736 136.4122,16.4696 136.4122,12.6756 C136.4122,8.8806 139.2512,6.4536 142.7102,6.4536 C146.1442,6.4536 148.8802,8.9836 148.8802,12.7786 C148.8802,13.4236 148.3382,13.8886 147.7702,13.8886 L139.9992,13.8886 C140.1802,15.2826 141.7032,15.8766 142.9692,15.8766 C143.6912,15.8766 144.3112,15.8246 145.0602,15.3086 C145.8862,14.7406 146.8152,14.8956 147.3312,15.4886 C148.0022,16.2636 147.7452,17.3736 146.8672,17.8896 Z" id="Fill-21" fill="#4C5C68"></path>
            <path d="M160.0572,8.4416 C159.9282,9.3456 159.0772,9.7576 158.2762,9.7576 C158.0182,9.7576 157.6302,9.7326 157.3982,9.7326 C155.3852,9.7326 154.7132,11.2816 154.6612,14.3016 L154.6612,17.2706 C154.6612,18.1736 153.8352,18.8706 152.8552,18.8706 C151.9002,18.8706 151.0742,18.1476 151.0482,17.2706 L151.0482,8.1576 C151.0742,7.2796 151.9002,6.5566 152.8552,6.5566 C153.8352,6.5566 154.6612,7.2546 154.6612,8.1576 L154.6612,9.4736 C155.3332,7.2286 156.5982,6.4536 157.8372,6.4536 C159.0252,6.4536 160.2892,6.7376 160.0572,8.4416" id="Fill-23" fill="#4C5C68"></path>
            <path d="M168.6011,17.3476 C168.2401,18.3026 167.5941,18.8706 166.6141,18.8706 L166.4581,18.8706 C165.5031,18.8706 164.7811,18.3026 164.3941,17.3476 L160.7531,8.7766 C160.4441,7.9516 160.9341,6.8666 161.8121,6.6346 C162.9481,6.3506 163.7481,6.8666 164.0581,7.6676 L166.5101,14.1726 L168.9621,7.6676 C169.2471,6.8666 170.0731,6.3506 171.2081,6.6346 C172.0861,6.8666 172.5771,7.9516 172.2671,8.7766 L168.6011,17.3476 Z" id="Fill-25" fill="#4C5C68"></path>
            <path d="M177.9713,17.2702 C177.9713,18.1742 177.1453,18.8702 176.1643,18.8702 C175.2093,18.8702 174.3833,18.1482 174.3573,17.2702 L174.3573,8.1572 C174.3833,7.2802 175.2093,6.5572 176.1643,6.5572 C177.1453,6.5572 177.9713,7.2542 177.9713,8.1572 L177.9713,17.2702 Z M176.1643,0.1292 C177.3773,0.1292 178.3583,1.0332 178.3583,2.2202 C178.3583,3.4072 177.3773,4.3372 176.1643,4.3372 C174.9503,4.3372 173.9183,3.4072 173.9183,2.2202 C173.9183,1.0332 174.9503,0.1292 176.1643,0.1292 Z" id="Fill-27" fill="#4C5C68"></path>
            <path d="M187.0318,15.489 C187.6778,15.489 188.2968,15.308 188.8128,15.024 C189.4588,14.663 190.5168,14.508 191.1628,15.153 C191.8858,15.876 191.7818,17.193 190.9298,17.787 C189.8448,18.561 188.4768,18.974 187.0318,18.974 C183.5728,18.974 180.4238,16.547 180.4238,12.753 L180.4238,12.675 C180.4238,8.88 183.5728,6.454 187.0318,6.454 C188.4768,6.454 189.8448,6.867 190.9298,7.641 C191.7818,8.235 191.8858,9.552 191.1628,10.274 C190.5168,10.92 189.4588,10.765 188.8128,10.404 C188.2968,10.12 187.6778,9.939 187.0318,9.939 C185.4828,9.939 184.0898,10.997 184.0898,12.675 L184.0898,12.753 C184.0898,14.431 185.4828,15.489 187.0318,15.489" id="Fill-29" fill="#4C5C68"></path>
            <path d="M202.2369,11.6426 C202.0559,10.1716 201.0489,9.4486 199.7069,9.4486 C198.3639,9.4486 197.3319,10.1196 197.0219,11.6426 L202.2369,11.6426 Z M203.8369,17.8896 C202.6239,18.6896 201.0999,18.9736 199.6799,18.9736 C196.2209,18.9736 193.3829,16.4696 193.3829,12.6756 C193.3829,8.8806 196.2209,6.4536 199.6799,6.4536 C203.1139,6.4536 205.8499,8.9836 205.8499,12.7786 C205.8499,13.4236 205.3079,13.8886 204.7399,13.8886 L196.9699,13.8886 C197.1509,15.2826 198.6739,15.8766 199.9389,15.8766 C200.6619,15.8766 201.2809,15.8246 202.0299,15.3086 C202.8559,14.7406 203.7849,14.8956 204.3009,15.4886 C204.9719,16.2636 204.7149,17.3736 203.8369,17.8896 Z" id="Fill-31" fill="#4C5C68"></path>
            <path d="M208.1207,14.6113 C208.9217,14.2503 209.6707,14.5853 210.0577,15.0503 C210.7027,15.7473 211.4767,16.1083 212.3287,16.1083 C213.1297,16.1083 213.8777,15.9793 213.8777,15.3603 C213.8777,14.8433 213.5677,14.6633 212.6897,14.3793 L211.3217,13.8883 C207.7077,12.6753 207.7337,10.9713 207.7337,9.8613 C207.7337,8.0803 209.8767,6.4283 212.4057,6.4283 C214.1367,6.4283 215.9167,6.9703 216.7427,8.4153 C217.1827,9.1903 216.9747,9.9393 216.4337,10.2483 C215.6337,10.7133 214.8847,10.5323 214.1367,9.9643 C213.6197,9.5773 213.1547,9.4223 212.6897,9.4223 C211.9157,9.4223 211.3737,9.6803 211.3737,10.1453 C211.3737,10.5323 211.6837,10.7653 212.4057,10.9973 L214.2387,11.6163 C217.1557,12.5723 217.5177,14.4563 217.5177,15.2313 C217.5177,17.7863 214.8327,18.9993 212.3037,18.9993 C210.3667,18.9993 208.0957,18.1993 207.4747,16.4183 C207.2177,15.6693 207.5267,14.8693 208.1207,14.6113" id="Fill-33" fill="#4C5C68"></path>
            <path d="M29.3755,79.6404 L34.5125,79.6404 C35.3645,79.6404 36.0615,80.3894 36.0615,81.2924 C36.0615,82.1444 35.3385,82.9194 34.5125,82.9444 L27.1045,82.9444 C26.1485,82.9444 25.6055,82.2224 25.6055,81.3444 L25.6055,66.7844 C25.6325,65.8554 26.5105,65.0294 27.4905,65.0294 C28.5235,65.0294 29.3755,65.8294 29.3755,66.7844 L29.3755,79.6404 Z" id="Fill-35" fill="#4C5C68"></path>
            <path d="M46.0767,76.8782 C46.0767,75.2522 44.8387,74.1422 43.3407,74.1422 C41.8697,74.1422 40.6307,75.2522 40.6307,76.8782 C40.6307,78.5302 41.8697,79.6922 43.3407,79.6922 C44.8387,79.6922 46.0767,78.5302 46.0767,76.8782 M37.0157,76.8782 C37.0157,73.0832 39.8297,70.6572 43.3407,70.6572 C46.8507,70.6572 49.6907,73.0832 49.6907,76.8782 C49.6907,80.6732 46.8507,83.1772 43.3407,83.1772 C39.8297,83.1772 37.0157,80.6732 37.0157,76.8782" id="Fill-37" fill="#4C5C68"></path>
            <path d="M58.1578,79.6919 C58.8028,79.6919 59.4228,79.5109 59.9388,79.2269 C60.5838,78.8659 61.6418,78.7109 62.2878,79.3569 C63.0108,80.0789 62.9068,81.3959 62.0548,81.9899 C60.9708,82.7639 59.6028,83.1769 58.1578,83.1769 C54.6978,83.1769 51.5498,80.7509 51.5498,76.9559 L51.5498,76.8779 C51.5498,73.0839 54.6978,70.6569 58.1578,70.6569 C59.6028,70.6569 60.9708,71.0699 62.0548,71.8439 C62.9068,72.4379 63.0108,73.7549 62.2878,74.4779 C61.6418,75.1229 60.5838,74.9679 59.9388,74.6069 C59.4228,74.3229 58.8028,74.1419 58.1578,74.1419 C56.6088,74.1419 55.2148,75.1999 55.2148,76.8779 L55.2148,76.9559 C55.2148,78.6339 56.6088,79.6919 58.1578,79.6919" id="Fill-39" fill="#4C5C68"></path>
            <path d="M71.0894,79.9758 C72.7164,79.9758 74.0324,78.5298 74.0324,76.9298 C74.0324,75.3298 72.7164,73.8838 71.0894,73.8838 C69.2824,73.8838 68.2494,75.3298 68.2494,76.9298 C68.2494,78.5298 69.2824,79.9758 71.0894,79.9758 Z M74.0064,72.3608 C74.0324,71.4828 74.8594,70.7598 75.8144,70.7598 C76.7944,70.7598 77.6204,71.4568 77.6204,72.3608 L77.6204,81.4728 C77.6204,82.3768 76.7944,83.0738 75.8144,83.0738 C74.8594,83.0738 74.0324,82.3508 74.0064,81.4728 L74.0064,81.2408 C73.2324,82.5058 71.7604,83.1768 70.3934,83.1768 C67.3204,83.1768 64.5324,80.9048 64.5324,76.9038 C64.5324,72.9028 67.3204,70.6568 70.3934,70.6568 C71.1674,70.6568 72.9744,70.9928 74.0064,72.5928 L74.0064,72.3608 Z" id="Fill-41" fill="#4C5C68"></path>
            <path d="M84.3316,81.4731 C84.3316,82.3771 83.5066,83.0741 82.5246,83.0741 C81.5696,83.0741 80.7436,82.3511 80.7186,81.4731 L80.7186,65.8041 C80.7436,64.9261 81.5696,64.2031 82.5246,64.2031 C83.5066,64.2031 84.3316,64.9001 84.3316,65.8041 L84.3316,81.4731 Z" id="Fill-43" fill="#4C5C68"></path>
            <path d="M94.4507,77.2397 C95.4577,76.8527 96.4117,77.3947 96.7737,78.1427 C97.1607,78.9437 98.0387,79.8207 99.6387,79.8207 C101.1617,79.8207 102.2207,79.0987 102.2467,77.9367 C102.2717,77.1367 101.9107,76.4397 100.1037,75.9227 L97.9617,75.3297 C94.0377,74.1157 93.3657,71.8697 93.3657,70.2697 C93.3657,67.0947 96.0767,64.9517 99.4837,64.9517 C102.0397,64.9517 103.9497,66.0617 104.9047,67.9207 C105.3447,68.7727 104.9827,69.5987 104.3377,70.0117 C103.4077,70.6047 102.5827,70.3467 101.9627,69.5727 C101.2137,68.6177 100.2327,68.3337 99.4317,68.3337 C98.1157,68.3337 97.1357,69.1077 97.1357,70.1667 C97.1357,70.6307 97.3157,71.4827 99.0457,71.9737 L101.1617,72.5927 C105.4727,73.8317 106.0927,76.2587 106.0417,77.9627 C105.9897,81.4987 102.7887,83.1767 99.6387,83.1767 C96.4897,83.1767 94.2187,81.6537 93.4437,79.3567 C93.1597,78.4527 93.5727,77.5747 94.4507,77.2397" id="Fill-45" fill="#4C5C68"></path>
            <path d="M116.1861,81.1892 C115.5401,82.4022 114.1211,83.1772 112.7011,83.1772 C109.9911,83.1772 108.2611,81.8342 108.2611,78.4012 L108.2611,72.3602 C108.2611,71.4572 109.0861,70.7602 110.0681,70.7602 C111.0231,70.7602 111.8491,71.4832 111.8741,72.3602 L111.8741,77.3172 C111.8741,78.9172 112.4681,79.6922 113.9651,79.6922 C115.2311,79.6922 116.1861,79.0982 116.1861,77.2652 L116.1861,72.3602 C116.1861,71.4572 117.0121,70.7602 117.9931,70.7602 C118.9481,70.7602 119.7741,71.4832 119.8001,72.3602 L119.8001,81.4732 C119.7741,82.3512 118.9481,83.0742 117.9931,83.0742 C117.0121,83.0742 116.1861,82.3762 116.1861,81.4732 L116.1861,81.1892 Z" id="Fill-47" fill="#4C5C68"></path>
            <path d="M129.4283,73.8835 C127.8023,73.8835 126.4853,75.3295 126.4853,76.9295 C126.4853,78.5305 127.8023,79.9755 129.4283,79.9755 C131.2353,79.9755 132.2683,78.5305 132.2683,76.9295 C132.2683,75.3295 131.2353,73.8835 129.4283,73.8835 M130.1243,70.6565 C133.1973,70.6565 135.9853,72.9025 135.9853,76.9045 C135.9853,80.9055 133.1973,83.1765 130.1243,83.1765 C128.7573,83.1765 127.2853,82.5055 126.5113,81.2405 L126.5113,87.2295 C126.4853,88.1075 125.6593,88.8305 124.7043,88.8305 C123.7233,88.8305 122.8973,88.1335 122.8973,87.2295 L122.8973,72.3605 C122.8973,71.4575 123.7233,70.7605 124.7043,70.7605 C125.6593,70.7605 126.4853,71.4825 126.5113,72.3605 L126.5113,72.5925 C127.5433,70.9925 129.3513,70.6565 130.1243,70.6565" id="Fill-49" fill="#4C5C68"></path>
            <path d="M145.0455,73.8835 C143.4195,73.8835 142.1025,75.3295 142.1025,76.9295 C142.1025,78.5305 143.4195,79.9755 145.0455,79.9755 C146.8525,79.9755 147.8845,78.5305 147.8845,76.9295 C147.8845,75.3295 146.8525,73.8835 145.0455,73.8835 M145.7415,70.6565 C148.8145,70.6565 151.6025,72.9025 151.6025,76.9045 C151.6025,80.9055 148.8145,83.1765 145.7415,83.1765 C144.3735,83.1765 142.9025,82.5055 142.1285,81.2405 L142.1285,87.2295 C142.1025,88.1075 141.2755,88.8305 140.3205,88.8305 C139.3405,88.8305 138.5145,88.1335 138.5145,87.2295 L138.5145,72.3605 C138.5145,71.4575 139.3405,70.7605 140.3205,70.7605 C141.2755,70.7605 142.1025,71.4825 142.1285,72.3605 L142.1285,72.5925 C143.1605,70.9925 144.9675,70.6565 145.7415,70.6565" id="Fill-51" fill="#4C5C68"></path>
            <path d="M162.5464,76.8782 C162.5464,75.2522 161.3084,74.1422 159.8104,74.1422 C158.3394,74.1422 157.1004,75.2522 157.1004,76.8782 C157.1004,78.5302 158.3394,79.6922 159.8104,79.6922 C161.3084,79.6922 162.5464,78.5302 162.5464,76.8782 M153.4854,76.8782 C153.4854,73.0832 156.2994,70.6572 159.8104,70.6572 C163.3204,70.6572 166.1604,73.0832 166.1604,76.8782 C166.1604,80.6732 163.3204,83.1772 159.8104,83.1772 C156.2994,83.1772 153.4854,80.6732 153.4854,76.8782" id="Fill-53" fill="#4C5C68"></path>
            <path d="M177.6216,72.6445 C177.4926,73.5485 176.6406,73.9615 175.8406,73.9615 C175.5826,73.9615 175.1946,73.9355 174.9626,73.9355 C172.9486,73.9355 172.2776,75.4845 172.2256,78.5045 L172.2256,81.4735 C172.2256,82.3765 171.3996,83.0735 170.4196,83.0735 C169.4646,83.0735 168.6386,82.3505 168.6126,81.4735 L168.6126,72.3605 C168.6386,71.4825 169.4646,70.7605 170.4196,70.7605 C171.3996,70.7605 172.2256,71.4575 172.2256,72.3605 L172.2256,73.6775 C172.8976,71.4315 174.1626,70.6565 175.4016,70.6565 C176.5896,70.6565 177.8536,70.9405 177.6216,72.6445" id="Fill-55" fill="#4C5C68"></path>
            <path d="M180.3316,70.8891 L180.3316,67.7401 C180.3566,66.8621 181.1836,66.1391 182.1386,66.1391 C183.1196,66.1391 183.9456,66.8361 183.9456,67.7401 L183.9456,70.8891 L185.3136,70.8891 C186.0366,70.8891 186.6036,71.5351 186.6036,72.3091 C186.6036,73.0571 186.0366,73.7031 185.3136,73.7291 L183.9456,73.7291 L183.9456,81.4731 C183.9456,82.3771 183.1196,83.0741 182.1386,83.0741 C181.1836,83.0741 180.3566,82.3511 180.3316,81.4731 L180.3316,73.7291 L179.3506,73.7291 C178.6276,73.7031 178.0606,73.0571 178.0606,72.3091 C178.0606,71.5351 178.6276,70.8891 179.3506,70.8891 L180.3316,70.8891 Z" id="Fill-57" fill="#4C5C68"></path>
            <path d="M202.8922,83.177 C197.7812,83.177 193.7802,79.098 193.7802,74.09 C193.7802,69.031 197.7812,64.952 202.8922,64.952 C205.0862,64.952 206.9452,65.623 208.4432,66.811 C209.1142,67.327 209.0102,68.798 208.2882,69.444 C207.6172,70.011 206.6612,70.037 206.0162,69.573 C205.1902,68.953 204.0792,68.617 202.8922,68.617 C199.8982,68.617 197.5492,71.07 197.5492,74.09 C197.5492,77.085 199.8982,79.511 202.8922,79.511 C204.9322,79.511 206.5062,78.608 207.2812,76.672 L203.7702,76.672 C202.9692,76.672 202.2462,75.949 202.2462,75.149 C202.2462,74.271 202.9442,73.6 203.7702,73.6 L210.4042,73.6 C211.2822,73.6 211.6182,74.064 211.5142,75.02 C210.8952,80.673 207.6172,83.177 202.8922,83.177" id="Fill-59" fill="#4C5C68"></path>
            <path d="M222.5884,72.6445 C222.4594,73.5485 221.6074,73.9615 220.8074,73.9615 C220.5484,73.9615 220.1614,73.9355 219.9294,73.9355 C217.9154,73.9355 217.2444,75.4845 217.1924,78.5045 L217.1924,81.4735 C217.1924,82.3765 216.3664,83.0735 215.3864,83.0735 C214.4304,83.0735 213.6044,82.3505 213.5784,81.4735 L213.5784,72.3605 C213.6044,71.4825 214.4304,70.7605 215.3864,70.7605 C216.3664,70.7605 217.1924,71.4575 217.1924,72.3605 L217.1924,73.6775 C217.8634,71.4315 219.1294,70.6565 220.3674,70.6565 C221.5554,70.6565 222.8204,70.9405 222.5884,72.6445" id="Fill-61" fill="#4C5C68"></path>
            <path d="M232.4488,76.8782 C232.4488,75.2522 231.2098,74.1422 229.7128,74.1422 C228.2408,74.1422 227.0018,75.2522 227.0018,76.8782 C227.0018,78.5302 228.2408,79.6922 229.7128,79.6922 C231.2098,79.6922 232.4488,78.5302 232.4488,76.8782 M223.3878,76.8782 C223.3878,73.0832 226.2018,70.6572 229.7128,70.6572 C233.2228,70.6572 236.0628,73.0832 236.0628,76.8782 C236.0628,80.6732 233.2228,83.1772 229.7128,83.1772 C226.2018,83.1772 223.3878,80.6732 223.3878,76.8782" id="Fill-63" fill="#4C5C68"></path>
            <path d="M246.3619,81.1892 C245.7159,82.4022 244.2969,83.1772 242.8769,83.1772 C240.1669,83.1772 238.4369,81.8342 238.4369,78.4012 L238.4369,72.3602 C238.4369,71.4572 239.2629,70.7602 240.2439,70.7602 C241.1989,70.7602 242.0249,71.4832 242.0499,72.3602 L242.0499,77.3172 C242.0499,78.9172 242.6449,79.6922 244.1419,79.6922 C245.4069,79.6922 246.3619,79.0982 246.3619,77.2652 L246.3619,72.3602 C246.3619,71.4572 247.1879,70.7602 248.1689,70.7602 C249.1239,70.7602 249.9499,71.4832 249.9759,72.3602 L249.9759,81.4732 C249.9499,82.3512 249.1239,83.0742 248.1689,83.0742 C247.1879,83.0742 246.3619,82.3762 246.3619,81.4732 L246.3619,81.1892 Z" id="Fill-65" fill="#4C5C68"></path>
            <path d="M259.6041,73.8835 C257.9781,73.8835 256.6621,75.3295 256.6621,76.9295 C256.6621,78.5305 257.9781,79.9755 259.6041,79.9755 C261.4121,79.9755 262.4441,78.5305 262.4441,76.9295 C262.4441,75.3295 261.4121,73.8835 259.6041,73.8835 M260.3011,70.6565 C263.3741,70.6565 266.1611,72.9025 266.1611,76.9045 C266.1611,80.9055 263.3741,83.1765 260.3011,83.1765 C258.9331,83.1765 257.4611,82.5055 256.6871,81.2405 L256.6871,87.2295 C256.6621,88.1075 255.8351,88.8305 254.8801,88.8305 C253.8991,88.8305 253.0731,88.1335 253.0731,87.2295 L253.0731,72.3605 C253.0731,71.4575 253.8991,70.7605 254.8801,70.7605 C255.8351,70.7605 256.6621,71.4825 256.6871,72.3605 L256.6871,72.5925 C257.7201,70.9925 259.5271,70.6565 260.3011,70.6565" id="Fill-67" fill="#4C5C68"></path>
            <mask id="mask-2" fill="white">
                <use xlink:href="#path-1"></use>
            </mask>
            <g id="Clip-70"></g>
            <polygon id="Fill-69" fill="#C5C3C6" mask="url(#mask-2)" points="23.555 112.263 288.31 112.263 288.31 105.644 23.555 105.644"></polygon>
            <polygon id="Fill-71" fill="#C5C3C6" mask="url(#mask-2)" points="23.555 152.638 241.464 152.638 241.464 146.019 23.555 146.019"></polygon>
            <polygon id="Fill-72" fill="#C5C3C6" mask="url(#mask-2)" points="23.555 132.45 288.31 132.45 288.31 125.831 23.555 125.831"></polygon>
            <polygon id="Fill-73" fill="#C5C3C6" mask="url(#mask-2)" points="2.374 185.07 312.468 185.07 312.468 182.423 2.374 182.423"></polygon>
            <path d="M28.3658,221.0285 C28.4178,222.1645 29.3208,223.1715 31.0248,223.1715 C32.5488,223.1715 33.6058,222.4485 33.6328,221.2865 C33.6578,220.4865 33.2968,219.7895 31.4898,219.2735 L29.3458,218.6795 C25.4238,217.4655 24.7528,215.1685 24.7528,213.5685 C24.7528,210.3925 27.4628,208.2505 30.8708,208.2505 C34.3028,208.2505 36.8848,210.2895 36.8848,213.6975 L33.1158,213.6975 C33.1158,212.5095 32.3158,211.6835 30.8188,211.6835 C29.5018,211.6835 28.5208,212.4065 28.5208,213.4645 C28.5208,213.9295 28.7018,214.7815 30.4308,215.2715 L32.5488,215.9425 C36.8588,217.1825 37.4788,219.6085 37.4278,221.3125 C37.3758,224.8495 34.1748,226.5275 31.0248,226.5275 C27.1528,226.5275 24.5708,224.2295 24.5708,221.0285 L28.3658,221.0285 Z" id="Fill-74" fill="#4C5C68" mask="url(#mask-2)"></path>
            <path d="M43.6988,226.2429 L40.1108,226.2429 L40.1108,207.6309 L43.6988,207.6309 L43.6988,216.0719 C44.1888,214.5749 45.9448,213.9299 47.0808,213.9299 C50.2558,213.9299 51.9078,216.0459 51.9078,219.6859 L51.9078,226.2429 L48.3198,226.2429 L48.3198,219.8149 C48.3198,218.2409 47.1838,217.4149 46.0988,217.4149 C44.9638,217.4149 43.6988,218.0339 43.6988,219.8669 L43.6988,226.2429 Z" id="Fill-75" fill="#4C5C68" mask="url(#mask-2)"></path>
            <path d="M61.0718,223.0679 C62.5438,223.0679 63.9888,222.0099 63.9888,220.2029 C63.9888,218.3959 62.5438,217.3369 61.0718,217.3369 C59.5748,217.3369 58.0508,218.4729 58.0508,220.2029 C58.0508,221.9319 59.5748,223.0679 61.0718,223.0679 Z M63.9888,224.8749 C63.2148,226.0369 61.4068,226.4749 60.4778,226.4749 C57.4058,226.4749 54.3338,224.0749 54.3338,220.2029 C54.3338,216.3299 57.4058,213.9299 60.4778,213.9299 C61.2528,213.9299 63.0588,214.1879 63.9888,215.5299 L63.9888,214.1879 L67.5508,214.1879 L67.5508,226.2429 L63.9888,226.2429 L63.9888,224.8749 Z" id="Fill-76" fill="#4C5C68" mask="url(#mask-2)"></path>
            <path d="M74.4429,226.2429 L70.8539,226.2429 L70.8539,214.1879 L74.4429,214.1879 L74.4429,217.1049 C75.0619,214.8589 76.6109,213.9299 77.8499,213.9299 C78.7019,213.9299 79.3469,214.0839 79.9149,214.3679 L79.2699,217.5949 C78.6249,217.2849 78.0059,217.2339 77.4369,217.2339 C75.3719,217.2339 74.4429,218.8599 74.4429,222.0349 L74.4429,226.2429 Z" id="Fill-77" fill="#4C5C68" mask="url(#mask-2)"></path>
            <path d="M89.6988,219.144 C89.5168,217.673 88.1758,217.079 87.1688,217.079 C86.1628,217.079 84.7938,217.621 84.4838,219.144 L89.6988,219.144 Z M92.6408,224.049 C91.4278,225.856 89.1818,226.501 87.1428,226.501 C83.6838,226.501 80.8448,223.971 80.8448,220.176 C80.8448,216.382 83.6838,213.929 87.1428,213.929 C90.5768,213.929 93.3118,216.485 93.3118,220.28 C93.3118,220.59 93.2868,221.08 93.2608,221.39 L84.4318,221.39 C84.6128,222.784 86.1358,223.403 87.4008,223.403 C88.3828,223.403 89.4408,223.042 90.0338,222.268 L92.6408,224.049 Z" id="Fill-78" fill="#4C5C68" mask="url(#mask-2)"></path>
        </g>
    </g>
</svg>