<?xml version="1.0" encoding="UTF-8"?>
<svg width="231px" height="230px" viewBox="0 0 231 230" version="1.1" xmlns="http://www.w3.org/2000/svg" xmlns:xlink="http://www.w3.org/1999/xlink">
    <!-- Generator: Sketch 48.2 (47327) - http://www.bohemiancoding.com/sketch -->
    <title>Page 1</title>
    <desc>Created with Sketch.</desc>
    <defs></defs>
    <g id="Helpers-LP" stroke="none" stroke-width="1" fill="none" fill-rule="evenodd" transform="translate(-1008.000000, -1685.000000)">
        <g id="Page-1" transform="translate(1008.000000, 1685.000000)">
            <path d="M224.94461,229.9 L5.83451,229.9 C2.65661,229.9 0.07051,227.315 0.07051,224.1371 L0.07051,120.6194 L2.60821,120.6194 L2.60821,224.1371 C2.60821,225.9158 4.05471,227.3634 5.83451,227.3634 L224.94461,227.3634 C226.72331,227.3634 228.17091,225.9158 228.17091,224.1371 L228.17091,120.6194 L230.70751,120.6194 L230.70751,224.1371 C230.70751,227.315 228.12251,229.9 224.94461,229.9" id="Fill-1" fill="#C5C3C6"></path>
            <path d="M2.22574,228.54546 C1.38534,227.70616 0.92334,226.58636 0.92334,225.39176 C0.92334,224.19826 1.38534,223.07846 2.22574,222.23916 L2.31924,222.14456 L2.43144,222.07306 L80.34114,171.31466 L81.72494,173.44096 L3.94064,224.11686 C3.27074,224.87146 3.29824,226.02976 4.01984,226.75136 L2.22574,228.54546 Z" id="Fill-4" fill="#C5C3C6"></path>
            <path d="M228.74841,228.54546 L226.95431,226.75136 C227.31401,226.39056 227.51311,225.90766 227.51311,225.39176 C227.51311,224.91546 227.34371,224.46666 227.03351,224.11686 L149.54071,173.63126 L150.92671,171.50606 L228.65491,222.14456 L228.74841,222.23916 C229.58881,223.07846 230.05081,224.19826 230.05081,225.39176 C230.05081,226.58636 229.58881,227.70616 228.74841,228.54546" id="Fill-6" fill="#C5C3C6"></path>
            <path d="M80.23235,174.42139 L78.43825,172.62729 C79.52945,171.53609 80.97595,170.93549 82.50935,170.93549 L148.36415,170.93549 C149.60935,170.93549 150.79625,171.33039 151.79835,172.07619 L150.28255,174.11119 C149.72265,173.69319 149.05825,173.47209 148.36415,173.47209 L82.50935,173.47209 C81.65355,173.47209 80.84505,173.80979 80.23235,174.42139" id="Fill-8" fill="#C5C3C6"></path>
            <path d="M229.37255,116.58845 L229.27905,116.49495 L219.51215,110.17545 L218.13385,112.30505 L227.65765,118.46835 L227.67745,118.48925 C227.74455,118.56625 227.80395,118.64765 227.85785,118.73345 L227.88315,118.77525 C227.93375,118.86215 227.97885,118.95235 228.01625,119.04585 C228.02065,119.05905 228.02505,119.07335 228.03055,119.08765 C228.06575,119.18445 228.09435,119.28345 228.11305,119.38465 C228.11525,119.39565 228.11635,119.40555 228.11745,119.41545 C228.13615,119.52325 228.14825,119.63325 228.14825,119.74435 C228.14825,119.85655 228.13615,119.96655 228.11745,120.07435 C228.11635,120.08425 228.11525,120.09415 228.11305,120.10405 C228.09435,120.20635 228.06575,120.30535 228.03055,120.40215 C228.02505,120.41535 228.02065,120.42965 228.01625,120.44395 C227.97885,120.53745 227.93375,120.62765 227.88315,120.71455 C227.87545,120.72775 227.86665,120.74205 227.85785,120.75635 C227.80395,120.84105 227.74455,120.92355 227.67745,120.99945 C227.67085,121.00715 227.66425,121.01375 227.65765,121.02145 L149.57195,171.54665 L150.95025,173.67625 L229.16795,123.06635 L229.27905,122.99375 L229.37255,122.90135 C229.90055,122.37555 230.28115,121.74195 230.49345,121.04675 C230.61885,120.63095 230.68375,120.19315 230.68375,119.74435 C230.68375,118.54975 230.21955,117.42775 229.37255,116.58845" id="Fill-10" fill="#C5C3C6"></path>
            <path d="M3.0272,121.02145 C3.0206,121.01375 3.0129,121.00715 3.0063,120.99945 C2.9403,120.92245 2.8798,120.84105 2.8259,120.75635 C2.8182,120.74205 2.8105,120.72885 2.8017,120.71455 C2.75,120.62765 2.706,120.53745 2.6697,120.44395 C2.6642,120.42965 2.6598,120.41535 2.6543,120.40215 C2.6191,120.30535 2.5905,120.20635 2.5707,120.10405 C2.5696,120.09415 2.5685,120.08425 2.5663,120.07435 C2.5476,119.96655 2.5377,119.85655 2.5377,119.74435 C2.5377,119.63325 2.5476,119.52325 2.5663,119.41545 C2.5685,119.40555 2.5696,119.39565 2.5707,119.38575 C2.5905,119.28345 2.6191,119.18445 2.6543,119.08765 C2.6598,119.07335 2.6642,119.05905 2.6697,119.04585 C2.706,118.95235 2.75,118.86215 2.8017,118.77525 C2.8105,118.76095 2.8182,118.74665 2.8259,118.73345 C2.8798,118.64765 2.9403,118.56625 3.0063,118.48925 C3.0129,118.48265 3.0206,118.47495 3.0272,118.46835 L12.7402,112.18295 L11.3619,110.05335 L1.4058,116.49495 L1.3112,116.58845 C0.4664,117.42775 0,118.54975 0,119.74435 C0,120.19315 0.066,120.63095 0.1925,121.04675 C0.4026,121.74195 0.7832,122.37555 1.3112,122.90135 L1.4058,122.99375 L79.3727,173.44305 L80.751,171.31235 L3.0272,121.02145 Z" id="Fill-12" fill="#C5C3C6"></path>
            <polyline id="Fill-14" fill="#FEFEFE" points="218.82267 127.48802 218.82267 1.26852 12.05017 1.26852 12.05017 127.48802"></polyline>
            <path d="M125.2185,64.81277 C123.4948,63.08907 122.4289,61.29167 121.7799,59.14997 C119.7009,61.10577 116.9597,62.29487 113.9545,62.29487 C107.4601,62.29487 102.1966,56.74867 102.1966,49.90667 C102.1966,43.06467 107.4601,37.51847 113.9545,37.51847 C120.4467,37.51847 125.7113,43.06467 125.7113,49.90667 C125.7113,50.06727 125.7069,50.22787 125.7014,50.38737 C125.7344,56.59247 126.3746,59.02567 128.5372,61.25097 C131.1662,57.47907 132.2464,54.62457 132.5522,51.69197 C132.5588,51.63477 132.5632,51.57757 132.5687,51.52147 C132.627,50.89777 132.6644,50.28837 132.6611,49.70317 C132.6611,39.37197 124.2846,30.99767 113.9545,30.99767 C103.6233,30.99767 95.2479,39.37197 95.2479,49.70317 C95.2446,50.28837 95.2809,50.89777 95.3392,51.52147 C95.3458,51.57757 95.3502,51.63477 95.3568,51.69197 C95.9871,57.74417 99.9141,63.46527 113.9545,77.59037 C119.0365,72.47757 122.7919,68.46697 125.5474,65.14167 L125.2185,64.81277 Z" id="Fill-16" fill="#4C5C68"></path>
            <path d="M120.54878,49.86256 C120.54878,53.72026 117.81198,56.45816 113.95428,56.45816 C110.09658,56.45816 107.35868,53.72026 107.35868,49.86256 C107.35868,46.00486 110.09658,43.26696 113.95428,43.26696 C117.81198,43.26696 120.54878,46.00486 120.54878,49.86256" id="Fill-18" fill="#4C5C68"></path>
            <path d="M104.80503,119.83928 C104.80503,121.13178 103.77103,122.21638 102.42683,122.21638 C101.13433,122.21638 100.10143,121.13178 100.10143,119.83928 L100.10143,86.81178 C100.10143,85.51928 101.13433,84.43358 102.42683,84.43358 C103.77103,84.43358 104.80503,85.51928 104.80503,86.81178 L104.80503,119.83928 Z" id="Fill-20" fill="#4C5C68"></path>
            <path d="M116.74399,99.93995 C116.74399,98.64745 115.70999,97.56285 114.36689,97.56285 C113.07329,97.56285 112.04039,98.64745 112.04039,99.93995 L112.04039,119.83895 C112.04039,121.13145 113.07329,122.21715 114.36689,122.21715 C115.70999,122.21715 116.74399,121.13145 116.74399,119.83895 L116.74399,99.93995 Z M114.36689,85.93255 C116.17419,85.93255 117.62289,87.22505 117.62289,88.98285 C117.62289,90.73955 116.17419,92.03205 114.36689,92.03205 C112.60909,92.03205 111.10979,90.73955 111.10979,88.98285 C111.10979,87.22505 112.60909,85.93255 114.36689,85.93255 Z" id="Fill-22" fill="#4C5C68"></path>
            <path d="M131.73149,118.3402 C134.16029,118.3402 135.96979,117.0477 135.96979,115.1359 C135.96979,113.3781 134.57389,112.4992 132.76439,112.0867 L129.45779,111.3112 C125.37459,110.2255 122.94469,108.2092 122.94469,104.3845 C122.94469,100.4058 126.51089,97.3038 131.36959,97.3038 C134.52219,97.3038 137.57249,98.4412 138.96729,101.2319 C139.17409,101.5938 139.22579,102.0074 139.22579,102.3176 C139.22579,103.8686 137.72649,104.4362 137.00379,104.4362 C136.33169,104.4362 135.81469,104.0743 135.29769,103.4033 C134.21199,101.9557 132.97119,101.387 131.47299,101.387 C129.19819,101.387 127.69999,102.7312 127.69999,104.5396 C127.69999,106.0906 129.19819,106.9695 130.74809,107.3314 L134.31539,108.2092 C139.32919,109.45 140.56999,112.4992 140.56999,115.2393 C140.56999,119.7361 136.22829,122.4751 131.21449,122.4751 C127.49209,122.4751 123.66849,120.4082 122.53109,116.6869 C122.47939,116.4273 122.42769,116.1699 122.42769,115.9631 C122.42769,114.7223 123.61679,114.1019 124.70139,114.1019 C125.52859,114.1019 126.35579,114.5155 126.71659,115.4461 C127.38979,117.2039 129.30159,118.3402 131.73149,118.3402" id="Fill-24" fill="#4C5C68"></path>
            <path d="M153.85172,118.3402 C156.28052,118.3402 158.09002,117.0477 158.09002,115.1359 C158.09002,113.3781 156.69412,112.4992 154.88462,112.0867 L151.57802,111.3112 C147.49482,110.2255 145.06492,108.2092 145.06492,104.3845 C145.06492,100.4058 148.63112,97.3038 153.48982,97.3038 C156.64242,97.3038 159.69272,98.4412 161.08752,101.2319 C161.29432,101.5938 161.34602,102.0074 161.34602,102.3176 C161.34602,103.8686 159.84672,104.4362 159.12402,104.4362 C158.45192,104.4362 157.93492,104.0743 157.41792,103.4033 C156.33222,101.9557 155.09142,101.387 153.59322,101.387 C151.31842,101.387 149.82022,102.7312 149.82022,104.5396 C149.82022,106.0906 151.31842,106.9695 152.86832,107.3314 L156.43562,108.2092 C161.44942,109.45 162.69022,112.4992 162.69022,115.2393 C162.69022,119.7361 158.34852,122.4751 153.33472,122.4751 C149.61232,122.4751 145.78872,120.4082 144.65132,116.6869 C144.59962,116.4273 144.54792,116.1699 144.54792,115.9631 C144.54792,114.7223 145.73702,114.1019 146.82162,114.1019 C147.64882,114.1019 148.47602,114.5155 148.83682,115.4461 C149.51002,117.2039 151.42182,118.3402 153.85172,118.3402" id="Fill-26" fill="#4C5C68"></path>
            <path d="M80.18395,117.96367 C75.75315,117.96367 72.16165,114.37217 72.16165,109.94137 C72.16165,105.51057 75.75315,101.91907 80.18395,101.91907 C84.61475,101.91907 88.20625,105.51057 88.20625,109.94137 C88.20625,114.37217 84.61475,117.96367 80.18395,117.96367 M92.84055,109.92377 C92.84055,102.93437 87.17335,97.26717 80.18395,97.26717 C73.19455,97.26717 67.52735,102.93437 67.52735,109.92377 C67.52735,116.91427 73.19455,122.58037 80.18395,122.58037 C83.19685,122.58037 85.96335,121.52547 88.13585,119.76657 L88.13585,119.87327 C88.13585,121.16577 89.17095,122.25147 90.46345,122.25147 C91.80655,122.25147 92.84055,121.16577 92.84055,119.87327 L92.84055,109.94137 L92.83945,109.94247 C92.83945,109.93587 92.84055,109.93037 92.84055,109.92377" id="Fill-28" fill="#4C5C68"></path>
            <polygon id="Fill-30" fill="#C5C3C6" points="220.0913 127.48802 217.5536 128.75632 217.5536 2.53682 13.3188 2.53682 13.3188 128.75632 10.7833 127.48802 10.7833 0.00022 220.0913 0.00022"></polygon>
        </g>
    </g>
</svg>