<svg xmlns="http://www.w3.org/2000/svg" xmlns:xlink="http://www.w3.org/1999/xlink"><symbol id="logo" viewBox="0 0 245.9 236.3" xmlns="http://www.w3.org/2000/svg"><style>.ast0{fill:#fff}</style><path class="ast0" d="M148.1 86.7c-4.4-4.4-7.2-9-8.8-14.5-5.3 5-12.4 8.1-20.1 8.1-16.7 0-30.2-14.2-30.2-31.8 0-17.5 13.5-31.8 30.2-31.8s30.2 14.2 30.2 31.8v1.2c.1 15.9 1.7 22.2 7.3 27.9 6.7-9.7 9.5-17 10.3-24.5v-.4c.2-1.6.2-3.2.2-4.7 0-26.5-21.5-48-48-48s-48 21.5-48 48c0 1.5.1 3.1.2 4.7v.4c1.7 15.4 11.8 30.1 47.8 66.3 13-13.1 22.7-23.4 29.7-31.9l-.8-.8z"/><circle class="ast0" cx="119.2" cy="48.3" r="16.9"/><path class="ast0" d="M95.7 227.8c0 3.3-2.7 6.1-6.1 6.1-3.3 0-6-2.8-6-6.1v-84.7c0-3.3 2.7-6.1 6-6.1 3.4 0 6.1 2.8 6.1 6.1v84.7zM120.3 140.8c4.6 0 8.4 3.3 8.4 7.8s-3.7 7.8-8.4 7.8c-4.5 0-8.4-3.3-8.4-7.8 0-4.4 3.9-7.8 8.4-7.8zm6.1 36c0-3.3-2.7-6.1-6.1-6.1-3.3 0-6 2.8-6 6.1v51c0 3.3 2.7 6.1 6 6.1 3.4 0 6.1-2.8 6.1-6.1v-51zM164.8 224c6.2 0 10.9-3.3 10.9-8.2 0-4.5-3.6-6.8-8.2-7.8l-8.5-2c-10.5-2.8-16.7-8-16.7-17.8 0-10.2 9.1-18.2 21.6-18.2 8.1 0 15.9 2.9 19.5 10.1.5.9.7 2 .7 2.8 0 4-3.8 5.4-5.7 5.4-1.7 0-3-.9-4.4-2.7-2.8-3.7-6-5.2-9.8-5.2-5.8 0-9.7 3.4-9.7 8.1 0 4 3.8 6.2 7.8 7.2l9.1 2.3c12.9 3.2 16 11 16 18 0 11.5-11.1 18.6-24 18.6-9.5 0-19.4-5.3-22.3-14.8-.1-.7-.3-1.3-.3-1.9 0-3.2 3-4.8 5.8-4.8 2.1 0 4.2 1.1 5.2 3.4 1.9 4.6 6.8 7.5 13 7.5zM221.5 224c6.2 0 10.9-3.3 10.9-8.2 0-4.5-3.6-6.8-8.2-7.8l-8.5-2c-10.5-2.8-16.7-8-16.7-17.8 0-10.2 9.1-18.2 21.6-18.2 8.1 0 15.9 2.9 19.5 10.1.5.9.7 2 .7 2.8 0 4-3.8 5.4-5.7 5.4-1.7 0-3-.9-4.4-2.7-2.8-3.7-6-5.2-9.8-5.2-5.8 0-9.7 3.4-9.7 8.1 0 4 3.8 6.2 7.8 7.2l9.1 2.3c12.9 3.2 16 11 16 18 0 11.5-11.1 18.6-24 18.6-9.5 0-19.4-5.3-22.3-14.8-.1-.7-.3-1.3-.3-1.9 0-3.2 3-4.8 5.8-4.8 2.1 0 4.2 1.1 5.2 3.4 1.9 4.6 6.8 7.5 13 7.5zM65 202.4c0-17.9-14.5-32.5-32.5-32.5-17.9 0-32.5 14.5-32.5 32.5s14.5 32.5 32.5 32.5c7.7 0 14.8-2.7 20.4-7.2v.3c0 3.3 2.7 6.1 6 6.1 3.4 0 6.1-2.8 6.1-6.1v-25.6zM32.6 223c-11.4 0-20.6-9.2-20.6-20.6s9.2-20.6 20.6-20.6 20.6 9.3 20.6 20.6S43.9 223 32.6 223z"/></symbol></svg>