<svg xmlns:xlink="http://www.w3.org/1999/xlink"><symbol id="analytics" viewBox="0 0 296.8 257"><style>.ast0{fill:#c6c4c7}.ast1{fill:#4c5c68}</style><path class="ast0" d="M296.8 257H34.6c-3.3 0-6-2.7-6-6V41.1h2.6V251c0 1.9 1.5 3.4 3.4 3.4h262.1v2.6z"/><path class="ast1" d="M32.3 13c1-.4 2 .2 2.3.9.4.8 1.3 1.7 2.9 1.7 1.5 0 2.6-.7 2.6-1.9 0-.8-.3-1.5-2.1-2l-2.1-.6C32 9.9 31.3 7.6 31.3 6c0-3.2 2.7-5.3 6.1-5.3 2.6 0 4.5 1.1 5.4 3 .4.9.1 1.7-.6 2.1-.9.6-1.8.3-2.4-.4-.7-1-1.7-1.2-2.5-1.2C36 4.1 35 4.9 35 6c0 .5.2 1.3 1.9 1.8l2.1.6c4.3 1.2 4.9 3.7 4.9 5.4-.1 3.5-3.2 5.2-6.4 5.2-3.1 0-5.4-1.5-6.2-3.8-.2-1 .2-1.8 1-2.2zM56.2 17.9C55 18.7 53.5 19 52 19c-3.5 0-6.3-2.5-6.3-6.3s2.8-6.2 6.3-6.2c3.4 0 6.2 2.5 6.2 6.3 0 .6-.5 1.1-1.1 1.1h-7.8c.2 1.4 1.7 2 3 2 .7 0 1.3-.1 2.1-.6.8-.6 1.8-.4 2.3.2.6.7.4 1.9-.5 2.4zm-1.6-6.3c-.2-1.5-1.2-2.2-2.5-2.2s-2.4.7-2.7 2.2h5.2zM69.3 8.2c0-.9.9-1.6 1.8-1.6 1 0 1.8.7 1.8 1.6v9.1c0 .9-.8 1.6-1.8 1.6s-1.8-.7-1.8-1.6V17c-.8 1.3-2.3 2-3.6 2-3.1 0-5.9-2.3-5.9-6.3s2.8-6.2 5.9-6.2c.8 0 2.6.3 3.6 1.9v-.2zm-2.9 7.6c1.6 0 2.9-1.4 2.9-3s-1.3-3-2.9-3c-1.8 0-2.8 1.4-2.8 3-.1 1.5 1 3 2.8 3zM84.9 8.4c-.1.9-1 1.3-1.8 1.3h-.9c-2 0-2.7 1.5-2.7 4.6v3c0 .9-.8 1.6-1.8 1.6s-1.8-.7-1.8-1.6V8.2c0-.9.9-1.6 1.8-1.6 1 0 1.8.7 1.8 1.6v1.3c.7-2.2 1.9-3 3.2-3 1.2-.1 2.5.2 2.2 1.9zM92.3 15.5c.6 0 1.3-.2 1.8-.5.6-.4 1.7-.5 2.3.1.7.7.6 2-.2 2.6-1.1.8-2.5 1.2-3.9 1.2-3.5 0-6.6-2.4-6.6-6.2v-.1c0-3.8 3.1-6.2 6.6-6.2 1.4 0 2.8.4 3.9 1.2.9.6 1 1.9.2 2.6-.6.6-1.7.5-2.3.1-.5-.3-1.1-.5-1.8-.5-1.5 0-2.9 1.1-2.9 2.7v.1c0 1.8 1.4 2.9 2.9 2.9zM107.5 12.3c0-1.6-1.1-2.4-2.2-2.4s-2.4.6-2.4 2.4v4.9c0 .9-.8 1.6-1.8 1.6s-1.8-.7-1.8-1.6V1.6c0-.9.9-1.6 1.8-1.6 1 0 1.8.7 1.8 1.6v7c.5-1.5 2.2-2.1 3.4-2.1 3.2 0 4.8 2.1 4.8 5.7v5.1c0 .9-.8 1.6-1.8 1.6s-1.8-.7-1.8-1.6v-5zM123.9 17.9c-1.2.8-2.7 1.1-4.2 1.1-3.5 0-6.3-2.5-6.3-6.3s2.8-6.2 6.3-6.2c3.4 0 6.2 2.5 6.2 6.3 0 .6-.5 1.1-1.1 1.1H117c.2 1.4 1.7 2 3 2 .7 0 1.3-.1 2.1-.6.8-.6 1.8-.4 2.3.2.7.7.4 1.9-.5 2.4zm-1.6-6.3c-.2-1.5-1.2-2.2-2.5-2.2s-2.4.7-2.7 2.2h5.2zM128.2 14.6c.8-.4 1.5 0 1.9.4.6.7 1.4 1.1 2.3 1.1.8 0 1.5-.1 1.5-.7 0-.5-.3-.7-1.2-1l-1.4-.5c-3.6-1.2-3.6-2.9-3.6-4 0-1.8 2.1-3.4 4.7-3.4 1.7 0 3.5.5 4.3 2 .4.8.2 1.5-.3 1.8-.8.5-1.5.3-2.3-.3-.5-.4-1-.5-1.4-.5-.8 0-1.3.3-1.3.7 0 .4.3.6 1 .9l1.8.6c2.9 1 3.3 2.8 3.3 3.6 0 2.6-2.7 3.8-5.2 3.8-1.9 0-4.2-.8-4.8-2.6-.2-.8.1-1.6.7-1.9z"/><g><path class="ast1" d="M.6 176l.1-13.4h3.4v4.8l14.4.1v3.8L4 171.2v4.8H.6zM12.4 162.9c-3.8 0-6.2-2.9-6.2-6.3s2.5-6.3 6.3-6.2 6.3 2.9 6.2 6.3c-.1 3.4-2.5 6.3-6.3 6.2zm0-8.9c-1.6 0-2.7 1.2-2.7 2.7 0 1.5 1.1 2.7 2.7 2.7 1.7 0 2.8-1.2 2.8-2.7 0-1.5-1.1-2.7-2.8-2.7zM6.5 140.7h2.8v2.5h9.2v3.6H9.3v2.2H6.5v-2.2H1.9v-3.6h4.6v-2.5zM17.2 129.8c1.2.8 1.6 2.6 1.6 3.5 0 3.1-2.4 6.1-6.3 6.1s-6.3-3.1-6.2-6.2c0-.8.3-2.6 1.6-3.5H6.6v-3.6l12 .1v3.6h-1.4zm-1.8 3c0-1.5-1-2.9-2.9-2.9-1.8 0-2.9 1.4-2.9 2.9s1.1 3 2.8 3c1.8 0 3-1.6 3-3zM0 119.3l18.6.1v3.6L0 122.9v-3.6z"/></g><path class="ast1" d="M286.5 71c0-1.8-1.5-3.3-3.3-3.3-1.1 0-2 .5-2.6 1.3L170.2 185.7l-42.8-39.5-97.8 105.2 4.8 4.5 93.3-100.4 43.1 39.8 115-122.1c.4-.6.7-1.4.7-2.2z"/></symbol><symbol viewBox="0 0 256 234" id="categories"><title>Page 1</title><defs><path id="ba" d="M0 233.405h255.92V0H0z"/></defs><g fill="none" fill-rule="evenodd"><path d="M82.379 32.238c-1.55 2.349-4.26 3.898-7.485 3.898-5.086 0-8.933-4.105-8.933-9.113 0-5.06 3.847-9.138 8.933-9.138 3.174 0 5.859 1.497 7.408 3.769L79.23 23.77c-.955-1.394-2.504-2.324-4.336-2.324-2.97 0-5.138 2.478-5.138 5.576 0 3.072 2.169 5.55 5.138 5.55 1.858 0 3.484-1.006 4.439-2.452l3.046 2.117zM92.86 29.81c0-1.625-1.24-2.735-2.737-2.735-1.472 0-2.71 1.11-2.71 2.736 0 1.678 1.238 2.762 2.71 2.762 1.497 0 2.736-1.084 2.736-2.762m-8.984 0c0-3.795 2.84-6.247 6.248-6.247 3.407 0 6.272 2.452 6.272 6.247s-2.865 6.273-6.272 6.273c-3.408 0-6.248-2.478-6.248-6.273M102.564 35.877h-3.588V23.822h3.588v1.755c.646-1.213 2.065-2.013 3.485-2.013 2.71 0 4.414 1.678 4.414 5.111v7.202h-3.587V29.45c0-1.6-.878-2.4-2.09-2.4-1.267 0-2.222.62-2.222 2.452v6.376zM119.446 26.946c-1.522 0-2.787 1.136-2.787 2.865 0 1.78 1.265 2.917 2.787 2.917 1.498 0 2.788-1.187 2.788-2.917 0-1.807-1.316-2.865-2.788-2.865zm2.865 8.932V34.38c-.593 1.109-2.039 1.755-3.536 1.755-3.098 0-5.834-2.452-5.834-6.247 0-3.872 2.736-6.325 5.834-6.325 1.497 0 2.943.62 3.536 1.73v-8.028h3.564v18.612h-3.564z" fill="#4C5C68"/><mask id="bb" fill="#fff"><use xlink:href="#ba"/></mask><path d="M129.177 35.877h3.563V23.822h-3.563v12.055zm1.782-18.612c1.214 0 2.194.904 2.194 2.091 0 1.188-.98 2.117-2.194 2.117-1.213 0-2.246-.929-2.246-2.117 0-1.187 1.033-2.091 2.246-2.091zM143.272 23.822v2.84h-2.53v9.215h-3.563v-9.215h-2.194v-2.84h2.194V19.2h3.564v4.62zM145.465 35.877h3.563V23.822h-3.563v12.055zm1.781-18.612c1.214 0 2.194.904 2.194 2.091 0 1.188-.98 2.117-2.194 2.117-1.213 0-2.245-.929-2.245-2.117 0-1.187 1.032-2.091 2.245-2.091zM160.593 29.81c0-1.625-1.24-2.735-2.736-2.735-1.472 0-2.711 1.11-2.711 2.736 0 1.678 1.239 2.762 2.71 2.762 1.498 0 2.737-1.084 2.737-2.762m-8.984 0c0-3.795 2.84-6.247 6.248-6.247 3.407 0 6.272 2.452 6.272 6.247s-2.865 6.273-6.272 6.273c-3.408 0-6.248-2.478-6.248-6.273M170.298 35.877h-3.588V23.822h3.588v1.755c.646-1.213 2.065-2.013 3.485-2.013 2.71 0 4.414 1.678 4.414 5.111v7.202h-3.587V29.45c0-1.6-.878-2.4-2.091-2.4-1.265 0-2.221.62-2.221 2.452v6.376zM184.495 30.921c-3.614-.981-3.64-2.814-3.614-3.924.026-1.781 2.17-3.433 4.7-3.433 2.4 0 4.93 1.058 4.955 4.001h-3.382c-.026-.903-.8-1.058-1.368-1.058-.774 0-1.29.361-1.266.903.027.362.336.723 1.06.904l2.04.542c2.916.8 3.277 2.736 3.277 3.511 0 2.555-2.685 3.769-5.215 3.769-2.452 0-5.008-1.472-5.034-4.157h3.357c.025.697.8 1.394 1.781 1.394.8-.025 1.471-.387 1.471-1.006 0-.517-.31-.801-1.188-1.033l-1.574-.413z" fill="#4C5C68" mask="url(#bb)"/><path d="M26.972 2.647C13.56 2.647 2.648 13.56 2.648 26.971c0 13.413 10.912 24.325 24.324 24.325 13.413 0 24.324-10.912 24.324-24.325 0-13.412-10.911-24.324-24.324-24.324m0 51.296C12.1 53.943 0 41.844 0 26.971 0 12.1 12.1.001 26.972.001c14.873 0 26.972 12.098 26.972 26.97 0 14.873-12.1 26.972-26.972 26.972" fill="#C5C3C6" mask="url(#bb)"/><path d="M40.878 21.896v13.072c0 .68-.238 1.259-.715 1.736a2.362 2.362 0 0 1-1.736.715h-.817V19.445h.817c.68 0 1.26.238 1.736.715.477.477.715 1.055.715 1.736zm-16.34-2.451h6.536V17.81h-6.536v1.634zm8.17 7.353v1.634a.793.793 0 0 1-.23.587.8.8 0 0 1-.587.23H29.44v2.45a.794.794 0 0 1-.23.588.797.797 0 0 1-.587.23h-1.635a.797.797 0 0 1-.587-.23.797.797 0 0 1-.23-.587v-2.451h-2.45a.794.794 0 0 1-.587-.23.795.795 0 0 1-.231-.587v-1.634c0-.238.078-.434.23-.587a.794.794 0 0 1 .588-.23h2.45V23.53c0-.238.078-.434.23-.587a.797.797 0 0 1 .587-.23h1.635c.237 0 .434.077.587.23.153.153.23.349.23.587v2.45h2.45a.8.8 0 0 1 .589.23.795.795 0 0 1 .229.588zm-13.072 10.62h16.34V19.446h-1.634v-2.451c0-.681-.238-1.26-.715-1.736a2.364 2.364 0 0 0-1.736-.715h-8.17c-.682 0-1.26.238-1.737.715a2.365 2.365 0 0 0-.714 1.736v2.45h-1.634V37.42zm-1.634 0h-.817c-.682 0-1.26-.237-1.737-.714a2.366 2.366 0 0 1-.715-1.736V21.896c0-.681.239-1.26.715-1.736a2.363 2.363 0 0 1 1.737-.715h.817v17.974zM7.705 224.318c1.472 0 2.917-1.058 2.917-2.865 0-1.807-1.445-2.866-2.917-2.866-1.497 0-3.02 1.136-3.02 2.866 0 1.73 1.523 2.865 3.02 2.865zm2.917 1.807c-.774 1.162-2.582 1.6-3.51 1.6-3.073 0-6.145-2.4-6.145-6.272 0-3.873 3.072-6.273 6.144-6.273.775 0 2.581.258 3.511 1.6v-1.342h3.562v12.055h-3.562v-1.368zM21.076 227.494h-3.588v-12.055h3.588v1.755c.646-1.213 2.065-2.013 3.485-2.013 2.71 0 4.414 1.677 4.414 5.11v7.203h-3.587v-6.429c0-1.6-.878-2.4-2.09-2.4-1.267 0-2.222.62-2.222 2.453v6.376zM37.958 218.562c-1.523 0-2.788 1.136-2.788 2.865 0 1.782 1.265 2.917 2.788 2.917 1.497 0 2.788-1.187 2.788-2.917 0-1.806-1.316-2.865-2.788-2.865zm2.865 8.932v-1.497c-.594 1.11-2.039 1.755-3.536 1.755-3.098 0-5.835-2.452-5.835-6.247 0-3.872 2.737-6.325 5.835-6.325 1.497 0 2.942.62 3.536 1.73v-8.028h3.563v18.612h-3.563zM65.242 221.117v6.376h-3.588v-6.505c-.025-1.523-.955-2.323-1.987-2.323-1.084 0-2.09.62-2.09 2.452v6.376h-3.59v-12.055h3.59v1.755c.566-1.265 1.857-1.988 3.147-1.988 1.912 0 3.203.723 3.873 2.117 1.162-1.884 2.762-2.142 3.614-2.142 2.865 0 4.647 1.833 4.647 5.472v6.841h-3.562v-6.428c0-1.574-.93-2.4-1.989-2.4-1.135 0-2.065.697-2.065 2.452M82.047 224.318c1.472 0 2.917-1.058 2.917-2.865 0-1.807-1.445-2.866-2.917-2.866-1.497 0-3.021 1.136-3.021 2.866 0 1.73 1.524 2.865 3.02 2.865zm2.917 1.807c-.774 1.162-2.582 1.6-3.511 1.6-3.072 0-6.144-2.4-6.144-6.272 0-3.873 3.072-6.273 6.144-6.273.775 0 2.58.258 3.51 1.6v-1.342h3.563v12.055h-3.562v-1.368zM95.418 227.494H91.83v-12.055h3.588v1.755c.646-1.213 2.065-2.013 3.485-2.013 2.711 0 4.414 1.677 4.414 5.11v7.203H99.73v-6.429c0-1.6-.878-2.4-2.091-2.4-1.265 0-2.221.62-2.221 2.453v6.376zM110.313 233.405h-3.796l2.892-7.15-4.647-10.817h3.822l2.657 6.84 2.686-6.84h3.82zM136.435 221.117v6.376h-3.588v-6.505c-.025-1.523-.954-2.323-1.987-2.323-1.084 0-2.09.62-2.09 2.452v6.376h-3.589v-12.055h3.588v1.755c.567-1.265 1.858-1.988 3.148-1.988 1.912 0 3.203.723 3.874 2.117 1.161-1.884 2.762-2.142 3.614-2.142 2.865 0 4.647 1.833 4.647 5.472v6.841h-3.563v-6.428c0-1.574-.93-2.4-1.989-2.4-1.135 0-2.065.697-2.065 2.452M155.485 221.427c0-1.626-1.238-2.736-2.735-2.736-1.472 0-2.71 1.11-2.71 2.736 0 1.678 1.238 2.762 2.71 2.762 1.497 0 2.735-1.084 2.735-2.762m-8.982 0c0-3.795 2.838-6.247 6.247-6.247 3.407 0 6.272 2.452 6.272 6.247s-2.865 6.273-6.272 6.273c-3.409 0-6.247-2.478-6.247-6.273M165.191 227.494h-3.588v-12.055h3.588v2.917c.62-2.246 2.17-3.175 3.408-3.175.852 0 1.497.153 2.066.438l-.647 3.226c-.644-.31-1.264-.36-1.832-.36-2.065 0-2.995 1.625-2.995 4.8v4.209zM180.447 220.394c-.18-1.47-1.522-2.065-2.529-2.065s-2.375.542-2.685 2.065h5.214zm2.943 4.905c-1.214 1.807-3.46 2.452-5.499 2.452-3.459 0-6.298-2.53-6.298-6.324 0-3.795 2.84-6.247 6.298-6.247 3.434 0 6.17 2.555 6.17 6.35 0 .31-.026.8-.05 1.11h-8.83c.18 1.394 1.704 2.014 2.97 2.014.98 0 2.038-.362 2.632-1.136l2.607 1.781zM188.45 223.44c1.213 0 2.245.905 2.245 2.144 0 1.265-1.032 2.168-2.246 2.168s-2.22-.903-2.22-2.168c0-1.24 1.006-2.143 2.22-2.143M195.65 223.44c1.214 0 2.246.905 2.246 2.144 0 1.265-1.032 2.168-2.246 2.168-1.213 0-2.22-.903-2.22-2.168 0-1.24 1.007-2.143 2.22-2.143M202.852 223.44c1.214 0 2.246.905 2.246 2.144 0 1.265-1.032 2.168-2.246 2.168-1.213 0-2.22-.903-2.22-2.168 0-1.24 1.007-2.143 2.22-2.143M82.018 84.114h3.176l2.168 17.786h-3.794l-1.24-10.66-4.156 8.621h-2.917l-4.182-8.622-1.265 10.661h-3.795l2.194-17.786h3.123l5.37 11.462zM98.203 95.834c0-1.626-1.239-2.736-2.736-2.736-1.472 0-2.71 1.11-2.71 2.736 0 1.678 1.238 2.762 2.71 2.762 1.497 0 2.736-1.084 2.736-2.762m-8.983 0c0-3.795 2.84-6.247 6.247-6.247s6.273 2.452 6.273 6.247-2.866 6.273-6.273 6.273c-3.408 0-6.247-2.478-6.247-6.273M107.91 101.9h-3.59V89.845h3.59V91.6c.644-1.212 2.063-2.012 3.483-2.012 2.711 0 4.414 1.678 4.414 5.11v7.203h-3.587v-6.428c0-1.6-.878-2.401-2.09-2.401-1.267 0-2.22.62-2.22 2.453v6.375zM127.114 94.802c-.182-1.471-1.523-2.065-2.53-2.065s-2.375.542-2.685 2.065h5.215zm2.942 4.905c-1.213 1.807-3.459 2.452-5.498 2.452-3.46 0-6.299-2.53-6.299-6.325 0-3.794 2.84-6.247 6.3-6.247 3.432 0 6.168 2.556 6.168 6.35 0 .31-.025.8-.05 1.11h-8.83c.181 1.395 1.704 2.014 2.97 2.014.98 0 2.038-.361 2.632-1.135l2.607 1.78zM136.948 107.812h-3.795l2.892-7.15-4.647-10.817h3.821l2.658 6.841 2.685-6.84h3.821z" fill="#4C5C68" mask="url(#bb)"/><path d="M26.972 68.67c-13.412 0-24.324 10.912-24.324 24.325 0 13.412 10.912 24.325 24.324 24.325 13.413 0 24.324-10.912 24.324-24.325 0-13.413-10.911-24.325-24.324-24.325m0 51.296C12.1 119.966 0 107.868 0 92.995s12.1-26.972 26.972-26.972c14.873 0 26.972 12.1 26.972 26.972 0 14.873-12.1 26.971-26.972 26.971" fill="#C5C3C6" mask="url(#bb)"/><path d="M34.464 96.722a.553.553 0 0 1 .168.407v4.974c0 .16-.056.295-.168.407a.554.554 0 0 1-.406.167H19.9a.555.555 0 0 1-.407-.167.553.553 0 0 1-.168-.407v-1.913c0-.16.056-.294.168-.407a.555.555 0 0 1 .407-.167h1.72v-6.123h-1.338a.552.552 0 0 1-.407-.167.554.554 0 0 1-.167-.406v-1.914c0-.16.056-.294.167-.406a.553.553 0 0 1 .407-.168h1.339v-3.157c0-1.147.287-2.183.862-3.11.573-.923 1.37-1.641 2.39-2.151 1.022-.51 2.169-.765 3.445-.765 1.02 0 2.025.207 3.013.62a9.72 9.72 0 0 1 1.865 1.054c.128.095.2.223.216.382a.593.593 0 0 1-.12.43l-1.387 1.723a.708.708 0 0 1-.36.19.475.475 0 0 1-.405-.095c-.957-.605-1.873-.908-2.75-.908s-1.587.263-2.13.789a2.596 2.596 0 0 0-.813 1.937v3.06h4.019c.159 0 .295.057.406.169a.549.549 0 0 1 .168.406v1.914a.547.547 0 0 1-.168.406.55.55 0 0 1-.406.167h-4.02v6.075h5.885v-2.44c0-.16.056-.294.167-.406a.556.556 0 0 1 .407-.167h2.153c.159 0 .295.056.406.167M66.994 150.138H78.12v3.33h-7.332v4.053h5.81v3.304h-5.81v7.099h-3.794zM87.825 161.857c0-1.626-1.239-2.736-2.736-2.736-1.472 0-2.71 1.11-2.71 2.736 0 1.678 1.238 2.762 2.71 2.762 1.497 0 2.736-1.084 2.736-2.762m-8.983 0c0-3.795 2.84-6.247 6.247-6.247 3.408 0 6.273 2.452 6.273 6.247s-2.865 6.273-6.273 6.273c-3.408 0-6.247-2.478-6.247-6.273M102.203 161.857c0-1.626-1.239-2.736-2.736-2.736-1.472 0-2.71 1.11-2.71 2.736 0 1.678 1.238 2.762 2.71 2.762 1.497 0 2.736-1.084 2.736-2.762m-8.983 0c0-3.795 2.84-6.247 6.247-6.247 3.408 0 6.273 2.452 6.273 6.247s-2.865 6.273-6.273 6.273c-3.408 0-6.247-2.478-6.247-6.273M114.129 158.992c-1.522 0-2.788 1.136-2.788 2.865 0 1.782 1.266 2.917 2.788 2.917 1.498 0 2.788-1.187 2.788-2.917 0-1.806-1.316-2.865-2.788-2.865zm2.865 8.932v-1.497c-.593 1.11-2.04 1.755-3.536 1.755-3.098 0-5.834-2.452-5.834-6.247 0-3.872 2.736-6.325 5.834-6.325 1.497 0 2.943.62 3.536 1.73v-8.028h3.563v18.612h-3.563zM136.432 160.076c-2.48 0-2.84 1.885-2.685 2.633.258 1.265 1.162 1.962 2.685 1.962.98 0 3.046-.671 3.046-3.175v-1.42h-3.046zm-6.608 2.917c0-2.246 1.006-3.846 2.942-4.543-1.265-.413-2.246-1.73-2.246-3.537 0-2.53 2.142-4.827 5.189-4.982 2.194-.103 3.975.852 5.085 2.297l-3.046 1.859c-.361-.361-.75-.671-1.446-.671-1.315 0-1.832.981-1.832 1.755 0 .078 0 2.014 2.066 2.014h2.942v-2.014h3.33v2.014h2.065v2.891h-2.065v2.633c0 2.039.413 2.349 2.4 2.349v3.124c-2.761-.026-4.388-.258-5.007-2.22-.671 1.445-2.814 2.22-4.312 2.22-3.433 0-6.065-2.143-6.065-5.189zM168.156 167.924h-3.382l-6.195-10.765v10.765h-3.77v-17.786h3.46l6.092 10.635v-10.635h3.795zM179.668 155.868h3.589v12.055h-3.589v-1.652c-.646 1.214-1.962 1.91-3.123 1.91-2.711 0-4.775-1.678-4.775-5.11v-7.203h3.587v6.428c0 1.91 1.317 2.401 2.143 2.401 1.109 0 2.168-.62 2.168-2.453v-6.376zM193.788 155.868v2.84h-2.53v9.215h-3.562v-9.215h-2.195v-2.84h2.195v-4.62h3.562v4.62zM199.57 167.924h-3.589v-12.055h3.588v2.917c.62-2.246 2.17-3.175 3.408-3.175.852 0 1.497.154 2.066.438l-.647 3.227c-.644-.31-1.264-.361-1.832-.361-2.065 0-2.995 1.626-2.995 4.8v4.209zM206.9 167.924h3.563v-12.055H206.9v12.055zm1.782-18.613c1.213 0 2.194.904 2.194 2.091 0 1.188-.981 2.117-2.194 2.117s-2.246-.929-2.246-2.117c0-1.187 1.033-2.091 2.246-2.091zM220.995 155.868v2.84h-2.53v9.215h-3.563v-9.215h-2.193v-2.84h2.193v-4.62h3.563v4.62zM223.188 167.924h3.563v-12.055h-3.563v12.055zm1.782-18.613c1.213 0 2.194.904 2.194 2.091 0 1.188-.981 2.117-2.194 2.117s-2.246-.929-2.246-2.117c0-1.187 1.033-2.091 2.246-2.091zM238.315 161.857c0-1.626-1.239-2.736-2.737-2.736-1.47 0-2.71 1.11-2.71 2.736 0 1.678 1.24 2.762 2.71 2.762 1.498 0 2.737-1.084 2.737-2.762m-8.984 0c0-3.795 2.84-6.247 6.247-6.247 3.408 0 6.273 2.452 6.273 6.247s-2.865 6.273-6.273 6.273c-3.407 0-6.247-2.478-6.247-6.273M248.02 167.924h-3.588v-12.055h3.589v1.755c.646-1.213 2.065-2.013 3.485-2.013 2.71 0 4.413 1.678 4.413 5.11v7.203h-3.587v-6.428c0-1.6-.877-2.401-2.09-2.401-1.266 0-2.221.62-2.221 2.453v6.376z" fill="#4C5C68" mask="url(#bb)"/><path d="M26.972 134.694c-13.412 0-24.324 10.912-24.324 24.324 0 13.413 10.912 24.325 24.324 24.325 13.413 0 24.324-10.912 24.324-24.325 0-13.412-10.911-24.324-24.324-24.324m0 51.296C12.1 185.99 0 173.89 0 159.018c0-14.872 12.1-26.971 26.972-26.971 14.873 0 26.972 12.099 26.972 26.97 0 14.874-12.1 26.973-26.972 26.973" fill="#C5C3C6" mask="url(#bb)"/><path d="M38.219 152.047c.383.191.67.478.86.861.193.383.193.717 0 1.004-.51.702-1.083 1.483-1.721 2.344-1.18 1.595-2.057 2.663-2.63 3.205-.957.989-2.026 1.595-3.205 1.817-1.18.224-2.328.08-3.445-.43l-8.61 9.614a1.202 1.202 0 0 1-.932.431c-.366 0-.693-.128-.98-.383l-2.44-2.44a1.431 1.431 0 0 1-.382-.98c0-.366.143-.677.43-.933l9.615-8.657a5.423 5.423 0 0 1-.431-3.396c.223-1.18.829-2.264 1.817-3.253.542-.542 1.61-1.403 3.205-2.583.86-.638 1.643-1.211 2.344-1.722.287-.191.622-.191 1.004 0 .383.192.67.479.86.861.193.383.176.718-.046 1.005l-5.454 5.453c-.031.064.048.191.24.382.19.192.319.256.382.192l5.74-5.119c.288-.222.63-.239 1.029-.047.398.191.686.478.86.861.176.382.168.734-.023 1.052l-5.166 5.74c-.031.064.04.191.215.382.176.192.31.271.407.239l5.452-5.452c.287-.223.622-.239 1.005-.048" fill="#4C5C68" mask="url(#bb)"/></g></symbol><symbol viewBox="0 0 472 307" id="how_it_works"><title>Page 1</title><g fill="none" fill-rule="evenodd"><path d="M19.922 125.165c1.993 3.464 4.72 6.194 8.182 8.19 3.459 1.999 7.243 2.997 11.353 2.999 4.106.003 7.892-.991 11.356-2.986 3.46-1.992 6.192-4.719 8.19-8.181 1.996-3.459 2.997-7.244 3-11.353.002-4.107-.995-7.892-2.987-11.356-1.995-3.462-4.722-6.192-8.181-8.191-3.462-1.996-7.246-2.997-11.353-2.999-4.11-.002-7.895.994-11.356 2.986-3.465 1.995-6.195 4.723-8.191 8.182-2 3.462-2.997 7.246-3 11.353-.001 4.109.992 7.895 2.987 11.356m54.032 21.771c3.283 3.289 4.926 7.281 4.923 11.974l-.01 18.308c-.001 1.172-.414 2.17-1.235 2.992-.822.819-1.821 1.231-2.993 1.231l-70.416-.04c-1.175-.001-2.173-.414-2.992-1.234-.822-.823-1.231-1.822-1.23-2.993l.01-18.309c.002-4.692 1.647-8.682 4.935-11.967 3.287-3.283 7.279-4.925 11.974-4.923l9.682.006a30.744 30.744 0 0 0 12.938 2.823c4.516.003 8.772-.932 12.764-2.809l9.682.005c4.693.003 8.683 1.65 11.968 4.936" fill="#4C5C68"/><path d="M93.066 85.754l.621.431c7.587 5.256 16.494 8.036 25.758 8.041h.026c24.986 0 45.317-20.317 45.331-45.305.014-24.995-20.31-45.342-45.306-45.356h-.026c-12.099 0-23.474 4.708-32.035 13.26C78.87 25.38 74.147 36.761 74.14 48.87a45.198 45.198 0 0 0 6.855 24.005l.248.398-.255.825-5.536 16.914 17.13-4.879.484-.379zm26.405 10.525h-.027c-9.51-.005-18.662-2.81-26.499-8.115L72.3 94.044l6.705-20.485a47.26 47.26 0 0 1-6.917-24.69c.007-12.657 4.942-24.553 13.897-33.497 8.948-8.938 20.84-13.859 33.485-13.859h.028c26.127.014 47.371 21.282 47.356 47.41-.015 26.117-21.268 47.355-47.383 47.356z" fill="#C5C3C6"/><path d="M256.873 156.78c-3.32-3.322-5.375-6.783-6.625-10.91-4.004 3.767-9.287 6.058-15.078 6.058-12.509 0-22.65-10.685-22.65-23.867 0-13.181 10.141-23.867 22.65-23.867 12.511 0 22.652 10.686 22.652 23.867 0 .31-.008.62-.018.927.063 11.955 1.297 16.64 5.463 20.929 5.066-7.266 7.146-12.766 7.735-18.417.012-.11.021-.22.032-.328a35.6 35.6 0 0 0 .177-3.502c0-19.905-16.136-36.04-36.04-36.04s-36.04 16.135-36.04 36.04a35.6 35.6 0 0 0 .176 3.502l.032.328c1.216 11.66 8.783 22.684 35.831 49.898 9.791-9.85 17.028-17.578 22.337-23.984l-.634-.634z" fill="#1E7ABD"/><path d="M247.878 127.976c0 7.432-5.274 12.707-12.707 12.707-7.432 0-12.707-5.275-12.707-12.707 0-7.433 5.275-12.707 12.707-12.707 7.433 0 12.707 5.274 12.707 12.707" fill="#1E7ABD"/><path d="M101.778 138.578h76.709c3.302 0 3.306-5.131 0-5.131h-76.709c-3.3 0-3.306 5.13 0 5.13" fill="#22B2AA"/><path d="M333.194 36.69l1.473 5.37 2.245-7.077c.197-.61.988-.933 1.635-.755.682.198 1.059.97.843 1.6l-3.34 9.895c-.198.611-.647 1.007-1.222 1.007h-.179c-.593 0-1.078-.413-1.239-1.006l-1.455-5.586-1.455 5.586c-.162.593-.646 1.006-1.239 1.006h-.18c-.574 0-1.024-.395-1.221-1.006l-3.341-9.896c-.216-.63.162-1.402.844-1.6.647-.178 1.437.145 1.635.755l2.245 7.077 1.472-5.37c.144-.54.557-.862 1.186-.862h.107c.629 0 1.042.322 1.186.861M345.657 41.7c-.125-1.024-.826-1.527-1.76-1.527s-1.653.467-1.868 1.527h3.628zm1.114 4.346c-.844.557-1.904.755-2.892.755-2.407 0-4.382-1.742-4.382-4.382 0-2.64 1.975-4.329 4.382-4.329 2.389 0 4.293 1.76 4.293 4.4a.78.78 0 0 1-.773.773h-5.406c.126.97 1.185 1.383 2.065 1.383.504 0 .934-.036 1.455-.395.575-.396 1.222-.288 1.58.125.468.54.288 1.311-.322 1.67zM358.21 44.376c.449 0 .88-.125 1.239-.323.449-.252 1.185-.359 1.635.09.502.503.43 1.42-.162 1.832-.754.538-1.707.826-2.712.826-2.407 0-4.598-1.688-4.598-4.329v-.054c0-2.64 2.19-4.328 4.598-4.328 1.005 0 1.958.287 2.712.826.592.413.664 1.33.162 1.832-.45.45-1.186.341-1.635.09a2.59 2.59 0 0 0-1.24-.323c-1.077 0-2.047.736-2.047 1.903v.054c0 1.168.97 1.904 2.048 1.904M367.206 44.574c1.132 0 2.047-1.006 2.047-2.119 0-1.114-.915-2.12-2.047-2.12-1.257 0-1.976 1.006-1.976 2.12 0 1.113.72 2.119 1.976 2.119zm2.03-5.298c.017-.611.593-1.114 1.257-1.114.682 0 1.257.485 1.257 1.114v6.34c0 .628-.575 1.113-1.257 1.113-.664 0-1.24-.503-1.257-1.113v-.162c-.539.88-1.563 1.347-2.514 1.347-2.138 0-4.078-1.581-4.078-4.364 0-2.784 1.94-4.347 4.078-4.347.538 0 1.795.234 2.514 1.347v-.161zM376.383 39.473c.449-.844 1.437-1.4 2.425-1.4 1.886 0 3.089 1.167 3.089 3.555v3.988c0 .628-.575 1.113-1.257 1.113-.665 0-1.24-.503-1.257-1.113v-3.449c0-1.113-.611-1.67-1.456-1.67-.879 0-1.544.431-1.544 1.706v3.413c0 .628-.575 1.113-1.257 1.113-.665 0-1.24-.503-1.257-1.113v-6.34c.017-.61.592-1.114 1.257-1.114.682 0 1.257.485 1.257 1.113v.198zM342.451 61.665c0-1.096-.79-1.652-1.545-1.652-.79 0-1.652.413-1.652 1.688v3.412c0 .629-.574 1.114-1.257 1.114-.665 0-1.239-.503-1.257-1.114V54.211c.018-.61.592-1.113 1.257-1.113.683 0 1.257.485 1.257 1.113v4.85c.341-1.042 1.545-1.473 2.335-1.473 2.21 0 3.377 1.455 3.377 3.987v3.538c0 .629-.575 1.114-1.258 1.114-.664 0-1.239-.503-1.257-1.114v-3.448zM352.76 61.198c-.125-1.024-.827-1.527-1.76-1.527-.935 0-1.654.467-1.868 1.527h3.627zm1.113 4.346c-.844.557-1.904.755-2.892.755-2.406 0-4.382-1.742-4.382-4.382 0-2.641 1.976-4.329 4.382-4.329 2.39 0 4.293 1.76 4.293 4.4a.778.778 0 0 1-.772.772h-5.406c.125.97 1.185 1.384 2.065 1.384.502 0 .933-.036 1.454-.396.575-.395 1.222-.287 1.582.126.466.539.286 1.311-.325 1.67zM359.332 65.113c0 .63-.575 1.114-1.257 1.114-.665 0-1.24-.503-1.258-1.114V54.211c.018-.61.593-1.113 1.258-1.113.682 0 1.257.484 1.257 1.113v10.902zM366.066 59.833c-1.13 0-2.047 1.006-2.047 2.119 0 1.114.916 2.12 2.047 2.12 1.257 0 1.976-1.006 1.976-2.12 0-1.113-.719-2.119-1.976-2.119m.485-2.245c2.137 0 4.077 1.562 4.077 4.346s-1.94 4.365-4.077 4.365c-.952 0-1.976-.467-2.514-1.347v4.167c-.018.61-.593 1.113-1.258 1.113-.682 0-1.257-.485-1.257-1.113V58.773c0-.628.575-1.113 1.257-1.113.665 0 1.24.503 1.258 1.113v.162c.718-1.113 1.975-1.347 2.514-1.347M96.847 45.508c0 .665-.593 1.22-1.311 1.22-.683 0-1.311-.573-1.311-1.22V35.396c.018-.646.628-1.221 1.31-1.221.719 0 1.312.557 1.312 1.22v10.113zM106.149 39.473c.449-.844 1.437-1.4 2.425-1.4 1.886 0 3.089 1.167 3.089 3.555v3.988c0 .628-.575 1.113-1.257 1.113-.665 0-1.24-.503-1.257-1.113v-3.449c0-1.113-.611-1.67-1.455-1.67-.88 0-1.545.431-1.545 1.706v3.413c0 .628-.575 1.113-1.257 1.113-.665 0-1.24-.503-1.257-1.113v-6.34c.017-.61.592-1.114 1.257-1.114.682 0 1.257.485 1.257 1.113v.198zM119.474 41.7c-.126-1.024-.826-1.527-1.76-1.527s-1.653.467-1.868 1.527h3.628zm1.113 4.346c-.843.557-1.904.755-2.89.755-2.408 0-4.383-1.742-4.383-4.382 0-2.64 1.975-4.329 4.382-4.329 2.388 0 4.293 1.76 4.293 4.4a.78.78 0 0 1-.773.773h-5.406c.126.97 1.185 1.383 2.065 1.383.503 0 .934-.036 1.455-.395.575-.396 1.222-.288 1.581.125.467.54.287 1.311-.324 1.67zM129.243 41.7c-.125-1.024-.826-1.527-1.76-1.527s-1.653.467-1.868 1.527h3.628zm1.114 4.346c-.844.557-1.905.755-2.892.755-2.407 0-4.382-1.742-4.382-4.382 0-2.64 1.975-4.329 4.382-4.329 2.39 0 4.293 1.76 4.293 4.4a.78.78 0 0 1-.773.773h-5.406c.126.97 1.185 1.383 2.065 1.383.504 0 .934-.036 1.455-.395.575-.396 1.222-.288 1.581.125.467.54.287 1.311-.323 1.67zM137.432 44.574c1.132 0 2.047-1.006 2.047-2.119 0-1.114-.915-2.12-2.047-2.12-1.257 0-1.976 1.006-1.976 2.12 0 1.113.719 2.119 1.976 2.119zm2.03-9.86c.017-.611.592-1.114 1.257-1.114.682 0 1.257.485 1.257 1.114v10.902c0 .628-.575 1.113-1.257 1.113-.665 0-1.24-.503-1.257-1.113v-.162c-.54.88-1.563 1.347-2.515 1.347-2.137 0-4.077-1.581-4.077-4.364 0-2.784 1.94-4.347 4.077-4.347.539 0 1.796.234 2.515 1.347v-4.723zM106.94 61.665c0-1.096-.791-1.652-1.545-1.652-.79 0-1.652.413-1.652 1.688v3.412c0 .629-.575 1.114-1.258 1.114-.664 0-1.238-.503-1.256-1.114V54.211c.018-.61.592-1.113 1.256-1.113.683 0 1.258.485 1.258 1.113v4.85c.34-1.042 1.544-1.473 2.335-1.473 2.209 0 3.376 1.455 3.376 3.987v3.538c0 .629-.575 1.114-1.257 1.114-.665 0-1.24-.503-1.257-1.114v-3.448zM117.248 61.198c-.126-1.024-.827-1.527-1.76-1.527-.934 0-1.653.467-1.868 1.527h3.628zm1.113 4.346c-.844.557-1.904.755-2.891.755-2.407 0-4.383-1.742-4.383-4.382 0-2.641 1.976-4.329 4.383-4.329 2.388 0 4.292 1.76 4.292 4.4a.777.777 0 0 1-.772.772h-5.406c.125.97 1.185 1.384 2.065 1.384.503 0 .934-.036 1.455-.396.575-.395 1.22-.287 1.58.126.467.539.288 1.311-.323 1.67zM123.82 65.113c0 .63-.575 1.114-1.257 1.114-.665 0-1.24-.503-1.258-1.114V54.211c.018-.61.593-1.113 1.257-1.113.683 0 1.258.484 1.258 1.113v10.902zM130.554 59.833c-1.13 0-2.047 1.006-2.047 2.119 0 1.114.916 2.12 2.047 2.12 1.257 0 1.976-1.006 1.976-2.12 0-1.113-.719-2.119-1.976-2.119m.485-2.245c2.137 0 4.077 1.562 4.077 4.346s-1.94 4.365-4.077 4.365c-.952 0-1.976-.467-2.515-1.347v4.167c-.017.61-.592 1.113-1.257 1.113-.682 0-1.257-.485-1.257-1.113V58.773c0-.628.575-1.113 1.257-1.113.665 0 1.24.503 1.257 1.113v.162c.72-1.113 1.976-1.347 2.515-1.347M454.787 113.809c-.002-4.107-1-7.891-3-11.353-1.995-3.46-4.725-6.186-8.19-8.181-3.461-1.992-7.246-2.99-11.356-2.987-4.106.003-7.891 1.003-11.352 3-3.46 1.999-6.187 4.729-8.182 8.19-1.992 3.464-2.99 7.25-2.986 11.356.002 4.11 1.003 7.894 2.999 11.353 1.999 3.462 4.729 6.189 8.19 8.182 3.464 1.995 7.25 2.988 11.356 2.986 4.11-.002 7.895-1 11.354-3 3.46-1.995 6.188-4.725 8.18-8.19 1.996-3.461 2.989-7.246 2.987-11.356M409.736 142l9.683-.005c3.992 1.876 8.247 2.812 12.764 2.809a30.75 30.75 0 0 0 12.937-2.824l9.683-.005c4.695-.003 8.688 1.64 11.974 4.922 3.288 3.285 4.933 7.276 4.935 11.968l.01 18.308c0 1.172-.408 2.17-1.23 2.994-.82.82-1.818 1.233-2.992 1.234l-70.416.039c-1.172 0-2.171-.411-2.994-1.231-.82-.821-1.233-1.82-1.234-2.992l-.01-18.308c-.003-4.692 1.64-8.684 4.922-11.973 3.286-3.286 7.276-4.933 11.968-4.936" fill="#4C5C68"/><path d="M380.125 134.326l-6.85-6.849c-1.57-1.57-4.38-.409-4.38 1.815v4.154h-77.013c-3.302 0-3.307 5.131 0 5.131h77.014v4.212.2l.003.06a.049.049 0 0 1 0 .011c.028 1.173.712 1.918 1.573 2.233.859.425 1.923.391 2.804-.49.019-.019.037-.038.057-.056.027-.027.056-.054.083-.083l6.709-6.71c.979-.98.982-2.646 0-3.628" fill="#22B2AA"/><path d="M201.659 284.59c-1.168-1.41-2.443-3.222-3.581-5.12a46.36 46.36 0 0 1-1.631-2.966 46.995 46.995 0 0 1-1.223-2.642 46.18 46.18 0 0 1-2.928-10.892 22.39 22.39 0 0 0-.034-.317 47.033 47.033 0 0 1-.169-8.948c.179-2.337.467-4.127 1.07-6.599 1.13-4.622 2.638-8.245 5.09-12.273 2.3-3.778 4.847-6.828 8.299-9.904 1.754-1.563 2.96-2.48 4.963-3.782a46.431 46.431 0 0 1 5.927-3.26c.995-.456 1.485-.657 2.707-1.1a46.37 46.37 0 0 1 6.649-1.863 44.8 44.8 0 0 1 2.965-.487 47.581 47.581 0 0 1 7.16-.27c2.57.097 4.364.316 6.69.792 8.842 1.81 16.553 6.081 22.734 12.535 6.07 6.338 10.015 14.281 11.457 23.202.105.654.136.901.174 1.242.067.588.125 1.177.17 1.767.09 1.195.132 2.392.137 3.591-.02 4.821-.631 8.832-2.153 13.51-.756 2.32-1.34 3.732-2.415 5.85a46.423 46.423 0 0 1-3.586 5.916c-1.076 1.51-2.47 3.173-4.017 4.767a46.581 46.581 0 0 1-4.221 3.843c-.046.037-.395.308-.491.385a45.657 45.657 0 0 1-5.575 3.612 46.1 46.1 0 0 1-3.03 1.525c-.205.095-.412.187-.62.28l-.214.095-.118.048c-.58.24-1.165.463-1.754.678-4.453 1.618-8.744 2.451-13.167 2.62-2.39.092-4.786.002-7.161-.27-.775-.09-.46-.05-1.243-.176a45.66 45.66 0 0 1-5.263-1.17c-8.465-2.408-15.851-7.282-21.598-14.22m237.962-77.293c.425-.859.39-1.923-.49-2.804-.02-.018-.037-.037-.056-.056-.028-.028-.054-.056-.083-.083l-6.71-6.709c-.98-.98-2.646-.982-3.628 0l-6.85 6.848c-1.57 1.571-.408 4.38 1.815 4.38h3.785a63.7 63.7 0 0 1-.77 3.8 75.322 75.322 0 0 1-3.73 11.55c-.044.106-.09.212-.132.318-.224.506-.44 1.015-.666 1.52a82.076 82.076 0 0 1-1.557 3.267 87.65 87.65 0 0 1-3.783 6.751 92.739 92.739 0 0 1-4.933 7.175l-.31.405-.003.005a97.855 97.855 0 0 1-2.256 2.792 101.029 101.029 0 0 1-3.197 3.631 107.925 107.925 0 0 1-7.54 7.388 115.06 115.06 0 0 1-5.343 4.472l-.588.461c-.06.046-.098.077-.123.097l-.178.135c-.787.598-1.578 1.191-2.377 1.773-7.21 5.247-14.957 9.73-22.997 13.573a184.387 184.387 0 0 1-6.833 3.086c-.504.216-.025.014-.534.226l-.81.337a188.73 188.73 0 0 1-5.724 2.258 218.776 218.776 0 0 1-16.33 5.402c-12.867 3.72-26.032 6.368-39.285 8.266-12.957 1.855-26.022 2.96-39.101 3.54 13.427-7.196 23.386-20.547 25.739-35.847.406-2.639.645-5.287.655-7.957-.038-10.139-3.13-20.24-9.03-28.514-5.918-8.299-14.138-14.606-23.711-18.12-19.341-7.103-42.025-.89-55.047 15.064-6.523 7.992-10.443 17.684-11.231 27.98-.78 10.167 1.734 20.581 7.036 29.29 4.617 7.582 11.31 13.96 19.174 18.105-9.511-.425-19.008-1.13-28.471-2.186-13.882-1.547-27.695-3.876-41.25-7.266a239.259 239.259 0 0 1-17.5-5.073 208.001 208.001 0 0 1-7.82-2.776 191.057 191.057 0 0 1-6.938-2.778c-8.597-3.692-16.93-8.01-24.745-13.165a131.874 131.874 0 0 1-7.498-5.333l-.03-.023a117.51 117.51 0 0 1-1.94-1.537 113.068 113.068 0 0 1-8.121-7.238 102.988 102.988 0 0 1-6.826-7.388 95.077 95.077 0 0 1-1.474-1.807c-.23-.289-.457-.58-.686-.87l-.011-.015a1.945 1.945 0 0 0-.035-.046l-.352-.463a94.288 94.288 0 0 1-2.603-3.617 87.467 87.467 0 0 1-7.63-13.562c-.231-.518-.452-1.039-.68-1.559.326.744.04.093-.091-.227a78.994 78.994 0 0 1-1.436-3.759 75.772 75.772 0 0 1-1.681-5.393 68.557 68.557 0 0 1-1.078-4.59 63.283 63.283 0 0 1-.493-2.84l-.036-.252a83.97 83.97 0 0 1-.33-3.815c-.004-.055-.003-.11-.003-.167.003-3.302-5.128-3.307-5.131 0-.001.91.088 1.824.182 2.727a64.26 64.26 0 0 0 1.357 7.99 75.518 75.518 0 0 0 3.482 10.925 89.107 89.107 0 0 0 6.964 13.781c3.312 5.328 7.177 10.33 11.432 14.935 5.148 5.572 10.909 10.544 17.03 15.015 7.254 5.296 15.056 9.816 23.154 13.686 10.076 4.816 20.597 8.681 31.318 11.787 12.969 3.756 26.24 6.424 39.6 8.331 16.48 2.351 33.1 3.597 49.74 4.031 3.592.093 7.187.148 10.78.17 2.14.136 4.292.136 6.442-.003 16.288-.113 32.58-.92 48.77-2.747 14.2-1.603 28.337-3.947 42.204-7.425 11.379-2.853 22.547-6.494 33.337-11.106 8.662-3.702 17.054-8.077 24.913-13.278 6.584-4.357 12.827-9.284 18.46-14.82a102.845 102.845 0 0 0 12.71-15.13 87.462 87.462 0 0 0 7.707-13.678c1.762-3.926 3.269-7.967 4.396-12.123a67.402 67.402 0 0 0 1.587-7.552h4.553c.044.002.088.001.133 0h.066c.02 0 .039-.003.059-.003h.012c1.173-.028 1.918-.71 2.233-1.573M353.791 3.565h-.026c-24.995.014-45.32 20.361-45.306 45.356.015 24.987 20.348 45.306 45.331 45.306h.026c9.265-.006 18.172-2.786 25.758-8.042l.621-.43.484.378 17.131 4.88-5.532-16.899-.26-.84.25-.399a45.206 45.206 0 0 0 6.853-24.005c-.014-24.986-20.348-45.305-45.33-45.305zm0 92.714c-26.117.002-47.369-21.237-47.384-47.357-.014-26.127 21.23-47.395 47.357-47.409h.027c26.116 0 47.368 21.237 47.382 47.356a47.263 47.263 0 0 1-6.917 24.691l6.705 20.484-20.645-5.88c-7.837 5.305-16.988 8.11-26.499 8.115h-.027zM148.172 80.815c-12.83 12.097-32.494 15.363-48.495 7.791a47.783 47.783 0 0 1-6.562-3.793c-.67-.46-1.43-.432-2.115-.168l.09-.054-14.543 4.143c1.584-4.769 3.185-9.535 4.674-14.332.189-.38.275-.812.212-1.269a2.14 2.14 0 0 0-.536-1.275c-9.4-15.45-8.463-35.657 2.77-49.937 10.1-12.843 26.97-19.23 43.037-15.996 15.769 3.174 28.89 15.014 33.467 30.47 4.672 15.78-.035 33.14-12 44.42M166.51 41.31c-2.652-17.759-15.554-32.839-32.441-38.697-17.29-5.996-37.041-1.444-50.096 11.317-13.986 13.672-18.57 35.163-11.13 53.312a51.46 51.46 0 0 0 3.207 6.511c-1.895 6.055-3.956 12.063-5.93 18.093-.613 1.874 1.339 3.673 3.157 3.156 3.319-.946 6.639-1.89 9.958-2.837l6.628-1.887c.519-.148 1.053-.274 1.578-.424 16.619 10.842 39.036 10.523 55.183-1.156 7.1-5.137 12.854-12.069 16.35-20.126 3.736-8.605 4.92-17.988 3.536-27.262" fill="#C5C3C6"/><path d="M380.118 84.592l.114.067c-.695-.27-1.469-.304-2.138.155-8.318 5.707-18.206 8.453-28.28 7.765-8.044-.55-15.81-3.446-22.364-8.115-13.157-9.372-20.188-25.99-17.776-41.963 2.4-15.883 13.605-29.658 28.832-34.94 15.538-5.388 33.164-1.59 44.983 9.88 12.74 12.365 16.746 31.564 10.093 48.038-.894 2.214-2.02 4.335-3.263 6.372a2.136 2.136 0 0 0-.544 1.289c-.06.453.025.88.212 1.259 1.49 4.798 3.09 9.566 4.676 14.336l-14.545-4.143m15.042-10.84c10.146-17.3 8.604-39.42-3.78-55.194C380.077 4.164 361.207-2.587 343.312.944 325.745 4.41 311.163 17.9 306.091 35.03c-5.187 17.517.108 37.045 13.441 49.528 14.507 13.58 36.17 16.99 54.206 8.657a47.03 47.03 0 0 0 6.033-3.361c.524.15 1.058.276 1.576.423l6.628 1.888 9.96 2.836c1.816.518 3.768-1.281 3.155-3.156-1.974-6.03-4.035-12.037-5.93-18.093" fill="#C5C3C6"/></g></symbol><symbol id="logo" viewBox="0 0 245.9 236.3"><style>.dst0{fill:#fff}</style><path class="dst0" d="M148.1 86.7c-4.4-4.4-7.2-9-8.8-14.5-5.3 5-12.4 8.1-20.1 8.1-16.7 0-30.2-14.2-30.2-31.8 0-17.5 13.5-31.8 30.2-31.8s30.2 14.2 30.2 31.8v1.2c.1 15.9 1.7 22.2 7.3 27.9 6.7-9.7 9.5-17 10.3-24.5v-.4c.2-1.6.2-3.2.2-4.7 0-26.5-21.5-48-48-48s-48 21.5-48 48c0 1.5.1 3.1.2 4.7v.4c1.7 15.4 11.8 30.1 47.8 66.3 13-13.1 22.7-23.4 29.7-31.9l-.8-.8z"/><circle class="dst0" cx="119.2" cy="48.3" r="16.9"/><path class="dst0" d="M95.7 227.8c0 3.3-2.7 6.1-6.1 6.1-3.3 0-6-2.8-6-6.1v-84.7c0-3.3 2.7-6.1 6-6.1 3.4 0 6.1 2.8 6.1 6.1v84.7zM120.3 140.8c4.6 0 8.4 3.3 8.4 7.8s-3.7 7.8-8.4 7.8c-4.5 0-8.4-3.3-8.4-7.8 0-4.4 3.9-7.8 8.4-7.8zm6.1 36c0-3.3-2.7-6.1-6.1-6.1-3.3 0-6 2.8-6 6.1v51c0 3.3 2.7 6.1 6 6.1 3.4 0 6.1-2.8 6.1-6.1v-51zM164.8 224c6.2 0 10.9-3.3 10.9-8.2 0-4.5-3.6-6.8-8.2-7.8l-8.5-2c-10.5-2.8-16.7-8-16.7-17.8 0-10.2 9.1-18.2 21.6-18.2 8.1 0 15.9 2.9 19.5 10.1.5.9.7 2 .7 2.8 0 4-3.8 5.4-5.7 5.4-1.7 0-3-.9-4.4-2.7-2.8-3.7-6-5.2-9.8-5.2-5.8 0-9.7 3.4-9.7 8.1 0 4 3.8 6.2 7.8 7.2l9.1 2.3c12.9 3.2 16 11 16 18 0 11.5-11.1 18.6-24 18.6-9.5 0-19.4-5.3-22.3-14.8-.1-.7-.3-1.3-.3-1.9 0-3.2 3-4.8 5.8-4.8 2.1 0 4.2 1.1 5.2 3.4 1.9 4.6 6.8 7.5 13 7.5zM221.5 224c6.2 0 10.9-3.3 10.9-8.2 0-4.5-3.6-6.8-8.2-7.8l-8.5-2c-10.5-2.8-16.7-8-16.7-17.8 0-10.2 9.1-18.2 21.6-18.2 8.1 0 15.9 2.9 19.5 10.1.5.9.7 2 .7 2.8 0 4-3.8 5.4-5.7 5.4-1.7 0-3-.9-4.4-2.7-2.8-3.7-6-5.2-9.8-5.2-5.8 0-9.7 3.4-9.7 8.1 0 4 3.8 6.2 7.8 7.2l9.1 2.3c12.9 3.2 16 11 16 18 0 11.5-11.1 18.6-24 18.6-9.5 0-19.4-5.3-22.3-14.8-.1-.7-.3-1.3-.3-1.9 0-3.2 3-4.8 5.8-4.8 2.1 0 4.2 1.1 5.2 3.4 1.9 4.6 6.8 7.5 13 7.5zM65 202.4c0-17.9-14.5-32.5-32.5-32.5-17.9 0-32.5 14.5-32.5 32.5s14.5 32.5 32.5 32.5c7.7 0 14.8-2.7 20.4-7.2v.3c0 3.3 2.7 6.1 6 6.1 3.4 0 6.1-2.8 6.1-6.1v-25.6zM32.6 223c-11.4 0-20.6-9.2-20.6-20.6s9.2-20.6 20.6-20.6 20.6 9.3 20.6 20.6S43.9 223 32.6 223z"/></symbol><symbol id="mapping_services" viewBox="0 0 138.2 213.5"><style>.est0{fill:#c6c4c7}.est1{fill:#4c5c68}.st2{fill:none;stroke:#c6c4c7;stroke-width:14;stroke-miterlimit:10}.st2,.st3{fill-rule:evenodd;clip-rule:evenodd}</style><path class="est0" d="M66.9 213.5c-1 0-2.1-.6-3.3-1.3-2-1.2-3.2-2.3-4-3.1-.9-.9-1.2-1.1-1.7-1.1-.6 0-1 .5-1.7 1.3s-1.5 1.9-2.8 1.8c-2.2-.2-3.7-3.3-3.9-6-.2-2.2.6-3.5 2.1-6.1.5-.8 1-1.7 1.6-2.9 1.5-2.8 2-4 2.5-5.3.5-1.3 1.1-2.6 2.7-5.6.6-1.2 1.2-2.1 1.6-2.8 1.2-2.1 1.5-2.6 1.4-3.6-.1-1.2-.7-1.8-1.5-2.7-.9-.9-2-2.1-2.8-4.3-1.2-3.1-1.4-7.4.8-9.3 1-.8 2.1-1 2.9-1h.3c-.2-.3-.6-.8-1.2-1.2-.7-.5-1.4-.7-1.8-.5-.9.3-1.5 2-1.9 3.3-.5 1.5-.9 2.7-2 2.6-.9-.1-1.2-1-1.4-1.6-.1-.2-.2-.5-.3-.6-.2.2-.5.6-.7.9-.7.9-1.7 2.1-3.2 3.1-.9.6-3.5 2.3-5.7 1.4-3.2-1.2-3.4-6.5-3.4-7.6 0-2.1.5-3.3 1.1-4.7.5-1.1 1.1-2.5 1.7-4.8.5-2 .7-3.1.8-4.2.1-1.3.3-2.3 1.1-4.2.6-1.5 1.2-2.3 1.8-3.2.5-.7 1.1-1.5 1.8-2.9 1.6-2.8 2.8-5.5 3.3-7.1-1.2 1-3.5 3.4-8 9-.5.6-.9 1.1-1.3 1.6-2.3 2.9-3.6 4.5-6.3 5.6-3.1 1.3-6.5 1.3-8.1.6-.6-.3-1-.7-1.1-1.1-.3-1.1.7-2 1.7-2.8 1-.7 2.1-1.7 2.1-2.6 0-.7-.6-1.2-1.2-1.8-.7-.7-1.6-1.5-1.3-2.6.3-1.3 1.8-1.8 3.1-2.1.4-.1 1.7-.5 1.8-.7 0-.3-1-1.2-1.4-1.5-1-.9-2.2-1.9-1.9-3.1.3-1.4 2.1-1.6 3.9-1.8 1.8-.2 4-.5 4.7-1.7.2-.4.2-.6 0-1.2-.1-.7-.3-1.6-.1-3.1.2-1.8.9-2.7 1.6-3.8.6-.9 1.2-1.8 1.8-3.6.5-1.4 1.2-3.3 1-5.8-.1-1-.2-2.5-1.1-4-.4-.7-.8-1-1.1-1.3-.4-.4-.9-.8-1.1-1.6-.3-1.4.5-2.4 1.2-3.3.6-.8 1.1-1.4 1.1-2.3 0-.6-.2-.8-.6-1.3-.4-.5-1-1.2-1.2-2.5-.6-3.3 2-6.2 2.8-7 1.6-1.6 3.3-2.2 5.8-3 1.5-.5 2.7-.8 3.6-1 .5-.1 1.1-.3 1.4-.4-.2-.3-.7-.6-1-.9-1.1-.9-2.4-1.9-2.3-3.6.1-1 .6-1.5 1.3-2.1l1-1s1.7-1.9 2.9-4.6c.7-1.5.6-2.3.6-3.5 0-1-.1-2.3.4-4.3.5-2.2 1.6-6.4 4.5-7.4 1.5-.5 2.6.1 3.9.8 1.1.6 2.4 1.3 4.5 1.7 1.8.4 3.1.3 5.4.2 3.2-.1 5.9-.7 11.7-2 .9-.2 1.6-.4 2.2-.5 1.6-.4 2.1-.5 3.2-.5 1.9-.1 6.9-.3 9.1 3 1.4 2.1.9 4.5.7 5.8-.5 2.7-2 5-5.2 8.2-2.2 2.2-4 3.6-5.8 5-1.9 1.4-3.8 2.9-6.6 5.6-2.3 2.3-3.6 3.8-3.3 5.1.1.7.5 1 1.2 1.6.7.5 1.5 1.2 1.9 2.4 1 3.2-2.2 6.5-4.6 8.9l-.7.7c1.2-.5 2.9-1.3 4.9-2.4 2.1-1.2 3.3-2.1 4.3-2.9 1.1-.9 2-1.5 3.5-2.1 1.9-.7 2.9-.6 5.2-.3 1.3.1 3 .4 5.5.5 7.9.5 11.9.7 16.6 0 .3 0 .6-.1.8-.1 1.8-.3 3-.5 4.6.2 3.5 1.5 5.8 6.5 4.9 10.8-.4 2.1-1.4 3.1-2.4 4.1-.9.9-1.9 2-2.9 4.1-.8 1.8-.9 2.8-1 4-.1 1.2-.2 2.8-1.1 5.4-.7 2.1-1.2 3-1.9 4.1-.7 1.1-1.5 2.4-2.7 5.5-.5 1.3-.9 2.3-1.2 3.1-.7 1.8-1.1 2.9-2.3 4.4-.8 1-2.8 3.5-6.1 4.7-1.9.7-3.2.6-4.4.5-1.1-.1-2-.1-3.3.5-1.6.7-2.8 1.9-3.4 2.8h.1c1-.5 2.4-1.1 4-1.7.4-.1 1.7-.6 3.3-.8.5-.1.9-.1 1.1-.1 1.8 0 3.6 1.8 4.5 3.3 1.1 1.7 1.5 3.4.9 4.7-.6 1.5-2.1 1.7-3.7 1.9-1.6.2-3.6.4-5.9 1.9-1.2.8-1.8 1.4-2.5 2.2-.9 1-1.8 1.9-3.8 3a13 13 0 0 1-3.6 1.4c2.2.8 7.1 1.4 11.6-.3 1.3-.5 2.1-1 2.9-1.5 1.1-.7 2.1-1.3 3.9-1.4 4.1-.1 7.2 2.8 9.4 4.9.4.4.8.7 1.2 1.1 2.2 1.9 4.7 4.1 4 7-.4 1.9-1.6 2.4-2.7 2.9-1 .4-1.9.8-3 2.4-1.3 1.9-1 3.9-.6 6.1.3 2.2.7 4.7-.6 7.2-1 2-2.6 2.7-5 3.8-2.3 1-5.4 2.4-9.7 5.7-.4.3-.7.5-1.1.8-1.5 1.1-2.7 2.1-4.7 2.9-2.2.9-3.5 1.1-4.8 1.2-1 .1-2 .2-3.3.7-2.6 1-3.8 2.5-4.9 3.7-1.1 1.4-2.2 2.6-4.4 2.9l-.1-.9.1.9c-2.9.3-5.3-1.4-7.2-2.6-.7-.5-1.8-1.2-2.1-1.2-.2.2 0 1.5 0 2 .2 1.4.4 3-.8 3.7-.4.1-.7.2-1.1.2zm-8.9-7.4c1.2 0 2 .8 2.9 1.7.8.8 1.8 1.8 3.7 2.9.6.3 2.1 1.2 2.4 1 .2-.2.1-1.4 0-2-.2-1.3-.3-2.9.7-3.7 1.2-.9 2.7.1 4.3 1.1 1.7 1.1 3.7 2.5 5.9 2.3 1.5-.2 2.2-1 3.2-2.2 1.2-1.4 2.6-3.1 5.7-4.3 1.6-.6 2.7-.7 3.8-.8 1.2-.1 2.4-.3 4.3-1.1 1.8-.8 2.8-1.5 4.3-2.7.3-.3.7-.5 1.1-.8 4.5-3.4 7.7-4.8 10-5.9 2.2-1 3.4-1.5 4.1-3 1.1-2 .7-4 .4-6.1-.4-2.4-.8-4.9.9-7.4 1.3-2 2.8-2.6 3.8-3.1 1-.4 1.4-.6 1.6-1.6.4-1.8-1.5-3.4-3.4-5.2-.4-.4-.9-.8-1.3-1.1-2.1-2-4.8-4.5-8.1-4.4-1.3 0-1.9.4-2.9 1.1-.8.5-1.7 1.1-3.2 1.7-6.2 2.4-12.7.7-14.4-.4-.5-.4-.8-.8-.8-1.2 0-1 .9-1.2 1.8-1.4.9-.2 2.2-.6 3.8-1.5 1.7-.9 2.5-1.8 3.3-2.7.7-.8 1.5-1.6 2.8-2.5 2.6-1.7 5-2 6.7-2.2 1.5-.2 2-.3 2.2-.8.3-.7 0-1.8-.8-3-.9-1.4-2.2-2.4-3-2.4-.1 0-.3 0-.9.1-1.3.1-2.3.4-2.9.7-1.5.5-2.8 1.1-3.8 1.6-1.6.8-2.5 1.2-3.1.4-.3-.3-.3-.7-.2-1.2.3-1.4 2.3-4.1 5.2-5.4 1.7-.8 3-.7 4.2-.6 1.1.1 2.1.1 3.6-.4 2.8-1 4.5-3.1 5.3-4.1 1-1.3 1.3-2.1 2-3.9.3-.8.7-1.8 1.2-3.1 1.3-3.1 2.2-4.6 2.9-5.7.7-1.1 1.1-1.9 1.8-3.8.8-2.4.9-3.8 1-5 .1-1.3.2-2.6 1.1-4.7 1.1-2.4 2.3-3.6 3.2-4.6 1-1 1.6-1.6 1.9-3.2.7-3.4-1.2-7.6-3.8-8.8-1-.5-1.9-.3-3.5-.1-.3 0-.6.1-.9.1-4.8.7-8.9.5-16.9 0-2.6-.2-4.4-.4-5.6-.5-2.2-.3-2.9-.3-4.3.2-1.3.5-2 1-3.1 1.8-1 .8-2.3 1.7-4.5 3-.7.4-2.7 1.5-4.5 2.3-1.9.8-3.3 1.2-3.9.3-.7-1 .3-2 1.9-3.7 1.9-2 4.8-5 4.1-7.1-.2-.7-.7-1-1.2-1.5-.7-.6-1.6-1.3-1.9-2.7-.4-2.4 1.5-4.5 3.9-6.7 2.8-2.7 4.8-4.2 6.7-5.7 1.8-1.4 3.5-2.7 5.6-4.8 2.9-2.9 4.2-4.9 4.6-7.3.2-1.1.6-3-.4-4.5-1.6-2.4-5.8-2.2-7.4-2.2-.9 0-1.2.1-2.8.5-.6.1-1.3.3-2.2.5-5.5 1.3-8.5 1.9-12 2.1-2.4.1-3.9.2-5.9-.3-2.3-.5-3.9-1.3-5-1.9-1.2-.6-1.8-.9-2.5-.7-1.9.6-2.8 4.1-3.2 6-.4 1.7-.4 2.8-.3 3.8 0 1.3.1 2.4-.7 4.3-1.3 3-3.2 5.1-3.3 5.1-.4.5-.8.8-1.1 1.1-.6.5-.7.7-.7.9-.1.6.8 1.4 1.6 2 .9.8 2 1.6 1.7 2.8-.2 1.1-1.3 1.4-2.8 1.7-.9.2-2 .5-3.4 1-2.4.8-3.8 1.3-5.1 2.6-.5.5-2.7 2.9-2.3 5.4.1.8.4 1.1.8 1.6s1 1.2 1 2.4c0 1.6-.8 2.6-1.5 3.5-.6.8-.9 1.2-.8 1.7 0 .2.1.3.5.6s.9.8 1.5 1.7c1.2 1.9 1.3 3.7 1.4 4.8.2 2.9-.6 5.1-1.1 6.6-.7 2-1.4 3.1-2 4-.6 1-1.1 1.6-1.3 3-.2 1.2 0 1.9.1 2.5.2.7.3 1.5-.2 2.5-1.1 2.1-3.9 2.4-6.1 2.7-.8.1-2 .2-2.3.5.2.3.8.9 1.3 1.2 1.1.9 2.4 2 2 3.4-.3 1.3-1.8 1.7-3.1 2.1-.5.1-1.7.5-1.8.7 0 .2.5.6.8.9.7.7 1.7 1.6 1.8 3 .1 1.9-1.6 3.2-2.8 4.2-.3.2-.7.5-.9.8.9.4 3.7.6 6.6-.6 2.2-.9 3.3-2.3 5.5-5.1.4-.5.8-1 1.3-1.6.7-.9 3-3.6 5.1-6 1.2-1.4 2.2-2.4 3-3.1 1-.9 2-1.7 2.9-1.1.9.5.8 1.7-.4 4.5-.7 1.9-1.8 4.1-2.9 6-.8 1.4-1.4 2.3-1.9 3-.6.9-1.1 1.5-1.6 2.8-.7 1.6-.8 2.5-.9 3.7-.1 1-.3 2.3-.8 4.4-.7 2.4-1.3 3.9-1.8 5.1-.6 1.4-1 2.3-1 4 0 1.7.5 5.2 2.2 5.8 1.4.5 3.4-.8 4.1-1.2 1.3-.8 2.1-1.8 2.8-2.7.8-1 1.5-1.9 2.6-1.6.8.2 1.1.8 1.4 1.4.1-.2.1-.3.2-.5.6-1.8 1.3-4 3.1-4.5 1.6-.5 3.4.6 4.5 1.7.5.5 1.4 1.6 1 2.6-.3 1-1.3 1.1-2 1.1-.7.1-1.3.1-1.9.6-1.4 1.2-1.2 4.6-.2 7.2.7 1.8 1.6 2.8 2.4 3.7.9 1 1.8 2 2 3.8.2 1.6-.3 2.5-1.6 4.7-.4.7-1 1.6-1.6 2.8-1.5 2.8-2 4.1-2.6 5.4-.5 1.3-1 2.6-2.6 5.5-.6 1.2-1.2 2.1-1.6 2.9-1.4 2.5-2 3.5-1.9 5.1.2 2.2 1.4 4.2 2.2 4.3.3 0 .7-.4 1.2-1.1.7-.9 1.6-2 3.1-2-.5.2-.5.2-.4.2zM27.8 145"/><path class="est1" d="M54.8 73.8c1.4.9 2.6 2 3.5 3.5.9 1.4 1.3 3 1.3 4.7 0 1-.1 1.8-.3 2.6-.2.8-.7 1.7-1.3 2.9-.5.8-1.4 2.3-2.9 4.6l-2.9 4.6c-.3.5-.7.8-1.2 1-.5.2-1.1.2-1.6 0s-.9-.5-1.2-1l-2.9-4.6c-1.4-2.3-2.4-3.8-2.9-4.6-.7-1.2-1.1-2.2-1.3-2.9-.2-.8-.3-1.6-.3-2.6 0-1.7.4-3.3 1.3-4.7.9-1.4 2-2.6 3.5-3.5 1.4-.9 3-1.3 4.7-1.3 1.5 0 3.1.4 4.5 1.3zm-1.6 16.7c1.3-2.1 2.2-3.5 2.6-4.2.6-1 .9-1.8 1.1-2.3.2-.6.3-1.2.3-2 0-1.3-.3-2.5-1-3.6-.6-1.1-1.5-2-2.6-2.6-1.1-.6-2.3-1-3.6-1s-2.5.3-3.6 1c-1.1.6-2 1.5-2.6 2.6-.6 1.1-1 2.3-1 3.6 0 .8.1 1.4.3 2 .2.6.6 1.4 1.2 2.3.4.7 1.3 2.1 2.6 4.2 1.3 1.9 2.3 3.6 3.1 4.9l3.2-4.9zm-5.9-5.7c.8.8 1.7 1.2 2.8 1.2s2-.4 2.8-1.2c.7-.8 1.1-1.7 1.1-2.8 0-1.1-.4-2-1.2-2.8-.8-.8-1.7-1.2-2.8-1.2s-2 .4-2.8 1.2c-.8.8-1.2 1.7-1.2 2.8.1 1.1.5 2 1.3 2.8zM113.8 89.5c1.4.9 2.6 2 3.5 3.5.9 1.4 1.3 3 1.3 4.7 0 1-.1 1.8-.3 2.6-.2.8-.7 1.7-1.3 2.9-.5.8-1.4 2.3-2.9 4.6l-2.9 4.6c-.3.5-.7.8-1.2 1-.5.2-1.1.2-1.6 0s-.9-.5-1.2-1l-2.9-4.6c-1.4-2.3-2.4-3.8-2.9-4.6-.7-1.2-1.1-2.2-1.3-2.9-.2-.8-.3-1.6-.3-2.6 0-1.7.4-3.3 1.3-4.7.9-1.4 2-2.6 3.5-3.5 1.4-.9 3-1.3 4.7-1.3 1.5.1 3.1.5 4.5 1.3zm-1.6 16.7c1.3-2.1 2.2-3.5 2.6-4.2.6-1 .9-1.8 1.1-2.3.2-.6.3-1.2.3-2 0-1.3-.3-2.5-1-3.6-.6-1.1-1.5-2-2.6-2.6-1.1-.6-2.3-1-3.6-1s-2.5.3-3.6 1c-1.1.6-2 1.5-2.6 2.6-.6 1.1-1 2.3-1 3.6 0 .8.1 1.4.3 2 .2.6.6 1.4 1.2 2.3.4.7 1.3 2.1 2.6 4.2 1.3 1.9 2.3 3.6 3.1 4.9l3.2-4.9zm-5.9-5.7c.8.8 1.7 1.2 2.8 1.2 1.1 0 2-.4 2.8-1.2.8-.8 1.2-1.7 1.2-2.8s-.4-2-1.2-2.8c-.8-.8-1.7-1.2-2.8-1.2-1.1 0-2 .4-2.8 1.2-.8.8-1.2 1.7-1.2 2.8s.4 2.1 1.2 2.8zM73.5 131.3c1.4.9 2.6 2 3.5 3.5.9 1.4 1.3 3 1.3 4.7 0 1-.1 1.8-.3 2.6-.2.8-.7 1.7-1.3 2.9-.5.8-1.4 2.3-2.9 4.6l-2.9 4.6c-.3.5-.7.8-1.2 1-.5.2-1.1.2-1.6 0s-.9-.5-1.2-1l-2.9-4.6c-1.4-2.3-2.4-3.8-2.9-4.6-.7-1.2-1.1-2.2-1.3-2.9-.2-.8-.3-1.6-.3-2.6 0-1.7.4-3.3 1.3-4.7.9-1.4 2-2.6 3.5-3.5 1.4-.9 3-1.3 4.7-1.3 1.5 0 3.1.4 4.5 1.3zM71.9 148c1.3-2.1 2.2-3.5 2.6-4.2.6-1 .9-1.8 1.1-2.3.2-.6.3-1.2.3-2 0-1.3-.3-2.5-1-3.6-.6-1.1-1.5-2-2.6-2.6-1.1-.6-2.3-1-3.6-1s-2.5.3-3.6 1c-1.1.6-2 1.5-2.6 2.6-.6 1.1-1 2.3-1 3.6 0 .8.1 1.4.3 2 .2.6.6 1.4 1.2 2.3.4.7 1.3 2.1 2.6 4.2 1.3 1.9 2.3 3.6 3.1 4.9l3.2-4.9zm-5.9-5.7c.8.8 1.7 1.2 2.8 1.2 1.1 0 2-.4 2.8-1.2.8-.8 1.2-1.7 1.2-2.8s-.4-2-1.2-2.8c-.8-.8-1.7-1.2-2.8-1.2-1.1 0-2 .4-2.8 1.2-.8.8-1.2 1.7-1.2 2.8s.4 2 1.2 2.8z"/><path class="est0" d="M34.1 113c-.4 0-.8-.2-1.1-.4l-.2-.2c-1.6-1.3-2.3-1-2.9-.7-.5.2-1.5.7-2.3-.5-.2-.2-.3-.6-.5-1.1-.1-.3-.4-.9-.5-1-.5-.5-1.3-2.3-2.8-5.7-.1-.1-.1-.3-.2-.4 0 .1 0 .3-.1.4v.2c-.4 1.1-1 1.7-1.8 1.8-.6.1-1.4-.1-2.4-1.2-1.5-1.9-2.9-6.4-1.8-9.3v-.1c.3-.6.5-1.1.8-1.7 1-2.2 1.6-3.5 2.6-3.5.3 0 .8.1 1.1.7l.4.4c1.8 1.8 2.8 2.5 3.3 2.8 0-.3 0-.7-.1-1-.2-2-.4-5 2.2-6 .9-.3 1.7-.3 2.4.1 2.4 1.4 3.2 6.6 4 11.6.3 2.1.8 5 1.2 5.7.8 0 1.5.5 1.7 1.3.7 2-.7 6.5-2.3 7.5-.1.2-.4.3-.7.3zm-3.3-3.3c.8 0 1.9.3 3.3 1.5.4-.4 1.2-1.8 1.5-3.6.2-1.3 0-1.8-.1-1.9-.3 0-.7 0-1-.2-1-.7-1.4-2.9-2-7-.6-3.7-1.4-9.3-3.1-10.3-.2-.1-.4-.2-.9 0-1.3.5-1.3 2.1-1.1 4.2.1 1.4.2 2.6-.7 3-.9.4-1.9 0-5.5-3.4l-.2-.3c-.3.5-.7 1.4-1 2.1-.3.6-.5 1.1-.8 1.7-.6 1.6-.2 5.1 1.4 7.3.5.7.8.8.9.8 0 0 .2-.1.4-.6.2-1.5.6-2.5 1.1-3l.2-.2.2-.1c.3-.1.8 0 1.1.6.1.1.1.3.2.5.2.4.4 1 .7 1.6.7 1.6 2.2 4.9 2.5 5.3.2.3.4.7.8 1.5.1.3.3.7.4.8.1 0 .1 0 .2-.1.3 0 .8-.2 1.5-.2zm-4.2-.7s.1 0 0 0c.1 0 0 0 0 0zm9-3.3zM14.2 86.3c-.6 0-1.2-.1-1.9-.4-1.5-.6-3.2-1.8-2.9-3.7.3-2.2 3.3-4 5.8-4.6-.5-.2-1-.3-1.5-.5-3.2-1-5.4-1.7-5.7-3.2-.1-.5 0-1.2.9-2l.1-.1.1-.1c.7-.2 1.1-.5 1.2-.8.1-.2 0-.6-.1-1-.1-.6-.3-1.4.1-2.2 1.3-2.4 2.7-3.4 4.6-4.6l.9-.6c1.3-.9 2.7-2.2 4.1-3.6 2.3-2.2 4.6-4.6 7.3-5.4 2.3-.8 4-.6 5 .4 1.9 1.9.9 5.9-.4 9.9-1.9 6.3-4.8 10.9-9.6 15.4-.8.7-1.6 1.8-2.4 2.8-1.4 2-3.1 4.3-5.6 4.3zM9.7 73.6c.1.1.4.4 1.4.8.9.4 2 .7 3.1 1 2.5.7 3.8 1.1 3.9 2.2 0 .6-.3 1-1.1 1.4H16.7c-2.1.2-5.4 2-5.6 3.4-.1.8 1.1 1.5 1.9 1.8 2.2.9 3.5-.6 5.4-3.2.8-1.1 1.6-2.3 2.6-3.1 4.6-4.4 7.3-8.6 9.1-14.6.7-2.2 2.1-6.8.8-8.1-.7-.6-2.1-.3-3.2 0-2.3.7-4.5 2.9-6.6 5-1.5 1.5-2.9 2.8-4.3 3.8l-.9.6c-1.8 1.2-2.9 1.9-4 4-.1.2 0 .5.1 1 .2 1 .6 2.7-2.1 3.8-.1.1-.2.1-.2.2zM26.9 176.3c-1.3 0-2.5-.8-3.1-1.4-1.4-1.2-.3-2.7.2-3.4.1-.1.2-.2.3-.4-.2-.1-.5-.1-1-.2-1.7.2-2.8-.1-3.3-1-.4-.7-.3-1.6.2-2.7.4-.8 1-1.7 1.8-2.7 1.5-1.7 4.6-4.5 6.7-3.7.4.1.8.4 1.1 1 .7-.9 1.4-2.3 2.1-3.7 2.2-4.1 4.5-8.3 7.5-7.6.6.1 1.1.6 1.3 1.2.7 1.9-1.1 5.6-1.6 6.8-1.1 2.4-2.5 4.8-3.2 5.6-.8.9-2.1 1.7-3.5 2.4-1.1.6-2.4 1.3-2.6 1.8-.2.5-.1 1 .3 1.8.4 1 .9 2.2.2 3.5-.7 1.4-1.6 2.3-2.7 2.5-.3.1-.5.2-.7.2zm-3.7-7.1h.1c1.2.1 2.4.3 2.7 1.2.4.8-.2 1.5-.6 2.1-.6.8-.5.9-.4 1 .4.3 1.3 1.1 2.2.9.5-.1 1-.6 1.5-1.5.3-.6.1-1.2-.3-2.1-.4-.9-.8-2-.2-3.2.5-1 1.8-1.7 3.4-2.6 1.1-.6 2.4-1.3 2.9-1.9.6-.7 2-3.2 3.2-5.7 1.6-3.6 1.5-4.9 1.3-5.1-1.7-.4-3.9 3.7-5.5 6.7-1.3 2.5-2.5 4.6-3.7 5.4l-1.4.9v-1.6c0-.7-.1-1.1-.4-1.2-.7-.3-2.9 1-4.8 3.2-1.6 1.9-1.9 3.1-1.7 3.4.1.1.4.3 1.6.1h.1zM3.1 114.1c-.8 0-1.5-.2-2-.7-2-1.8-.8-6.2.1-10.1.3-1.2.6-2.3.7-3.1.1-.5.2-1 .3-1.4.2-1 .4-1.9.3-2.7-.1-.4-.6-.9-1-1.3-.5-.6-1-1.1-1.1-1.7-.4-2.8 0-3.5 1.5-4.3.6-.2 1.3-.6 2.1-1.8l.3-.4v-.1c.3-.7.7-1.8 1.9-2.3.9-.3 2-.2 3.3.5l.1.1.1.2c1.8 1.3 1.9 4.3.2 9.4-1 3.2-2.4 6-2.7 6.6-.1.8-1 5.8-.6 8.2.3 1.8-.5 4-1 4.4-.1.1-.3.2-.4.2-.7.2-1.5.3-2.1.3zm-.9-21.2c.1.2.4.5.6.8.6.6 1.2 1.3 1.4 2.1.3 1.2 0 2.4-.3 3.5-.1.4-.2.9-.3 1.3-.1.9-.4 2-.7 3.3-.7 2.7-1.9 7.2-.7 8.3.5.4 1.4.3 2.3 0 .2-.5.6-1.6.4-2.6-.5-2.9.5-8.7.6-8.9v-.1l.1-.1c2.4-4.8 5.1-12.6 3.1-13.9l-.1-.1c-.8-.5-1.4-.7-1.7-.5-.4.2-.7.8-.9 1.3-.1.4-.3.8-.7 1-1.1 1.4-2 1.8-2.6 2.2-.4.2-.5.3-.6.4-.1.2-.1.9.1 2zm0 0zM99.6 48c-.4 0-.9-.1-1.4-.2-2.1-.7-4.2-3.2-4.7-5.8v-.4c.3-2.2 1.4-2.8 2.2-2.9 2.4-.3 5.4 3.4 6.4 5.6.6 1.3.6 2.2-.1 2.8-.7.6-1.5.9-2.4.9zm-4.3-6.2c.5 1.9 2 3.8 3.5 4.3.7.3 1.4.2 2-.3 0-.4-.5-1.5-1.6-2.9s-2.3-2.3-3-2.5c-.2 0-.7 0-.9 1.4zM108.8 43c-.2 0-.4 0-.5-.1l-2.1-.4h-.1c-.3-.1-8.2-2.7-11.1-7.5-2-3.2-1-5-.3-5.8 1.3-1.4 3.8-1.6 5.9-.5 2.1 1.1 3 3.1 2.5 5.4V34.4c.3.2 1.2.4 1.8.6 1.2.3 2.5.6 3.3 1.3 3.6 2.8 3 4.9 2.7 5.4-.6.9-1.3 1.3-2.1 1.3zm-2.3-2.1l2.1.4c.1 0 .4.1.5-.2.2-.5-.2-1.7-2.2-3.3-.4-.4-1.5-.7-2.4-.9-1.3-.3-2.6-.6-3-1.5-.2-.3-.3-.8 0-1.5.4-2-.8-2.9-1.6-3.3-1.3-.7-3-.7-3.8.1-.7.7-.5 2 .5 3.6 2.3 3.9 9.3 6.3 9.9 6.6zM36.3 191.2c-.3 0-.6 0-.9-.1-1.2-.2-1.8-.8-2-1.3-.6-1-.2-2.2-.1-2.6.1-.4.4-.8.8-1.1l.8-.8c.2-.6.1-1.1 0-1.9v-.1c-.3-1.8.9-3 1.9-4 .5-.5 1-.9 1.1-1.3.1-.3-.6-1.2-1.1-1.8-.6-.8-1.3-1.6-1.5-2.5-.4-1.4-.3-2.7.4-3.6.6-1 1.7-1.5 3.3-1.7 1.5-.2 2.7.5 3.5 1.8.6 1 .8 2.3 1.1 3.5.2.8.3 1.5.5 1.9.9 1.4-.3 3.8-1.6 6.4-.5 1.1-1.1 2.2-1.2 2.9-.1.2-.1.5-.2.8-.3 1.5-.6 3.8-2.2 5-1 .3-1.7.5-2.6.5zm-1.3-3.6v.1c-.1.2-.3.9-.1 1.2.1.2.4.3.8.4.8.1 1.4 0 1.8-.3 1-.7 1.3-2.5 1.5-3.8.1-.3.1-.7.2-1 .2-.8.7-2 1.4-3.3.5-1.1 1.1-2.2 1.4-3.1.4-1.3.3-1.6.3-1.6-.4-.6-.5-1.5-.7-2.4-.6-2.8-1.1-4-2.6-3.8-1 .1-1.6.4-2 .9-.5.7-.3 1.6-.1 2.1.2.6.7 1.2 1.2 1.9.9 1.1 1.8 2.3 1.4 3.5-.3.8-.9 1.4-1.5 2-.9.9-1.5 1.6-1.4 2.4v.1c.2.9.5 2.1-.2 3.3l-.1.2-.2.1-1.1 1.1zM48.7 184c-1.6 0-2.4-2.4-3-4.8-1.4-5.3-.4-7.4.7-8.2.8-.6 2-.7 3.1 0 .9.5 1.6 1.4 2.1 2.5.5 1.2.7 2.5.5 3.9 0 .1-.2 1.5-.7 3-.8 2.4-1.6 3.5-2.7 3.6zm-.9-11.7c-.1 0-.3 0-.4.1-.7.5-1.1 2.5-.1 6.3.6 2.4 1.1 3.1 1.3 3.4.5-.6 1.2-2.8 1.6-5.1.3-2.2-.6-4-1.7-4.6-.2 0-.4-.1-.7-.1zM129.6.4c.7-.4 1.5-.4 2.3-.1 1.1.4 2 1.5 2.2 2.7.2.8.2 1.6.2 2.3 0 .7 0 1.4.2 2 .2.8.7 1.6 1.3 2.4.6.9 1.2 1.8 1.5 2.9.6 1.9 0 3.8-.5 5.7-.1.4-.2.7-.3 1.1-.6 2.1-.7 4.3-.5 6.5v.4c.1.9.2 2-.1 3.1-.4 1.2-1.5 2.4-2.9 2.4h-.5c-1.4-.3-2.4-1.7-2.5-3.9-.1-1.5 0-3 .3-4.5v-.3c.3-1.4.6-3-.3-3.7-.4-.4-1.1-.5-1.8-.7-1.1-.3-2.4-.6-3-1.8-.4-.8-.4-1.6 0-2.5.6-1.1 1.8-2 3.1-2.2h.2c.2 0 .5-.1.6-.1V12c0-.3-.3-.7-.7-1-.3-.1-.5-.2-.8-.4-.8-.3-1.6-.6-2.2-1.4-1-1.4-.2-2.9.5-4 .2-.4.5-.8.6-1.1.5-1.2 1.3-2 2-2.8.4-.2.9-.7 1.1-.9zm1 1.5l-.6.6c-.7.7-1.3 1.3-1.7 2.3-.2.5-.5.9-.7 1.3-.7 1.1-.9 1.6-.6 2 .3.4.8.6 1.4.8.3.1.7.3 1 .4.9.5 1.6 1.4 1.6 2.4.1.7-.2 1.3-.7 1.7-.5.4-1 .4-1.4.5h-.2c-.7.1-1.5.6-1.8 1.2-.2.5-.1.7 0 .8.3.5.9.7 1.9.9.9.2 1.8.5 2.6 1.2 1.5 1.4 1.1 3.6.8 5.4v.3c-.2 1.3-.3 2.7-.2 4.1.1 1 .4 2.1 1.1 2.2.6.1 1.1-.5 1.3-1.1.2-.7.1-1.5.1-2.4V26c-.2-2.4 0-4.8.6-7.1l.3-1.2c.5-1.7.9-3.2.5-4.7-.2-.8-.7-1.6-1.3-2.4-.6-.9-1.2-1.8-1.5-2.9-.2-.8-.3-1.7-.3-2.5 0-.7 0-1.3-.2-1.9-.2-.6-.7-1.3-1.2-1.5-.5 0-.7.1-.8.1z"/></symbol><symbol viewBox="0 0 314 258" id="recommendations"><title>Page 1</title><g fill="none" fill-rule="evenodd"><path d="M6.019 42.499a3.373 3.373 0 0 0-3.37 3.369V251.4a3.374 3.374 0 0 0 3.37 3.37h301.116a3.373 3.373 0 0 0 3.37-3.37V45.868a3.373 3.373 0 0 0-3.37-3.37H6.019zm301.116 214.92H6.019a6.026 6.026 0 0 1-6.02-6.02V45.869a6.027 6.027 0 0 1 6.02-6.02h301.116c3.32 0 6.02 2.702 6.02 6.02V251.4c0 3.319-2.7 6.019-6.02 6.019z" fill="#C5C3C6"/><path d="M5.188 4.288V9.3h3.385c1.471 0 2.246-1.343 2.246-2.506 0-1.11-.723-2.506-2.144-2.506H5.188zm5.398 7.725l2.894 4.16c.518.774.181 1.937-.697 2.453-.826.491-1.963.26-2.454-.516l-3.41-5.632H5.188v4.65c0 .956-.853 1.757-1.886 1.757-.982 0-1.885-.827-1.885-1.757V2.893C1.44 1.834 2.087.955 3.224.955h5.451c3.98 0 5.865 2.842 5.916 5.736-.077 2.325-1.368 4.547-4.005 5.322zM24.9 11.651c-.182-1.473-1.189-2.196-2.533-2.196-1.343 0-2.377.672-2.687 2.196h5.22zm1.601 6.252c-1.214.801-2.739 1.085-4.16 1.085-3.462 0-6.303-2.506-6.303-6.304 0-3.797 2.841-6.226 6.303-6.226 3.436 0 6.175 2.532 6.175 6.33a1.12 1.12 0 0 1-1.11 1.111h-7.778c.181 1.395 1.706 1.99 2.972 1.99.723 0 1.343-.053 2.093-.57.826-.568 1.756-.413 2.273.181.671.776.413 1.886-.465 2.403zM36.705 15.5c.646 0 1.266-.18 1.783-.464.646-.362 1.705-.517 2.351.129.723.723.62 2.04-.233 2.635-1.085.775-2.454 1.189-3.9 1.189-3.463 0-6.614-2.43-6.614-6.227v-.077c0-3.798 3.151-6.226 6.613-6.226 1.447 0 2.816.413 3.901 1.188.853.594.956 1.912.233 2.635-.646.646-1.705.49-2.35.129a3.737 3.737 0 0 0-1.784-.464c-1.55 0-2.944 1.059-2.944 2.738v.077c0 1.68 1.394 2.739 2.944 2.739M52.128 12.685c0-1.627-1.24-2.738-2.738-2.738-1.473 0-2.713 1.11-2.713 2.738 0 1.654 1.24 2.816 2.713 2.816 1.498 0 2.738-1.162 2.738-2.816m-9.068 0c0-3.798 2.816-6.226 6.33-6.226 3.513 0 6.355 2.428 6.355 6.226s-2.842 6.304-6.355 6.304c-3.514 0-6.33-2.506-6.33-6.304M77.188 17.284c0 .904-.828 1.602-1.81 1.602-.956 0-1.782-.724-1.808-1.602v-4.96c0-1.576-.955-2.403-2.015-2.403-1.137 0-2.04.697-2.04 2.454v4.909c0 .904-.828 1.602-1.808 1.602-.957 0-1.784-.724-1.81-1.602v-5.038c0-1.524-.956-2.325-1.989-2.325-1.084 0-2.093.62-2.093 2.454v4.909c0 .904-.826 1.602-1.808 1.602-.956 0-1.782-.724-1.808-1.602v-9.12c.026-.878.852-1.603 1.808-1.603.982 0 1.809.699 1.809 1.603v.284c.567-1.267 1.86-1.99 3.15-1.99 1.913 0 3.178.62 3.98 2.274.879-1.911 2.66-2.3 3.514-2.3 2.868 0 4.702 1.835 4.728 5.477v5.374zM99.12 17.284c0 .904-.826 1.602-1.808 1.602-.956 0-1.783-.724-1.808-1.602v-4.96c0-1.576-.956-2.403-2.016-2.403-1.137 0-2.04.697-2.04 2.454v4.909c0 .904-.827 1.602-1.809 1.602-.957 0-1.783-.724-1.809-1.602v-5.038c0-1.524-.955-2.325-1.989-2.325-1.085 0-2.092.62-2.092 2.454v4.909c0 .904-.827 1.602-1.809 1.602-.956 0-1.783-.724-1.808-1.602v-9.12c.025-.878.852-1.603 1.808-1.603.982 0 1.81.699 1.81 1.603v.284c.566-1.267 1.858-1.99 3.15-1.99 1.912 0 3.178.62 3.98 2.274.878-1.911 2.66-2.3 3.512-2.3 2.87 0 4.703 1.835 4.728 5.477v5.374zM110.332 11.651c-.181-1.473-1.188-2.196-2.532-2.196s-2.377.672-2.687 2.196h5.219zm1.602 6.252c-1.214.801-2.739 1.085-4.16 1.085-3.462 0-6.303-2.506-6.303-6.304 0-3.797 2.841-6.226 6.303-6.226 3.436 0 6.175 2.532 6.175 6.33a1.12 1.12 0 0 1-1.111 1.111h-7.777c.181 1.395 1.706 1.99 2.971 1.99.724 0 1.344-.053 2.093-.57.827-.568 1.757-.413 2.273.181.672.776.414 1.886-.464 2.403zM119.735 8.448c.646-1.214 2.066-2.015 3.487-2.015 2.713 0 4.445 1.679 4.445 5.115v5.736c0 .904-.828 1.6-1.81 1.6-.955 0-1.782-.722-1.808-1.6v-4.961c0-1.602-.878-2.402-2.092-2.402-1.266 0-2.222.62-2.222 2.454v4.909c0 .904-.827 1.6-1.809 1.6-.956 0-1.782-.722-1.808-1.6v-9.12c.026-.88.852-1.602 1.808-1.602.982 0 1.81.698 1.81 1.602v.284zM136.63 15.785c1.628 0 2.945-1.447 2.945-3.049 0-1.601-1.317-3.048-2.944-3.048-1.81 0-2.843 1.447-2.843 3.048 0 1.602 1.033 3.049 2.843 3.049zm2.92-14.183c.025-.879.852-1.602 1.809-1.602.98 0 1.808.697 1.808 1.602v15.682c0 .904-.827 1.601-1.808 1.601-.957 0-1.784-.723-1.81-1.601v-.233c-.774 1.266-2.247 1.938-3.616 1.938-3.074 0-5.864-2.274-5.864-6.278 0-4.005 2.79-6.252 5.864-6.252.775 0 2.584.335 3.617 1.937V1.602zM152.26 15.785c1.628 0 2.945-1.447 2.945-3.049 0-1.601-1.317-3.048-2.945-3.048-1.81 0-2.842 1.447-2.842 3.048 0 1.602 1.033 3.049 2.842 3.049zm2.92-7.621c.025-.879.852-1.602 1.809-1.602.98 0 1.807.698 1.807 1.602v9.12c0 .904-.826 1.601-1.807 1.601-.957 0-1.784-.723-1.81-1.601v-.233c-.774 1.266-2.247 1.938-3.616 1.938-3.074 0-5.865-2.274-5.865-6.278 0-4.005 2.79-6.252 5.865-6.252.775 0 2.584.335 3.617 1.937v-.232zM162.903 6.691V3.539c.025-.878.853-1.602 1.81-1.602.98 0 1.807.698 1.807 1.602v3.152h1.37c.722 0 1.29.646 1.29 1.421 0 .749-.568 1.395-1.29 1.421h-1.37v7.751c0 .904-.827 1.601-1.808 1.601-.956 0-1.784-.723-1.809-1.601V9.533h-.982c-.723-.026-1.29-.672-1.29-1.421 0-.775.567-1.421 1.29-1.421h.982zM174.58 17.284c0 .904-.826 1.602-1.809 1.602-.956 0-1.782-.724-1.807-1.602v-9.12c.025-.878.851-1.603 1.807-1.603.983 0 1.81.699 1.81 1.603v9.12zM172.771.128c1.215 0 2.197.905 2.197 2.092 0 1.188-.982 2.12-2.197 2.12-1.213 0-2.247-.932-2.247-2.12 0-1.188 1.034-2.093 2.247-2.093zM186.102 12.685c0-1.627-1.24-2.738-2.739-2.738-1.472 0-2.712 1.11-2.712 2.738 0 1.654 1.24 2.816 2.712 2.816 1.5 0 2.74-1.162 2.74-2.816m-9.069 0c0-3.798 2.817-6.226 6.33-6.226 3.512 0 6.355 2.428 6.355 6.226s-2.843 6.304-6.356 6.304c-3.512 0-6.328-2.506-6.328-6.304M195.79 8.448c.645-1.214 2.066-2.015 3.487-2.015 2.713 0 4.444 1.679 4.444 5.115v5.736c0 .904-.827 1.6-1.809 1.6-.956 0-1.782-.722-1.809-1.6v-4.961c0-1.602-.877-2.402-2.092-2.402-1.266 0-2.222.62-2.222 2.454v4.909c0 .904-.826 1.6-1.808 1.6-.956 0-1.783-.722-1.808-1.6v-9.12c.025-.88.852-1.602 1.808-1.602.982 0 1.808.698 1.808 1.602v.284zM206.795 14.622a1.624 1.624 0 0 1 1.937.44c.646.697 1.42 1.06 2.274 1.06.8 0 1.55-.13 1.55-.75 0-.518-.31-.698-1.19-.982l-1.368-.49c-3.617-1.216-3.591-2.92-3.591-4.032 0-1.782 2.145-3.436 4.676-3.436 1.732 0 3.514.543 4.34 1.99.439.775.233 1.524-.31 1.834-.8.465-1.55.284-2.298-.284-.518-.388-.983-.543-1.448-.543-.774 0-1.317.258-1.317.724 0 .387.309.62 1.033.852l1.835.62c2.919.956 3.28 2.842 3.28 3.617 0 2.558-2.686 3.772-5.218 3.772-1.938 0-4.211-.8-4.831-2.583-.258-.75.05-1.55.646-1.809M28.398 79.703h5.141c.852 0 1.55.749 1.55 1.653 0 .853-.722 1.628-1.55 1.654h-7.415c-.955 0-1.497-.724-1.497-1.602V66.837c.024-.93.904-1.757 1.885-1.757 1.032 0 1.886.8 1.886 1.757v12.866zM45.112 76.939c0-1.628-1.239-2.74-2.738-2.74-1.473 0-2.713 1.112-2.713 2.74 0 1.653 1.24 2.816 2.713 2.816 1.5 0 2.738-1.163 2.738-2.816m-9.068 0c0-3.798 2.816-6.226 6.33-6.226 3.513 0 6.355 2.428 6.355 6.226s-2.842 6.304-6.355 6.304c-3.514 0-6.33-2.506-6.33-6.304M57.203 79.754c.646 0 1.266-.18 1.782-.465.646-.362 1.705-.517 2.351.13.723.723.62 2.04-.233 2.635-1.085.774-2.454 1.188-3.9 1.188-3.463 0-6.614-2.429-6.614-6.227v-.077c0-3.798 3.151-6.226 6.614-6.226 1.446 0 2.815.413 3.9 1.188.853.594.956 1.912.233 2.635-.646.646-1.705.491-2.35.13a3.72 3.72 0 0 0-1.783-.465c-1.55 0-2.945 1.06-2.945 2.738v.077c0 1.68 1.394 2.74 2.945 2.74M70.145 80.039c1.627 0 2.945-1.447 2.945-3.048 0-1.602-1.318-3.05-2.945-3.05-1.808 0-2.843 1.448-2.843 3.05 0 1.6 1.034 3.048 2.843 3.048zm2.92-7.621c.025-.88.852-1.602 1.809-1.602.98 0 1.808.698 1.808 1.602v9.12c0 .904-.828 1.6-1.808 1.6-.957 0-1.784-.722-1.81-1.6v-.233c-.774 1.266-2.247 1.938-3.616 1.938-3.074 0-5.864-2.274-5.864-6.278 0-4.005 2.79-6.252 5.864-6.252.775 0 2.584.336 3.617 1.937v-.232zM83.398 81.537c0 .904-.827 1.602-1.809 1.602-.956 0-1.783-.724-1.808-1.602V65.855c.025-.878.852-1.602 1.808-1.602.982 0 1.81.698 1.81 1.602v15.682zM93.524 77.3a1.842 1.842 0 0 1 2.325.904c.388.801 1.266 1.68 2.867 1.68 1.525 0 2.584-.724 2.61-1.886.026-.802-.336-1.499-2.144-2.016l-2.144-.594c-3.927-1.214-4.599-3.462-4.599-5.064 0-3.177 2.713-5.322 6.122-5.322 2.56 0 4.47 1.111 5.426 2.971.44.853.078 1.68-.568 2.093-.93.594-1.757.336-2.377-.439a3.145 3.145 0 0 0-2.532-1.24c-1.318 0-2.299.775-2.299 1.834 0 .465.18 1.318 1.912 1.808l2.118.621c4.314 1.24 4.934 3.668 4.883 5.373-.052 3.54-3.255 5.22-6.408 5.22-3.15 0-5.424-1.525-6.2-3.825-.284-.904.13-1.782 1.008-2.118M115.277 81.253c-.646 1.214-2.067 1.989-3.488 1.989-2.712 0-4.444-1.343-4.444-4.779v-6.045c0-.905.828-1.602 1.81-1.602.955 0 1.781.723 1.808 1.602v4.96c0 1.602.593 2.376 2.091 2.376 1.267 0 2.223-.594 2.223-2.428v-4.908c0-.905.826-1.602 1.81-1.602.954 0 1.781.723 1.806 1.602v9.119c-.025.879-.852 1.602-1.807 1.602-.983 0-1.809-.698-1.809-1.602v-.284zM128.53 73.942c-1.628 0-2.945 1.447-2.945 3.049 0 1.6 1.317 3.048 2.945 3.048 1.808 0 2.842-1.447 2.842-3.048 0-1.602-1.034-3.05-2.842-3.05m.697-3.228c3.074 0 5.865 2.247 5.865 6.252 0 4.004-2.79 6.278-5.865 6.278-1.369 0-2.842-.672-3.617-1.938v5.994c-.025.878-.852 1.6-1.809 1.6-.98 0-1.808-.696-1.808-1.6V72.418c0-.904.827-1.602 1.808-1.602.957 0 1.784.723 1.81 1.602v.232c1.032-1.602 2.841-1.937 3.616-1.937M144.16 73.942c-1.629 0-2.946 1.447-2.946 3.049 0 1.6 1.317 3.048 2.945 3.048 1.81 0 2.842-1.447 2.842-3.048 0-1.602-1.033-3.05-2.842-3.05m.697-3.228c3.074 0 5.865 2.247 5.865 6.252 0 4.004-2.79 6.278-5.865 6.278-1.369 0-2.842-.672-3.616-1.938v5.994c-.026.878-.852 1.6-1.809 1.6-.982 0-1.808-.696-1.808-1.6V72.418c0-.904.826-1.602 1.808-1.602.957 0 1.783.723 1.81 1.602v.232c1.032-1.602 2.841-1.937 3.615-1.937M161.675 76.939c0-1.628-1.24-2.74-2.74-2.74-1.471 0-2.711 1.112-2.711 2.74 0 1.653 1.24 2.816 2.712 2.816 1.499 0 2.739-1.163 2.739-2.816m-9.068 0c0-3.798 2.816-6.226 6.329-6.226s6.355 2.428 6.355 6.226-2.842 6.304-6.355 6.304c-3.513 0-6.33-2.506-6.33-6.304M176.762 72.701c-.13.905-.982 1.319-1.783 1.319-.258 0-.646-.026-.878-.026-2.016 0-2.688 1.55-2.74 4.573v2.97c0 .904-.826 1.602-1.807 1.602-.956 0-1.783-.724-1.81-1.602v-9.12c.027-.877.854-1.602 1.81-1.602.98 0 1.808.698 1.808 1.603v1.316c.67-2.246 1.938-3.021 3.177-3.021 1.189 0 2.455.284 2.223 1.989M179.474 70.945v-3.152c.025-.878.853-1.602 1.809-1.602.98 0 1.808.698 1.808 1.602v3.152h1.369c.723 0 1.29.646 1.29 1.42 0 .75-.567 1.396-1.29 1.422h-1.37v7.75c0 .905-.826 1.602-1.807 1.602-.956 0-1.784-.723-1.81-1.602v-7.75h-.981c-.723-.026-1.291-.672-1.291-1.421 0-.775.568-1.421 1.29-1.421h.983zM202.052 83.242a9.063 9.063 0 0 1-9.12-9.094c0-5.063 4.005-9.146 9.12-9.146 2.196 0 4.057.672 5.555 1.861.672.516.568 1.99-.155 2.635-.671.568-1.628.594-2.273.13-.827-.62-1.94-.957-3.127-.957-2.997 0-5.348 2.455-5.348 5.477 0 2.997 2.35 5.426 5.348 5.426 2.04 0 3.617-.905 4.393-2.842h-3.514c-.801 0-1.525-.724-1.525-1.525 0-.878.698-1.55 1.525-1.55h6.64c.877 0 1.213.465 1.11 1.421-.62 5.658-3.9 8.164-8.63 8.164M221.764 72.701c-.13.905-.981 1.319-1.783 1.319-.258 0-.646-.026-.878-.026-2.016 0-2.687 1.55-2.738 4.573v2.97c0 .904-.828 1.602-1.81 1.602-.955 0-1.782-.724-1.808-1.602v-9.12c.026-.877.853-1.602 1.809-1.602.98 0 1.809.698 1.809 1.603v1.316c.67-2.246 1.937-3.021 3.177-3.021 1.189 0 2.454.284 2.222 1.989M231.632 76.939c0-1.628-1.24-2.74-2.738-2.74-1.473 0-2.713 1.112-2.713 2.74 0 1.653 1.24 2.816 2.713 2.816 1.498 0 2.738-1.163 2.738-2.816m-9.068 0c0-3.798 2.816-6.226 6.33-6.226 3.513 0 6.355 2.428 6.355 6.226s-2.842 6.304-6.355 6.304c-3.514 0-6.33-2.506-6.33-6.304M245.556 81.253c-.646 1.214-2.066 1.989-3.487 1.989-2.713 0-4.444-1.343-4.444-4.779v-6.045c0-.905.827-1.602 1.808-1.602.956 0 1.783.723 1.809 1.602v4.96c0 1.602.594 2.376 2.092 2.376 1.266 0 2.222-.594 2.222-2.428v-4.908c0-.905.827-1.602 1.809-1.602.956 0 1.783.723 1.808 1.602v9.119c-.025.879-.852 1.602-1.808 1.602-.982 0-1.81-.698-1.81-1.602v-.284zM258.809 73.942c-1.627 0-2.945 1.447-2.945 3.049 0 1.6 1.318 3.048 2.945 3.048 1.809 0 2.842-1.447 2.842-3.048 0-1.602-1.033-3.05-2.842-3.05m.697-3.228c3.075 0 5.865 2.247 5.865 6.252 0 4.004-2.79 6.278-5.865 6.278-1.37 0-2.842-.672-3.616-1.938v5.994c-.026.878-.852 1.6-1.81 1.6-.98 0-1.807-.696-1.807-1.6V72.418c0-.904.827-1.602 1.808-1.602.957 0 1.783.723 1.809 1.602v.232c1.033-1.602 2.842-1.937 3.616-1.937" fill="#4C5C68"/><path fill="#C5C3C6" d="M22.573 112.351h264.964v-6.624H22.573zM22.573 152.758h218.081v-6.624H22.573zM22.573 132.555h264.964v-6.624H22.573zM1.376 185.216h310.339v-2.65H1.376z"/><path d="M27.388 221.203c.052 1.137.955 2.144 2.66 2.144 1.526 0 2.584-.723 2.61-1.886.026-.801-.335-1.498-2.144-2.015l-2.145-.594c-3.926-1.214-4.597-3.514-4.597-5.116 0-3.177 2.712-5.321 6.122-5.321 3.435 0 6.019 2.04 6.019 5.45h-3.771c0-1.188-.802-2.014-2.3-2.014-1.317 0-2.3.723-2.3 1.782 0 .465.182 1.318 1.913 1.809l2.119.67c4.314 1.24 4.934 3.67 4.882 5.375-.051 3.539-3.255 5.219-6.407 5.219-3.875 0-6.46-2.3-6.46-5.503h3.799zM42.732 226.421h-3.59v-18.627h3.59v8.448c.491-1.498 2.248-2.144 3.385-2.144 3.177 0 4.831 2.118 4.831 5.761v6.562h-3.59v-6.433c0-1.576-1.138-2.402-2.224-2.402-1.136 0-2.402.62-2.402 2.454v6.381zM60.12 223.244c1.472 0 2.918-1.06 2.918-2.868 0-1.808-1.446-2.867-2.919-2.867-1.498 0-3.023 1.137-3.023 2.867s1.525 2.868 3.023 2.868zm2.918 1.809c-.774 1.162-2.583 1.6-3.513 1.6-3.075 0-6.149-2.401-6.149-6.277 0-3.875 3.074-6.278 6.15-6.278.774 0 2.582.259 3.512 1.602v-1.343h3.565v12.065h-3.565v-1.37zM73.501 226.421h-3.592v-12.065h3.592v2.92c.62-2.248 2.17-3.178 3.41-3.178.853 0 1.498.155 2.067.44l-.646 3.228c-.646-.31-1.266-.36-1.835-.36-2.066 0-2.996 1.626-2.996 4.804v4.211zM88.769 219.317c-.181-1.473-1.523-2.067-2.531-2.067-1.008 0-2.377.543-2.687 2.067h5.218zm2.945 4.909c-1.214 1.808-3.462 2.454-5.503 2.454-3.462 0-6.303-2.532-6.303-6.33 0-3.797 2.84-6.252 6.303-6.252 3.437 0 6.175 2.558 6.175 6.356 0 .31-.026.8-.052 1.11h-8.835c.18 1.396 1.706 2.016 2.97 2.016.983 0 2.042-.362 2.636-1.137l2.609 1.783z" fill="#4C5C68"/></g></symbol><symbol viewBox="0 0 336 272" id="results"><title>Page 1</title><defs><path id="ga" d="M0 271.208h335.338V0H0z"/></defs><g fill="none" fill-rule="evenodd"><path d="M6.015 2.648a3.37 3.37 0 0 0-3.367 3.367v41.749a3.37 3.37 0 0 0 3.367 3.367h189.938a3.371 3.371 0 0 0 3.368-3.367V6.014a3.371 3.371 0 0 0-3.368-3.366H6.015zm189.938 51.13H6.015A6.022 6.022 0 0 1 0 47.765V6.014A6.022 6.022 0 0 1 6.015.002h189.938a6.021 6.021 0 0 1 6.015 6.014v41.749a6.021 6.021 0 0 1-6.015 6.015z" fill="#C5C3C6"/><path d="M34.594 21.669c-1.136-1.007-2.634-1.652-4.285-1.652-3.718 0-6.583 3.072-6.583 6.841s2.865 6.815 6.583 6.815c3.2 0 5.524-1.859 5.679-4.802h-5.06V26.78h7.796c0 6.247-3.33 9.19-8.415 9.19-5.06 0-8.984-4.079-8.984-9.112 0-5.06 3.924-9.139 8.984-9.139a8.79 8.79 0 0 1 6.014 2.349l-1.73 1.601zM47.965 26.393c.748-.878 1.238-1.807 1.238-2.762 0-1.627-1.342-2.659-2.994-2.659-1.522 0-2.813.981-3.046 2.66l-2.246-.543c.439-2.737 2.659-4.44 5.292-4.44 2.943 0 5.292 2.013 5.292 4.982 0 1.626-.748 3.123-1.833 4.362-2.168 2.53-2.22 2.633-4.57 5.396h6.43v2.323H41.124V34.68l6.84-8.286zM69.338 30.059v-7.021l-4.827 7.02h4.827zm2.298 5.653h-2.298v-3.46H60.56l9.345-13.396h1.73v11.203h2.426v2.194h-2.426v3.459zM86.452 29.026l-2.942-7.899-2.944 7.899h5.886zm-6.712 2.168l-1.729 4.518h-2.556l6.764-17.786H84.8l6.738 17.786h-2.53l-1.73-4.518H79.74zM103.102 29.026l-2.942-7.899-2.944 7.899h5.886zm-6.712 2.168l-1.73 4.518h-2.554l6.763-17.786h2.58l6.739 17.786h-2.53l-1.73-4.518H96.39z" fill="#4C5C68"/><path d="M220.796 2.648a3.37 3.37 0 0 0-3.366 3.367v41.749a3.37 3.37 0 0 0 3.366 3.367h108.527a3.371 3.371 0 0 0 3.368-3.367V6.014a3.371 3.371 0 0 0-3.368-3.366H220.796zm108.527 51.13H220.796a6.022 6.022 0 0 1-6.014-6.014V6.014a6.022 6.022 0 0 1 6.014-6.013h108.527a6.021 6.021 0 0 1 6.015 6.014v41.749a6.021 6.021 0 0 1-6.015 6.015z" fill="#C5C3C6"/><path d="M237.14 30.007a1.841 1.841 0 0 1 2.323.903c.388.801 1.265 1.678 2.865 1.678 1.524 0 2.582-.722 2.608-1.884.025-.8-.336-1.497-2.143-2.014l-2.142-.593c-3.924-1.214-4.595-3.459-4.595-5.06 0-3.175 2.71-5.318 6.118-5.318 2.555 0 4.466 1.11 5.42 2.97.44.851.078 1.677-.567 2.09-.93.593-1.756.335-2.375-.439a3.143 3.143 0 0 0-2.53-1.239c-1.317 0-2.297.774-2.297 1.833 0 .464.18 1.316 1.91 1.807l2.117.62c4.31 1.24 4.93 3.665 4.879 5.37-.052 3.535-3.253 5.213-6.403 5.213-3.15 0-5.42-1.523-6.195-3.82-.284-.904.129-1.782 1.007-2.117M259.417 28.613c-.181-1.47-1.187-2.194-2.529-2.194-1.343 0-2.376.671-2.686 2.194h5.215zm1.601 6.247c-1.213.8-2.737 1.084-4.157 1.084-3.459 0-6.298-2.504-6.298-6.299 0-3.794 2.839-6.22 6.298-6.22 3.434 0 6.17 2.53 6.17 6.324 0 .645-.542 1.11-1.11 1.11h-7.771c.181 1.394 1.704 1.987 2.969 1.987.723 0 1.343-.05 2.092-.567.826-.568 1.755-.413 2.271.18.671.775.414 1.885-.464 2.401zM271.188 32.743c1.625 0 2.942-1.446 2.942-3.046 0-1.6-1.317-3.046-2.942-3.046-1.808 0-2.84 1.446-2.84 3.046 0 1.6 1.031 3.046 2.84 3.046zm2.916-7.615c.026-.878.853-1.6 1.808-1.6.98 0 1.807.696 1.807 1.6v9.113c0 .903-.827 1.6-1.808 1.6-.954 0-1.781-.723-1.807-1.6v-.233c-.774 1.265-2.245 1.936-3.613 1.936-3.072 0-5.86-2.272-5.86-6.273 0-4 2.788-6.247 5.86-6.247.774 0 2.582.336 3.613 1.936v-.232zM289.773 25.412c-.129.904-.98 1.317-1.78 1.317-.259 0-.647-.026-.879-.026-2.013 0-2.685 1.549-2.737 4.569v2.969c0 .903-.826 1.6-1.806 1.6-.955 0-1.78-.723-1.807-1.6v-9.113c.026-.878.852-1.6 1.807-1.6.98 0 1.806.697 1.806 1.6v1.317c.672-2.246 1.937-3.021 3.176-3.021 1.188 0 2.452.284 2.22 1.988M297.182 32.46c.646 0 1.265-.181 1.78-.465.647-.361 1.705-.516 2.35.129.724.723.62 2.04-.232 2.633-1.085.775-2.453 1.188-3.898 1.188-3.46 0-6.608-2.427-6.608-6.221v-.078c0-3.795 3.149-6.221 6.608-6.221 1.445 0 2.813.413 3.898 1.187.852.594.956 1.91.233 2.633-.646.646-1.704.49-2.35.129a3.727 3.727 0 0 0-1.781-.464c-1.55 0-2.942 1.058-2.942 2.736v.078c0 1.677 1.393 2.736 2.942 2.736M312.386 29.284c0-1.575-1.136-2.375-2.22-2.375-1.135 0-2.375.594-2.375 2.427v4.905c0 .903-.826 1.6-1.806 1.6-.956 0-1.782-.723-1.808-1.6v-15.67c.026-.878.852-1.6 1.808-1.6.98 0 1.806.696 1.806 1.6v6.97c.49-1.497 2.22-2.117 3.357-2.117 3.175 0 4.852 2.091 4.852 5.731v5.086c0 .903-.826 1.6-1.806 1.6-.956 0-1.782-.723-1.808-1.6v-4.957zM6.979 100.582h5.137c.851 0 1.55.75 1.55 1.652 0 .852-.725 1.627-1.55 1.652H4.707c-.955 0-1.498-.722-1.498-1.6v-14.56c.026-.929.905-1.755 1.884-1.755 1.034 0 1.886.8 1.886 1.755v12.856zM23.68 97.82c0-1.626-1.238-2.736-2.736-2.736-1.471 0-2.71 1.11-2.71 2.736 0 1.652 1.239 2.814 2.71 2.814 1.498 0 2.737-1.162 2.737-2.814m-9.062 0c0-3.795 2.814-6.221 6.325-6.221 3.51 0 6.35 2.426 6.35 6.22 0 3.796-2.84 6.3-6.35 6.3-3.511 0-6.325-2.504-6.325-6.3M35.76 100.634a3.73 3.73 0 0 0 1.782-.465c.646-.361 1.703-.516 2.349.13.723.722.619 2.039-.233 2.633-1.084.774-2.452 1.187-3.897 1.187-3.46 0-6.608-2.426-6.608-6.221v-.078c0-3.794 3.148-6.221 6.608-6.221 1.445 0 2.813.413 3.897 1.188.852.593.956 1.91.233 2.633-.646.645-1.703.49-2.35.129a3.73 3.73 0 0 0-1.78-.465c-1.55 0-2.943 1.058-2.943 2.736v.078c0 1.678 1.394 2.736 2.943 2.736M48.693 100.918c1.626 0 2.942-1.446 2.942-3.046 0-1.6-1.316-3.046-2.942-3.046-1.808 0-2.84 1.446-2.84 3.046 0 1.6 1.032 3.046 2.84 3.046zm2.916-7.615c.026-.878.853-1.601 1.808-1.601.98 0 1.806.697 1.806 1.6v9.113c0 .904-.826 1.6-1.806 1.6-.955 0-1.782-.722-1.808-1.6v-.232c-.774 1.265-2.245 1.936-3.613 1.936-3.073 0-5.86-2.272-5.86-6.273 0-4.001 2.787-6.247 5.86-6.247.774 0 2.581.336 3.613 1.936v-.232zM61.935 102.415c0 .904-.826 1.6-1.808 1.6-.955 0-1.78-.722-1.806-1.6v-15.67c.026-.877.852-1.6 1.806-1.6.982 0 1.808.697 1.808 1.6v15.67zM72.054 98.181a1.841 1.841 0 0 1 2.323.904c.387.8 1.265 1.678 2.865 1.678 1.523 0 2.582-.723 2.608-1.885.025-.8-.336-1.496-2.143-2.013l-2.142-.593c-3.924-1.215-4.596-3.46-4.596-5.06 0-3.175 2.71-5.319 6.118-5.319 2.556 0 4.467 1.11 5.42 2.97.44.852.079 1.677-.566 2.09-.93.593-1.755.335-2.375-.439a3.144 3.144 0 0 0-2.53-1.239c-1.317 0-2.297.774-2.297 1.834 0 .464.18 1.316 1.91 1.806l2.116.62c4.31 1.239 4.93 3.666 4.88 5.37-.052 3.535-3.253 5.213-6.403 5.213-3.15 0-5.42-1.522-6.195-3.82-.284-.904.129-1.782 1.007-2.117M93.79 102.131c-.647 1.213-2.066 1.988-3.486 1.988-2.71 0-4.44-1.343-4.44-4.776v-6.041c0-.903.826-1.6 1.807-1.6.955 0 1.781.723 1.807 1.6v4.957c0 1.6.594 2.375 2.09 2.375 1.266 0 2.221-.594 2.221-2.427v-4.905c0-.903.826-1.6 1.807-1.6.955 0 1.781.723 1.807 1.6v9.113c-.026.878-.852 1.601-1.807 1.601-.98 0-1.807-.698-1.807-1.601v-.284zM107.031 94.826c-1.626 0-2.942 1.446-2.942 3.046 0 1.6 1.316 3.046 2.942 3.046 1.807 0 2.84-1.447 2.84-3.047s-1.033-3.045-2.84-3.045m.697-3.227c3.072 0 5.86 2.245 5.86 6.246 0 4.002-2.788 6.273-5.86 6.273-1.368 0-2.84-.67-3.614-1.935v5.988c-.025.878-.852 1.601-1.807 1.601-.98 0-1.807-.697-1.807-1.6v-14.87c0-.904.826-1.6 1.807-1.6.955 0 1.782.722 1.807 1.6v.232c1.032-1.6 2.84-1.936 3.614-1.936M122.648 94.826c-1.626 0-2.943 1.446-2.943 3.046 0 1.6 1.317 3.046 2.943 3.046 1.807 0 2.84-1.447 2.84-3.047s-1.033-3.045-2.84-3.045m.696-3.227c3.073 0 5.861 2.245 5.861 6.246 0 4.002-2.788 6.273-5.86 6.273-1.368 0-2.84-.67-3.614-1.935v5.988c-.026.878-.853 1.601-1.807 1.601-.98 0-1.807-.697-1.807-1.6v-14.87c0-.904.826-1.6 1.807-1.6.954 0 1.781.722 1.807 1.6v.232c1.032-1.6 2.84-1.936 3.613-1.936M140.15 97.82c0-1.626-1.239-2.736-2.737-2.736-1.47 0-2.71 1.11-2.71 2.736 0 1.652 1.24 2.814 2.71 2.814 1.498 0 2.737-1.162 2.737-2.814m-9.062 0c0-3.795 2.814-6.221 6.325-6.221 3.51 0 6.35 2.426 6.35 6.22 0 3.796-2.84 6.3-6.35 6.3s-6.325-2.504-6.325-6.3M155.225 93.586c-.13.904-.98 1.317-1.781 1.317-.258 0-.646-.026-.878-.026-2.013 0-2.685 1.55-2.737 4.57v2.968c0 .903-.826 1.6-1.806 1.6-.955 0-1.781-.723-1.807-1.6v-9.113c.026-.878.852-1.6 1.807-1.6.98 0 1.806.697 1.806 1.6v1.317c.672-2.246 1.937-3.02 3.176-3.02 1.188 0 2.452.283 2.22 1.987M157.935 91.83v-3.148c.025-.878.852-1.601 1.808-1.601.98 0 1.806.697 1.806 1.6v3.15h1.368c.723 0 1.29.646 1.29 1.42 0 .748-.567 1.394-1.29 1.42h-1.368v7.744c0 .904-.826 1.6-1.806 1.6-.956 0-1.783-.722-1.808-1.6V94.67h-.98c-.723-.026-1.291-.672-1.291-1.42 0-.774.568-1.42 1.29-1.42h.98zM180.495 104.119a9.057 9.057 0 0 1-9.112-9.087c0-5.06 4.002-9.138 9.112-9.138 2.194 0 4.054.67 5.551 1.859.671.516.567 1.987-.155 2.633-.67.568-1.626.593-2.272.129-.826-.62-1.937-.956-3.124-.956-2.994 0-5.343 2.453-5.343 5.473 0 2.995 2.35 5.42 5.343 5.42 2.04 0 3.614-.902 4.39-2.838h-3.512c-.8 0-1.523-.723-1.523-1.523 0-.878.697-1.55 1.523-1.55h6.635c.877 0 1.213.465 1.11 1.42-.62 5.654-3.898 8.158-8.623 8.158M200.191 93.586c-.129.904-.98 1.317-1.78 1.317-.259 0-.647-.026-.879-.026-2.014 0-2.685 1.55-2.737 4.57v2.968c0 .903-.826 1.6-1.806 1.6-.956 0-1.78-.723-1.808-1.6v-9.113c.027-.878.852-1.6 1.808-1.6.98 0 1.806.697 1.806 1.6v1.317c.671-2.246 1.937-3.02 3.176-3.02 1.187 0 2.452.283 2.22 1.987M210.052 97.82c0-1.626-1.24-2.736-2.736-2.736-1.472 0-2.71 1.11-2.71 2.736 0 1.652 1.238 2.814 2.71 2.814 1.497 0 2.736-1.162 2.736-2.814m-9.061 0c0-3.795 2.814-6.221 6.325-6.221 3.51 0 6.35 2.426 6.35 6.22 0 3.796-2.84 6.3-6.35 6.3-3.511 0-6.325-2.504-6.325-6.3M223.965 102.131c-.646 1.213-2.064 1.988-3.485 1.988-2.71 0-4.44-1.343-4.44-4.776v-6.041c0-.903.826-1.6 1.807-1.6.956 0 1.78.723 1.807 1.6v4.957c0 1.6.594 2.375 2.09 2.375 1.266 0 2.22-.594 2.22-2.427v-4.905c0-.903.827-1.6 1.809-1.6.955 0 1.78.723 1.806 1.6v9.113c-.026.878-.851 1.601-1.806 1.601-.982 0-1.808-.698-1.808-1.601v-.284zM237.207 94.826c-1.626 0-2.942 1.446-2.942 3.046 0 1.6 1.316 3.046 2.942 3.046 1.808 0 2.84-1.447 2.84-3.047s-1.032-3.045-2.84-3.045m.697-3.227c3.073 0 5.861 2.245 5.861 6.246 0 4.002-2.788 6.273-5.861 6.273-1.368 0-2.84-.67-3.614-1.935v5.988c-.025.878-.852 1.601-1.807 1.601-.981 0-1.807-.697-1.807-1.6v-14.87c0-.904.826-1.6 1.807-1.6.955 0 1.782.722 1.807 1.6v.232c1.033-1.6 2.84-1.936 3.614-1.936" fill="#4C5C68"/><mask id="gb" fill="#fff"><use xlink:href="#ga"/></mask><path fill="#C5C3C6" mask="url(#gb)" d="M1.158 133.205h332.929v-6.619H1.158zM1.159 173.58H275.18v-6.619H1.159zM1.158 153.392h332.929v-6.619H1.158z"/><path d="M17.046 220.076c0 .955-.852 1.755-1.884 1.755-.981 0-1.885-.826-1.885-1.755v-5.524H6.953v5.524c0 .955-.852 1.755-1.885 1.755-.981 0-1.884-.826-1.884-1.755v-14.533c.026-.93.903-1.756 1.884-1.756 1.033 0 1.885.8 1.885 1.756v5.627h6.324v-5.627c.026-.93.904-1.756 1.885-1.756 1.032 0 1.884.8 1.884 1.756v14.533zM28.559 214.603c-.181-1.47-1.187-2.194-2.53-2.194-1.342 0-2.374.671-2.684 2.194h5.214zm1.6 6.247c-1.212.8-2.736 1.084-4.156 1.084-3.46 0-6.298-2.504-6.298-6.299 0-3.794 2.839-6.22 6.298-6.22 3.434 0 6.17 2.53 6.17 6.324 0 .645-.542 1.11-1.11 1.11h-7.77c.18 1.394 1.703 1.988 2.969 1.988.723 0 1.342-.052 2.09-.568.827-.568 1.756-.413 2.272.18.67.775.414 1.885-.464 2.401zM40.33 218.733c1.626 0 2.942-1.446 2.942-3.046 0-1.6-1.316-3.046-2.943-3.046-1.807 0-2.84 1.446-2.84 3.047 0 1.6 1.033 3.046 2.84 3.046zm2.916-7.614c.026-.879.853-1.601 1.808-1.601.98 0 1.806.696 1.806 1.6v9.113c0 .904-.826 1.6-1.806 1.6-.955 0-1.782-.722-1.808-1.6v-.232c-.774 1.264-2.246 1.936-3.613 1.936-3.073 0-5.86-2.273-5.86-6.274 0-4 2.787-6.246 5.86-6.246.774 0 2.581.335 3.613 1.936v-.232zM53.571 220.23c0 .905-.825 1.6-1.807 1.6-.955 0-1.78-.721-1.806-1.6v-15.668c.025-.878.851-1.601 1.806-1.601.982 0 1.807.697 1.807 1.6v15.67zM57.727 209.647v-3.15c.026-.877.853-1.6 1.808-1.6.98 0 1.807.697 1.807 1.6v3.15h1.367c.723 0 1.29.645 1.29 1.42 0 .748-.567 1.394-1.29 1.42h-1.367v7.744c0 .904-.826 1.6-1.807 1.6-.955 0-1.782-.722-1.807-1.6v-7.744h-.982c-.723-.026-1.29-.672-1.29-1.42 0-.775.567-1.42 1.29-1.42h.981zM74.042 215.274c0-1.575-1.136-2.375-2.22-2.375-1.135 0-2.375.595-2.375 2.428v4.904c0 .904-.826 1.6-1.807 1.6-.955 0-1.782-.722-1.807-1.6v-15.67c.025-.877.852-1.6 1.807-1.6.981 0 1.807.696 1.807 1.6v6.97c.491-1.496 2.22-2.117 3.356-2.117 3.175 0 4.853 2.092 4.853 5.732v5.085c0 .904-.826 1.6-1.807 1.6-.955 0-1.781-.722-1.807-1.6v-4.957zM93.272 213.855c-2.479 0-2.84 1.884-2.686 2.633.26 1.265 1.163 1.962 2.686 1.962.98 0 3.046-.671 3.046-3.175v-1.42h-3.046zm3.536-7.125c-.542 1.033-1.884.826-2.71.516-.258-.103-.516-.206-.877-.206-1.317 0-1.91 1.136-1.91 1.91 0 .078 0 2.014 2.064 2.014h2.944v-1.06c0-.851.748-1.548 1.677-1.548.852 0 1.628.723 1.653 1.549v1.059h.852c.748 0 1.341.645 1.341 1.445 0 .749-.62 1.42-1.341 1.446h-.853v2.633c0 1.678.285 2.4 1.498 2.53.8.077 1.445.594 1.445 1.47 0 .802-.62 1.447-1.626 1.447-1.705 0-3.202-.826-3.924-2.194-.67 1.445-2.813 2.194-4.31 2.194-3.434 0-6.066-2.117-6.066-5.163 0-2.246 1.005-3.846 2.941-4.543-1.264-.413-2.245-1.73-2.245-3.537 0-2.53 2.141-4.827 5.188-4.982 1.471-.078 2.762.31 3.77 1.032.722.517.773 1.446.49 1.988zM122.08 207.401l2.117 7.719 3.227-10.171c.284-.878 1.42-1.343 2.348-1.085.982.284 1.524 1.394 1.214 2.298l-4.802 14.224c-.284.877-.929 1.445-1.755 1.445h-.258c-.852 0-1.549-.594-1.78-1.445l-2.092-8.029-2.09 8.029c-.233.851-.93 1.445-1.782 1.445h-.258c-.826 0-1.472-.568-1.756-1.445l-4.802-14.224c-.309-.904.233-2.014 1.214-2.298.93-.258 2.065.207 2.35 1.085l3.225 10.171 2.117-7.719c.207-.774.801-1.239 1.705-1.239h.154c.903 0 1.497.465 1.704 1.239M139.994 214.603c-.18-1.47-1.187-2.194-2.529-2.194-1.343 0-2.375.671-2.685 2.194h5.214zm1.601 6.247c-1.213.8-2.737 1.084-4.157 1.084-3.459 0-6.298-2.504-6.298-6.299 0-3.794 2.84-6.22 6.298-6.22 3.434 0 6.17 2.53 6.17 6.324 0 .645-.542 1.11-1.11 1.11h-7.77c.181 1.394 1.703 1.988 2.97 1.988.722 0 1.341-.052 2.09-.568.826-.568 1.755-.413 2.271.18.671.775.414 1.885-.464 2.401zM149.441 220.23c0 .905-.825 1.6-1.807 1.6-.955 0-1.78-.721-1.806-1.6v-15.668c.025-.878.851-1.601 1.806-1.601.982 0 1.807.697 1.807 1.6v15.67zM156.205 220.23c0 .905-.826 1.6-1.808 1.6-.955 0-1.78-.721-1.806-1.6v-15.668c.025-.878.851-1.601 1.806-1.601.982 0 1.808.697 1.808 1.6v15.67zM165.885 212.641c-1.626 0-2.942 1.446-2.942 3.046 0 1.601 1.316 3.046 2.942 3.046 1.807 0 2.84-1.445 2.84-3.046 0-1.6-1.033-3.046-2.84-3.046m.697-3.227c3.072 0 5.86 2.246 5.86 6.247 0 4.001-2.788 6.273-5.86 6.273-1.368 0-2.84-.67-3.614-1.936v.233c-.025.877-.852 1.6-1.807 1.6-.981 0-1.807-.697-1.807-1.6v-15.67c0-.903.826-1.6 1.807-1.6.955 0 1.782.722 1.807 1.6v6.79c1.032-1.6 2.84-1.937 3.614-1.937M183.18 214.603c-.181-1.47-1.187-2.194-2.53-2.194-1.342 0-2.374.671-2.684 2.194h5.214zm1.6 6.247c-1.212.8-2.736 1.084-4.156 1.084-3.46 0-6.298-2.504-6.298-6.299 0-3.794 2.839-6.22 6.298-6.22 3.434 0 6.17 2.53 6.17 6.324 0 .645-.542 1.11-1.11 1.11h-7.77c.18 1.394 1.703 1.988 2.969 1.988.723 0 1.342-.052 2.09-.568.827-.568 1.756-.413 2.272.18.67.775.414 1.885-.464 2.401zM192.575 220.23c0 .905-.825 1.6-1.807 1.6-.955 0-1.78-.721-1.806-1.6v-9.112c.025-.877.851-1.6 1.806-1.6.982 0 1.807.697 1.807 1.6v9.113zm-1.807-17.14c1.214 0 2.195.904 2.195 2.09 0 1.188-.98 2.118-2.195 2.118-1.213 0-2.246-.93-2.246-2.117 0-1.187 1.033-2.091 2.246-2.091zM199.235 211.402c.646-1.213 2.065-2.013 3.484-2.013 2.711 0 4.441 1.677 4.441 5.111v5.731c0 .903-.826 1.6-1.807 1.6-.955 0-1.78-.723-1.807-1.6v-4.957c0-1.6-.878-2.4-2.09-2.4-1.266 0-2.22.62-2.22 2.452v4.905c0 .903-.827 1.6-1.808 1.6-.956 0-1.782-.723-1.807-1.6v-9.113c.025-.878.851-1.6 1.807-1.6.981 0 1.807.697 1.807 1.6v.284zM216.117 218.733c1.627 0 2.943-1.446 2.943-3.046 0-1.6-1.316-3.046-2.943-3.046-1.807 0-2.84 1.446-2.84 3.047 0 1.6 1.033 3.046 2.84 3.046m-5.188 4.362c.645-.594 1.73-.465 2.22.077.671.724 1.703 1.317 2.684 1.317 2.737 0 3.485-1.885 3.331-4.286v-.335c-.775 1.369-2.246 2.066-3.743 2.066-3.073 0-5.86-2.273-5.86-6.274 0-4 2.787-6.246 5.86-6.246.773 0 2.581.335 3.613 1.936v-.232c.026-.879.852-1.601 1.808-1.601.98 0 1.806.696 1.806 1.6v8.906c0 5.189-2.53 7.692-6.815 7.692-2.09 0-3.924-.929-5.11-2.4-.492-.62-.44-1.651.206-2.22" fill="#4C5C68" mask="url(#gb)"/><path fill="#C5C3C6" mask="url(#gb)" d="M1.158 251.02h332.929v-6.619H1.158zM1.158 271.208h194.595v-6.619H1.158z"/></g></symbol><symbol viewBox="0 0 313 258" id="saved_services"><title>Page 1</title><defs><path id="ha" d="M1 257.216h312.907V0H1z"/></defs><g transform="translate(-1)" fill="none" fill-rule="evenodd"><path d="M7.014 42.466a3.37 3.37 0 0 0-3.366 3.367v205.369a3.37 3.37 0 0 0 3.366 3.367h300.878a3.372 3.372 0 0 0 3.367-3.367V45.832a3.37 3.37 0 0 0-3.367-3.366H7.014zm300.878 214.75H7.014A6.022 6.022 0 0 1 1 251.202V45.832a6.022 6.022 0 0 1 6.015-6.014h300.878a6.022 6.022 0 0 1 6.015 6.015v205.369a6.022 6.022 0 0 1-6.015 6.014z" fill="#C5C3C6"/><path d="M17.207 1.962c.465-.98.98-1.136 1.704-1.136h.387c.878 0 1.574.8 1.678 1.678l1.78 14.482c.104.904-.748 1.807-1.73 1.884-1.006.078-1.91-.645-2.012-1.6L17.93 8.08l-3.537 7.306c-.335.722-.981 1.574-2.09 1.574-1.111 0-1.731-.852-2.066-1.574L6.675 8.08 5.59 17.27c-.103.955-1.006 1.678-2.013 1.6-.981-.077-1.86-.98-1.73-1.884L3.63 2.504c.102-.878.8-1.678 1.678-1.678h.386c.723 0 1.265.155 1.704 1.136l4.906 10.455 4.904-10.455zM29.494 23.672c-.336.8-1.162 1.265-2.271 1.007-.878-.207-1.395-1.239-1.034-2.169l2.014-5.008-3.743-8.725c-.335-.929.18-1.91 1.058-2.143 1.136-.284 1.962.233 2.247 1.033l2.27 5.886 2.324-5.886c.284-.8 1.11-1.317 2.246-1.033.878.233 1.394 1.214 1.059 2.143l-6.17 14.895zM44.285 13.037a1.84 1.84 0 0 1 2.323.904c.387.8 1.265 1.678 2.865 1.678 1.523 0 2.582-.723 2.608-1.885.025-.8-.336-1.497-2.143-2.014l-2.142-.593c-3.924-1.214-4.596-3.46-4.596-5.06 0-3.175 2.71-5.318 6.118-5.318 2.556 0 4.466 1.11 5.42 2.969.44.852.079 1.678-.566 2.09-.93.595-1.756.336-2.375-.438a3.145 3.145 0 0 0-2.531-1.24c-1.316 0-2.296.775-2.296 1.834 0 .465.18 1.316 1.91 1.807l2.116.62c4.31 1.239 4.932 3.665 4.88 5.369-.052 3.536-3.253 5.214-6.403 5.214-3.15 0-5.42-1.523-6.195-3.82-.284-.904.129-1.781 1.007-2.117M64.29 15.773c1.627 0 2.943-1.446 2.943-3.046 0-1.601-1.316-3.046-2.943-3.046-1.807 0-2.84 1.445-2.84 3.046 0 1.6 1.033 3.046 2.84 3.046zm2.917-7.615c.026-.878.853-1.601 1.808-1.601.98 0 1.806.697 1.806 1.6v9.113c0 .904-.826 1.6-1.806 1.6-.955 0-1.782-.722-1.808-1.6v-.232c-.774 1.265-2.246 1.936-3.613 1.936-3.073 0-5.861-2.272-5.861-6.273 0-4.001 2.788-6.247 5.86-6.247.774 0 2.582.336 3.614 1.936v-.232zM80.76 17.348c-.362.955-1.008 1.523-1.989 1.523h-.155c-.956 0-1.677-.568-2.065-1.523l-3.64-8.571c-.309-.825.181-1.91 1.058-2.142 1.137-.284 1.936.232 2.246 1.033l2.452 6.505 2.453-6.505c.284-.801 1.11-1.317 2.246-1.033.877.232 1.37 1.317 1.058 2.142l-3.665 8.57zM94.569 11.643c-.181-1.471-1.187-2.194-2.53-2.194-1.342 0-2.374.67-2.684 2.194h5.214zm1.6 6.247c-1.212.8-2.736 1.084-4.156 1.084-3.46 0-6.298-2.504-6.298-6.298 0-3.795 2.839-6.222 6.298-6.222 3.434 0 6.17 2.53 6.17 6.325 0 .645-.542 1.11-1.11 1.11h-7.77c.18 1.394 1.703 1.988 2.969 1.988.723 0 1.342-.052 2.09-.568.827-.568 1.756-.413 2.272.18.67.775.414 1.885-.464 2.4zM106.34 15.773c1.626 0 2.942-1.446 2.942-3.046 0-1.601-1.316-3.046-2.942-3.046-1.808 0-2.84 1.445-2.84 3.046 0 1.6 1.032 3.046 2.84 3.046zM109.257 1.6C109.282.723 110.11 0 111.064 0c.981 0 1.806.697 1.806 1.6v15.67c0 .904-.825 1.6-1.806 1.6-.955 0-1.782-.722-1.807-1.6v-.232c-.774 1.265-2.246 1.936-3.614 1.936-3.073 0-5.86-2.272-5.86-6.273 0-4.001 2.787-6.247 5.86-6.247.774 0 2.581.336 3.614 1.936V1.6zM122.989 13.037a1.84 1.84 0 0 1 2.323.904c.388.8 1.266 1.678 2.866 1.678 1.523 0 2.582-.723 2.607-1.885.026-.8-.335-1.497-2.143-2.014l-2.142-.593c-3.924-1.214-4.595-3.46-4.595-5.06 0-3.175 2.71-5.318 6.118-5.318 2.556 0 4.466 1.11 5.42 2.969.44.852.078 1.678-.567 2.09-.93.595-1.755.336-2.375-.438a3.141 3.141 0 0 0-2.53-1.24c-1.316 0-2.297.775-2.297 1.834 0 .465.18 1.316 1.91 1.807l2.117.62c4.31 1.239 4.93 3.665 4.879 5.369-.052 3.536-3.253 5.214-6.402 5.214-3.15 0-5.421-1.523-6.196-3.82-.284-.904.129-1.781 1.007-2.117M145.266 11.643c-.18-1.471-1.187-2.194-2.529-2.194-1.343 0-2.376.67-2.686 2.194h5.215zm1.601 6.247c-1.213.8-2.737 1.084-4.157 1.084-3.459 0-6.298-2.504-6.298-6.298 0-3.795 2.84-6.222 6.298-6.222 3.434 0 6.17 2.53 6.17 6.325 0 .645-.542 1.11-1.11 1.11H140c.18 1.394 1.703 1.988 2.97 1.988.721 0 1.341-.052 2.09-.568.826-.568 1.755-.413 2.271.18.671.775.414 1.885-.464 2.4zM160.057 8.442c-.129.904-.98 1.316-1.78 1.316-.259 0-.647-.025-.879-.025-2.013 0-2.685 1.549-2.737 4.569v2.969c0 .903-.826 1.6-1.806 1.6-.955 0-1.78-.723-1.807-1.6V8.158c.026-.878.852-1.601 1.807-1.601.98 0 1.806.698 1.806 1.6v1.317c.672-2.245 1.937-3.02 3.176-3.02 1.188 0 2.452.284 2.22 1.988M168.601 17.348c-.36.955-1.007 1.523-1.987 1.523h-.156c-.955 0-1.677-.568-2.064-1.523l-3.64-8.571c-.31-.825.18-1.91 1.058-2.142 1.136-.284 1.936.232 2.246 1.033l2.452 6.505 2.452-6.505c.285-.801 1.111-1.317 2.246-1.033.878.232 1.37 1.317 1.06 2.142l-3.667 8.57zM177.971 17.27c0 .904-.826 1.6-1.807 1.6-.955 0-1.78-.722-1.807-1.6V8.157c.026-.877.852-1.6 1.807-1.6.981 0 1.807.697 1.807 1.6v9.113zM176.164.13c1.213 0 2.194.903 2.194 2.09 0 1.187-.98 2.117-2.194 2.117s-2.246-.93-2.246-2.117c0-1.187 1.032-2.09 2.246-2.09zM187.032 15.489c.646 0 1.265-.181 1.78-.465.647-.361 1.705-.516 2.35.129.724.723.62 2.04-.232 2.634-1.085.774-2.453 1.187-3.898 1.187-3.46 0-6.608-2.427-6.608-6.221v-.078c0-3.795 3.149-6.221 6.608-6.221 1.445 0 2.813.413 3.898 1.187.852.594.956 1.911.233 2.633-.646.646-1.704.491-2.35.13a3.727 3.727 0 0 0-1.781-.465c-1.55 0-2.942 1.058-2.942 2.736v.078c0 1.678 1.393 2.736 2.942 2.736M202.237 11.643c-.181-1.471-1.188-2.194-2.53-2.194-1.343 0-2.375.67-2.685 2.194h5.215zm1.6 6.247c-1.213.8-2.737 1.084-4.157 1.084-3.46 0-6.297-2.504-6.297-6.298 0-3.795 2.838-6.222 6.297-6.222 3.434 0 6.17 2.53 6.17 6.325 0 .645-.542 1.11-1.11 1.11h-7.77c.18 1.394 1.704 1.988 2.969 1.988.723 0 1.342-.052 2.09-.568.827-.568 1.756-.413 2.272.18.67.775.414 1.885-.464 2.4zM208.12 14.611a1.626 1.626 0 0 1 1.938.44c.645.696 1.419 1.057 2.27 1.057.802 0 1.55-.129 1.55-.748 0-.517-.31-.697-1.188-.98l-1.368-.492c-3.614-1.213-3.588-2.917-3.588-4.027 0-1.78 2.143-3.433 4.672-3.433 1.73 0 3.51.542 4.337 1.987.44.775.232 1.524-.31 1.833-.8.465-1.548.284-2.296-.284-.517-.387-.982-.542-1.447-.542-.774 0-1.316.258-1.316.723 0 .387.31.62 1.032.852l1.833.62c2.917.955 3.279 2.84 3.279 3.614 0 2.555-2.685 3.768-5.214 3.768-1.937 0-4.208-.8-4.83-2.58-.256-.75.053-1.55.647-1.808M29.375 79.64h5.138c.852 0 1.549.75 1.549 1.652 0 .852-.723 1.627-1.55 1.652h-7.407c-.957 0-1.5-.722-1.5-1.6v-14.56c.027-.929.905-1.755 1.886-1.755 1.032 0 1.884.8 1.884 1.755V79.64zM46.077 76.878c0-1.626-1.238-2.736-2.736-2.736-1.471 0-2.71 1.11-2.71 2.736 0 1.652 1.239 2.814 2.71 2.814 1.498 0 2.736-1.162 2.736-2.814m-9.061 0c0-3.795 2.814-6.22 6.325-6.22 3.51 0 6.35 2.425 6.35 6.22s-2.84 6.3-6.35 6.3c-3.511 0-6.325-2.505-6.325-6.3M58.158 79.692a3.73 3.73 0 0 0 1.78-.465c.646-.361 1.704-.516 2.35.13.723.722.619 2.039-.233 2.633-1.084.774-2.452 1.187-3.897 1.187-3.46 0-6.608-2.426-6.608-6.221v-.078c0-3.794 3.148-6.221 6.608-6.221 1.445 0 2.813.413 3.897 1.187.852.594.956 1.91.233 2.634-.646.645-1.704.49-2.35.129a3.73 3.73 0 0 0-1.78-.465c-1.55 0-2.943 1.058-2.943 2.736v.078c0 1.678 1.394 2.736 2.943 2.736M71.09 79.976c1.626 0 2.942-1.446 2.942-3.046 0-1.6-1.316-3.046-2.943-3.046-1.807 0-2.84 1.446-2.84 3.046 0 1.6 1.033 3.046 2.84 3.046zm2.916-7.615c.026-.878.853-1.601 1.808-1.601.98 0 1.806.697 1.806 1.6v9.113c0 .904-.826 1.6-1.806 1.6-.955 0-1.782-.722-1.808-1.6v-.232c-.774 1.265-2.246 1.936-3.613 1.936-3.073 0-5.86-2.272-5.86-6.273 0-4.001 2.787-6.247 5.86-6.247.774 0 2.581.336 3.613 1.936v-.232zM84.332 81.473c0 .904-.825 1.601-1.807 1.601-.955 0-1.781-.723-1.806-1.6v-15.67c.025-.878.85-1.6 1.806-1.6.982 0 1.807.696 1.807 1.6v15.67zM94.45 77.24a1.841 1.841 0 0 1 2.324.903c.387.8 1.265 1.678 2.865 1.678 1.523 0 2.582-.722 2.608-1.884.025-.8-.336-1.497-2.143-2.014l-2.142-.593c-3.924-1.214-4.596-3.46-4.596-5.06 0-3.175 2.71-5.318 6.118-5.318 2.556 0 4.466 1.11 5.42 2.969.44.852.079 1.678-.566 2.09-.93.594-1.755.336-2.375-.438a3.145 3.145 0 0 0-2.531-1.24c-1.316 0-2.296.775-2.296 1.834 0 .464.18 1.316 1.91 1.807l2.116.619c4.31 1.239 4.93 3.666 4.88 5.37-.052 3.536-3.253 5.214-6.403 5.214-3.15 0-5.42-1.523-6.195-3.82-.284-.904.129-1.782 1.007-2.117M116.186 81.19c-.646 1.212-2.065 1.987-3.485 1.987-2.71 0-4.44-1.343-4.44-4.776v-6.04c0-.904.825-1.6 1.807-1.6.955 0 1.781.722 1.806 1.6v4.956c0 1.6.594 2.375 2.091 2.375 1.266 0 2.221-.594 2.221-2.427V72.36c0-.903.826-1.6 1.807-1.6.955 0 1.781.723 1.807 1.6v9.113c-.026.878-.852 1.601-1.807 1.601-.98 0-1.807-.698-1.807-1.6v-.285zM129.428 73.883c-1.626 0-2.943 1.447-2.943 3.047s1.317 3.045 2.943 3.045c1.807 0 2.84-1.444 2.84-3.045 0-1.6-1.033-3.047-2.84-3.047m.696-3.227c3.073 0 5.861 2.246 5.861 6.248 0 4.002-2.788 6.273-5.86 6.273-1.368 0-2.84-.672-3.614-1.937v5.99c-.026.877-.852 1.6-1.807 1.6-.98 0-1.807-.697-1.807-1.6V72.36c0-.903.826-1.6 1.807-1.6.955 0 1.781.722 1.807 1.6v.233c1.032-1.6 2.84-1.937 3.613-1.937M145.046 73.883c-1.626 0-2.944 1.447-2.944 3.047s1.317 3.045 2.944 3.045c1.806 0 2.839-1.444 2.839-3.045 0-1.6-1.032-3.047-2.84-3.047m.697-3.227c3.073 0 5.86 2.246 5.86 6.248 0 4.002-2.787 6.273-5.86 6.273-1.368 0-2.84-.672-3.613-1.937v5.99c-.026.877-.853 1.6-1.808 1.6-.98 0-1.806-.697-1.806-1.6V72.36c0-.903.826-1.6 1.806-1.6.954 0 1.781.722 1.808 1.6v.233c1.032-1.6 2.839-1.937 3.613-1.937M162.546 76.878c0-1.626-1.238-2.736-2.736-2.736-1.47 0-2.71 1.11-2.71 2.736 0 1.652 1.24 2.814 2.71 2.814 1.498 0 2.736-1.162 2.736-2.814m-9.06 0c0-3.795 2.813-6.22 6.324-6.22 3.51 0 6.35 2.425 6.35 6.22s-2.84 6.3-6.35 6.3-6.325-2.505-6.325-6.3M177.622 72.644c-.13.904-.981 1.317-1.781 1.317-.258 0-.646-.025-.878-.025-2.014 0-2.685 1.548-2.737 4.568v2.97c0 .902-.826 1.6-1.806 1.6-.955 0-1.781-.724-1.807-1.6V72.36c.026-.877.852-1.6 1.807-1.6.98 0 1.806.697 1.806 1.6v1.317c.672-2.246 1.937-3.02 3.176-3.02 1.188 0 2.452.284 2.22 1.987M180.332 70.89v-3.15c.025-.878.852-1.6 1.807-1.6.98 0 1.807.696 1.807 1.6v3.15h1.368c.723 0 1.29.645 1.29 1.42 0 .747-.567 1.393-1.29 1.42h-1.368v7.743c0 .904-.826 1.601-1.807 1.601-.955 0-1.782-.723-1.807-1.6v-7.745h-.981c-.723-.026-1.29-.672-1.29-1.42 0-.774.567-1.42 1.29-1.42h.98zM202.892 83.177a9.056 9.056 0 0 1-9.112-9.087c0-5.059 4.001-9.138 9.112-9.138 2.194 0 4.053.671 5.551 1.859.671.516.567 1.987-.155 2.633-.67.567-1.627.593-2.272.129-.826-.62-1.937-.956-3.124-.956-2.994 0-5.343 2.453-5.343 5.473 0 2.995 2.35 5.421 5.343 5.421 2.04 0 3.614-.903 4.39-2.839h-3.512c-.8 0-1.524-.723-1.524-1.523 0-.878.698-1.549 1.524-1.549h6.634c.878 0 1.214.464 1.11 1.42-.619 5.653-3.897 8.157-8.622 8.157M222.588 72.644c-.129.904-.98 1.317-1.78 1.317-.26 0-.647-.025-.879-.025-2.014 0-2.685 1.548-2.737 4.568v2.97c0 .902-.826 1.6-1.806 1.6-.956 0-1.782-.724-1.808-1.6V72.36c.026-.877.852-1.6 1.808-1.6.98 0 1.806.697 1.806 1.6v1.317c.671-2.246 1.937-3.02 3.175-3.02 1.188 0 2.453.284 2.221 1.987M232.449 76.878c0-1.626-1.24-2.736-2.736-2.736-1.472 0-2.711 1.11-2.711 2.736 0 1.652 1.239 2.814 2.71 2.814 1.498 0 2.737-1.162 2.737-2.814m-9.061 0c0-3.795 2.814-6.22 6.325-6.22 3.51 0 6.35 2.425 6.35 6.22s-2.84 6.3-6.35 6.3c-3.511 0-6.325-2.505-6.325-6.3M246.362 81.19c-.646 1.212-2.065 1.987-3.485 1.987-2.71 0-4.44-1.343-4.44-4.776v-6.04c0-.904.826-1.6 1.807-1.6.955 0 1.78.722 1.806 1.6v4.956c0 1.6.595 2.375 2.092 2.375 1.265 0 2.22-.594 2.22-2.427V72.36c0-.903.826-1.6 1.807-1.6.955 0 1.78.723 1.807 1.6v9.113c-.026.878-.852 1.601-1.807 1.601-.981 0-1.807-.698-1.807-1.6v-.285zM259.604 73.883c-1.626 0-2.942 1.447-2.942 3.047s1.316 3.045 2.942 3.045c1.808 0 2.84-1.444 2.84-3.045 0-1.6-1.032-3.047-2.84-3.047m.697-3.227c3.073 0 5.86 2.246 5.86 6.248 0 4.002-2.787 6.273-5.86 6.273-1.368 0-2.84-.672-3.614-1.937v5.99c-.025.877-.852 1.6-1.807 1.6-.98 0-1.807-.697-1.807-1.6V72.36c0-.903.826-1.6 1.807-1.6.955 0 1.782.722 1.807 1.6v.233c1.033-1.6 2.84-1.937 3.614-1.937" fill="#4C5C68"/><mask id="hb" fill="#fff"><use xlink:href="#ha"/></mask><path fill="#C5C3C6" mask="url(#hb)" d="M23.555 112.263H288.31v-6.619H23.555zM23.555 152.638h217.909v-6.619H23.555zM23.555 132.45H288.31v-6.619H23.555zM2.374 185.07h310.094v-2.647H2.374z"/><path d="M28.366 221.029c.052 1.136.955 2.143 2.659 2.143 1.524 0 2.58-.724 2.608-1.886.025-.8-.336-1.496-2.143-2.012l-2.144-.595c-3.922-1.214-4.593-3.51-4.593-5.11 0-3.176 2.71-5.319 6.118-5.319 3.432 0 6.014 2.04 6.014 5.447h-3.77c0-1.188-.8-2.013-2.296-2.013-1.317 0-2.298.722-2.298 1.78 0 .465.18 1.317 1.91 1.808l2.118.67c4.31 1.24 4.93 3.666 4.879 5.37-.052 3.537-3.253 5.215-6.403 5.215-3.872 0-6.454-2.297-6.454-5.498h3.795zM43.699 226.243H40.11V207.63h3.588v8.44c.49-1.496 2.246-2.141 3.382-2.141 3.175 0 4.827 2.116 4.827 5.756v6.557H48.32v-6.428c0-1.574-1.136-2.4-2.221-2.4-1.135 0-2.4.619-2.4 2.452v6.376zM61.072 223.068c1.472 0 2.917-1.058 2.917-2.865 0-1.807-1.445-2.866-2.917-2.866-1.497 0-3.021 1.136-3.021 2.866 0 1.729 1.524 2.865 3.02 2.865zm2.917 1.807c-.774 1.162-2.582 1.6-3.511 1.6-3.072 0-6.144-2.4-6.144-6.272 0-3.873 3.072-6.273 6.144-6.273.775 0 2.58.258 3.51 1.6v-1.342h3.563v12.055h-3.562v-1.368zM74.443 226.243h-3.59v-12.055h3.59v2.917c.619-2.246 2.168-3.175 3.407-3.175.852 0 1.497.154 2.065.438l-.645 3.227c-.645-.31-1.264-.361-1.833-.361-2.065 0-2.994 1.626-2.994 4.8v4.209zM89.699 219.144c-.182-1.471-1.523-2.065-2.53-2.065-1.006 0-2.375.542-2.685 2.065h5.215zm2.942 4.905c-1.213 1.807-3.46 2.452-5.498 2.452-3.46 0-6.298-2.53-6.298-6.325 0-3.794 2.839-6.247 6.298-6.247 3.434 0 6.169 2.556 6.169 6.351 0 .31-.025.8-.051 1.11h-8.83c.182 1.394 1.705 2.013 2.97 2.013.982 0 2.04-.361 2.633-1.135l2.607 1.781z" fill="#4C5C68" mask="url(#hb)"/></g></symbol><symbol viewBox="0 0 231 230" id="share_print"><title>Page 1</title><g fill="none" fill-rule="evenodd"><path d="M224.945 229.9H5.835a5.77 5.77 0 0 1-5.764-5.763V120.62h2.537v103.518a3.23 3.23 0 0 0 3.227 3.226h219.11a3.23 3.23 0 0 0 3.226-3.226V120.62h2.537v103.518a5.77 5.77 0 0 1-5.763 5.763" fill="#C5C3C6"/><path d="M2.226 228.545a4.424 4.424 0 0 1-1.303-3.153c0-1.194.462-2.314 1.303-3.153l.093-.094.112-.072 77.91-50.758 1.384 2.126L3.94 224.117a1.925 1.925 0 0 0 .079 2.634l-1.794 1.794zM228.748 228.545l-1.794-1.794c.36-.36.56-.843.56-1.36 0-.476-.17-.924-.48-1.274L149.54 173.63l1.386-2.125 77.728 50.639.093.094c.84.84 1.303 1.96 1.303 3.153a4.424 4.424 0 0 1-1.303 3.153" fill="#C5C3C6"/><path d="M80.232 174.421l-1.794-1.794a5.724 5.724 0 0 1 4.071-1.692h65.855c1.245 0 2.432.395 3.434 1.141l-1.515 2.035a3.187 3.187 0 0 0-1.919-.639H82.51c-.855 0-1.664.338-2.277.95" fill="#C5C3C6"/><path d="M229.373 116.588l-.094-.093-9.767-6.32-1.378 2.13 9.524 6.163.02.021c.067.077.126.159.18.244l.025.042c.05.087.096.177.133.27l.015.043a1.858 1.858 0 0 1 .086.327c.02.108.031.218.031.33a1.928 1.928 0 0 1-.035.359 1.84 1.84 0 0 1-.097.34 2.057 2.057 0 0 1-.133.27l-.025.042a1.93 1.93 0 0 1-.18.243l-.02.022-78.086 50.526 1.378 2.13 78.218-50.61.111-.073.094-.093a4.442 4.442 0 0 0 1.12-1.854c.126-.416.19-.854.19-1.303a4.41 4.41 0 0 0-1.31-3.156M3.027 121.021l-.02-.022a2.138 2.138 0 0 1-.205-.284 1.809 1.809 0 0 1-.132-.271l-.016-.042a1.962 1.962 0 0 1-.088-.328 1.927 1.927 0 0 1 .088-.986l.016-.042c.036-.094.08-.184.132-.27l.024-.043a2.057 2.057 0 0 1 .201-.265l9.713-6.285-1.378-2.13-9.956 6.442-.095.093A4.42 4.42 0 0 0 0 119.744a4.414 4.414 0 0 0 1.311 3.157l.095.093 77.967 50.449 1.378-2.13L3.027 121.02z" fill="#C5C3C6"/><path fill="#FEFEFE" d="M218.823 127.488V1.268H12.05v126.22"/><path d="M125.219 64.813c-1.724-1.724-2.79-3.521-3.44-5.663-2.078 1.956-4.82 3.145-7.825 3.145-6.494 0-11.757-5.546-11.757-12.388s5.263-12.389 11.757-12.389c6.493 0 11.757 5.547 11.757 12.389 0 .16-.004.32-.01.48.033 6.205.674 8.639 2.836 10.864 2.63-3.772 3.71-6.626 4.015-9.559.007-.057.011-.114.017-.17.058-.624.095-1.234.092-1.819 0-10.331-8.376-18.705-18.707-18.705-10.33 0-18.706 8.374-18.706 18.705-.003.585.033 1.195.091 1.818l.018.171c.63 6.052 4.557 11.773 18.597 25.898 5.083-5.112 8.838-9.123 11.593-12.448l-.328-.33z" fill="#4C5C68"/><path d="M120.549 49.863c0 3.857-2.737 6.595-6.595 6.595-3.857 0-6.595-2.738-6.595-6.595 0-3.858 2.738-6.596 6.595-6.596 3.858 0 6.595 2.738 6.595 6.596M104.805 119.84a2.37 2.37 0 0 1-2.378 2.376c-1.293 0-2.326-1.084-2.326-2.377V86.812c0-1.293 1.033-2.378 2.326-2.378a2.372 2.372 0 0 1 2.378 2.378v33.027zM116.744 99.94a2.37 2.37 0 0 0-2.377-2.377c-1.294 0-2.327 1.084-2.327 2.377v19.899c0 1.292 1.033 2.378 2.327 2.378a2.372 2.372 0 0 0 2.377-2.378v-19.9zm-2.377-14.007c1.807 0 3.256 1.292 3.256 3.05 0 1.757-1.449 3.049-3.256 3.049-1.758 0-3.257-1.292-3.257-3.05 0-1.757 1.5-3.05 3.257-3.05zM131.731 118.34c2.43 0 4.239-1.292 4.239-3.204 0-1.758-1.396-2.637-3.206-3.05l-3.306-.775c-4.083-1.086-6.513-3.102-6.513-6.927 0-3.978 3.566-7.08 8.425-7.08 3.152 0 6.202 1.137 7.597 3.928.207.362.259.775.259 1.086 0 1.55-1.5 2.118-2.222 2.118-.672 0-1.19-.362-1.706-1.033-1.086-1.447-2.327-2.016-3.825-2.016-2.275 0-3.773 1.344-3.773 3.153 0 1.55 1.498 2.43 3.048 2.791l3.567.878c5.014 1.241 6.255 4.29 6.255 7.03 0 4.497-4.342 7.236-9.356 7.236-3.722 0-7.546-2.067-8.683-5.788-.052-.26-.103-.517-.103-.724 0-1.24 1.189-1.861 2.273-1.861.828 0 1.655.413 2.016 1.344.673 1.758 2.585 2.894 5.014 2.894M153.852 118.34c2.429 0 4.238-1.292 4.238-3.204 0-1.758-1.396-2.637-3.205-3.05l-3.307-.775c-4.083-1.086-6.513-3.102-6.513-6.927 0-3.978 3.566-7.08 8.425-7.08 3.152 0 6.203 1.137 7.598 3.928.206.362.258.775.258 1.086 0 1.55-1.5 2.118-2.222 2.118-.672 0-1.19-.362-1.706-1.033-1.086-1.447-2.327-2.016-3.825-2.016-2.275 0-3.773 1.344-3.773 3.153 0 1.55 1.498 2.43 3.048 2.791l3.568.878c5.013 1.241 6.254 4.29 6.254 7.03 0 4.497-4.341 7.236-9.355 7.236-3.723 0-7.546-2.067-8.684-5.788-.051-.26-.103-.517-.103-.724 0-1.24 1.189-1.861 2.274-1.861.827 0 1.654.413 2.015 1.344.673 1.758 2.585 2.894 5.015 2.894M80.184 117.964a8.022 8.022 0 0 1-8.022-8.023 8.022 8.022 0 0 1 8.022-8.022 8.022 8.022 0 0 1 8.022 8.022 8.022 8.022 0 0 1-8.022 8.023m12.657-8.04c0-6.99-5.668-12.657-12.657-12.657-6.99 0-12.657 5.667-12.657 12.657s5.668 12.656 12.657 12.656c3.013 0 5.78-1.055 7.952-2.813v.106c0 1.293 1.035 2.378 2.327 2.378a2.372 2.372 0 0 0 2.378-2.378v-9.932l-.002.001.002-.018" fill="#4C5C68"/><path fill="#C5C3C6" d="M220.091 127.488l-2.537 1.268V2.536H13.319v126.22l-2.536-1.268V0h209.308z"/></g></symbol></svg>